<?xml version="1.0" standalone="no"?>
<!DOCTYPE svg PUBLIC "-//W3C//DTD SVG 20010904//EN"
 "http://www.w3.org/TR/2001/REC-SVG-20010904/DTD/svg10.dtd">
<svg version="1.0" xmlns="http://www.w3.org/2000/svg"
 width="300.000000pt" height="292.000000pt" viewBox="0 0 300.000000 292.000000"
 preserveAspectRatio="xMidYMid meet">
<metadata>
Created by potrace 1.10, written by Peter Selinger 2001-2011
</metadata>
<g transform="translate(0.000000,292.000000) scale(0.100000,-0.100000)"
fill="#000000" stroke="none">
<path d="M1296 2845 c-22 -25 -48 -47 -58 -51 -28 -8 -183 -101 -196 -117 -8
-10 -6 -21 8 -45 19 -31 22 -32 85 -32 59 0 65 -2 65 -21 0 -29 -29 -63 -102
-117 l-62 -47 -14 -85 c-17 -106 -11 -172 20 -230 13 -25 32 -65 41 -88 35
-87 95 -44 187 136 l65 127 77 3 c85 3 113 -6 166 -56 24 -22 32 -39 32 -64 0
-31 -7 -38 -108 -106 -59 -39 -111 -72 -116 -72 -21 0 -144 -92 -154 -115 -23
-50 -15 -86 33 -147 44 -54 47 -56 83 -51 20 3 82 27 137 54 55 26 114 51 130
55 17 4 67 24 112 45 128 61 204 160 225 296 16 106 6 289 -19 338 -11 22 -25
76 -32 120 -9 64 -16 84 -36 102 -52 46 -133 39 -175 -15 -21 -26 -27 -86 -10
-97 15 -9 12 -25 -4 -19 -8 3 -20 19 -27 36 -7 16 -18 36 -26 44 -21 20 -67
17 -87 -5 -22 -24 -46 -17 -46 14 0 13 -5 27 -10 30 -6 4 -3 17 9 34 21 29 40
97 41 144 0 26 -1 27 -59 27 -33 0 -71 -4 -85 -10 -23 -8 -26 -7 -26 10 0 32
-23 23 -64 -25z m77 0 c12 3 50 9 85 12 56 5 62 4 62 -13 -1 -43 -23 -111 -45
-140 -21 -28 -23 -34 -10 -44 8 -7 15 -23 15 -36 0 -34 36 -41 65 -14 28 26
70 21 80 -9 9 -30 45 -71 62 -71 11 0 13 6 8 23 -19 62 -18 76 13 107 25 24
39 30 74 30 75 0 99 -33 112 -151 2 -26 14 -65 25 -87 18 -36 21 -59 21 -187
0 -158 -10 -219 -47 -278 -63 -101 -123 -144 -268 -192 -42 -14 -113 -44 -157
-67 -44 -22 -97 -42 -117 -45 -35 -5 -39 -2 -79 49 -23 31 -42 66 -42 79 1 48
44 94 130 139 98 52 270 172 270 190 0 56 -39 103 -119 145 -28 14 -48 16
-107 10 -40 -4 -77 -12 -82 -18 -11 -15 -40 -71 -88 -170 -23 -50 -49 -88 -70
-104 -33 -24 -64 -26 -64 -2 0 6 -16 44 -35 85 -30 64 -35 83 -35 148 0 61 21
184 32 190 83 44 158 119 158 159 0 27 0 27 -69 27 -61 0 -72 3 -85 22 -9 12
-16 27 -16 33 0 6 28 26 63 45 34 19 71 40 82 47 11 7 32 17 47 23 15 7 44 33
65 58 35 43 38 45 41 23 3 -18 8 -22 25 -16z"/>
</g>
</svg>
