<?xml version="1.0" standalone="no"?>
<!DOCTYPE svg PUBLIC "-//W3C//DTD SVG 20010904//EN"
 "http://www.w3.org/TR/2001/REC-SVG-20010904/DTD/svg10.dtd">
<svg version="1.0" xmlns="http://www.w3.org/2000/svg"
 width="320.000000pt" height="693.000000pt" viewBox="0 0 320.000000 693.000000"
 preserveAspectRatio="xMidYMid meet">
<metadata>
Created by potrace 1.16, written by Peter Selinger 2001-2019
</metadata>
<g transform="translate(0.000000,693.000000) scale(0.100000,-0.100000)"
fill="#000000" stroke="none">
<path d="M0 5765 c0 -641 2 -1165 5 -1165 3 0 47 31 97 68 111 82 197 132 227
132 16 0 33 -18 63 -65 33 -51 46 -64 60 -59 10 3 58 30 107 60 61 38 94 65
107 89 13 25 25 35 43 35 18 0 22 3 14 11 -7 7 -27 7 -69 0 -46 -9 -66 -19
-97 -49 -21 -20 -35 -29 -32 -19 11 27 -1 20 -24 -15 -11 -18 -21 -28 -21 -22
0 17 40 65 50 59 5 -3 12 0 16 6 7 12 -29 9 -83 -7 -17 -5 -23 -2 -23 9 0 17
78 57 114 58 11 0 41 8 66 19 34 13 41 20 28 25 -9 3 -31 -1 -48 -10 -37 -19
-54 -13 -18 6 30 17 178 48 178 38 0 -4 -25 -11 -55 -14 -52 -7 -68 -24 -22
-25 26 -1 -61 -37 -113 -47 -40 -7 -124 -43 -117 -49 2 -3 17 0 32 6 16 6 38
10 49 9 12 -1 39 6 61 16 48 21 169 26 187 6 11 -10 7 -11 -17 -5 -34 7 -24
-10 10 -19 11 -3 -3 -3 -31 0 -52 5 -52 5 -69 -31 -13 -27 -38 -49 -104 -89
-47 -28 -97 -57 -111 -63 l-24 -10 28 -25 c15 -13 34 -37 43 -52 l14 -28 19
24 c10 13 17 32 14 43 -3 14 11 31 56 67 34 27 60 51 57 53 -7 7 -98 -38 -130
-64 -19 -16 -79 -34 -72 -21 4 5 11 9 16 9 6 0 42 19 81 42 38 23 83 41 98 41
16 0 27 4 24 9 -3 4 0 8 5 8 28 0 -13 -46 -91 -105 -21 -15 -38 -32 -38 -37 0
-6 8 -4 17 3 14 12 14 9 -3 -19 -10 -18 -27 -41 -38 -50 -17 -16 -19 -16 -30
2 -6 11 -25 36 -42 55 -17 20 -52 69 -77 109 -26 39 -52 72 -58 72 -15 0 -112
-55 -172 -98 -48 -35 -50 -56 -3 -44 31 8 96 63 97 81 0 10 4 8 9 -6 11 -26
28 -29 55 -9 18 13 18 15 2 30 -29 30 -18 29 17 -1 18 -15 39 -37 46 -47 11
-17 10 -17 -14 2 l-26 20 -44 -23 -44 -23 6 21 c4 18 -2 15 -34 -15 -21 -21
-46 -38 -55 -38 -9 0 -24 -10 -32 -22 -15 -22 -15 -22 -10 -2 8 36 -24 38 -67
4 -21 -16 -43 -30 -49 -30 -6 0 -11 -7 -11 -17 0 -9 3 -13 6 -10 4 3 31 -24
61 -61 38 -46 67 -72 95 -82 34 -13 40 -13 48 0 8 13 10 12 10 -2 0 -21 -27
-23 -65 -6 -14 6 -28 9 -31 5 -7 -7 13 -45 40 -76 14 -16 16 -22 6 -19 -22 7
-62 70 -57 90 3 11 -16 40 -54 80 l-59 63 0 -37 c0 -43 37 -104 80 -131 26
-17 67 -67 61 -76 -9 -13 27 -18 45 -6 11 7 43 15 69 16 32 2 56 10 68 22 10
10 21 16 25 13 12 -13 -45 -41 -93 -46 -47 -5 -50 -7 -47 -31 3 -22 -2 -27
-40 -38 -24 -7 -71 -27 -105 -44 l-63 -31 0 -353 c0 -406 -10 -378 100 -276
72 66 114 124 132 182 7 24 21 44 31 47 11 3 84 49 163 101 172 112 222 136
334 158 47 10 93 22 103 27 26 13 30 7 38 -62 4 -36 19 -85 38 -121 17 -33 31
-65 31 -71 0 -6 16 -28 35 -49 19 -21 51 -71 70 -110 34 -66 103 -146 146
-170 35 -18 19 6 -26 39 -36 28 -48 45 -66 99 -12 36 -23 85 -24 108 -2 24
-10 66 -20 95 -9 28 -15 53 -12 56 8 8 39 -105 42 -154 5 -66 39 -153 75 -187
16 -16 32 -26 35 -23 4 3 -5 32 -18 64 -14 33 -39 100 -55 149 -17 50 -37 106
-45 125 -12 27 -37 179 -37 223 0 20 32 3 60 -34 27 -33 34 -54 42 -117 15
-123 45 -268 64 -309 10 -21 33 -59 52 -86 l34 -47 -32 -11 c-40 -14 -34 -22
8 -10 38 11 40 8 88 -90 27 -54 34 -80 30 -104 -5 -26 -2 -33 22 -47 15 -9 50
-35 79 -57 39 -32 50 -46 46 -62 -8 -30 -45 -50 -108 -58 l-57 -8 -30 49 c-16
26 -34 45 -39 42 -6 -3 -5 -11 2 -20 6 -8 7 -14 2 -14 -10 0 -53 55 -53 67 1
4 9 -2 20 -15 13 -16 21 -19 26 -11 4 7 -3 20 -17 31 -22 18 -35 19 -194 14
-226 -8 -237 -8 -330 -6 -90 3 -157 -18 -229 -70 -30 -23 -43 -27 -57 -19 -11
5 -19 14 -19 19 0 6 -14 19 -31 29 -30 19 -55 18 -95 -1 -18 -8 -34 -3 -92 32
-74 43 -183 69 -237 56 l-25 -6 0 -166 c0 -160 1 -164 19 -154 11 5 36 10 56
10 61 0 207 39 250 67 44 28 85 69 85 83 0 5 -8 15 -18 22 -25 18 -34 35 -22
43 6 4 9 3 8 -2 -2 -4 10 -20 25 -35 22 -22 33 -26 57 -21 46 9 38 -20 -15
-58 -24 -17 -43 -35 -40 -38 2 -4 -4 -7 -13 -8 -9 0 -46 -13 -81 -28 -35 -15
-119 -38 -185 -52 -67 -14 -123 -27 -125 -29 -30 -27 155 1 244 37 11 4 73 27
138 50 64 23 117 46 117 50 0 5 4 9 10 9 5 0 41 20 79 45 38 25 90 54 115 65
25 10 46 22 46 25 0 10 -62 -5 -87 -21 -12 -8 -28 -11 -36 -8 -8 3 -21 -1 -28
-9 -8 -8 -26 -20 -39 -27 -20 -10 -18 -6 9 20 21 20 41 30 52 27 10 -3 30 4
44 15 14 10 29 17 34 14 5 -4 21 -2 36 4 19 7 24 7 19 -2 -5 -8 -2 -9 12 -4
10 5 28 10 39 13 23 5 -57 -44 -95 -59 -13 -5 -63 -32 -110 -61 -103 -62 -94
-56 -88 -62 2 -3 40 17 84 43 89 54 237 117 256 109 8 -4 7 -6 -4 -6 -31 -2
-212 -86 -248 -116 -8 -7 -26 -16 -39 -20 -14 -4 -46 -27 -72 -52 -80 -75
-113 -203 -118 -458 -3 -172 27 -320 77 -373 38 -41 80 -34 127 21 19 22 37
38 41 35 3 -3 -12 -24 -34 -47 -37 -39 -60 -48 -112 -42 -69 8 -118 218 -107
460 9 181 20 246 62 344 5 13 2 17 -14 17 -15 0 -21 -7 -22 -22 0 -22 -1 -22
-8 -3 -9 23 3 35 35 35 11 0 36 16 55 36 32 34 33 36 9 29 -14 -4 -45 -17 -70
-28 -25 -12 -49 -22 -55 -22 -23 -2 -55 -17 -55 -26 0 -14 -101 -178 -114
-186 -12 -8 36 77 69 122 31 43 38 65 19 65 -8 0 -12 -5 -9 -11 4 -6 -2 -20
-12 -32 -19 -22 -83 -130 -151 -257 -20 -36 -45 -81 -56 -100 -35 -58 -50 -90
-44 -96 3 -3 29 39 58 93 30 54 61 112 70 128 9 17 22 41 29 53 7 13 15 22 17
19 3 -3 -18 -47 -47 -98 -93 -167 -126 -237 -127 -268 0 -19 3 -29 9 -25 6 3
7 19 4 34 -4 17 -2 31 5 35 9 5 10 1 6 -16 -7 -23 -7 -23 8 -5 18 22 21 40 6
31 -6 -4 -7 1 -3 11 5 13 8 14 11 5 3 -8 11 -2 23 16 25 38 24 54 -2 23 -14
-17 -12 -9 8 27 16 29 40 65 53 80 29 32 40 51 71 113 79 164 112 227 125 240
8 8 -13 -39 -46 -105 -33 -66 -60 -124 -60 -128 0 -7 -18 -36 -102 -160 -26
-38 -26 -41 -10 -54 9 -8 12 -12 5 -9 -17 9 -85 -121 -78 -147 5 -16 4 -18 -3
-8 -14 19 -34 -20 -30 -57 3 -27 4 -26 33 17 17 24 37 51 45 60 25 28 50 70
50 84 0 8 11 40 25 71 14 31 25 63 25 71 0 8 11 26 25 41 14 15 25 23 25 19 0
-5 -8 -17 -17 -27 -15 -17 -31 -53 -63 -148 -17 -48 -43 -104 -52 -111 -5 -3
-28 -34 -53 -69 l-45 -64 0 -1073 0 -1073 1600 0 1600 0 0 1555 c0 1030 -3
1555 -10 1555 -5 0 -10 8 -10 18 0 15 2 15 11 2 6 -8 9 -10 7 -4 -4 13 -170
163 -251 227 -33 26 -55 47 -48 47 16 0 84 -54 195 -157 50 -46 95 -83 100
-83 6 1 -18 28 -54 62 -64 60 -64 60 -8 14 31 -25 59 -46 62 -46 3 0 6 43 6
95 0 67 -4 95 -12 95 -9 0 -9 3 0 12 7 7 12 19 12 27 0 21 -45 -23 -68 -67
-25 -48 -44 -59 -76 -44 -23 10 -25 14 -14 31 6 11 24 21 39 23 16 3 26 1 23
-4 -3 -4 -13 -8 -24 -8 -24 0 -35 -29 -13 -37 17 -7 63 40 63 63 0 7 16 26 35
43 l35 30 0 327 0 326 -40 -4 c-22 -2 -40 0 -40 4 0 8 14 11 41 9 23 -3 32 27
11 38 -17 8 -121 -1 -140 -13 -6 -3 -45 -11 -88 -17 -101 -14 -141 -31 -185
-79 -24 -26 -45 -40 -62 -40 -42 0 -46 -16 -41 -165 2 -76 2 -136 -1 -134 -3
3 -7 69 -10 148 l-5 142 28 10 c54 21 77 35 77 47 0 7 -4 11 -10 10 -5 -1 -9
-8 -7 -15 2 -7 -2 -13 -8 -13 -6 0 -8 5 -4 12 5 8 2 9 -11 4 -18 -6 -18 -6 -2
12 9 10 14 21 11 25 -3 3 3 3 15 0 12 -3 21 -10 21 -16 0 -5 8 -3 18 5 31 26
95 47 176 58 43 5 82 13 88 16 19 12 124 21 146 13 16 -6 22 -5 22 6 0 8 -8
15 -17 16 -15 0 -15 2 2 9 16 7 13 9 -16 9 -19 1 -40 -4 -47 -11 -7 -7 -30
-11 -51 -9 -22 1 -44 -3 -52 -11 -8 -8 -43 -14 -84 -15 -38 -2 -94 -10 -123
-19 -45 -15 -60 -15 -88 -5 -19 7 -39 9 -45 5 -8 -4 -9 -3 -5 5 4 6 0 14 -11
17 -41 13 -63 28 -63 43 0 11 4 9 16 -7 8 -12 24 -22 34 -22 11 0 34 -9 52
-20 39 -24 59 -25 114 -5 23 8 74 16 113 19 39 3 80 10 91 16 10 5 37 10 59
10 22 0 43 5 46 10 3 6 22 10 41 10 l34 0 0 70 0 70 -57 0 c-75 0 -273 20
-298 30 -21 8 10 6 149 -11 44 -5 108 -9 143 -9 l63 0 0 125 c0 112 -2 125
-17 126 -15 0 -15 2 2 8 36 15 -58 32 -219 41 -92 5 -186 16 -240 29 -51 12
-123 21 -167 21 -42 0 -89 4 -105 9 -16 5 -51 12 -77 16 -27 4 -47 9 -44 11 2
3 31 0 63 -6 33 -6 113 -15 179 -20 66 -5 155 -18 199 -29 49 -13 111 -21 165
-21 88 -1 212 -14 244 -26 16 -6 17 5 17 132 l0 139 -110 -9 c-95 -8 -115 -7
-145 7 -34 16 -46 12 -24 -10 7 -7 3 -9 -15 -6 -14 3 -26 9 -26 14 0 5 -8 5
-17 0 -29 -16 -123 -39 -188 -46 -98 -11 -179 -26 -192 -37 -16 -13 -53 0 -53
18 0 9 -5 12 -12 8 -6 -4 -8 -3 -5 3 8 12 -87 136 -96 126 -3 -3 14 -35 38
-70 25 -36 45 -76 45 -88 0 -27 28 -40 62 -30 16 4 19 3 10 -3 -20 -13 29 -24
76 -17 36 5 36 5 7 -5 -30 -11 -127 3 -151 22 -12 9 -90 -30 -93 -47 -1 -5 22
-15 51 -22 l53 -12 -55 6 c-30 3 -57 9 -60 13 -3 4 -20 -3 -39 -16 -40 -27
-38 -29 71 -48 67 -11 81 -11 98 1 18 12 19 17 8 31 -12 14 -11 14 10 1 l23
-14 -28 -23 c-19 -15 -36 -21 -53 -17 -14 3 -43 7 -65 10 -58 9 -105 25 -105
37 0 6 8 17 17 24 16 12 17 13 1 14 -14 0 -15 5 -6 37 8 30 6 44 -12 82 -12
27 -34 54 -51 64 -29 16 -30 16 -25 -1 2 -9 7 -44 11 -77 8 -69 14 -82 27 -64
7 10 8 8 3 -6 -4 -11 -10 -33 -14 -49 -4 -16 -12 -31 -18 -33 -14 -5 -33 78
-34 150 -1 29 -4 64 -8 79 -8 33 -61 98 -81 99 -9 0 -10 2 -3 5 6 3 23 -2 37
-12 30 -19 34 -10 9 20 -18 21 -18 21 3 4 39 -33 38 -18 -1 22 -21 21 -42 37
-47 34 -4 -3 -5 -10 -2 -16 4 -7 2 -8 -5 -4 -8 6 -9 12 -2 20 6 7 7 17 3 21
-4 5 6 -1 22 -13 16 -12 34 -22 40 -22 6 0 0 9 -14 20 -21 16 -23 21 -11 32 8
7 11 8 8 2 -8 -14 27 -47 38 -37 4 5 5 3 2 -3 -4 -7 -1 -17 7 -23 11 -9 15 -9
20 1 4 9 5 8 3 -2 -3 -19 63 -101 75 -94 5 4 -1 18 -14 33 l-23 26 27 -24 c21
-19 25 -27 17 -38 -13 -14 -27 -8 -48 20 -29 41 -74 88 -79 83 -2 -3 9 -21 27
-41 24 -28 29 -40 22 -54 -8 -14 -4 -22 19 -39 16 -12 33 -22 37 -22 15 0 63
-114 53 -124 -13 -13 -13 -43 1 -51 6 -4 20 2 32 13 12 11 41 29 65 41 23 12
42 27 42 35 0 26 -134 206 -145 194 -3 -3 4 -16 15 -31 11 -14 20 -30 20 -35
0 -6 3 -12 7 -14 15 -6 43 -66 43 -91 0 -84 -49 -68 -55 18 -1 6 -7 21 -14 35
l-14 25 22 -19 c12 -11 20 -25 18 -30 -2 -6 1 -27 8 -46 l13 -35 7 28 c10 36
-8 77 -67 155 -26 35 -48 66 -48 69 0 8 -29 30 -70 52 -19 11 -60 43 -90 73
-30 29 -68 59 -85 66 l-30 12 28 -5 c16 -3 64 -37 109 -75 44 -39 85 -70 92
-70 17 -1 53 -34 60 -57 5 -15 12 -19 27 -16 15 4 28 -2 43 -22 13 -16 25 -24
29 -18 4 6 -15 31 -41 55 -26 25 -65 67 -87 93 -29 35 -60 57 -110 80 -127 58
-137 60 -231 60 -79 -1 -98 -4 -143 -28 -55 -28 -81 -34 -81 -17 0 24 -47 8
-77 -27 -28 -34 -34 -37 -52 -25 -28 16 -36 15 -21 -3 7 -9 11 -16 9 -18 -2
-1 -26 -13 -53 -27 -87 -43 -153 -113 -202 -214 -25 -50 -57 -102 -71 -116
-22 -21 -24 -22 -15 -4 6 11 18 26 26 33 9 8 14 17 11 21 -3 5 -1 12 5 15 6 4
26 39 44 78 19 40 50 87 69 106 20 19 33 39 30 44 -4 6 -1 7 6 3 7 -5 20 -1
30 8 10 9 35 25 56 35 35 17 37 19 17 25 -28 9 -109 -33 -90 -46 10 -7 9 -8
-2 -7 -16 3 -52 -13 -140 -61 -30 -17 -59 -29 -63 -27 -5 1 15 15 44 30 58 29
66 34 147 85 29 18 74 40 100 49 26 9 54 22 63 29 8 8 24 14 35 14 11 0 24 4
29 9 6 5 30 11 54 14 28 3 40 2 31 -3 -32 -20 0 -19 38 0 22 12 70 26 106 32
89 15 171 0 283 -50 86 -39 116 -44 92 -16 -6 7 -15 11 -20 8 -5 -3 -6 1 -3 9
3 8 -24 39 -69 80 -91 81 -148 187 -102 187 8 0 15 -5 15 -11 0 -20 41 -79 51
-74 5 4 1 17 -8 31 -13 20 -14 27 -4 33 9 6 2 14 -22 29 -27 15 -38 17 -48 9
-11 -10 -11 -9 -1 4 10 13 7 18 -13 29 -14 7 -25 17 -25 22 0 11 7 7 88 -51
38 -28 57 -48 50 -52 -6 -4 -8 -14 -3 -25 5 -13 9 -15 12 -7 3 9 10 10 23 3
10 -6 21 -6 24 -2 6 11 -30 45 -102 96 -29 21 -51 40 -48 43 5 5 91 -54 148
-101 20 -17 72 -57 116 -90 70 -51 172 -153 172 -171 0 -13 -56 -55 -88 -66
-30 -10 -38 -8 -83 19 -87 55 -66 16 65 -118 67 -69 146 -168 157 -197 9 -23
33 -31 43 -14 6 9 90 25 191 36 33 4 89 15 125 24 l65 19 -2 43 c-3 63 -53
154 -127 231 -68 72 -103 88 -141 68 -16 -8 -37 -10 -62 -5 -39 7 -52 8 -92 3
-14 -2 -26 3 -29 12 -3 12 -2 12 8 3 8 -7 21 -9 35 -3 12 5 39 4 64 -3 32 -9
46 -8 61 1 53 32 104 7 192 -94 58 -68 92 -137 104 -214 7 -45 19 -58 28 -33
4 9 1 20 -6 25 -9 5 -10 8 -1 8 7 0 25 -12 40 -26 28 -26 29 -26 138 -19 60 3
113 9 117 11 4 3 8 59 8 125 l0 119 -117 2 -118 2 120 6 c123 5 128 16 10 23
-37 3 -28 4 23 3 l82 -1 0 30 c0 26 -5 32 -40 43 -22 6 -48 12 -57 12 -10 0
-25 4 -33 10 -10 6 2 8 37 7 28 -1 50 -6 50 -12 -1 -5 8 -11 21 -13 33 -5 28
26 -5 33 -16 3 -41 13 -58 21 -31 15 -82 8 -110 -16 -16 -14 -136 -43 -143
-35 -3 3 2 5 11 5 10 0 17 4 17 10 0 5 6 7 13 4 8 -3 33 2 55 11 95 35 118 43
147 49 20 4 25 3 16 -3 -11 -7 -10 -11 5 -19 11 -5 31 -12 47 -16 26 -6 27 -5
27 29 0 42 -4 42 -147 19 -63 -10 -123 -27 -174 -51 l-78 -35 -22 20 c-15 15
-20 29 -17 46 4 17 0 26 -11 29 -11 3 -9 5 6 6 12 1 31 15 44 34 13 17 32 41
44 52 12 12 20 26 18 32 -3 7 1 22 8 35 8 13 13 26 12 29 -1 3 4 6 11 6 19 0
185 136 179 146 -3 5 -19 -4 -37 -20 -126 -117 -191 -146 -145 -63 12 22 25
38 27 35 2 -2 -6 -20 -18 -39 -12 -20 -17 -36 -11 -36 6 0 11 5 11 12 0 6 3 8
6 5 4 -4 23 8 44 26 20 17 50 43 66 57 16 14 42 36 57 49 15 13 27 20 26 15
-4 -21 2 -25 18 -13 14 11 14 9 -2 -11 -10 -14 -58 -57 -105 -95 -48 -39 -85
-74 -82 -80 3 -5 1 -7 -3 -2 -10 9 -55 -31 -55 -50 0 -7 5 -13 11 -13 5 0 7 6
3 13 -4 6 -4 9 1 5 4 -4 24 1 44 11 20 11 56 24 81 31 25 7 40 14 35 17 -6 2
-32 -3 -58 -11 -26 -8 -45 -10 -42 -6 3 5 31 14 63 20 31 7 65 16 75 21 9 5
17 5 17 1 0 -5 -10 -14 -22 -20 -17 -8 -19 -11 -6 -11 9 -1 23 6 32 14 9 9 17
11 21 5 6 -10 -34 -30 -62 -30 -29 0 -98 -24 -135 -47 -21 -13 -41 -23 -46
-23 -17 0 -94 -99 -86 -111 3 -5 0 -8 -6 -7 -16 4 -23 -39 -8 -48 8 -5 9 -2 5
9 -3 9 -2 19 3 22 6 4 10 1 10 -6 0 -8 5 -8 18 2 9 7 7 2 -6 -13 -13 -14 -20
-28 -15 -31 5 -3 44 10 88 29 58 26 110 40 197 52 99 14 118 20 118 34 0 13
-8 18 -27 19 l-28 1 30 9 c33 9 -119 2 -170 -8 -27 -5 -28 -7 -10 -14 14 -7
11 -7 -12 -3 -22 4 -46 -2 -82 -21 -28 -14 -51 -22 -51 -18 0 5 -4 2 -9 -5 -6
-11 -9 -9 -13 6 -4 14 -2 19 7 16 7 -3 15 3 18 13 4 16 5 16 6 1 1 -22 3 -22
43 0 44 24 115 40 216 48 l82 6 0 729 0 729 -1600 0 -1600 0 0 -1165z m2773
119 c-97 -159 -132 -260 -133 -376 0 -60 15 -83 35 -54 13 17 39 139 51 241
l8 60 8 -50 c4 -27 3 -104 -2 -169 -6 -65 -9 -120 -8 -121 2 -2 13 1 25 6 15
5 21 14 17 24 -5 13 -9 13 -22 3 -13 -11 -13 -8 1 19 9 17 14 40 11 50 -5 14
-4 15 4 4 8 -11 12 -10 21 7 15 27 14 29 -9 35 -11 3 -20 10 -20 16 0 7 10 5
25 -5 14 -9 25 -12 25 -7 0 6 14 28 31 49 16 21 55 89 85 152 31 63 58 112 60
109 8 -7 -111 -244 -140 -278 -18 -21 -25 -38 -21 -53 5 -17 4 -18 -4 -6 -6 8
-11 11 -12 5 -1 -5 -3 -19 -4 -30 -1 -12 -7 -30 -14 -42 -14 -27 -14 -36 0
-28 6 4 5 -2 -3 -14 -12 -20 -18 -22 -50 -25 -7 -1 -17 -5 -21 -11 -5 -6 -6
-2 -3 9 10 28 28 267 22 274 -3 3 -6 -9 -6 -26 0 -41 -38 -202 -51 -219 -8 -9
-16 -10 -30 -2 -16 8 -19 21 -19 72 1 74 12 130 46 217 36 92 130 257 140 247
3 -2 -17 -40 -43 -83z m-1162 -688 c12 -13 31 -27 43 -30 25 -6 77 -92 69
-113 -9 -25 98 -167 109 -146 3 4 3 2 1 -5 -5 -22 8 -36 19 -21 7 11 8 11 6
-1 -2 -17 31 -84 39 -77 2 3 0 15 -7 26 -6 12 -9 25 -7 29 9 14 -170 308 -202
332 -24 17 -24 19 -4 13 12 -3 28 -11 34 -19 6 -8 19 -14 29 -14 9 0 46 -31
82 -68 48 -49 69 -80 78 -112 7 -25 19 -63 27 -85 40 -105 81 -237 88 -276 3
-24 9 -53 12 -63 5 -16 3 -17 -10 -5 -8 8 -12 19 -10 26 8 21 -18 124 -29 117
-7 -4 -8 -2 -4 5 4 6 -4 47 -19 91 -24 72 -28 79 -46 70 -10 -6 -19 -15 -19
-21 0 -6 4 -7 10 -4 5 3 7 0 4 -9 -3 -8 3 -23 14 -34 11 -11 18 -23 15 -25 -2
-3 3 -19 12 -36 9 -18 13 -36 10 -41 -3 -5 3 -42 14 -82 22 -84 54 -259 47
-265 -2 -2 -10 29 -16 69 -16 90 -47 229 -54 235 -3 3 -8 -7 -12 -22 -4 -18
-2 -30 7 -37 12 -8 11 -9 -1 -5 -8 2 -19 19 -23 38 -18 68 -29 91 -39 77 -7
-10 -9 -10 -7 2 3 33 -1 51 -12 44 -12 -7 -3 -73 12 -88 5 -6 9 -17 9 -25 -1
-32 -32 43 -34 79 0 21 -4 36 -8 33 -5 -2 -8 1 -8 6 0 17 38 13 48 -5 14 -25
25 1 12 26 -10 18 -14 19 -28 8 -15 -12 -16 -11 -4 4 11 13 11 22 2 39 -12 21
-12 21 -31 2 -19 -18 -19 -22 -4 -84 8 -35 14 -82 13 -104 -1 -40 -1 -40 -5
-5 -2 19 -11 69 -19 110 -12 53 -13 75 -5 78 6 2 11 8 11 13 0 6 -4 8 -8 5 -4
-2 -9 5 -9 17 -2 20 -1 20 8 5 6 -10 15 -18 20 -18 6 0 -4 20 -22 45 -36 50
-47 52 -30 4 6 -17 8 -35 5 -40 -3 -6 4 -55 16 -110 12 -55 20 -102 18 -104
-7 -8 -50 195 -45 209 7 17 -14 90 -42 143 -11 22 -19 49 -18 60 2 27 -42 91
-68 99 -22 7 -79 64 -64 64 5 0 19 -11 30 -24z m-388 -177 c18 -20 18 -21 0
-15 -24 7 -29 2 -85 -71 -85 -112 -136 -231 -174 -408 -31 -147 -25 -137 -120
-186 -48 -24 -95 -52 -106 -61 -10 -10 -27 -18 -38 -18 -11 0 -20 -4 -20 -10
0 -23 -29 -7 -41 23 -7 17 -25 59 -41 92 -16 33 -26 66 -23 73 3 8 -4 26 -15
42 -11 15 -20 33 -20 39 0 12 149 159 200 196 35 26 60 32 60 15 0 -5 -19 -40
-41 -77 -23 -38 -43 -71 -46 -75 -2 -5 3 -8 12 -8 9 0 13 5 10 10 -4 6 -1 9 6
8 7 -2 15 6 17 17 2 11 7 24 12 28 4 5 5 -3 3 -17 -3 -14 -3 -26 1 -26 10 0
43 73 50 110 26 130 52 231 69 265 11 22 19 42 18 45 -1 3 -15 3 -32 1 -17 -1
-29 1 -26 6 5 7 26 8 70 4 13 -2 8 -21 -17 -59 -14 -22 -33 -80 -46 -142 -36
-169 -48 -204 -87 -258 -21 -29 -42 -52 -47 -52 -5 0 -3 6 3 14 10 11 7 17
-10 29 -25 18 -26 17 44 125 16 24 26 46 24 48 -8 9 -108 -77 -101 -87 4 -6
11 -6 20 2 8 6 2 -9 -12 -35 -14 -25 -30 -47 -35 -47 -5 -1 -15 -2 -21 -3 -7
-1 -12 -7 -10 -14 1 -7 -2 -12 -8 -12 -5 0 -10 5 -10 10 0 18 24 37 41 33 11
-3 20 5 27 25 12 36 7 45 -19 29 -23 -14 -25 -32 -3 -23 9 3 12 2 9 -5 -4 -6
-12 -8 -19 -6 -6 3 -31 -12 -55 -33 l-44 -38 22 -31 c12 -17 21 -39 19 -50 -4
-23 62 -172 74 -165 4 3 5 -3 1 -13 -5 -15 -3 -16 8 -5 7 6 21 12 30 12 9 0
22 7 29 15 15 18 10 18 -25 5 -16 -6 -24 -6 -20 0 3 5 22 12 43 16 40 7 182
78 194 97 4 6 14 45 23 87 43 196 108 358 179 445 l36 43 -35 16 c-33 16 -47
36 -24 36 5 0 7 -4 4 -10 -3 -5 2 -10 11 -10 10 0 26 -7 36 -17 16 -14 18 -14
18 -1 0 9 9 18 21 21 12 3 18 10 14 16 -10 18 -1 12 18 -10z m300 -34 l6 -30
-12 28 c-15 38 -43 32 -38 -8 4 -41 10 -48 28 -33 13 10 18 8 34 -11 11 -13
19 -29 19 -36 0 -7 6 -15 14 -18 17 -7 52 -80 60 -127 5 -27 3 -31 -5 -20 -8
12 -9 9 -5 -12 4 -15 1 -30 -5 -34 -17 -10 -4 -115 24 -200 24 -74 25 -94 1
-94 -8 0 -14 -5 -14 -10 0 -6 -10 -24 -22 -41 -22 -29 -22 -31 -5 -43 9 -7 17
-22 17 -32 1 -26 49 -61 60 -44 11 17 41 5 34 -14 -4 -10 4 -16 26 -21 17 -4
34 -13 37 -21 3 -9 21 -14 53 -14 26 0 61 -5 78 -11 28 -10 31 -14 24 -37 -4
-15 -6 -49 -6 -77 l2 -50 -13 45 c-7 25 -16 54 -20 65 -6 19 -6 19 8 2 14 -16
15 -16 19 8 7 32 0 36 -75 43 -39 3 -72 13 -89 25 -17 13 -33 17 -45 12 -17
-7 -16 -8 5 -18 12 -5 22 -14 22 -20 0 -5 8 -6 18 -2 13 5 14 4 5 -6 -10 -10
-16 -9 -32 5 -10 9 -31 19 -46 22 -16 3 -48 16 -72 30 -34 21 -43 31 -43 54 0
15 -11 48 -25 72 -18 33 -26 64 -29 114 -2 38 -5 80 -6 94 -2 24 -3 23 -10 -5
-5 -20 -7 3 -7 65 1 71 2 78 4 30 3 -45 7 -60 13 -50 7 11 10 2 11 -30 5 -143
8 -162 33 -207 14 -25 26 -58 26 -73 0 -34 47 -71 61 -49 10 16 -29 51 -45 42
-5 -3 -7 6 -4 21 3 14 1 29 -4 32 -5 3 -6 14 -3 24 4 11 -4 28 -20 45 -20 23
-25 37 -24 79 1 28 -2 69 -5 91 -5 34 -5 36 4 15 6 -13 11 -52 11 -84 1 -72
30 -126 56 -105 9 8 12 22 9 38 -4 14 -9 49 -12 76 -3 28 -11 56 -16 63 -7 8
-7 12 1 12 12 0 19 -25 24 -80 4 -42 21 -75 34 -67 7 4 1 34 -14 79 -26 76
-32 160 -20 253 7 55 5 61 -57 151 -33 48 -40 54 -48 40 -7 -13 -5 -23 8 -37
9 -10 12 -19 7 -19 -6 0 -14 7 -17 16 -9 24 -19 10 -11 -15 3 -12 13 -21 20
-21 8 0 17 -4 20 -10 4 -6 -1 -7 -11 -3 -14 5 -16 3 -11 -11 4 -10 7 -31 7
-47 0 -22 4 -27 18 -23 15 5 15 4 -2 -10 -10 -8 -23 -13 -27 -10 -11 6 -11 6
0 -32 8 -28 7 -31 -9 -27 -23 6 -40 45 -40 93 0 39 -14 61 -23 38 -4 -9 -6
-10 -6 -1 -1 19 20 27 30 12 5 -8 9 -30 9 -49 0 -19 7 -46 15 -60 15 -27 21
-10 6 18 -12 24 -23 141 -11 122 5 -8 10 -37 10 -64 0 -39 3 -47 12 -38 9 9 9
24 -1 64 -7 29 -14 67 -15 83 -1 17 -5 37 -8 45 -20 48 -18 70 4 79 27 11 34
5 41 -34z m-170 -435 c-5 -179 -5 -186 16 -207 12 -13 27 -23 33 -23 19 0 79
-51 87 -74 9 -23 -10 -195 -29 -267 l-12 -43 51 -48 c28 -26 56 -48 61 -48 5
0 22 12 37 26 23 22 34 25 68 20 85 -13 90 -12 93 12 4 26 -16 82 -28 82 -4 0
-11 7 -14 16 -6 14 -4 15 9 4 39 -32 58 -107 33 -128 -18 -14 -128 -31 -134
-21 -3 5 13 9 36 9 25 0 39 4 35 10 -12 19 -62 10 -89 -15 -15 -14 -35 -25
-46 -25 -10 0 -42 23 -70 50 -42 40 -51 55 -46 73 13 47 36 194 38 244 3 57
-12 76 -84 110 -60 30 -64 43 -56 205 4 79 6 197 4 263 -4 108 -4 112 4 40 5
-44 6 -163 3 -265z m-432 -279 c-6 -36 -15 -88 -19 -115 -7 -48 -8 -49 -55
-61 -27 -7 -53 -17 -60 -24 -16 -16 -37 -14 -37 4 0 8 -11 22 -25 31 -14 9
-31 26 -37 38 -7 15 0 11 24 -11 19 -18 37 -33 41 -33 4 0 7 15 7 33 0 30 4
35 50 55 28 12 57 22 65 22 7 0 17 5 21 11 5 9 -2 10 -22 6 -28 -6 -28 -6 4 8
17 8 32 20 32 25 0 14 -4 13 -42 -9 -18 -10 -50 -22 -70 -25 -21 -4 -40 -12
-44 -18 -5 -7 -1 -9 12 -5 51 16 65 16 29 1 -22 -10 -43 -22 -47 -28 -4 -6 -8
1 -8 16 0 31 9 38 53 45 18 2 52 15 77 27 40 21 45 28 49 62 2 22 6 33 9 25 2
-8 -1 -44 -7 -80z m1404 -368 l7 -132 -52 -102 c-28 -56 -65 -122 -81 -146
-50 -72 -250 -269 -299 -293 -60 -31 -165 -38 -245 -17 -92 24 -195 85 -214
127 -24 51 -52 92 -83 118 -16 13 -28 30 -28 37 0 7 -4 15 -8 17 -4 2 -18 19
-31 38 l-24 35 36 -39 c21 -21 37 -41 37 -45 0 -3 23 -30 50 -60 27 -30 52
-67 55 -83 7 -31 60 -70 160 -119 43 -20 65 -24 150 -24 79 0 107 4 135 19 42
23 255 236 297 297 17 24 54 89 83 144 l53 100 -10 140 c-6 77 -13 149 -17
160 -3 11 0 7 8 -10 8 -17 17 -83 21 -162z m301 136 c1 -33 -2 -46 -8 -37 -6
8 -7 3 -4 -17 3 -16 8 -97 11 -180 3 -82 9 -153 14 -158 18 -18 334 33 397 64
11 6 36 9 55 6 32 -4 32 -4 -8 -5 -23 -1 -44 -6 -47 -11 -3 -5 16 -7 42 -5
l47 3 -40 -9 c-22 -4 -67 -18 -101 -30 -33 -11 -123 -28 -200 -38 -138 -17
-139 -17 -136 -42 3 -30 45 -67 92 -80 39 -11 67 -27 60 -34 -3 -2 -39 12 -80
32 -60 30 -76 42 -82 65 -4 16 -5 34 -2 41 3 8 57 18 147 29 78 9 167 25 197
36 64 23 47 28 -22 7 -26 -8 -108 -22 -184 -31 -108 -13 -138 -14 -144 -4 -7
10 -17 155 -22 324 -2 71 2 125 10 125 4 0 7 -23 8 -51z m-97 -990 c11 -29 21
-63 21 -78 0 -30 34 -59 44 -38 3 7 4 3 1 -9 -3 -12 3 -31 15 -47 11 -14 20
-38 20 -54 0 -15 5 -35 10 -43 8 -12 10 -10 10 8 0 44 34 152 47 152 7 0 13
-6 13 -14 0 -7 7 -27 15 -42 8 -16 15 -42 15 -57 0 -17 4 -26 11 -22 6 4 8 13
5 21 -3 8 -1 14 4 14 4 0 14 -17 20 -37 7 -21 22 -60 35 -88 12 -27 28 -65 35
-82 14 -37 16 -38 53 -20 33 15 33 22 3 61 -27 36 -90 166 -83 172 3 3 19 -26
37 -63 18 -37 43 -84 56 -103 43 -62 32 -73 -100 -106 -38 -9 -90 -31 -116
-48 -25 -17 -68 -42 -93 -56 -26 -13 -47 -28 -47 -32 0 -4 -28 -22 -62 -39
-77 -38 -119 -72 -135 -108 -12 -25 -12 -25 -13 -3 0 31 50 76 133 118 37 19
67 38 67 42 0 5 21 19 46 31 25 13 68 38 95 55 27 18 73 38 104 45 30 7 55 16
55 21 0 21 -89 210 -95 201 -3 -6 -3 -21 0 -34 6 -16 4 -19 -4 -11 -7 6 -15
33 -20 60 -5 27 -15 64 -23 82 l-15 34 -12 -44 c-6 -23 -15 -61 -19 -82 -4
-22 -13 -41 -19 -43 -10 -4 -23 27 -23 59 0 20 -58 108 -71 108 -5 0 -9 18 -9
39 0 22 -5 43 -10 46 -7 4 -8 -8 -4 -37 4 -24 4 -40 0 -37 -4 3 -8 34 -10 69
-2 34 -8 66 -13 71 -14 14 -60 -9 -66 -32 -6 -21 -37 -25 -54 -8 -21 21 -59 0
-143 -75 -45 -41 -99 -83 -119 -92 -42 -20 -183 -42 -331 -50 -120 -7 -130
-13 -130 -83 0 -32 -12 -68 -40 -126 -32 -67 -54 -96 -116 -154 -42 -39 -81
-71 -87 -71 -6 0 27 34 72 76 67 63 88 90 121 158 28 58 40 96 41 134 2 29 7
56 13 61 6 5 61 11 121 15 61 3 154 12 208 20 110 15 139 31 242 126 85 79
113 93 149 74 27 -13 30 -12 56 16 42 45 63 40 89 -21z m-114 -79 c14 0 29 -9
35 -20 6 -11 15 -18 21 -15 5 4 9 2 9 -3 0 -12 -62 -24 -83 -16 -35 13 -177
-97 -157 -121 7 -8 7 -21 1 -36 -11 -31 -56 -79 -73 -79 -7 0 -1 10 13 23 37
30 60 70 50 85 -5 9 -26 -6 -70 -50 -66 -66 -73 -58 -9 10 21 22 34 42 30 45
-4 2 -2 3 4 1 18 -4 59 45 56 66 -3 22 44 60 103 82 32 13 40 21 38 39 -1 15
0 17 3 7 3 -11 15 -18 29 -18z m-875 -120 c0 -24 -33 -86 -66 -127 -20 -24
-32 -48 -28 -54 4 -7 3 -9 -3 -6 -5 4 -34 -14 -63 -39 -30 -25 -88 -62 -129
-82 -105 -51 -158 -107 -223 -240 -110 -220 -160 -371 -224 -677 -18 -88 -33
-150 -33 -137 -1 32 64 332 95 439 61 210 181 468 253 542 27 28 45 51 38 51
-22 0 -104 -102 -139 -173 -110 -223 -173 -413 -237 -722 -17 -77 -30 -130
-30 -118 -1 13 17 107 40 210 39 179 89 350 129 438 10 22 30 69 45 105 74
176 126 239 254 305 66 34 106 64 168 127 45 45 92 101 105 125 21 39 48 58
48 33z m75 -121 c-5 -15 -4 -19 4 -15 6 4 11 3 11 -2 0 -17 -31 -84 -36 -79
-3 3 1 18 9 34 12 23 13 30 1 41 -15 13 -34 16 -34 4 0 -4 -15 -15 -33 -25
-18 -10 -51 -41 -73 -69 -21 -28 -60 -76 -85 -107 l-45 -56 35 -34 c42 -43 96
-71 134 -71 101 0 177 -56 177 -131 l0 -41 -19 23 -18 23 -5 -37 c-4 -35 -2
-37 30 -43 73 -14 187 -64 212 -93 23 -26 27 -28 44 -15 14 9 47 14 104 14
116 0 167 26 267 136 41 45 79 93 84 106 9 22 10 22 10 2 1 -13 -30 -56 -76
-108 -103 -118 -157 -146 -278 -146 -60 0 -93 -5 -109 -15 -21 -14 -25 -13
-57 18 -35 34 -141 80 -212 93 -34 6 -38 9 -33 30 5 17 2 24 -9 24 -8 0 -15 7
-15 15 0 8 6 15 14 15 7 0 16 9 19 21 4 15 2 19 -9 15 -7 -3 -18 3 -24 14 -8
15 -8 20 3 20 17 0 49 -34 41 -43 -4 -3 1 -13 10 -22 31 -32 18 22 -15 59 -31
36 -79 56 -135 56 -43 0 -106 30 -141 66 -15 16 -40 38 -56 49 -15 11 -30 28
-33 38 -6 19 11 47 30 47 6 0 3 -5 -6 -11 -23 -13 -23 -32 1 -53 18 -17 21
-15 68 42 26 33 66 82 87 110 21 27 57 61 80 73 23 13 50 29 61 35 28 16 27
17 20 -7z m60 -749 c4 -6 1 -9 -7 -8 -8 2 -13 -6 -12 -19 0 -12 -3 -20 -8 -17
-10 7 -10 1 2 -30 6 -17 6 -26 0 -26 -6 0 -10 10 -11 23 0 21 -1 21 -9 2 -5
-11 -9 -35 -9 -53 -1 -31 0 -32 22 -20 12 7 28 11 35 9 8 -1 20 3 28 10 18 15
28 6 29 -29 0 -20 6 -28 23 -30 18 -3 22 1 22 22 0 14 -4 26 -9 26 -5 0 -7
-10 -4 -21 4 -15 2 -20 -6 -18 -7 3 -12 8 -12 12 1 4 1 19 1 35 0 19 3 23 9
13 6 -9 11 -10 15 -2 9 14 -2 33 -15 26 -5 -4 -9 5 -9 19 0 29 33 44 56 25 8
-7 32 -16 52 -20 35 -6 35 -7 7 -8 -17 0 -41 6 -53 15 -13 9 -26 14 -29 11 -2
-3 7 -13 21 -23 21 -13 40 -16 89 -11 37 3 54 1 42 -3 -11 -5 -41 -9 -67 -9
-44 -1 -64 -14 -36 -23 14 -5 2 -28 -15 -28 -7 0 -6 4 3 10 13 8 12 10 -3 10
-15 0 -16 3 -7 20 7 12 7 20 1 20 -16 0 -24 -20 -25 -64 -1 -40 -2 -41 -39
-42 -21 -1 -40 3 -44 9 -3 6 -1 7 4 4 6 -4 13 6 15 23 3 17 3 30 1 30 -8 0
-30 -25 -36 -40 -4 -12 -6 -11 -6 3 -1 21 0 20 -43 3 -30 -13 -35 -20 -47 -78
-8 -35 -18 -71 -23 -81 -5 -9 -6 -23 -2 -29 4 -6 8 -45 9 -87 2 -42 1 -60 -1
-41 -2 19 -9 61 -15 93 -6 34 -7 63 -2 70 5 7 15 37 22 67 7 30 16 66 21 80
15 44 21 112 10 105 -5 -3 -10 -1 -10 4 0 6 -9 11 -20 11 -11 0 -20 4 -20 9 0
6 12 6 32 0 18 -5 33 -9 34 -9 1 0 7 14 14 30 13 31 24 37 35 20z"/>
<path d="M1960 5480 c0 -8 10 -31 21 -50 24 -39 206 -223 257 -259 33 -23 35
-23 70 -6 l37 17 -35 29 c-19 17 -58 47 -86 69 -52 39 -131 127 -122 135 2 2
21 -16 42 -40 20 -25 61 -63 89 -85 29 -22 66 -51 84 -66 22 -18 37 -23 47
-17 13 7 8 17 -29 59 -65 75 -202 176 -223 165 -9 -4 -24 -6 -32 -3 -16 6 -18
9 39 -65 26 -34 29 -43 16 -43 -15 0 -15 -3 -5 -15 9 -11 15 -12 20 -5 5 7 11
6 19 -4 9 -10 9 -16 1 -21 -17 -11 -141 105 -177 165 -18 30 -33 48 -33 40z"/>
<path d="M0 4323 c0 -58 2 -63 25 -69 14 -3 25 -10 25 -15 0 -12 -7 -11 -31 2
-18 9 -19 7 -17 -25 2 -31 4 -34 22 -24 12 6 31 23 44 39 13 16 28 29 34 29 6
0 0 -9 -13 -20 -31 -25 -19 -25 52 1 35 13 59 28 59 36 0 8 -8 13 -17 12 -10
-1 -47 6 -82 16 -50 14 -67 25 -82 49 l-19 31 0 -62z"/>
<path d="M1083 4025 c4 -22 9 -65 13 -95 3 -30 14 -73 24 -95 10 -23 22 -54
26 -70 14 -60 84 -237 97 -246 5 -4 4 -10 -3 -14 -8 -5 -7 -12 5 -25 15 -16
15 -18 -1 -24 -18 -7 -69 27 -117 77 -15 16 -45 64 -68 107 -22 42 -50 87 -62
98 l-22 21 -95 -19 c-52 -11 -142 -24 -200 -30 -58 -7 -143 -21 -190 -32 -83
-19 -268 -37 -205 -19 17 5 23 9 14 10 -21 1 -33 31 -18 45 8 8 10 6 7 -9 -4
-29 31 -30 148 -5 54 12 137 26 184 31 47 5 133 18 191 29 58 11 117 20 130
19 49 -2 -289 -58 -356 -60 -22 0 -49 -4 -60 -9 -21 -10 43 -6 175 11 101 12
253 41 263 49 4 3 -6 33 -22 66 -39 81 -42 91 -50 154 -5 41 -10 54 -21 51 -8
-2 -58 -14 -110 -26 -112 -25 -143 -41 -315 -153 -72 -47 -144 -91 -161 -98
-23 -10 -34 -23 -43 -56 -22 -73 -112 -180 -201 -240 l-36 -23 -3 -89 -3 -89
39 6 c21 3 103 15 183 27 80 11 192 29 250 40 58 10 134 21 170 23 l65 5 -55
-9 c-188 -32 -370 -61 -465 -75 -60 -8 -127 -18 -147 -21 -30 -5 -38 -10 -38
-27 0 -19 6 -21 76 -23 82 -1 141 -19 214 -64 33 -21 49 -25 62 -18 10 5 35 9
55 9 99 -2 107 -3 86 -7 -22 -4 -22 -6 -7 -29 20 -30 27 -30 68 1 58 44 141
67 231 65 98 -2 120 -2 313 6 211 8 214 7 265 -72 39 -62 42 -64 81 -64 45 0
106 31 106 54 0 13 -108 102 -139 114 -9 3 -11 16 -7 41 4 29 -2 51 -32 111
-42 84 -39 83 -147 56 -77 -19 -361 -65 -445 -71 -59 -4 45 14 340 59 58 9
110 19 115 21 26 12 -143 -10 -411 -55 -34 -5 -72 -10 -85 -9 -13 0 14 7 61
15 271 45 351 57 402 58 31 0 54 4 52 8 -3 4 7 13 21 21 l26 13 -21 27 c-53
68 -100 225 -115 392 -6 71 -25 114 -66 151 l-21 19 5 -40z"/>
<path d="M204 2846 c-23 -7 -78 -19 -123 -26 -53 -8 -81 -17 -81 -25 0 -15 59
-11 90 5 10 6 27 10 37 9 24 -1 -54 -29 -92 -33 l-30 -3 -3 -179 -2 -179 43
75 c81 139 177 310 177 314 0 6 -44 1 -56 -7 -6 -3 -11 -1 -11 6 0 8 16 13 39
14 33 1 68 20 68 37 0 8 -8 7 -56 -8z"/>
</g>
</svg>
