<?xml version="1.0" standalone="no"?>
<!DOCTYPE svg PUBLIC "-//W3C//DTD SVG 20010904//EN"
 "http://www.w3.org/TR/2001/REC-SVG-20010904/DTD/svg10.dtd">
<svg version="1.0" xmlns="http://www.w3.org/2000/svg"
 width="1.000000pt" height="1.000000pt" viewBox="0 0 1.000000 1.000000"
 preserveAspectRatio="xMidYMid meet">
<metadata>
Created by potrace 1.16, written by Peter Selinger 2001-2019
</metadata>
<g transform="translate(0.000000,1.000000) scale(0.000417,-0.000192)"
fill="#000000" stroke="none">
<path d="M0 2600 l0 -2600 1200 0 1200 0 0 2600 0 2600 -1200 0 -1200 0 0
-2600z m705 -498 c-1 -227 0 -222 -20 -222 -11 0 -15 12 -15 46 0 26 -13 89
-30 141 -22 67 -30 113 -30 163 l0 70 48 0 47 0 0 -198z m-108 109 c2 -58 10
-101 33 -166 16 -49 30 -105 30 -126 0 -33 -4 -40 -27 -45 -14 -4 -40 -2 -57
4 -23 9 -32 9 -37 -1 -4 -6 -19 -27 -33 -46 -35 -47 -33 -22 2 29 28 41 32 42
90 25 16 -6 22 -3 22 8 0 9 5 19 11 23 8 4 9 -1 4 -16 -5 -15 -4 -20 4 -16 19
12 12 67 -19 159 -21 61 -31 110 -33 162 -2 65 -5 75 -20 75 -25 0 -88 -34
-114 -62 -50 -53 -123 -276 -123 -376 0 -25 -5 -83 -12 -129 l-12 -83 39 -40
c21 -22 35 -40 29 -40 -6 0 -25 16 -43 34 -33 34 -34 37 -27 93 4 32 11 103
16 158 13 147 73 339 123 394 26 28 92 59 127 60 25 1 26 0 27 -78z m193 -14
c6 -28 21 -63 33 -76 l22 -25 -25 16 c-18 11 -28 30 -37 67 -14 63 -16 66 -37
46 -13 -14 -16 -42 -16 -173 0 -86 5 -174 11 -196 6 -22 30 -57 57 -86 26 -26
67 -80 92 -119 25 -40 62 -90 82 -113 33 -36 41 -40 69 -34 17 3 53 6 79 6 44
0 50 3 69 34 12 18 21 43 21 54 0 32 32 45 80 32 46 -12 79 1 138 54 39 36 43
22 4 -15 -46 -43 -96 -62 -138 -50 -44 12 -74 0 -74 -31 0 -11 -9 -36 -21 -54
-20 -33 -23 -34 -83 -34 -35 0 -66 -3 -70 -7 -10 -11 -36 -12 -36 -2 0 5 -7 9
-15 9 -17 0 -129 147 -151 197 -8 18 -30 45 -49 60 -64 50 -70 75 -70 283 0
151 3 188 15 201 23 25 38 12 50 -44z m940 -102 c7 -8 18 -15 25 -15 18 0 104
-48 147 -81 46 -37 120 -154 159 -252 38 -94 70 -157 80 -157 5 0 5 -7 2 -17
-5 -12 -3 -14 7 -8 9 5 11 4 6 -3 -4 -7 -3 -12 3 -12 5 0 11 3 14 8 2 4 2 1 1
-5 -2 -7 3 -13 11 -13 8 0 15 -7 15 -16 0 -14 -2 -14 -16 1 -9 9 -19 14 -22
11 -3 -3 16 -28 41 -55 61 -65 61 -81 2 -81 l-45 0 2 38 c1 36 1 36 5 5 4 -30
7 -33 39 -33 19 0 34 2 34 5 0 3 -16 23 -37 45 -41 46 -53 41 -53 -22 0 -27
-4 -38 -15 -38 -12 0 -15 12 -13 58 l1 57 7 -55 c6 -45 7 -49 10 -20 1 19 4
48 6 63 1 16 -6 45 -16 65 -11 20 -39 83 -64 139 -91 211 -177 312 -307 362
-26 9 -27 8 -52 -67 -15 -42 -43 -135 -63 -206 -29 -105 -34 -130 -23 -137 8
-5 23 -6 34 -3 15 5 17 3 9 -5 -13 -15 -64 -4 -64 13 0 26 103 372 121 408 6
12 4 20 -9 27 -9 6 -12 11 -6 11 6 0 17 -7 24 -15z"/>
<path d="M620 2225 c0 -44 9 -94 30 -158 17 -52 30 -113 30 -136 0 -26 4 -40
10 -36 6 4 9 78 8 201 l-3 194 -37 0 -38 0 0 -65z"/>
</g>
</svg>
