<?xml version="1.0" standalone="no"?>
<!DOCTYPE svg PUBLIC "-//W3C//DTD SVG 20010904//EN"
 "http://www.w3.org/TR/2001/REC-SVG-20010904/DTD/svg10.dtd">
<svg version="1.0" xmlns="http://www.w3.org/2000/svg"
 width="240.000000pt" height="520.000000pt" viewBox="0 0 240.000000 520.000000"
 preserveAspectRatio="xMidYMid meet">

<g transform="translate(0.000000,520.000000) scale(0.100000,-0.100000)"
fill="#000000" stroke="none">
<path d="M0 2600 l0 -2600 1200 0 1200 0 0 2600 0 2600 -1200 0 -1200 0 0
-2600z m1175 619 c22 -41 11 -36 -14 7 -12 19 -16 32 -11 29 6 -3 17 -19 25
-36z m-19 -11 c14 -28 15 -31 2 -20 -14 11 -31 52 -22 52 2 0 11 -15 20 -32z
m-128 -95 c6 -32 14 -69 17 -83 3 -14 -1 -9 -9 10 -7 20 -17 55 -21 78 -4 23
-11 42 -15 42 -5 0 -23 -12 -40 -27 -32 -26 -32 -28 -27 -92 3 -41 2 -55 -3
-36 -16 61 -11 110 13 132 22 20 42 31 63 32 6 1 16 -25 22 -56z m102 -88 c0
-8 -8 -15 -17 -15 -15 0 -15 2 -4 9 12 7 10 14 -8 36 -11 15 -21 34 -21 43 0
8 11 -2 25 -22 14 -20 25 -43 25 -51z m-228 4 l-4 -72 28 8 c66 19 115 3 113
-39 l0 -21 -9 22 c-14 33 -46 47 -82 34 -54 -19 -58 -16 -58 48 0 50 6 91 14
91 1 0 0 -32 -2 -71z m165 9 c-2 -13 -4 -5 -4 17 -1 22 1 32 4 23 2 -10 2 -28
0 -40z m19 -33 c-5 -13 2 -15 42 -13 42 3 47 1 50 -19 2 -12 -6 -31 -17 -42
-17 -17 -18 -21 -5 -21 11 0 14 -6 9 -22 -6 -21 -5 -22 8 -5 20 24 42 21 72
-10 14 -15 25 -22 25 -16 0 7 -4 15 -10 18 -21 13 -9 33 23 39 63 13 69 11 98
-24 21 -26 32 -55 41 -108 11 -64 10 -81 -5 -135 -10 -34 -18 -71 -18 -82 0
-10 -4 -24 -8 -30 -4 -5 -14 -38 -21 -73 -7 -34 -15 -60 -17 -58 -7 6 18 119
29 130 4 6 8 16 8 23 0 8 -23 0 -63 -22 -35 -19 -70 -35 -77 -35 -8 0 9 12 38
26 70 35 108 72 121 120 22 80 6 182 -39 236 -28 34 -30 35 -69 25 l-40 -11
20 -33 c18 -29 19 -32 3 -26 -13 5 -15 3 -10 -8 4 -8 -7 3 -24 24 -35 41 -44
44 -67 22 -17 -18 -37 -10 -29 12 4 11 2 13 -9 9 -23 -9 -18 23 7 43 13 11 19
24 15 34 -5 14 -15 16 -52 10 -36 -4 -45 -3 -45 9 0 14 9 28 18 28 2 0 1 -7
-2 -15z m144 -30 c0 -8 -8 -15 -17 -15 -15 0 -15 2 -4 9 11 7 10 10 -5 14 -16
4 -16 5 4 6 13 1 22 -5 22 -14z m-282 -42 c-41 -12 -48 -18 -48 -40 0 -22 3
-24 23 -18 99 32 116 4 32 -50 -31 -19 -60 -35 -65 -35 -11 0 -11 -2 -15 -38
-3 -33 37 -26 46 8 l7 25 1 -27 c1 -22 -5 -29 -24 -34 -33 -8 -32 -19 9 -106
39 -83 59 -108 107 -137 19 -12 28 -21 21 -21 -17 0 -62 30 -85 55 -44 50
-104 216 -92 255 3 10 36 38 73 61 55 35 63 44 45 47 -12 2 -31 -2 -42 -7 -37
-20 -51 -14 -51 23 0 31 3 35 38 44 57 15 73 12 20 -5z m27 -162 c-9 -28 -35
-27 -34 2 0 20 1 20 8 3 5 -14 10 -16 15 -7 4 6 5 20 1 29 -5 13 -3 14 5 6 7
-7 9 -21 5 -33z m165 24 c8 -9 9 -15 2 -15 -6 0 -14 5 -17 10 -3 6 -11 10 -17
10 -6 0 -5 -6 3 -16 9 -11 22 -14 41 -10 18 3 27 2 23 -4 -8 -13 -48 -13 -62
1 -8 8 -18 6 -36 -5 -29 -19 -57 -12 -57 15 0 21 17 24 40 8 12 -9 11 -10 -7
-6 -22 5 -32 -7 -15 -16 13 -8 52 12 52 28 0 19 34 20 50 0z m352 -41 c3 -3 4
-14 1 -25 -6 -20 -53 -28 -53 -9 0 25 38 49 52 34z m-311 -41 c27 -16 49 -32
49 -38 -1 -11 -120 -68 -127 -61 -2 2 22 17 54 33 l58 29 -43 27 c-77 48 -140
28 -157 -50 -6 -30 -4 -33 18 -33 13 0 31 -8 38 -17 11 -15 11 -16 -1 -5 -8 6
-27 12 -42 12 -31 0 -33 7 -18 62 20 72 87 88 171 41z m-41 -118 c-33 -19 -50
-18 -26 0 11 8 27 15 35 15 10 -1 7 -6 -9 -15z m-91 -209 c9 -10 47 -34 85
-53 66 -33 70 -34 100 -19 17 9 48 22 69 30 20 8 37 20 37 26 0 6 4 9 9 5 5
-3 17 5 25 17 13 18 16 19 16 6 0 -19 -42 -51 -80 -63 -14 -4 -44 -18 -68 -30
l-42 -23 -68 36 c-86 45 -112 69 -111 101 1 21 2 22 6 6 3 -11 12 -28 22 -39z
m149 -109 c37 1 81 6 97 13 18 7 26 7 20 1 -34 -34 -188 -31 -242 4 -37 25
-26 26 18 3 30 -15 58 -21 107 -21z m-493 -175 c-1 -227 0 -222 -20 -222 -11
0 -15 12 -15 46 0 26 -13 89 -30 141 -22 67 -30 113 -30 163 l0 70 48 0 47 0
0 -198z m-108 109 c2 -58 10 -101 33 -166 16 -49 30 -105 30 -126 0 -33 -4
-40 -27 -45 -14 -4 -40 -2 -57 4 -23 9 -32 9 -37 -1 -4 -6 -19 -27 -33 -46
-35 -47 -33 -22 2 29 28 41 32 42 90 25 16 -6 22 -3 22 8 0 9 5 19 11 23 8 4
9 -1 4 -16 -5 -15 -4 -20 4 -16 19 12 12 67 -19 159 -21 61 -31 110 -33 162
-2 65 -5 75 -20 75 -25 0 -88 -34 -114 -62 -50 -53 -123 -276 -123 -376 0 -25
-5 -83 -12 -129 l-12 -83 39 -40 c21 -22 35 -40 29 -40 -6 0 -25 16 -43 34
-33 34 -34 37 -27 93 4 32 11 103 16 158 13 147 73 339 123 394 26 28 92 59
127 60 25 1 26 0 27 -78z m193 -14 c6 -28 21 -63 33 -76 l22 -25 -25 16 c-18
11 -28 30 -37 67 -14 63 -16 66 -37 46 -13 -14 -16 -42 -16 -173 0 -86 5 -174
11 -196 6 -22 30 -57 57 -86 26 -26 67 -80 92 -119 25 -40 62 -90 82 -113 33
-36 41 -40 69 -34 17 3 53 6 79 6 44 0 50 3 69 34 12 18 21 43 21 54 0 32 32
45 80 32 46 -12 79 1 138 54 39 36 43 22 4 -15 -46 -43 -96 -62 -138 -50 -44
12 -74 0 -74 -31 0 -11 -9 -36 -21 -54 -20 -33 -23 -34 -83 -34 -35 0 -66 -3
-70 -7 -10 -11 -36 -12 -36 -2 0 5 -7 9 -15 9 -17 0 -129 147 -151 197 -8 18
-30 45 -49 60 -64 50 -70 75 -70 283 0 151 3 188 15 201 23 25 38 12 50 -44z
m290 -67 c10 -1 9 -4 -5 -10 l-20 -9 20 0 c13 -1 16 -4 8 -9 -8 -5 -9 -13 -3
-22 13 -20 13 -50 0 -50 -5 0 -7 6 -4 14 3 8 -1 25 -10 38 -8 13 -17 33 -19
43 -2 11 -13 36 -25 55 -12 19 -22 39 -22 45 0 5 15 -14 33 -42 17 -29 39 -53
47 -53z m7 40 c-2 8 -7 26 -11 40 -5 21 -3 20 9 -5 26 -55 15 -73 -21 -32 -39
43 -46 61 -9 22 20 -22 35 -33 32 -25z m213 57 c0 -2 -9 -12 -20 -22 -24 -21
-27 -14 -4 9 15 15 24 20 24 13z m24 -19 c-4 -7 -25 -34 -46 -59 -21 -26 -38
-50 -38 -53 0 -13 37 13 73 51 45 46 49 37 5 -13 -28 -32 -60 -52 -95 -60 -15
-3 17 51 63 104 35 41 53 55 38 30z m195 -64 c20 -44 41 -52 41 -16 1 16 1 16
11 0 5 -10 15 -18 21 -18 7 0 6 6 -2 15 -7 9 -10 18 -7 21 3 4 -4 15 -16 26
-22 18 -22 18 9 1 16 -10 46 -28 65 -40 19 -13 38 -24 43 -26 14 -5 -13 -76
-61 -159 -39 -68 -45 -87 -55 -172 -12 -103 -19 -113 -65 -81 -11 8 -33 19
-47 25 -23 8 -28 7 -36 -13 -10 -22 -10 -22 -7 3 2 21 6 25 32 22 17 -2 42
-12 57 -22 15 -11 32 -20 37 -20 5 0 12 30 16 68 10 96 22 140 60 202 61 102
74 150 41 150 -7 0 -25 9 -40 21 -27 21 -38 11 -11 -11 21 -17 8 -32 -16 -20
-21 12 -43 4 -34 -11 4 -5 2 -9 -4 -9 -14 0 -40 40 -51 79 -13 45 -4 38 19
-15z m-49 -12 c-20 -40 -50 -73 -50 -54 0 6 5 14 11 18 6 3 17 22 25 40 8 19
18 34 23 34 5 0 1 -17 -9 -38z m-66 -47 c-17 -35 -23 -41 -19 -21 6 28 35 80
41 73 2 -1 -8 -25 -22 -52z m-83 11 c-12 -18 -21 -42 -21 -53 0 -11 -10 -28
-22 -39 -23 -19 -23 -19 -5 2 9 11 17 29 17 40 0 20 35 84 46 84 3 0 -4 -15
-15 -34z m38 -18 c-23 -60 -34 -75 -63 -90 -18 -9 -17 -6 5 18 15 16 36 50 47
77 28 64 37 60 11 -5z m-440 -21 c4 1 7 -8 8 -20 1 -18 -5 -14 -38 23 -21 25
-39 50 -39 55 1 6 14 -6 31 -25 17 -19 34 -34 38 -33z m296 53 c-3 -5 -12 -10
-18 -10 -7 0 -6 4 3 10 19 12 23 12 15 0z m515 -15 c7 -8 18 -15 25 -15 18 0
104 -48 147 -81 46 -37 120 -154 159 -252 38 -94 70 -157 80 -157 5 0 5 -7 2
-17 -5 -12 -3 -14 7 -8 9 5 11 4 6 -3 -4 -7 -3 -12 3 -12 5 0 11 3 14 8 2 4 2
1 1 -5 -2 -7 3 -13 11 -13 8 0 15 -7 15 -16 0 -14 -2 -14 -16 1 -9 9 -19 14
-22 11 -3 -3 16 -28 41 -55 61 -65 61 -81 2 -81 l-45 0 2 38 c1 36 1 36 5 5 4
-30 7 -33 39 -33 19 0 34 2 34 5 0 3 -16 23 -37 45 -41 46 -53 41 -53 -22 0
-27 -4 -38 -15 -38 -12 0 -15 12 -13 58 l1 57 7 -55 c6 -45 7 -49 10 -20 1 19
4 48 6 63 1 16 -6 45 -16 65 -11 20 -39 83 -64 139 -91 211 -177 312 -307 362
-26 9 -27 8 -52 -67 -15 -42 -43 -135 -63 -206 -29 -105 -34 -130 -23 -137 8
-5 23 -6 34 -3 15 5 17 3 9 -5 -13 -15 -64 -4 -64 13 0 26 103 372 121 408 6
12 4 20 -9 27 -9 6 -12 11 -6 11 6 0 17 -7 24 -15z m-689 -40 c5 4 9 -2 9 -11
0 -14 -6 -12 -30 11 -16 16 -30 33 -30 38 0 5 9 -2 21 -17 11 -14 25 -24 30
-21z m-81 -11 c0 -6 7 -18 17 -25 9 -8 25 -27 35 -44 18 -27 19 -28 12 -5 -14
50 -14 54 1 23 8 -18 12 -39 9 -48 -5 -11 -14 -5 -38 26 -35 47 -65 99 -65
114 0 6 6 1 14 -9 8 -11 15 -25 15 -32z m80 36 c0 -5 -2 -10 -4 -10 -3 0 -8 5
-11 10 -3 6 -1 10 4 10 6 0 11 -4 11 -10z m-35 -30 c10 -11 13 -20 7 -20 -6 0
-16 9 -22 20 -6 11 -9 20 -7 20 2 0 12 -9 22 -20z m637 -176 c-10 -33 -25 -84
-32 -114 -12 -49 -14 -52 -22 -30 -14 37 -2 112 27 170 36 71 53 54 27 -26z
m-1192 -124 c-6 -34 -15 -71 -21 -83 -9 -21 -9 -20 -4 3 3 14 10 53 16 88 6
35 13 61 16 59 2 -3 -1 -33 -7 -67z m-175 0 c-3 -5 -16 -15 -28 -21 -22 -12
-22 -12 -3 10 19 21 43 30 31 11z m1410 -70 c4 -6 7 -39 8 -75 0 -35 4 -62 7
-60 3 2 23 0 43 -5 27 -6 37 -5 37 5 0 8 -9 11 -24 8 -32 -6 -44 15 -14 26 16
6 26 4 34 -7 8 -11 13 -12 18 -4 20 33 54 -4 36 -39 -7 -12 -7 -19 -1 -19 6 0
7 -8 4 -17 -4 -11 -8 -13 -11 -5 -2 7 -8 10 -12 7 -5 -3 -18 3 -30 15 -11 11
-26 20 -32 20 -9 0 -8 -4 2 -10 11 -7 12 -10 2 -10 -7 0 -20 7 -29 15 -8 8
-19 13 -24 10 -15 -10 -10 -25 9 -26 11 0 12 -2 4 -6 -7 -3 -19 0 -26 6 -11 9
-15 9 -19 -1 -4 -8 -6 -7 -6 5 -1 9 5 17 13 17 10 0 12 7 8 22 -5 21 -6 21
-13 2 -6 -16 -8 -16 -8 -2 -1 9 4 20 9 23 6 4 8 11 5 16 -4 5 -2 9 4 9 12 0 3
58 -12 78 -6 8 -6 12 1 12 6 0 14 -5 17 -10z m559 -93 c21 -15 18 -52 -4 -52
-8 0 -18 -7 -22 -15 -4 -9 -7 -4 -7 16 -1 16 4 35 11 42 10 10 5 11 -22 7 -29
-4 -31 -3 -10 4 35 12 34 13 54 -2z m-641 -4 c-7 -2 -14 -23 -15 -46 -1 -39
-2 -39 -5 -9 -5 41 2 62 19 61 10 0 10 -2 1 -6z m508 -81 c-5 -25 -8 -49 -6
-53 2 -3 -3 -6 -11 -6 -10 0 -13 6 -8 16 14 34 23 87 18 106 -5 18 -4 19 6 2
8 -13 9 -31 1 -65z m-504 16 c-2 -13 -4 -5 -4 17 -1 22 1 32 4 23 2 -10 2 -28
0 -40z m41 -3 c-3 -3 -9 2 -12 12 -6 14 -5 15 5 6 7 -7 10 -15 7 -18z m217 -5
c3 -5 1 -10 -4 -10 -6 0 -11 5 -11 10 0 6 2 10 4 10 3 0 8 -4 11 -10z m-862
-40 c3 -11 1 -20 -4 -20 -5 0 -9 7 -9 15 0 8 -4 15 -10 15 -5 0 -10 -6 -10
-14 0 -8 -3 -23 -7 -33 -6 -15 -4 -16 9 -5 8 7 23 10 32 6 10 -4 18 1 23 12 7
19 22 34 36 34 4 0 7 -18 7 -40 0 -29 -4 -40 -15 -40 -18 0 -20 26 -2 33 7 3
5 6 -5 6 -10 1 -18 -4 -18 -10 0 -7 -10 -9 -25 -5 -14 4 -25 2 -25 -4 0 -5 -7
-10 -15 -10 -17 0 -19 18 -5 54 11 31 36 34 43 6z m1107 -55 c0 -13 -21 -15
-137 -13 l-138 2 133 3 c76 2 132 8 132 13 0 6 2 10 5 10 3 0 5 -7 5 -15z"/>
<path d="M1460 2735 c-10 -12 -10 -15 3 -15 8 0 17 7 21 15 3 8 2 15 -3 15 -5
0 -14 -7 -21 -15z"/>
<path d="M620 2225 c0 -44 9 -94 30 -158 17 -52 30 -113 30 -136 0 -26 4 -40
10 -36 6 4 9 78 8 201 l-3 194 -37 0 -38 0 0 -65z"/>
<path d="M1621 1893 c-13 -26 -25 -72 -27 -103 -4 -51 -3 -52 7 -20 5 19 19
64 30 99 11 35 18 65 16 67 -2 2 -14 -18 -26 -43z"/>
<path d="M1748 1563 c7 -3 16 -2 19 1 4 3 -2 6 -13 5 -11 0 -14 -3 -6 -6z"/>
<path d="M1790 1544 c-13 -32 -13 -31 7 -38 10 -4 14 -4 10 0 -4 4 0 15 9 25
9 10 13 23 9 28 -11 18 -25 12 -35 -15z"/>
<path d="M2225 1570 c-7 -12 2 -30 16 -30 5 0 9 9 9 20 0 21 -15 27 -25 10z"/>
<path d="M1045 1460 c-3 -5 -1 -10 4 -10 6 0 11 5 11 10 0 6 -2 10 -4 10 -3 0
-8 -4 -11 -10z"/>
</g>
</svg>
