<?xml version="1.0" encoding="UTF-8" standalone="no"?>
<!-- Created with Inkscape (http://www.inkscape.org/) -->

<svg
   width="210mm"
   height="297mm"
   viewBox="0 0 210 297"
   version="1.1"
   id="svg7160"
   inkscape:version="1.1 (c68e22c387, 2021-05-23)"
   sodipodi:docname="dibujo.svg"
   xmlns:inkscape="http://www.inkscape.org/namespaces/inkscape"
   xmlns:sodipodi="http://sodipodi.sourceforge.net/DTD/sodipodi-0.dtd"
   xmlns="http://www.w3.org/2000/svg"
   xmlns:svg="http://www.w3.org/2000/svg">
  <sodipodi:namedview
     id="namedview7162"
     pagecolor="#ffffff"
     bordercolor="#111111"
     borderopacity="1"
     inkscape:pageshadow="0"
     inkscape:pageopacity="0"
     inkscape:pagecheckerboard="1"
     inkscape:document-units="mm"
     showgrid="false"
     inkscape:zoom="0.46324355"
     inkscape:cx="-185.64749"
     inkscape:cy="387.48516"
     inkscape:window-width="1366"
     inkscape:window-height="705"
     inkscape:window-x="-8"
     inkscape:window-y="-8"
     inkscape:window-maximized="1"
     inkscape:current-layer="layer1" />
  <defs
     id="defs7157" />
  <g
     inkscape:label="Capa 1"
     inkscape:groupmode="layer"
     id="layer1">
    <path
       style="fill:#003399;stroke-width:0.264583"
       id="path7197"
       d="m 26.950537,14.718058 c -1.274263,1.238379 -2.369154,2.596256 -3.316316,4.095958 -0.862501,1.53941 -1.412317,3.20105 -1.93509,4.876927 -0.435116,1.384018 -0.528233,2.832329 -0.590735,4.271742 -0.01316,1.203685 -0.173191,2.414447 0.230148,3.567023 0.447836,1.2462 1.501027,2.099431 2.550408,2.838082 1.137356,0.976775 2.52303,1.533104 3.901431,2.071444 1.524603,0.651116 2.562889,0.430215 4.047149,-0.184962 1.300689,-0.748994 2.621166,-1.464631 3.902067,-2.246982 0.41289,-0.252188 0.494146,-0.692579 0.09769,-1.007132 -0.319108,-0.253185 -0.909484,-0.363468 -1.268423,-0.460893 -1.805572,-0.380183 -3.636089,-0.646372 -5.435785,-1.049137 -1.685901,-0.401743 -3.298892,-1.068035 -4.801862,-1.924976 -1.421614,-0.840335 -2.220756,-2.310185 -2.758125,-3.821376 -0.136614,-0.59042 -0.373654,-1.20796 -0.269443,-1.826902 0.02357,-0.139982 0.06031,-0.286581 0.145241,-0.400325 0.08458,-0.113274 0.463497,-0.322889 0.341469,-0.251517 -0.985382,0.576328 -1.955545,1.178288 -2.933318,1.767432 1.01162,-0.41914 2.186824,-0.57736 3.26729,-0.384914 0.996165,0.595854 1.10703,1.82043 1.216843,2.873254 0.08922,1.297872 -0.03755,2.586501 0.307493,3.851286 0.363417,1.375066 1.459218,2.145125 2.688557,2.699631 2.494831,0.944293 5.107178,1.334466 7.744677,1.609781 2.728251,0.142647 5.469401,0.386418 8.202721,0.260701 2.533208,-0.419944 5.590942,-1.532424 6.596362,-4.069246 0.386622,-1.421876 0.304612,-2.401874 -0.57721,-3.584803 -1.089594,-1.203772 -2.681491,-1.258472 -4.196808,-1.380368 -1.013142,0.07 -1.077531,-0.04137 -1.998098,0.518155 -3.964872,2.409851 -4.450364,2.156989 -5.616631,5.794642 -0.477734,2.105242 -0.997437,3.359171 0.925105,4.81067 2.178185,1.236506 4.733361,1.511183 7.18358,1.759042 2.601389,-0.02331 4.990201,-0.908121 7.253634,-2.114946 3.251465,-1.766555 6.295697,-3.856342 9.372669,-5.899706 0.329549,-0.225457 0.653526,-0.459282 0.98865,-0.676365 0.347118,-0.224856 0.701807,-0.437933 1.05745,-0.649049 0.364304,-0.21626 1.461632,-0.857134 1.102153,-0.632947 -0.747011,0.46587 -1.556046,0.836427 -2.265121,1.358225 -0.304163,0.223832 0.690686,-0.305673 1.037595,-0.454903 0.374398,-0.161055 0.750853,-0.317289 1.126278,-0.475933 1.925725,-0.695883 3.872786,-1.29014 5.784099,-2.027801 0.38564,-0.305271 1.055491,-0.21523 1.458677,-0.478533 0.0038,-0.0024 -0.01463,-0.182137 -0.422741,0.173384 -0.910011,1.133642 -1.104522,2.595507 -1.269214,3.992589 -0.192114,1.534157 -0.296976,3.01857 0.697042,4.285639 1.264338,1.111223 2.991033,0.934267 4.538057,0.684474 2.495121,-0.876459 5.348144,-1.920086 6.917319,-4.148738 0.519922,-0.738428 0.555165,-0.977014 0.879642,-1.809192 0.392771,-1.407056 0.480562,-2.869215 0.563041,-4.31982 0.01381,-0.242881 0.256122,-0.841316 0.04049,-0.728696 -1.275856,0.66635 -2.331093,1.689173 -3.496639,2.53376 0.03286,3.020454 0.02604,6.0413 0.0068,9.061847 0.06178,1.811644 -0.140293,3.639923 0.04672,5.447641 0.05888,0.569164 0.244944,1.453721 0.356193,2.02088 0.308301,1.755412 0.944306,3.427092 1.511239,5.109633 0.259832,0.786199 0.676246,1.530673 0.812552,2.356189 0.02421,0.14656 0.05711,0.304159 0.01138,0.445494 -0.01921,0.05938 -0.228288,0.09785 -0.176091,0.06363 1.085445,-0.711528 2.186591,-1.398815 3.279889,-2.098222 -1.070272,-2.16724 -1.581039,-4.509972 -1.974244,-6.876913 -0.33731,-2.303232 -0.408218,-4.632465 -0.435539,-6.956433 -0.01278,-1.807387 7.94e-4,-3.614729 0.01381,-5.422064 -0.01561,-1.278408 -0.114358,-2.514353 0.544997,-3.651101 -0.530786,0.109429 1.719971,-1.394452 1.097814,-1.04108 -8.078226,4.588288 -3.530653,1.221959 -2.671294,1.86432 0.41838,1.043054 0.323398,2.183421 0.651044,3.261267 0.505127,1.096489 1.528356,1.632178 2.625829,1.986479 1.14391,0.285596 2.313736,0.387837 3.468219,0.136943 2.504141,-0.988774 4.828373,-2.424409 7.045944,-3.946353 1.163629,-0.935426 1.893184,-2.20255 2.227397,-3.644268 0.405985,-2.646157 -3.585604,-0.612039 -4.008067,1.387086 -0.227576,1.027404 -0.484899,2.041668 -0.623967,3.089135 -0.212547,1.4443 0.196877,2.018745 1.553835,2.45881 1.578057,0.317151 3.202223,0.271121 4.804275,0.275833 2.1488,0.178523 4.10469,-0.330332 6.0447,-1.205624 2.23294,-1.14881 2.23726,-1.12505 5.44298,-3.110971 0.78604,-0.486941 1.63872,-1.220395 1.73754,-2.177457 -0.0904,-0.135445 -0.14405,-0.304591 -0.27119,-0.406339 -0.77264,-0.618318 -2.60569,-0.558849 -3.54471,-0.526155 -2.97053,0.76668 -5.57263,2.009192 -6.46671,5.037399 -0.23708,1.215871 -0.3884,2.990834 0.70153,3.888057 0.25251,0.207862 0.5682,0.32408 0.85229,0.486119 2.0925,0.876541 4.11341,0.606496 6.177,-0.154183 2.20293,-1.125588 4.34439,-2.368085 6.39929,-3.744267 0.3024,-0.202515 0.60925,-0.398352 0.9106,-0.602427 0.27644,-0.187206 1.11455,-0.733372 0.82264,-0.571342 -0.90688,0.503391 -1.78038,1.064723 -2.67057,1.597086 0.0774,0.09107 0.21102,0.155596 0.23214,0.273222 0.15649,0.87167 -0.0844,2.329461 -0.20042,3.090466 -0.26034,1.708253 -0.59823,3.377319 -1.15432,5.011949 -0.0463,0.05933 -0.20492,0.214392 -0.13902,0.177993 1.3027,-0.719548 2.67931,-1.335699 3.8645,-2.235758 0.32133,-0.244028 0.3264,-0.739024 0.51931,-1.093412 0.25156,-0.46214 0.51482,-0.919488 0.81256,-1.353322 0.69323,-1.010111 1.46991,-1.850324 2.27123,-2.773583 0.48861,-0.445566 0.97722,-0.891132 1.46584,-1.336696 0.54482,-0.385471 1.14064,-0.707456 1.63445,-1.156411 0.41616,-0.378344 -1.93862,0.782883 -1.39937,0.942689 0.70464,0.208822 1.37425,-0.524309 2.07617,-0.742119 1.47289,-0.457044 2.32883,-0.58895 3.81149,-0.882621 2.11083,-0.261901 4.5469,-0.934368 6.46649,0.297172 1.19392,1.260205 1.06278,3.175106 1.122,4.803116 0.0484,1.763802 -0.20836,3.263146 -1.56653,4.467209 -0.21062,0.135022 -0.84337,0.538731 -0.63188,0.405066 0.82802,-0.523303 1.74723,-0.925639 2.48145,-1.573995 0.26821,-0.236839 -0.68389,0.212749 -1.03228,0.294309 -1.24426,0.291298 -2.35611,0.354367 -3.62636,0.277553 -2.59615,-0.425947 -4.03309,-1.278416 -5.23198,-3.618404 -0.61356,-1.958491 -0.99592,-3.445944 0.16953,-5.250418 0.5609,-0.570733 0.6222,-0.694103 1.29679,-1.136018 0.23106,-0.151365 0.95513,-0.554792 0.72239,-0.406024 -3.85858,2.466356 -2.97393,1.594122 -0.99433,1.189865 1.57445,-0.416184 3.18198,-0.701852 4.74603,-1.152339 0,0 3.09235,-2.392452 3.09235,-2.392452 v 0 c -1.53572,0.514122 -3.15504,0.72187 -4.70983,1.184533 -2.4085,0.386501 -3.0792,1.075936 -5.79156,2.582871 -0.77155,0.428659 -1.42652,1.010444 -1.94437,1.72471 -1.01233,1.960877 -0.64825,3.563358 0.0197,5.594223 1.27923,2.433402 2.7529,3.419546 5.47351,3.928097 0.4516,0.05045 0.90041,0.14682 1.3548,0.151355 2.98737,0.02983 5.99266,-1.533975 8.23957,-3.307197 1.17756,-1.312595 1.50552,-3.011164 1.40341,-4.748093 -0.072,-1.76779 0.0144,-3.769929 -1.28074,-5.134086 -0.21366,-0.152625 -0.40615,-0.340392 -0.64098,-0.457872 -1.85506,-0.928077 -4.16791,-0.191723 -6.08817,-0.02958 -1.83356,0.353314 -4.3021,0.737721 -5.97034,1.554316 -3.06873,1.502126 -5.83123,2.997152 -8.18902,5.417277 -1.15439,1.356934 -2.23227,2.675041 -3.09717,4.240445 -0.20354,0.368385 -0.98569,1.117889 -0.56496,1.129173 3.20846,0.08607 3.15989,0.03413 3.36909,-1.241708 0.45665,-1.65726 0.79722,-3.340835 1.06064,-5.040405 0.12801,-0.825963 0.4376,-2.499476 0.16277,-3.422597 -0.0852,-0.286171 -0.36621,-0.471699 -0.54932,-0.707549 -5.36117,3.043074 -2.53216,1.285542 -4.84598,2.848086 -1.13028,0.763289 -1.98714,1.294212 -1.89964,1.249339 0.76907,-0.394401 1.49727,-0.86388 2.24849,-1.291312 0.32264,-0.183579 -0.64184,0.373163 -0.96275,0.559745 -1.95997,0.830119 -3.91671,1.200673 -5.97051,0.420909 -0.25199,-0.121425 -0.52989,-0.199562 -0.75598,-0.36427 -1.04468,-0.761056 -0.75709,-2.486411 -0.5172,-3.537675 0.21228,-0.582112 0.24328,-0.788511 0.59954,-1.296577 0.14004,-0.199729 0.69795,-0.648875 0.47062,-0.560404 -0.96998,0.377497 -1.83918,0.975207 -2.76392,1.452915 -0.23265,0.120179 0.44766,-0.274913 0.6874,-0.380225 0.2428,-0.106654 0.50283,-0.168701 0.75424,-0.253053 1.03133,-0.09193 2.49535,-0.177578 3.41337,0.336092 -0.17521,0.529506 -0.5408,0.882629 -0.97122,1.237618 -0.26405,0.217773 -1.13591,0.754068 -0.82461,0.61183 0.42962,-0.196291 4.17002,-2.324917 1.22405,-0.713853 -1.8892,0.917601 -3.78972,1.518102 -5.91884,1.325208 -1.57326,1.27e-4 -3.15997,0.03232 -4.719478,-0.204328 -1.276556,-0.299444 -1.466223,-0.657354 -1.266671,-1.97095 0.154609,-1.030493 0.410982,-2.033555 0.673375,-3.041066 0.80808,-1.811435 -3.567284,3.072121 -3.159821,1.320283 0.02117,-0.09095 0.09868,0.170836 0.09351,0.264072 -0.0079,0.141962 -0.04515,0.280752 -0.06773,0.421127 -0.391358,1.375042 -1.161068,2.551591 -2.341909,3.381928 -1.13316,0.747868 -3.547586,2.163998 1.69789,-0.870207 0.217627,-0.125883 -0.446067,0.232069 -0.6691,0.348105 -0.21813,0.119356 -0.431316,0.248229 -0.654389,0.358068 -0.203943,0.10042 -0.416904,0.181375 -0.625356,0.272063 -1.097237,0.361985 -2.213258,0.266682 -3.336985,0.03744 -0.986883,-0.264956 -1.957539,-0.678931 -2.427042,-1.649873 -0.336164,-1.13919 -0.172593,-2.374498 -0.724739,-3.446931 -1.630854,-1.825552 -4.239836,1.402131 -5.405307,2.877561 -0.537536,1.22192 -0.481328,2.49347 -0.448937,3.807682 5.29e-4,1.805893 -0.0075,3.611912 0.01066,5.417707 0.04274,2.337397 0.137565,4.678137 0.495094,6.992305 0.420846,2.438521 0.965099,4.850563 1.995043,7.114817 1.252265,-0.519091 2.53678,-0.966348 3.75679,-1.557274 0.295174,-0.14297 -0.705573,-2.81891 -0.86735,-3.147406 -0.563128,-1.665851 -1.15889,-3.331684 -1.489196,-5.063157 -0.480579,-2.440953 -0.479653,-4.889796 -0.42014,-7.373495 -0.0026,-3.034496 0.01926,-6.068857 0.06328,-9.103043 -1.17044,0.341088 -2.417006,0.485905 -3.511315,1.023263 -0.212476,0.104336 -0.0076,0.473424 -0.0182,0.709896 -0.06363,1.416719 -0.182375,2.846022 -0.622853,4.202713 -0.332817,0.747577 -0.405752,1.042252 -0.92746,1.687658 -0.213609,0.264255 -1.03083,0.842012 -0.709284,0.73216 0.886309,-0.3028 1.647933,-0.890638 2.472634,-1.334595 0.325109,-0.175014 -0.637299,0.375928 -0.973857,0.527767 -0.324715,0.146497 -0.669676,0.243189 -1.004515,0.364783 -1.39977,0.294953 -3.01861,0.521886 -4.257479,-0.367374 -0.963596,-1.13343 -0.725492,-2.603439 -0.574717,-3.988786 0.195654,-1.378199 0.461505,-2.744378 1.397698,-3.832534 0.797732,-1.586955 -0.90833,-0.776278 -1.587222,-0.543649 -0.834387,0.317991 -1.656765,0.711957 -2.505143,0.988608 -1.100985,0.359024 -2.257203,0.565754 -3.31769,1.053524 -0.725937,0.304871 -1.486998,0.534532 -2.182056,0.90443 -2.56681,1.366012 -5.125077,2.802792 -7.528928,4.447072 -1.335815,0.891595 -2.681337,1.763971 -4.026111,2.641362 -0.349544,0.228057 -1.416966,0.874768 -1.037585,0.700815 0.806892,-0.369975 1.552168,-0.86174 2.328251,-1.292612 -2.212334,1.245616 -4.551717,2.166176 -7.118807,2.303304 -2.387635,-0.217712 -4.887227,-0.447916 -7.023928,-1.621605 -1.810078,-1.189117 -1.13216,-2.534372 -0.717079,-4.354242 0.302577,-0.852527 0.392361,-1.253871 0.878723,-2.027944 0.200599,-0.319262 1.050322,-0.971555 0.679283,-0.904484 -0.915124,0.165431 -1.643731,0.876255 -2.502124,1.234004 -0.326515,0.13608 0.566242,-0.442725 0.898003,-0.56546 0.301411,-0.111508 0.637699,-0.08042 0.956551,-0.120636 1.393521,0.09436 2.930083,0.06887 3.984273,1.119946 0.808712,1.061069 0.81643,1.954771 0.382199,3.210923 -0.802918,1.563428 -2.107248,1.652667 2.284418,-0.632939 0.201967,-0.105114 -0.371933,0.269306 -0.581446,0.358428 -0.263602,0.112128 -1.314408,0.330769 -1.564566,0.386258 -2.729301,0.220535 -5.483175,-0.05234 -8.211267,-0.176007 -2.59483,-0.253338 -5.16196,-0.625012 -7.613967,-1.556303 -1.147437,-0.462917 -2.169621,-1.132056 -2.493989,-2.400553 -0.321792,-1.247209 -0.148286,-2.527147 -0.279215,-3.800443 -0.149511,-1.238908 -0.374716,-2.514562 -1.459341,-3.286885 -1.106191,-0.341342 -2.331716,-0.117267 -3.442643,0.142299 -3.535318,2.101188 -4.782734,1.677984 -3.794257,5.10129 0.587728,1.576941 1.438168,3.140385 2.905166,4.051768 1.521997,0.895829 3.161262,1.586331 4.879026,2.009379 1.777681,0.457644 3.617043,0.66526 5.41136,1.058685 0.229182,0.05536 0.459838,0.104947 0.687549,0.166087 0.141099,0.03789 0.275807,0.09862 0.418306,0.130828 0.02005,0.0045 0.06661,-0.04158 0.05708,-0.02336 -0.08947,0.171054 -0.602488,0.476695 -0.432665,0.384924 0.960601,-0.519102 1.900793,-1.075108 2.851189,-1.612659 -1.445895,0.701744 -2.303018,1.02943 -3.858985,0.430411 -1.358807,-0.506833 -2.744538,-1.020546 -3.848253,-1.994715 -0.998317,-0.668277 -1.999405,-1.454089 -2.408234,-2.627683 -0.35911,-1.107376 -0.170976,-2.282965 -0.175754,-3.430194 0.06685,-1.410352 0.185177,-2.823427 0.624909,-4.175171 0.521249,-1.647465 1.075375,-3.283883 1.966249,-4.776944 0.959035,-1.476423 2.087721,-2.827763 3.41004,-3.996063 0,0 -3.673419,1.474173 -3.673419,1.474173 z" />
    <path
       style="fill:#003399;stroke-width:0.264583"
       id="path7199"
       d="m 140.78879,36.714498 c -0.56408,1.834021 -1.17961,3.635235 -1.87569,5.42576 -0.63463,1.548384 -1.04838,3.269388 -2.06382,4.63609 -0.21645,0.291336 -0.49166,0.534033 -0.73749,0.80105 -2.04048,2.185205 -4.56589,3.821031 -7.10143,5.36711 -0.37153,0.226544 0.73938,-0.45906 1.10907,-0.688591 -5.7038,2.719448 -11.42464,5.406551 -17.27005,7.810021 -4.84784,2.026145 -9.68814,2.993556 -14.879896,3.556899 -4.771244,0.422476 -9.566576,0.412009 -14.352331,0.41066 -4.280045,0.0085 -8.560728,-0.07563 -12.839649,0.03721 -4.172138,0.02421 -8.297579,0.528455 -12.386508,1.325714 -3.201861,0.681818 -6.417025,1.271526 -9.595718,2.058519 -3.615613,0.865251 -6.635636,2.868544 -9.813166,4.728644 -2.234268,1.320649 -4.13218,3.077985 -5.783349,5.065559 -1.581256,1.882243 -2.553618,4.165571 -3.440705,6.434714 -0.7516,2.437471 -1.18358,4.963607 -1.717096,7.457921 -0.411792,2.067312 -0.554284,4.176319 -0.641345,6.278737 -0.04784,1.2915 -0.0199,2.584085 -0.04734,3.875925 1.178472,-0.74 2.440815,-1.360782 3.535423,-2.219985 0.144788,-0.113652 -0.0026,-0.368125 -0.0037,-0.552188 -0.0068,-1.026991 -0.0084,-2.054016 -0.0083,-3.081028 -0.0078,-1.488228 -0.07236,-2.958764 0.250142,-4.417655 0.321287,-1.721287 1.010542,-3.334472 1.751857,-4.908878 0.637106,-1.406081 5.83855,-4.24883 0.870209,-1.204844 2.197291,-1.002503 4.533403,-1.663467 6.887562,-2.178531 1.813399,-0.324009 3.715684,-0.714449 5.439688,0.09805 1.177036,0.931756 1.33128,1.685253 -0.0019,2.513631 0.809945,-0.532778 1.756836,-0.900522 2.429835,-1.598329 0.275868,-0.286038 -0.769136,0.202099 -1.158743,0.280382 -1.533406,0.308096 -3.099136,0.394141 -4.657087,0.469005 -2.260317,0.07643 -4.52234,0.05768 -6.783456,0.04159 -2.289919,0.09948 -2.553825,0.417748 -4.67822,2.736104 -0.07194,0.07852 0.420175,0.360217 0.827617,0.609918 1.115631,0.565404 2.374474,0.549433 3.585707,0.697817 1.454039,0.217556 2.842604,0.729835 4.260488,1.105334 1.939107,0.415176 3.81391,1.009507 5.639509,1.77968 1.538576,0.692576 2.892584,1.710933 4.107971,2.869848 1.055134,1.143717 1.664451,2.568763 1.885582,4.095512 -0.009,0.549682 -0.0666,1.163876 -0.544806,1.530763 -0.139192,0.106784 -0.614241,0.335694 -0.471781,0.233304 2.599094,-1.868122 3.584128,-1.858989 1.453107,-1.541584 -2.067986,0.148328 -4.168261,0.320601 -6.232358,0.06543 -1.55022,-0.384079 -2.523117,-0.78169 -3.141834,-2.300766 -0.543447,-1.767785 0.738248,-2.616523 2.064853,-3.512002 -0.811662,0.480512 -1.649511,0.919315 -2.434984,1.441534 -0.266867,0.177422 0.576566,-0.280874 0.87286,-0.402966 1.111356,-0.457951 2.254353,-0.631949 3.440631,-0.758695 1.127189,0.0081 2.315242,-0.266253 3.437853,-0.05041 0.711525,0.136806 1.024395,0.355209 1.668412,0.682326 1.789806,0.930392 2.989821,2.492576 4.301165,3.966951 0.983649,1.406189 2.264949,2.452092 3.731008,3.308922 1.185416,0.69591 2.535296,0.93698 3.857022,1.23342 1.373791,0.32003 2.782718,0.40546 4.187198,0.46439 3.613679,-0.53764 6.585609,-3.053636 9.033444,-5.621846 1.344131,-1.34366 1.74621,-3.124509 2.204228,-4.89839 0.551955,-1.707517 2.854063,-3.126113 -1.914562,0.204153 -0.197668,0.138046 0.450111,-0.178612 0.685511,-0.230727 0.247293,-0.05474 0.503145,-0.05874 0.754716,-0.08812 1.574488,-0.09131 3.034112,0.262258 4.397732,1.035799 1.144842,0.836274 2.156145,1.828062 3.375494,2.561082 0.316542,0.0382 2.089454,1.02933 1.104119,1.204283 5.147966,-2.86004 3.603217,-1.817201 1.980671,-1.663594 -0.66285,0.06275 -1.270503,0.127285 -1.922722,0.274955 -2.651604,0.872876 -5.083773,2.350846 -7.306873,4.026183 -1.154883,0.954532 -2.206779,1.763712 -1.858532,3.385142 0.590534,1.20162 1.854261,1.35803 3.055342,1.49483 1.449623,0.10886 2.905446,0.0819 4.357984,0.0755 1.757482,-0.0164 3.515048,-0.0185 5.27259,-0.0177 1.167548,-0.002 2.419678,-0.17972 3.309091,0.70778 0.745406,1.14932 0.155977,2.45211 -0.309935,3.59736 -0.914974,1.86317 -2.205863,3.47755 -3.627245,4.97504 -2.398622,2.53193 -5.078439,4.76408 -7.704978,7.05141 -4.489924,4.17472 -9.399069,7.90223 -13.744382,12.23361 -0.892702,0.88984 -1.739969,1.82411 -2.609953,2.73618 -3.859536,4.30602 -7.680039,8.69992 -10.780816,13.59487 -1.346769,2.09384 -2.575592,4.27536 -3.340759,6.65087 -0.515956,2.14444 -0.857803,4.32959 -1.096219,6.52139 -0.243231,2.31158 -0.206764,4.63874 -0.213439,6.95939 -0.241694,3.6554 0.651544,6.69526 1.981353,10.04948 1.394341,3.43264 3.657346,6.35571 6.0544,9.13719 2.069195,2.26591 4.49108,4.10052 7.095318,5.69819 2.841119,1.57198 5.851207,2.80217 8.88152,3.95411 2.604066,0.89871 5.194033,1.87102 7.88715,2.48069 1.910881,0.43259 2.677747,0.47762 4.656227,0.72668 3.72885,0.15622 7.512031,0.73924 11.249747,0.38476 2.266451,-0.21494 4.127171,-0.70631 6.341321,-1.20307 6.18619,-1.94874 11.88876,-5.29753 16.97721,-9.2929 3.13906,-2.46474 5.09666,-4.36035 8.02519,-7.04518 5.58875,-5.33603 10.73053,-11.26441 14.57075,-18.00376 0.727,-1.27583 1.35597,-2.60507 2.03395,-3.90761 2.31888,-4.9106 4.40887,-10.11365 4.84535,-15.58842 0.0594,-0.74459 0.0195,-1.49377 0.0292,-2.24066 -0.0924,-0.64967 -0.11364,-1.31347 -0.27705,-1.949 -0.57959,-2.25407 -2.25832,-4.46046 -4.14852,-5.80372 -0.43799,-0.31126 -0.93618,-0.52766 -1.40427,-0.7915 -0.56118,-0.18611 -1.10923,-0.41783 -1.68353,-0.55835 -1.32384,-0.32393 -3.08705,-0.49344 -4.42813,-0.59912 -2.58081,-0.20337 -4.83294,-0.20947 -7.41654,-0.0478 -2.34967,0.37329 -4.79347,0.48902 -7.08295,1.19574 -3.78045,1.16695 -7.20284,3.42634 -10.58102,5.37286 -3.12939,1.72808 -5.73365,3.64495 -8.1004,6.31065 -0.21035,0.28071 -0.44758,0.54316 -0.63104,0.84214 -0.53282,0.86838 -0.83971,1.88898 -1.14811,2.8507 -0.0813,0.2536 -0.48494,0.86989 -0.24166,0.76152 1.09575,-0.4881 1.99908,-1.3264 2.99862,-1.9896 -0.12555,-0.12928 -0.28416,-0.23318 -0.37666,-0.38785 -0.66552,-1.11285 -1.04443,-2.476 -1.49421,-3.68103 -1.16208,-3.11337 -0.008,0.10254 -1.10981,-3.00741 -0.67287,-1.71043 -1.42354,-3.49697 -2.7165,-4.84876 -0.49688,-0.51947 -0.97411,-0.80968 -1.55544,-1.21297 -3.113274,-1.50507 -6.75307,-0.91837 -10.083264,-0.69764 -3.491074,0.19313 -6.638906,1.08241 -9.715759,2.70432 -1.47039,0.89606 -2.983579,1.7254 -4.411171,2.68818 -1.724747,1.16319 -2.728941,4.22329 -3.314959,6.09042 -0.84623,3.21264 -1.013994,6.54283 -1.122955,9.84697 -0.123074,3.17053 -0.08778,6.3117 0.473136,9.43855 0.752187,3.4511 2.118003,6.7508 3.623596,9.93567 1.560721,3.55283 4.113286,6.4961 6.667531,9.36611 2.35367,2.79112 5.05986,5.21693 7.975232,7.39854 1.595591,1.23145 3.294021,2.34118 5.150761,3.13449 1.436676,0.63376 2.782517,1.44855 4.133844,2.24436 1.158148,0.83045 2.493648,1.21446 3.828378,1.63324 1.10662,0.4337 2.29745,0.49096 3.45732,0.6755 0,0 3.22931,-2.26007 3.22931,-2.26007 v 0 c -1.13788,-0.22501 -2.32636,-0.20735 -3.42247,-0.63365 -1.30344,-0.43808 -2.66638,-0.6954 -3.80088,-1.54431 -1.34981,-0.82827 -2.728669,-1.61768 -4.157523,-2.30103 -1.865037,-0.72584 -3.56662,-1.81341 -5.163436,-3.01027 -2.921132,-2.14031 -5.636072,-4.53262 -7.988276,-7.29903 -2.548657,-2.83231 -4.996548,-5.79352 -6.566651,-9.30034 -1.530763,-3.13849 -2.850039,-6.42231 -3.561874,-9.85036 -0.548111,-3.0999 -0.568542,-6.22326 -0.440976,-9.36459 0.105109,-3.27364 0.274574,-6.57695 1.165791,-9.74791 0.598676,-1.79875 1.251358,-3.60569 2.540619,-5.04701 0.270495,-0.3024 1.290339,-0.92207 0.896949,-0.8228 -0.802286,0.20246 -1.46608,0.7676 -2.199119,1.15139 3.093804,-1.719 6.113092,-2.62848 9.665938,-2.87238 3.248353,-0.23471 6.767163,-0.7925 9.845471,0.55056 0.515057,0.33931 1.070287,0.67004 1.512565,1.10806 1.300152,1.28764 2.035292,3.0391 2.688422,4.70929 1.30371,3.66376 -0.23912,-0.64374 1.10247,3.01324 0.45984,1.25346 0.84125,2.66779 1.49898,3.83858 0.14719,0.262 0.36864,0.47469 0.55295,0.71204 1.24766,-0.67866 2.57986,-1.22086 3.74296,-2.03597 0.213,-0.14928 0.14694,-0.49909 0.22732,-0.74646 0.41448,-1.27557 0.91016,-2.52999 1.82501,-3.53846 2.29588,-2.53696 5.02105,-4.4895 8.01439,-6.14719 -0.29457,0.16186 -1.18889,0.62645 -0.88372,0.48558 2.01166,-0.92859 2.86119,-1.54522 4.95845,-2.22268 1.09034,-0.3522 3.4039,-0.73994 4.5107,-0.91029 0.8527,-0.13125 1.70932,-0.23564 2.56398,-0.35346 3.65851,-0.26003 8.10251,-0.25335 11.69471,0.57769 0.55426,0.12823 1.08661,0.33746 1.62991,0.50619 0.45322,0.241 0.93487,0.43482 1.35965,0.72299 2.51398,1.70552 4.08012,4.43368 4.31632,7.43376 -0.007,0.72791 0.0351,1.45784 -0.0195,2.18373 -0.40691,5.40543 -2.47187,10.54494 -4.74188,15.39866 -0.68153,1.29424 -1.31488,2.61503 -2.04459,3.88273 -3.8502,6.68881 -8.9681,12.57789 -14.53401,17.88367 -3.06625,2.8022 -4.76041,4.46539 -8.07634,7.02061 -1.28847,0.99288 -2.65484,1.88035 -3.98004,2.82365 -0.11709,0.0833 -0.21832,0.19178 -0.34677,0.25625 -3.4598,1.73632 -2.8194,1.38496 -6.42435,2.67729 -2.14028,0.49424 -4.07135,1.01223 -6.26351,1.23508 -3.715434,0.37771 -7.48373,-0.17989 -11.190349,-0.35632 -1.966928,-0.24541 -2.697417,-0.28779 -4.597733,-0.7066 -2.684,-0.59154 -5.258049,-1.55189 -7.844632,-2.46038 -3.006095,-1.1436 -5.980903,-2.38059 -8.811267,-3.91669 -2.590041,-1.55316 -4.987161,-3.37474 -7.072181,-5.57157 -2.385615,-2.73856 -4.570105,-5.65458 -5.988343,-9.02724 -1.342491,-3.37606 -2.099932,-6.27248 -1.873959,-9.93985 0.01913,-2.31444 0.03635,-4.6336 0.263562,-6.93906 0.244742,-2.16808 0.576138,-4.33517 1.133173,-6.44668 0.811467,-2.31488 1.990397,-4.46957 3.308456,-6.5349 3.050529,-4.84943 6.806353,-9.21408 10.642737,-13.45372 0.879399,-0.90947 1.738617,-1.83889 2.638195,-2.72841 4.379047,-4.33003 9.27073,-8.10652 13.821415,-12.24797 2.682171,-2.30883 5.415021,-4.56728 7.841877,-7.15167 1.414418,-1.54003 2.697345,-3.2055 3.577746,-5.11505 0.496208,-1.3246 1.000715,-2.72811 0.134996,-4.01054 -0.950434,-1.02717 -2.182921,-1.02213 -3.511161,-0.95552 -1.756799,0.006 -3.513601,0.0129 -5.270407,0.0145 -1.441956,0.008 -2.885697,0.0294 -4.32621,-0.0477 -0.995553,-0.0856 -2.23275,-0.0853 -2.775659,-1.0701 -0.190932,-1.342015 1.080145,-2.228549 2.019866,-2.974529 1.133792,-0.810439 3.825409,-2.348298 -1.458476,0.703107 -0.199433,0.11517 0.395531,-0.237495 0.603766,-0.335862 0.45112,-0.213109 0.938771,-0.342326 1.389157,-0.557289 2.981228,-0.83157 3.48877,0.269012 6.747722,-2.500059 0.448593,-0.970809 -0.71737,-1.555959 -1.482341,-1.84981 -1.24645,-0.694397 -2.252086,-1.697935 -3.38518,-2.55297 -1.398511,-0.840891 -2.889208,-1.275054 -4.532947,-1.229445 -2.586173,0.08008 -5.583119,1.480386 -6.224379,4.136337 -0.456483,1.733113 -0.914246,3.418226 -2.257255,4.703109 -0.581772,0.597178 -1.025319,1.077804 -1.661372,1.624721 -0.31533,0.27114 -1.369727,0.91338 -0.977419,0.77537 0.81166,-0.28552 1.537796,-0.77705 2.269419,-1.229865 0.30539,-0.189011 -0.646438,0.317155 -0.985602,0.435285 -0.289827,0.10095 -0.596117,0.14629 -0.894173,0.21943 -1.389245,-0.0441 -2.784379,-0.10781 -4.14701,-0.40515 -1.289582,-0.284173 -2.616811,-0.49871 -3.792693,-1.131856 -1.442768,-0.82592 -2.730776,-1.79847 -3.693708,-3.184728 -1.341009,-1.508779 -2.540132,-3.124817 -4.364942,-4.091276 -0.554919,-0.305848 -1.119384,-0.665541 -1.744811,-0.82232 -1.123969,-0.281749 -2.350233,0.04694 -3.485978,-0.0013 -3.610353,0.318384 -5.354786,1.332998 -8.651674,3.486513 -1.339427,1.022381 -2.539267,2.208284 -1.874433,4.00399 0.70412,1.652793 1.681814,2.160617 3.386035,2.624987 2.076521,0.34491 4.209052,0.10604 6.302086,0.015 2.564133,-0.27651 1.135153,0.002 5.346102,-2.232077 0.772872,-0.410054 0.836068,-1.405077 0.808308,-2.158134 -0.280726,-1.600145 -0.900147,-3.105547 -2.003928,-4.321646 -1.24882,-1.193486 -2.639499,-2.239502 -4.213892,-2.968255 -1.827797,-0.794131 -3.700449,-1.425162 -5.65168,-1.842897 -1.432057,-0.361979 -2.819474,-0.898356 -4.276111,-1.149503 -1.164534,-0.181044 -2.380792,-0.112602 -3.486512,-0.582491 -0.136663,-0.07276 -0.280212,-0.133845 -0.409991,-0.218271 -0.116649,-0.07589 -0.198231,-0.315439 -0.326141,-0.260622 -6.938251,2.973501 -3.602305,1.736942 -1.896483,1.586716 2.27253,0.0011 4.545364,0.0029 6.817511,-0.04399 1.574689,-0.05888 3.141276,-0.154654 4.697865,-0.415954 0.393324,-0.06602 0.811569,-0.0632 1.174414,-0.228753 1.474933,-0.672952 2.867681,-1.513129 4.301521,-2.269694 1.26926,-1.258565 0.88899,-2.118894 -0.369186,-3.207131 -1.871924,-0.990925 -3.603167,-0.621861 -5.615085,-0.297913 -2.377993,0.497446 -4.730451,1.160722 -6.967916,2.116487 -1.499793,0.831244 -3.005606,1.651717 -4.499375,2.493732 -1.207121,0.680437 -2.324864,1.503924 -2.971204,2.761567 -0.731338,1.601529 -1.373656,3.253497 -1.709335,4.98847 -0.289441,1.485784 -0.223899,2.979455 -0.212114,4.488202 -7.94e-4,1.030536 -0.0026,2.061146 -0.01558,3.091617 -0.0024,0.18561 -0.189027,0.59903 -0.0083,0.55682 1.229931,-0.28717 2.35281,-0.919282 3.529216,-1.378924 -0.0431,-1.278895 -0.01368,-2.559256 0.01172,-3.838202 0.07455,-2.078844 0.213717,-4.162028 0.638135,-6.203275 0.51771,-2.477084 0.950228,-4.987959 1.737225,-7.394617 0.905177,-2.242801 1.903722,-4.478896 3.503216,-6.324013 1.685417,-1.939888 3.582196,-3.660584 5.82214,-4.946763 -0.746191,0.421163 -1.490723,0.845275 -2.238573,1.263486 -0.300776,0.168198 0.592526,-0.352645 0.897326,-0.513435 1.417995,-0.748038 2.938158,-1.285997 4.472768,-1.737336 3.185012,-0.813303 6.409201,-1.39799 9.619007,-2.098873 4.076866,-0.85298 8.201503,-1.3387 12.370167,-1.394373 4.274161,-0.133826 8.550548,-0.01482 12.826294,-0.04028 4.801653,-0.01593 9.61373,-0.006 14.402294,-0.397978 1.840545,-0.195144 3.233833,-0.313484 5.066803,-0.629724 3.40381,-0.587256 6.69644,-1.63698 9.91566,-2.872119 5.8313,-2.403551 11.53705,-5.084976 17.25552,-7.742652 4.3756,-2.490113 9.03076,-4.822521 12.51183,-8.561004 1.37496,-1.683406 2.04801,-3.527584 2.7523,-5.562063 0.69554,-1.797452 1.26857,-3.626853 1.927,-5.434354 0,0 -3.58942,1.649442 -3.58942,1.649442 z" />
  </g>
</svg>
