<?xml version="1.0" encoding="UTF-8" standalone="no" ?>
<!DOCTYPE svg PUBLIC "-//W3C//DTD SVG 1.1//EN" "http://www.w3.org/Graphics/SVG/1.1/DTD/svg11.dtd">
<svg xmlns="http://www.w3.org/2000/svg" xmlns:xlink="http://www.w3.org/1999/xlink" version="1.1" width="640" height="480" viewBox="0 0 640 480" xml:space="preserve">
<desc>Created with Fabric.js 3.6.3</desc>
<defs>
</defs>
<g transform="matrix(1 0 0 1 222.33 298)"  >
<g style=""   >
		<g transform="matrix(0.13 0 0 -0.13 -0.12 0)"  >
<path style="stroke: none; stroke-width: 1; stroke-dasharray: none; stroke-linecap: butt; stroke-dashoffset: 0; stroke-linejoin: miter; stroke-miterlimit: 4; fill: rgb(0,0,0); fill-rule: nonzero; opacity: 1;"  transform=" translate(-1599.07, -3465)" d="M 0 5765 c 0 -641 2 -1165 5 -1165 c 3 0 47 31 97 68 c 111 82 197 132 227 132 c 16 0 33 -18 63 -65 c 33 -51 46 -64 60 -59 c 10 3 58 30 107 60 c 61 38 94 65 107 89 c 13 25 25 35 43 35 c 18 0 22 3 14 11 c -7 7 -27 7 -69 0 c -46 -9 -66 -19 -97 -49 c -21 -20 -35 -29 -32 -19 c 11 27 -1 20 -24 -15 c -11 -18 -21 -28 -21 -22 c 0 17 40 65 50 59 c 5 -3 12 0 16 6 c 7 12 -29 9 -83 -7 c -17 -5 -23 -2 -23 9 c 0 17 78 57 114 58 c 11 0 41 8 66 19 c 34 13 41 20 28 25 c -9 3 -31 -1 -48 -10 c -37 -19 -54 -13 -18 6 c 30 17 178 48 178 38 c 0 -4 -25 -11 -55 -14 c -52 -7 -68 -24 -22 -25 c 26 -1 -61 -37 -113 -47 c -40 -7 -124 -43 -117 -49 c 2 -3 17 0 32 6 c 16 6 38 10 49 9 c 12 -1 39 6 61 16 c 48 21 169 26 187 6 c 11 -10 7 -11 -17 -5 c -34 7 -24 -10 10 -19 c 11 -3 -3 -3 -31 0 c -52 5 -52 5 -69 -31 c -13 -27 -38 -49 -104 -89 c -47 -28 -97 -57 -111 -63 l -24 -10 l 28 -25 c 15 -13 34 -37 43 -52 l 14 -28 l 19 24 c 10 13 17 32 14 43 c -3 14 11 31 56 67 c 34 27 60 51 57 53 c -7 7 -98 -38 -130 -64 c -19 -16 -79 -34 -72 -21 c 4 5 11 9 16 9 c 6 0 42 19 81 42 c 38 23 83 41 98 41 c 16 0 27 4 24 9 c -3 4 0 8 5 8 c 28 0 -13 -46 -91 -105 c -21 -15 -38 -32 -38 -37 c 0 -6 8 -4 17 3 c 14 12 14 9 -3 -19 c -10 -18 -27 -41 -38 -50 c -17 -16 -19 -16 -30 2 c -6 11 -25 36 -42 55 c -17 20 -52 69 -77 109 c -26 39 -52 72 -58 72 c -15 0 -112 -55 -172 -98 c -48 -35 -50 -56 -3 -44 c 31 8 96 63 97 81 c 0 10 4 8 9 -6 c 11 -26 28 -29 55 -9 c 18 13 18 15 2 30 c -29 30 -18 29 17 -1 c 18 -15 39 -37 46 -47 c 11 -17 10 -17 -14 2 l -26 20 l -44 -23 l -44 -23 l 6 21 c 4 18 -2 15 -34 -15 c -21 -21 -46 -38 -55 -38 c -9 0 -24 -10 -32 -22 c -15 -22 -15 -22 -10 -2 c 8 36 -24 38 -67 4 c -21 -16 -43 -30 -49 -30 c -6 0 -11 -7 -11 -17 c 0 -9 3 -13 6 -10 c 4 3 31 -24 61 -61 c 38 -46 67 -72 95 -82 c 34 -13 40 -13 48 0 c 8 13 10 12 10 -2 c 0 -21 -27 -23 -65 -6 c -14 6 -28 9 -31 5 c -7 -7 13 -45 40 -76 c 14 -16 16 -22 6 -19 c -22 7 -62 70 -57 90 c 3 11 -16 40 -54 80 l -59 63 l 0 -37 c 0 -43 37 -104 80 -131 c 26 -17 67 -67 61 -76 c -9 -13 27 -18 45 -6 c 11 7 43 15 69 16 c 32 2 56 10 68 22 c 10 10 21 16 25 13 c 12 -13 -45 -41 -93 -46 c -47 -5 -50 -7 -47 -31 c 3 -22 -2 -27 -40 -38 c -24 -7 -71 -27 -105 -44 l -63 -31 l 0 -353 c 0 -406 -10 -378 100 -276 c 72 66 114 124 132 182 c 7 24 21 44 31 47 c 11 3 84 49 163 101 c 172 112 222 136 334 158 c 47 10 93 22 103 27 c 26 13 30 7 38 -62 c 4 -36 19 -85 38 -121 c 17 -33 31 -65 31 -71 c 0 -6 16 -28 35 -49 c 19 -21 51 -71 70 -110 c 34 -66 103 -146 146 -170 c 35 -18 19 6 -26 39 c -36 28 -48 45 -66 99 c -12 36 -23 85 -24 108 c -2 24 -10 66 -20 95 c -9 28 -15 53 -12 56 c 8 8 39 -105 42 -154 c 5 -66 39 -153 75 -187 c 16 -16 32 -26 35 -23 c 4 3 -5 32 -18 64 c -14 33 -39 100 -55 149 c -17 50 -37 106 -45 125 c -12 27 -37 179 -37 223 c 0 20 32 3 60 -34 c 27 -33 34 -54 42 -117 c 15 -123 45 -268 64 -309 c 10 -21 33 -59 52 -86 l 34 -47 l -32 -11 c -40 -14 -34 -22 8 -10 c 38 11 40 8 88 -90 c 27 -54 34 -80 30 -104 c -5 -26 -2 -33 22 -47 c 15 -9 50 -35 79 -57 c 39 -32 50 -46 46 -62 c -8 -30 -45 -50 -108 -58 l -57 -8 l -30 49 c -16 26 -34 45 -39 42 c -6 -3 -5 -11 2 -20 c 6 -8 7 -14 2 -14 c -10 0 -53 55 -53 67 c 1 4 9 -2 20 -15 c 13 -16 21 -19 26 -11 c 4 7 -3 20 -17 31 c -22 18 -35 19 -194 14 c -226 -8 -237 -8 -330 -6 c -90 3 -157 -18 -229 -70 c -30 -23 -43 -27 -57 -19 c -11 5 -19 14 -19 19 c 0 6 -14 19 -31 29 c -30 19 -55 18 -95 -1 c -18 -8 -34 -3 -92 32 c -74 43 -183 69 -237 56 l -25 -6 l 0 -166 c 0 -160 1 -164 19 -154 c 11 5 36 10 56 10 c 61 0 207 39 250 67 c 44 28 85 69 85 83 c 0 5 -8 15 -18 22 c -25 18 -34 35 -22 43 c 6 4 9 3 8 -2 c -2 -4 10 -20 25 -35 c 22 -22 33 -26 57 -21 c 46 9 38 -20 -15 -58 c -24 -17 -43 -35 -40 -38 c 2 -4 -4 -7 -13 -8 c -9 0 -46 -13 -81 -28 c -35 -15 -119 -38 -185 -52 c -67 -14 -123 -27 -125 -29 c -30 -27 155 1 244 37 c 11 4 73 27 138 50 c 64 23 117 46 117 50 c 0 5 4 9 10 9 c 5 0 41 20 79 45 c 38 25 90 54 115 65 c 25 10 46 22 46 25 c 0 10 -62 -5 -87 -21 c -12 -8 -28 -11 -36 -8 c -8 3 -21 -1 -28 -9 c -8 -8 -26 -20 -39 -27 c -20 -10 -18 -6 9 20 c 21 20 41 30 52 27 c 10 -3 30 4 44 15 c 14 10 29 17 34 14 c 5 -4 21 -2 36 4 c 19 7 24 7 19 -2 c -5 -8 -2 -9 12 -4 c 10 5 28 10 39 13 c 23 5 -57 -44 -95 -59 c -13 -5 -63 -32 -110 -61 c -103 -62 -94 -56 -88 -62 c 2 -3 40 17 84 43 c 89 54 237 117 256 109 c 8 -4 7 -6 -4 -6 c -31 -2 -212 -86 -248 -116 c -8 -7 -26 -16 -39 -20 c -14 -4 -46 -27 -72 -52 c -80 -75 -113 -203 -118 -458 c -3 -172 27 -320 77 -373 c 38 -41 80 -34 127 21 c 19 22 37 38 41 35 c 3 -3 -12 -24 -34 -47 c -37 -39 -60 -48 -112 -42 c -69 8 -118 218 -107 460 c 9 181 20 246 62 344 c 5 13 2 17 -14 17 c -15 0 -21 -7 -22 -22 c 0 -22 -1 -22 -8 -3 c -9 23 3 35 35 35 c 11 0 36 16 55 36 c 32 34 33 36 9 29 c -14 -4 -45 -17 -70 -28 c -25 -12 -49 -22 -55 -22 c -23 -2 -55 -17 -55 -26 c 0 -14 -101 -178 -114 -186 c -12 -8 36 77 69 122 c 31 43 38 65 19 65 c -8 0 -12 -5 -9 -11 c 4 -6 -2 -20 -12 -32 c -19 -22 -83 -130 -151 -257 c -20 -36 -45 -81 -56 -100 c -35 -58 -50 -90 -44 -96 c 3 -3 29 39 58 93 c 30 54 61 112 70 128 c 9 17 22 41 29 53 c 7 13 15 22 17 19 c 3 -3 -18 -47 -47 -98 c -93 -167 -126 -237 -127 -268 c 0 -19 3 -29 9 -25 c 6 3 7 19 4 34 c -4 17 -2 31 5 35 c 9 5 10 1 6 -16 c -7 -23 -7 -23 8 -5 c 18 22 21 40 6 31 c -6 -4 -7 1 -3 11 c 5 13 8 14 11 5 c 3 -8 11 -2 23 16 c 25 38 24 54 -2 23 c -14 -17 -12 -9 8 27 c 16 29 40 65 53 80 c 29 32 40 51 71 113 c 79 164 112 227 125 240 c 8 8 -13 -39 -46 -105 c -33 -66 -60 -124 -60 -128 c 0 -7 -18 -36 -102 -160 c -26 -38 -26 -41 -10 -54 c 9 -8 12 -12 5 -9 c -17 9 -85 -121 -78 -147 c 5 -16 4 -18 -3 -8 c -14 19 -34 -20 -30 -57 c 3 -27 4 -26 33 17 c 17 24 37 51 45 60 c 25 28 50 70 50 84 c 0 8 11 40 25 71 c 14 31 25 63 25 71 c 0 8 11 26 25 41 c 14 15 25 23 25 19 c 0 -5 -8 -17 -17 -27 c -15 -17 -31 -53 -63 -148 c -17 -48 -43 -104 -52 -111 c -5 -3 -28 -34 -53 -69 l -45 -64 l 0 -1073 l 0 -1073 l 1600 0 l 1600 0 l 0 1555 c 0 1030 -3 1555 -10 1555 c -5 0 -10 8 -10 18 c 0 15 2 15 11 2 c 6 -8 9 -10 7 -4 c -4 13 -170 163 -251 227 c -33 26 -55 47 -48 47 c 16 0 84 -54 195 -157 c 50 -46 95 -83 100 -83 c 6 1 -18 28 -54 62 c -64 60 -64 60 -8 14 c 31 -25 59 -46 62 -46 c 3 0 6 43 6 95 c 0 67 -4 95 -12 95 c -9 0 -9 3 0 12 c 7 7 12 19 12 27 c 0 21 -45 -23 -68 -67 c -25 -48 -44 -59 -76 -44 c -23 10 -25 14 -14 31 c 6 11 24 21 39 23 c 16 3 26 1 23 -4 c -3 -4 -13 -8 -24 -8 c -24 0 -35 -29 -13 -37 c 17 -7 63 40 63 63 c 0 7 16 26 35 43 l 35 30 l 0 327 l 0 326 l -40 -4 c -22 -2 -40 0 -40 4 c 0 8 14 11 41 9 c 23 -3 32 27 11 38 c -17 8 -121 -1 -140 -13 c -6 -3 -45 -11 -88 -17 c -101 -14 -141 -31 -185 -79 c -24 -26 -45 -40 -62 -40 c -42 0 -46 -16 -41 -165 c 2 -76 2 -136 -1 -134 c -3 3 -7 69 -10 148 l -5 142 l 28 10 c 54 21 77 35 77 47 c 0 7 -4 11 -10 10 c -5 -1 -9 -8 -7 -15 c 2 -7 -2 -13 -8 -13 c -6 0 -8 5 -4 12 c 5 8 2 9 -11 4 c -18 -6 -18 -6 -2 12 c 9 10 14 21 11 25 c -3 3 3 3 15 0 c 12 -3 21 -10 21 -16 c 0 -5 8 -3 18 5 c 31 26 95 47 176 58 c 43 5 82 13 88 16 c 19 12 124 21 146 13 c 16 -6 22 -5 22 6 c 0 8 -8 15 -17 16 c -15 0 -15 2 2 9 c 16 7 13 9 -16 9 c -19 1 -40 -4 -47 -11 c -7 -7 -30 -11 -51 -9 c -22 1 -44 -3 -52 -11 c -8 -8 -43 -14 -84 -15 c -38 -2 -94 -10 -123 -19 c -45 -15 -60 -15 -88 -5 c -19 7 -39 9 -45 5 c -8 -4 -9 -3 -5 5 c 4 6 0 14 -11 17 c -41 13 -63 28 -63 43 c 0 11 4 9 16 -7 c 8 -12 24 -22 34 -22 c 11 0 34 -9 52 -20 c 39 -24 59 -25 114 -5 c 23 8 74 16 113 19 c 39 3 80 10 91 16 c 10 5 37 10 59 10 c 22 0 43 5 46 10 c 3 6 22 10 41 10 l 34 0 l 0 70 l 0 70 l -57 0 c -75 0 -273 20 -298 30 c -21 8 10 6 149 -11 c 44 -5 108 -9 143 -9 l 63 0 l 0 125 c 0 112 -2 125 -17 126 c -15 0 -15 2 2 8 c 36 15 -58 32 -219 41 c -92 5 -186 16 -240 29 c -51 12 -123 21 -167 21 c -42 0 -89 4 -105 9 c -16 5 -51 12 -77 16 c -27 4 -47 9 -44 11 c 2 3 31 0 63 -6 c 33 -6 113 -15 179 -20 c 66 -5 155 -18 199 -29 c 49 -13 111 -21 165 -21 c 88 -1 212 -14 244 -26 c 16 -6 17 5 17 132 l 0 139 l -110 -9 c -95 -8 -115 -7 -145 7 c -34 16 -46 12 -24 -10 c 7 -7 3 -9 -15 -6 c -14 3 -26 9 -26 14 c 0 5 -8 5 -17 0 c -29 -16 -123 -39 -188 -46 c -98 -11 -179 -26 -192 -37 c -16 -13 -53 0 -53 18 c 0 9 -5 12 -12 8 c -6 -4 -8 -3 -5 3 c 8 12 -87 136 -96 126 c -3 -3 14 -35 38 -70 c 25 -36 45 -76 45 -88 c 0 -27 28 -40 62 -30 c 16 4 19 3 10 -3 c -20 -13 29 -24 76 -17 c 36 5 36 5 7 -5 c -30 -11 -127 3 -151 22 c -12 9 -90 -30 -93 -47 c -1 -5 22 -15 51 -22 l 53 -12 l -55 6 c -30 3 -57 9 -60 13 c -3 4 -20 -3 -39 -16 c -40 -27 -38 -29 71 -48 c 67 -11 81 -11 98 1 c 18 12 19 17 8 31 c -12 14 -11 14 10 1 l 23 -14 l -28 -23 c -19 -15 -36 -21 -53 -17 c -14 3 -43 7 -65 10 c -58 9 -105 25 -105 37 c 0 6 8 17 17 24 c 16 12 17 13 1 14 c -14 0 -15 5 -6 37 c 8 30 6 44 -12 82 c -12 27 -34 54 -51 64 c -29 16 -30 16 -25 -1 c 2 -9 7 -44 11 -77 c 8 -69 14 -82 27 -64 c 7 10 8 8 3 -6 c -4 -11 -10 -33 -14 -49 c -4 -16 -12 -31 -18 -33 c -14 -5 -33 78 -34 150 c -1 29 -4 64 -8 79 c -8 33 -61 98 -81 99 c -9 0 -10 2 -3 5 c 6 3 23 -2 37 -12 c 30 -19 34 -10 9 20 c -18 21 -18 21 3 4 c 39 -33 38 -18 -1 22 c -21 21 -42 37 -47 34 c -4 -3 -5 -10 -2 -16 c 4 -7 2 -8 -5 -4 c -8 6 -9 12 -2 20 c 6 7 7 17 3 21 c -4 5 6 -1 22 -13 c 16 -12 34 -22 40 -22 c 6 0 0 9 -14 20 c -21 16 -23 21 -11 32 c 8 7 11 8 8 2 c -8 -14 27 -47 38 -37 c 4 5 5 3 2 -3 c -4 -7 -1 -17 7 -23 c 11 -9 15 -9 20 1 c 4 9 5 8 3 -2 c -3 -19 63 -101 75 -94 c 5 4 -1 18 -14 33 l -23 26 l 27 -24 c 21 -19 25 -27 17 -38 c -13 -14 -27 -8 -48 20 c -29 41 -74 88 -79 83 c -2 -3 9 -21 27 -41 c 24 -28 29 -40 22 -54 c -8 -14 -4 -22 19 -39 c 16 -12 33 -22 37 -22 c 15 0 63 -114 53 -124 c -13 -13 -13 -43 1 -51 c 6 -4 20 2 32 13 c 12 11 41 29 65 41 c 23 12 42 27 42 35 c 0 26 -134 206 -145 194 c -3 -3 4 -16 15 -31 c 11 -14 20 -30 20 -35 c 0 -6 3 -12 7 -14 c 15 -6 43 -66 43 -91 c 0 -84 -49 -68 -55 18 c -1 6 -7 21 -14 35 l -14 25 l 22 -19 c 12 -11 20 -25 18 -30 c -2 -6 1 -27 8 -46 l 13 -35 l 7 28 c 10 36 -8 77 -67 155 c -26 35 -48 66 -48 69 c 0 8 -29 30 -70 52 c -19 11 -60 43 -90 73 c -30 29 -68 59 -85 66 l -30 12 l 28 -5 c 16 -3 64 -37 109 -75 c 44 -39 85 -70 92 -70 c 17 -1 53 -34 60 -57 c 5 -15 12 -19 27 -16 c 15 4 28 -2 43 -22 c 13 -16 25 -24 29 -18 c 4 6 -15 31 -41 55 c -26 25 -65 67 -87 93 c -29 35 -60 57 -110 80 c -127 58 -137 60 -231 60 c -79 -1 -98 -4 -143 -28 c -55 -28 -81 -34 -81 -17 c 0 24 -47 8 -77 -27 c -28 -34 -34 -37 -52 -25 c -28 16 -36 15 -21 -3 c 7 -9 11 -16 9 -18 c -2 -1 -26 -13 -53 -27 c -87 -43 -153 -113 -202 -214 c -25 -50 -57 -102 -71 -116 c -22 -21 -24 -22 -15 -4 c 6 11 18 26 26 33 c 9 8 14 17 11 21 c -3 5 -1 12 5 15 c 6 4 26 39 44 78 c 19 40 50 87 69 106 c 20 19 33 39 30 44 c -4 6 -1 7 6 3 c 7 -5 20 -1 30 8 c 10 9 35 25 56 35 c 35 17 37 19 17 25 c -28 9 -109 -33 -90 -46 c 10 -7 9 -8 -2 -7 c -16 3 -52 -13 -140 -61 c -30 -17 -59 -29 -63 -27 c -5 1 15 15 44 30 c 58 29 66 34 147 85 c 29 18 74 40 100 49 c 26 9 54 22 63 29 c 8 8 24 14 35 14 c 11 0 24 4 29 9 c 6 5 30 11 54 14 c 28 3 40 2 31 -3 c -32 -20 0 -19 38 0 c 22 12 70 26 106 32 c 89 15 171 0 283 -50 c 86 -39 116 -44 92 -16 c -6 7 -15 11 -20 8 c -5 -3 -6 1 -3 9 c 3 8 -24 39 -69 80 c -91 81 -148 187 -102 187 c 8 0 15 -5 15 -11 c 0 -20 41 -79 51 -74 c 5 4 1 17 -8 31 c -13 20 -14 27 -4 33 c 9 6 2 14 -22 29 c -27 15 -38 17 -48 9 c -11 -10 -11 -9 -1 4 c 10 13 7 18 -13 29 c -14 7 -25 17 -25 22 c 0 11 7 7 88 -51 c 38 -28 57 -48 50 -52 c -6 -4 -8 -14 -3 -25 c 5 -13 9 -15 12 -7 c 3 9 10 10 23 3 c 10 -6 21 -6 24 -2 c 6 11 -30 45 -102 96 c -29 21 -51 40 -48 43 c 5 5 91 -54 148 -101 c 20 -17 72 -57 116 -90 c 70 -51 172 -153 172 -171 c 0 -13 -56 -55 -88 -66 c -30 -10 -38 -8 -83 19 c -87 55 -66 16 65 -118 c 67 -69 146 -168 157 -197 c 9 -23 33 -31 43 -14 c 6 9 90 25 191 36 c 33 4 89 15 125 24 l 65 19 l -2 43 c -3 63 -53 154 -127 231 c -68 72 -103 88 -141 68 c -16 -8 -37 -10 -62 -5 c -39 7 -52 8 -92 3 c -14 -2 -26 3 -29 12 c -3 12 -2 12 8 3 c 8 -7 21 -9 35 -3 c 12 5 39 4 64 -3 c 32 -9 46 -8 61 1 c 53 32 104 7 192 -94 c 58 -68 92 -137 104 -214 c 7 -45 19 -58 28 -33 c 4 9 1 20 -6 25 c -9 5 -10 8 -1 8 c 7 0 25 -12 40 -26 c 28 -26 29 -26 138 -19 c 60 3 113 9 117 11 c 4 3 8 59 8 125 l 0 119 l -117 2 l -118 2 l 120 6 c 123 5 128 16 10 23 c -37 3 -28 4 23 3 l 82 -1 l 0 30 c 0 26 -5 32 -40 43 c -22 6 -48 12 -57 12 c -10 0 -25 4 -33 10 c -10 6 2 8 37 7 c 28 -1 50 -6 50 -12 c -1 -5 8 -11 21 -13 c 33 -5 28 26 -5 33 c -16 3 -41 13 -58 21 c -31 15 -82 8 -110 -16 c -16 -14 -136 -43 -143 -35 c -3 3 2 5 11 5 c 10 0 17 4 17 10 c 0 5 6 7 13 4 c 8 -3 33 2 55 11 c 95 35 118 43 147 49 c 20 4 25 3 16 -3 c -11 -7 -10 -11 5 -19 c 11 -5 31 -12 47 -16 c 26 -6 27 -5 27 29 c 0 42 -4 42 -147 19 c -63 -10 -123 -27 -174 -51 l -78 -35 l -22 20 c -15 15 -20 29 -17 46 c 4 17 0 26 -11 29 c -11 3 -9 5 6 6 c 12 1 31 15 44 34 c 13 17 32 41 44 52 c 12 12 20 26 18 32 c -3 7 1 22 8 35 c 8 13 13 26 12 29 c -1 3 4 6 11 6 c 19 0 185 136 179 146 c -3 5 -19 -4 -37 -20 c -126 -117 -191 -146 -145 -63 c 12 22 25 38 27 35 c 2 -2 -6 -20 -18 -39 c -12 -20 -17 -36 -11 -36 c 6 0 11 5 11 12 c 0 6 3 8 6 5 c 4 -4 23 8 44 26 c 20 17 50 43 66 57 c 16 14 42 36 57 49 c 15 13 27 20 26 15 c -4 -21 2 -25 18 -13 c 14 11 14 9 -2 -11 c -10 -14 -58 -57 -105 -95 c -48 -39 -85 -74 -82 -80 c 3 -5 1 -7 -3 -2 c -10 9 -55 -31 -55 -50 c 0 -7 5 -13 11 -13 c 5 0 7 6 3 13 c -4 6 -4 9 1 5 c 4 -4 24 1 44 11 c 20 11 56 24 81 31 c 25 7 40 14 35 17 c -6 2 -32 -3 -58 -11 c -26 -8 -45 -10 -42 -6 c 3 5 31 14 63 20 c 31 7 65 16 75 21 c 9 5 17 5 17 1 c 0 -5 -10 -14 -22 -20 c -17 -8 -19 -11 -6 -11 c 9 -1 23 6 32 14 c 9 9 17 11 21 5 c 6 -10 -34 -30 -62 -30 c -29 0 -98 -24 -135 -47 c -21 -13 -41 -23 -46 -23 c -17 0 -94 -99 -86 -111 c 3 -5 0 -8 -6 -7 c -16 4 -23 -39 -8 -48 c 8 -5 9 -2 5 9 c -3 9 -2 19 3 22 c 6 4 10 1 10 -6 c 0 -8 5 -8 18 2 c 9 7 7 2 -6 -13 c -13 -14 -20 -28 -15 -31 c 5 -3 44 10 88 29 c 58 26 110 40 197 52 c 99 14 118 20 118 34 c 0 13 -8 18 -27 19 l -28 1 l 30 9 c 33 9 -119 2 -170 -8 c -27 -5 -28 -7 -10 -14 c 14 -7 11 -7 -12 -3 c -22 4 -46 -2 -82 -21 c -28 -14 -51 -22 -51 -18 c 0 5 -4 2 -9 -5 c -6 -11 -9 -9 -13 6 c -4 14 -2 19 7 16 c 7 -3 15 3 18 13 c 4 16 5 16 6 1 c 1 -22 3 -22 43 0 c 44 24 115 40 216 48 l 82 6 l 0 729 l 0 729 l -1600 0 l -1600 0 l 0 -1165 z m 2773 119 c -97 -159 -132 -260 -133 -376 c 0 -60 15 -83 35 -54 c 13 17 39 139 51 241 l 8 60 l 8 -50 c 4 -27 3 -104 -2 -169 c -6 -65 -9 -120 -8 -121 c 2 -2 13 1 25 6 c 15 5 21 14 17 24 c -5 13 -9 13 -22 3 c -13 -11 -13 -8 1 19 c 9 17 14 40 11 50 c -5 14 -4 15 4 4 c 8 -11 12 -10 21 7 c 15 27 14 29 -9 35 c -11 3 -20 10 -20 16 c 0 7 10 5 25 -5 c 14 -9 25 -12 25 -7 c 0 6 14 28 31 49 c 16 21 55 89 85 152 c 31 63 58 112 60 109 c 8 -7 -111 -244 -140 -278 c -18 -21 -25 -38 -21 -53 c 5 -17 4 -18 -4 -6 c -6 8 -11 11 -12 5 c -1 -5 -3 -19 -4 -30 c -1 -12 -7 -30 -14 -42 c -14 -27 -14 -36 0 -28 c 6 4 5 -2 -3 -14 c -12 -20 -18 -22 -50 -25 c -7 -1 -17 -5 -21 -11 c -5 -6 -6 -2 -3 9 c 10 28 28 267 22 274 c -3 3 -6 -9 -6 -26 c 0 -41 -38 -202 -51 -219 c -8 -9 -16 -10 -30 -2 c -16 8 -19 21 -19 72 c 1 74 12 130 46 217 c 36 92 130 257 140 247 c 3 -2 -17 -40 -43 -83 z m -1162 -688 c 12 -13 31 -27 43 -30 c 25 -6 77 -92 69 -113 c -9 -25 98 -167 109 -146 c 3 4 3 2 1 -5 c -5 -22 8 -36 19 -21 c 7 11 8 11 6 -1 c -2 -17 31 -84 39 -77 c 2 3 0 15 -7 26 c -6 12 -9 25 -7 29 c 9 14 -170 308 -202 332 c -24 17 -24 19 -4 13 c 12 -3 28 -11 34 -19 c 6 -8 19 -14 29 -14 c 9 0 46 -31 82 -68 c 48 -49 69 -80 78 -112 c 7 -25 19 -63 27 -85 c 40 -105 81 -237 88 -276 c 3 -24 9 -53 12 -63 c 5 -16 3 -17 -10 -5 c -8 8 -12 19 -10 26 c 8 21 -18 124 -29 117 c -7 -4 -8 -2 -4 5 c 4 6 -4 47 -19 91 c -24 72 -28 79 -46 70 c -10 -6 -19 -15 -19 -21 c 0 -6 4 -7 10 -4 c 5 3 7 0 4 -9 c -3 -8 3 -23 14 -34 c 11 -11 18 -23 15 -25 c -2 -3 3 -19 12 -36 c 9 -18 13 -36 10 -41 c -3 -5 3 -42 14 -82 c 22 -84 54 -259 47 -265 c -2 -2 -10 29 -16 69 c -16 90 -47 229 -54 235 c -3 3 -8 -7 -12 -22 c -4 -18 -2 -30 7 -37 c 12 -8 11 -9 -1 -5 c -8 2 -19 19 -23 38 c -18 68 -29 91 -39 77 c -7 -10 -9 -10 -7 2 c 3 33 -1 51 -12 44 c -12 -7 -3 -73 12 -88 c 5 -6 9 -17 9 -25 c -1 -32 -32 43 -34 79 c 0 21 -4 36 -8 33 c -5 -2 -8 1 -8 6 c 0 17 38 13 48 -5 c 14 -25 25 1 12 26 c -10 18 -14 19 -28 8 c -15 -12 -16 -11 -4 4 c 11 13 11 22 2 39 c -12 21 -12 21 -31 2 c -19 -18 -19 -22 -4 -84 c 8 -35 14 -82 13 -104 c -1 -40 -1 -40 -5 -5 c -2 19 -11 69 -19 110 c -12 53 -13 75 -5 78 c 6 2 11 8 11 13 c 0 6 -4 8 -8 5 c -4 -2 -9 5 -9 17 c -2 20 -1 20 8 5 c 6 -10 15 -18 20 -18 c 6 0 -4 20 -22 45 c -36 50 -47 52 -30 4 c 6 -17 8 -35 5 -40 c -3 -6 4 -55 16 -110 c 12 -55 20 -102 18 -104 c -7 -8 -50 195 -45 209 c 7 17 -14 90 -42 143 c -11 22 -19 49 -18 60 c 2 27 -42 91 -68 99 c -22 7 -79 64 -64 64 c 5 0 19 -11 30 -24 z m -388 -177 c 18 -20 18 -21 0 -15 c -24 7 -29 2 -85 -71 c -85 -112 -136 -231 -174 -408 c -31 -147 -25 -137 -120 -186 c -48 -24 -95 -52 -106 -61 c -10 -10 -27 -18 -38 -18 c -11 0 -20 -4 -20 -10 c 0 -23 -29 -7 -41 23 c -7 17 -25 59 -41 92 c -16 33 -26 66 -23 73 c 3 8 -4 26 -15 42 c -11 15 -20 33 -20 39 c 0 12 149 159 200 196 c 35 26 60 32 60 15 c 0 -5 -19 -40 -41 -77 c -23 -38 -43 -71 -46 -75 c -2 -5 3 -8 12 -8 c 9 0 13 5 10 10 c -4 6 -1 9 6 8 c 7 -2 15 6 17 17 c 2 11 7 24 12 28 c 4 5 5 -3 3 -17 c -3 -14 -3 -26 1 -26 c 10 0 43 73 50 110 c 26 130 52 231 69 265 c 11 22 19 42 18 45 c -1 3 -15 3 -32 1 c -17 -1 -29 1 -26 6 c 5 7 26 8 70 4 c 13 -2 8 -21 -17 -59 c -14 -22 -33 -80 -46 -142 c -36 -169 -48 -204 -87 -258 c -21 -29 -42 -52 -47 -52 c -5 0 -3 6 3 14 c 10 11 7 17 -10 29 c -25 18 -26 17 44 125 c 16 24 26 46 24 48 c -8 9 -108 -77 -101 -87 c 4 -6 11 -6 20 2 c 8 6 2 -9 -12 -35 c -14 -25 -30 -47 -35 -47 c -5 -1 -15 -2 -21 -3 c -7 -1 -12 -7 -10 -14 c 1 -7 -2 -12 -8 -12 c -5 0 -10 5 -10 10 c 0 18 24 37 41 33 c 11 -3 20 5 27 25 c 12 36 7 45 -19 29 c -23 -14 -25 -32 -3 -23 c 9 3 12 2 9 -5 c -4 -6 -12 -8 -19 -6 c -6 3 -31 -12 -55 -33 l -44 -38 l 22 -31 c 12 -17 21 -39 19 -50 c -4 -23 62 -172 74 -165 c 4 3 5 -3 1 -13 c -5 -15 -3 -16 8 -5 c 7 6 21 12 30 12 c 9 0 22 7 29 15 c 15 18 10 18 -25 5 c -16 -6 -24 -6 -20 0 c 3 5 22 12 43 16 c 40 7 182 78 194 97 c 4 6 14 45 23 87 c 43 196 108 358 179 445 l 36 43 l -35 16 c -33 16 -47 36 -24 36 c 5 0 7 -4 4 -10 c -3 -5 2 -10 11 -10 c 10 0 26 -7 36 -17 c 16 -14 18 -14 18 -1 c 0 9 9 18 21 21 c 12 3 18 10 14 16 c -10 18 -1 12 18 -10 z m 300 -34 l 6 -30 l -12 28 c -15 38 -43 32 -38 -8 c 4 -41 10 -48 28 -33 c 13 10 18 8 34 -11 c 11 -13 19 -29 19 -36 c 0 -7 6 -15 14 -18 c 17 -7 52 -80 60 -127 c 5 -27 3 -31 -5 -20 c -8 12 -9 9 -5 -12 c 4 -15 1 -30 -5 -34 c -17 -10 -4 -115 24 -200 c 24 -74 25 -94 1 -94 c -8 0 -14 -5 -14 -10 c 0 -6 -10 -24 -22 -41 c -22 -29 -22 -31 -5 -43 c 9 -7 17 -22 17 -32 c 1 -26 49 -61 60 -44 c 11 17 41 5 34 -14 c -4 -10 4 -16 26 -21 c 17 -4 34 -13 37 -21 c 3 -9 21 -14 53 -14 c 26 0 61 -5 78 -11 c 28 -10 31 -14 24 -37 c -4 -15 -6 -49 -6 -77 l 2 -50 l -13 45 c -7 25 -16 54 -20 65 c -6 19 -6 19 8 2 c 14 -16 15 -16 19 8 c 7 32 0 36 -75 43 c -39 3 -72 13 -89 25 c -17 13 -33 17 -45 12 c -17 -7 -16 -8 5 -18 c 12 -5 22 -14 22 -20 c 0 -5 8 -6 18 -2 c 13 5 14 4 5 -6 c -10 -10 -16 -9 -32 5 c -10 9 -31 19 -46 22 c -16 3 -48 16 -72 30 c -34 21 -43 31 -43 54 c 0 15 -11 48 -25 72 c -18 33 -26 64 -29 114 c -2 38 -5 80 -6 94 c -2 24 -3 23 -10 -5 c -5 -20 -7 3 -7 65 c 1 71 2 78 4 30 c 3 -45 7 -60 13 -50 c 7 11 10 2 11 -30 c 5 -143 8 -162 33 -207 c 14 -25 26 -58 26 -73 c 0 -34 47 -71 61 -49 c 10 16 -29 51 -45 42 c -5 -3 -7 6 -4 21 c 3 14 1 29 -4 32 c -5 3 -6 14 -3 24 c 4 11 -4 28 -20 45 c -20 23 -25 37 -24 79 c 1 28 -2 69 -5 91 c -5 34 -5 36 4 15 c 6 -13 11 -52 11 -84 c 1 -72 30 -126 56 -105 c 9 8 12 22 9 38 c -4 14 -9 49 -12 76 c -3 28 -11 56 -16 63 c -7 8 -7 12 1 12 c 12 0 19 -25 24 -80 c 4 -42 21 -75 34 -67 c 7 4 1 34 -14 79 c -26 76 -32 160 -20 253 c 7 55 5 61 -57 151 c -33 48 -40 54 -48 40 c -7 -13 -5 -23 8 -37 c 9 -10 12 -19 7 -19 c -6 0 -14 7 -17 16 c -9 24 -19 10 -11 -15 c 3 -12 13 -21 20 -21 c 8 0 17 -4 20 -10 c 4 -6 -1 -7 -11 -3 c -14 5 -16 3 -11 -11 c 4 -10 7 -31 7 -47 c 0 -22 4 -27 18 -23 c 15 5 15 4 -2 -10 c -10 -8 -23 -13 -27 -10 c -11 6 -11 6 0 -32 c 8 -28 7 -31 -9 -27 c -23 6 -40 45 -40 93 c 0 39 -14 61 -23 38 c -4 -9 -6 -10 -6 -1 c -1 19 20 27 30 12 c 5 -8 9 -30 9 -49 c 0 -19 7 -46 15 -60 c 15 -27 21 -10 6 18 c -12 24 -23 141 -11 122 c 5 -8 10 -37 10 -64 c 0 -39 3 -47 12 -38 c 9 9 9 24 -1 64 c -7 29 -14 67 -15 83 c -1 17 -5 37 -8 45 c -20 48 -18 70 4 79 c 27 11 34 5 41 -34 z m -170 -435 c -5 -179 -5 -186 16 -207 c 12 -13 27 -23 33 -23 c 19 0 79 -51 87 -74 c 9 -23 -10 -195 -29 -267 l -12 -43 l 51 -48 c 28 -26 56 -48 61 -48 c 5 0 22 12 37 26 c 23 22 34 25 68 20 c 85 -13 90 -12 93 12 c 4 26 -16 82 -28 82 c -4 0 -11 7 -14 16 c -6 14 -4 15 9 4 c 39 -32 58 -107 33 -128 c -18 -14 -128 -31 -134 -21 c -3 5 13 9 36 9 c 25 0 39 4 35 10 c -12 19 -62 10 -89 -15 c -15 -14 -35 -25 -46 -25 c -10 0 -42 23 -70 50 c -42 40 -51 55 -46 73 c 13 47 36 194 38 244 c 3 57 -12 76 -84 110 c -60 30 -64 43 -56 205 c 4 79 6 197 4 263 c -4 108 -4 112 4 40 c 5 -44 6 -163 3 -265 z m -432 -279 c -6 -36 -15 -88 -19 -115 c -7 -48 -8 -49 -55 -61 c -27 -7 -53 -17 -60 -24 c -16 -16 -37 -14 -37 4 c 0 8 -11 22 -25 31 c -14 9 -31 26 -37 38 c -7 15 0 11 24 -11 c 19 -18 37 -33 41 -33 c 4 0 7 15 7 33 c 0 30 4 35 50 55 c 28 12 57 22 65 22 c 7 0 17 5 21 11 c 5 9 -2 10 -22 6 c -28 -6 -28 -6 4 8 c 17 8 32 20 32 25 c 0 14 -4 13 -42 -9 c -18 -10 -50 -22 -70 -25 c -21 -4 -40 -12 -44 -18 c -5 -7 -1 -9 12 -5 c 51 16 65 16 29 1 c -22 -10 -43 -22 -47 -28 c -4 -6 -8 1 -8 16 c 0 31 9 38 53 45 c 18 2 52 15 77 27 c 40 21 45 28 49 62 c 2 22 6 33 9 25 c 2 -8 -1 -44 -7 -80 z m 1404 -368 l 7 -132 l -52 -102 c -28 -56 -65 -122 -81 -146 c -50 -72 -250 -269 -299 -293 c -60 -31 -165 -38 -245 -17 c -92 24 -195 85 -214 127 c -24 51 -52 92 -83 118 c -16 13 -28 30 -28 37 c 0 7 -4 15 -8 17 c -4 2 -18 19 -31 38 l -24 35 l 36 -39 c 21 -21 37 -41 37 -45 c 0 -3 23 -30 50 -60 c 27 -30 52 -67 55 -83 c 7 -31 60 -70 160 -119 c 43 -20 65 -24 150 -24 c 79 0 107 4 135 19 c 42 23 255 236 297 297 c 17 24 54 89 83 144 l 53 100 l -10 140 c -6 77 -13 149 -17 160 c -3 11 0 7 8 -10 c 8 -17 17 -83 21 -162 z m 301 136 c 1 -33 -2 -46 -8 -37 c -6 8 -7 3 -4 -17 c 3 -16 8 -97 11 -180 c 3 -82 9 -153 14 -158 c 18 -18 334 33 397 64 c 11 6 36 9 55 6 c 32 -4 32 -4 -8 -5 c -23 -1 -44 -6 -47 -11 c -3 -5 16 -7 42 -5 l 47 3 l -40 -9 c -22 -4 -67 -18 -101 -30 c -33 -11 -123 -28 -200 -38 c -138 -17 -139 -17 -136 -42 c 3 -30 45 -67 92 -80 c 39 -11 67 -27 60 -34 c -3 -2 -39 12 -80 32 c -60 30 -76 42 -82 65 c -4 16 -5 34 -2 41 c 3 8 57 18 147 29 c 78 9 167 25 197 36 c 64 23 47 28 -22 7 c -26 -8 -108 -22 -184 -31 c -108 -13 -138 -14 -144 -4 c -7 10 -17 155 -22 324 c -2 71 2 125 10 125 c 4 0 7 -23 8 -51 z m -97 -990 c 11 -29 21 -63 21 -78 c 0 -30 34 -59 44 -38 c 3 7 4 3 1 -9 c -3 -12 3 -31 15 -47 c 11 -14 20 -38 20 -54 c 0 -15 5 -35 10 -43 c 8 -12 10 -10 10 8 c 0 44 34 152 47 152 c 7 0 13 -6 13 -14 c 0 -7 7 -27 15 -42 c 8 -16 15 -42 15 -57 c 0 -17 4 -26 11 -22 c 6 4 8 13 5 21 c -3 8 -1 14 4 14 c 4 0 14 -17 20 -37 c 7 -21 22 -60 35 -88 c 12 -27 28 -65 35 -82 c 14 -37 16 -38 53 -20 c 33 15 33 22 3 61 c -27 36 -90 166 -83 172 c 3 3 19 -26 37 -63 c 18 -37 43 -84 56 -103 c 43 -62 32 -73 -100 -106 c -38 -9 -90 -31 -116 -48 c -25 -17 -68 -42 -93 -56 c -26 -13 -47 -28 -47 -32 c 0 -4 -28 -22 -62 -39 c -77 -38 -119 -72 -135 -108 c -12 -25 -12 -25 -13 -3 c 0 31 50 76 133 118 c 37 19 67 38 67 42 c 0 5 21 19 46 31 c 25 13 68 38 95 55 c 27 18 73 38 104 45 c 30 7 55 16 55 21 c 0 21 -89 210 -95 201 c -3 -6 -3 -21 0 -34 c 6 -16 4 -19 -4 -11 c -7 6 -15 33 -20 60 c -5 27 -15 64 -23 82 l -15 34 l -12 -44 c -6 -23 -15 -61 -19 -82 c -4 -22 -13 -41 -19 -43 c -10 -4 -23 27 -23 59 c 0 20 -58 108 -71 108 c -5 0 -9 18 -9 39 c 0 22 -5 43 -10 46 c -7 4 -8 -8 -4 -37 c 4 -24 4 -40 0 -37 c -4 3 -8 34 -10 69 c -2 34 -8 66 -13 71 c -14 14 -60 -9 -66 -32 c -6 -21 -37 -25 -54 -8 c -21 21 -59 0 -143 -75 c -45 -41 -99 -83 -119 -92 c -42 -20 -183 -42 -331 -50 c -120 -7 -130 -13 -130 -83 c 0 -32 -12 -68 -40 -126 c -32 -67 -54 -96 -116 -154 c -42 -39 -81 -71 -87 -71 c -6 0 27 34 72 76 c 67 63 88 90 121 158 c 28 58 40 96 41 134 c 2 29 7 56 13 61 c 6 5 61 11 121 15 c 61 3 154 12 208 20 c 110 15 139 31 242 126 c 85 79 113 93 149 74 c 27 -13 30 -12 56 16 c 42 45 63 40 89 -21 z m -114 -79 c 14 0 29 -9 35 -20 c 6 -11 15 -18 21 -15 c 5 4 9 2 9 -3 c 0 -12 -62 -24 -83 -16 c -35 13 -177 -97 -157 -121 c 7 -8 7 -21 1 -36 c -11 -31 -56 -79 -73 -79 c -7 0 -1 10 13 23 c 37 30 60 70 50 85 c -5 9 -26 -6 -70 -50 c -66 -66 -73 -58 -9 10 c 21 22 34 42 30 45 c -4 2 -2 3 4 1 c 18 -4 59 45 56 66 c -3 22 44 60 103 82 c 32 13 40 21 38 39 c -1 15 0 17 3 7 c 3 -11 15 -18 29 -18 z m -875 -120 c 0 -24 -33 -86 -66 -127 c -20 -24 -32 -48 -28 -54 c 4 -7 3 -9 -3 -6 c -5 4 -34 -14 -63 -39 c -30 -25 -88 -62 -129 -82 c -105 -51 -158 -107 -223 -240 c -110 -220 -160 -371 -224 -677 c -18 -88 -33 -150 -33 -137 c -1 32 64 332 95 439 c 61 210 181 468 253 542 c 27 28 45 51 38 51 c -22 0 -104 -102 -139 -173 c -110 -223 -173 -413 -237 -722 c -17 -77 -30 -130 -30 -118 c -1 13 17 107 40 210 c 39 179 89 350 129 438 c 10 22 30 69 45 105 c 74 176 126 239 254 305 c 66 34 106 64 168 127 c 45 45 92 101 105 125 c 21 39 48 58 48 33 z m 75 -121 c -5 -15 -4 -19 4 -15 c 6 4 11 3 11 -2 c 0 -17 -31 -84 -36 -79 c -3 3 1 18 9 34 c 12 23 13 30 1 41 c -15 13 -34 16 -34 4 c 0 -4 -15 -15 -33 -25 c -18 -10 -51 -41 -73 -69 c -21 -28 -60 -76 -85 -107 l -45 -56 l 35 -34 c 42 -43 96 -71 134 -71 c 101 0 177 -56 177 -131 l 0 -41 l -19 23 l -18 23 l -5 -37 c -4 -35 -2 -37 30 -43 c 73 -14 187 -64 212 -93 c 23 -26 27 -28 44 -15 c 14 9 47 14 104 14 c 116 0 167 26 267 136 c 41 45 79 93 84 106 c 9 22 10 22 10 2 c 1 -13 -30 -56 -76 -108 c -103 -118 -157 -146 -278 -146 c -60 0 -93 -5 -109 -15 c -21 -14 -25 -13 -57 18 c -35 34 -141 80 -212 93 c -34 6 -38 9 -33 30 c 5 17 2 24 -9 24 c -8 0 -15 7 -15 15 c 0 8 6 15 14 15 c 7 0 16 9 19 21 c 4 15 2 19 -9 15 c -7 -3 -18 3 -24 14 c -8 15 -8 20 3 20 c 17 0 49 -34 41 -43 c -4 -3 1 -13 10 -22 c 31 -32 18 22 -15 59 c -31 36 -79 56 -135 56 c -43 0 -106 30 -141 66 c -15 16 -40 38 -56 49 c -15 11 -30 28 -33 38 c -6 19 11 47 30 47 c 6 0 3 -5 -6 -11 c -23 -13 -23 -32 1 -53 c 18 -17 21 -15 68 42 c 26 33 66 82 87 110 c 21 27 57 61 80 73 c 23 13 50 29 61 35 c 28 16 27 17 20 -7 z m 60 -749 c 4 -6 1 -9 -7 -8 c -8 2 -13 -6 -12 -19 c 0 -12 -3 -20 -8 -17 c -10 7 -10 1 2 -30 c 6 -17 6 -26 0 -26 c -6 0 -10 10 -11 23 c 0 21 -1 21 -9 2 c -5 -11 -9 -35 -9 -53 c -1 -31 0 -32 22 -20 c 12 7 28 11 35 9 c 8 -1 20 3 28 10 c 18 15 28 6 29 -29 c 0 -20 6 -28 23 -30 c 18 -3 22 1 22 22 c 0 14 -4 26 -9 26 c -5 0 -7 -10 -4 -21 c 4 -15 2 -20 -6 -18 c -7 3 -12 8 -12 12 c 1 4 1 19 1 35 c 0 19 3 23 9 13 c 6 -9 11 -10 15 -2 c 9 14 -2 33 -15 26 c -5 -4 -9 5 -9 19 c 0 29 33 44 56 25 c 8 -7 32 -16 52 -20 c 35 -6 35 -7 7 -8 c -17 0 -41 6 -53 15 c -13 9 -26 14 -29 11 c -2 -3 7 -13 21 -23 c 21 -13 40 -16 89 -11 c 37 3 54 1 42 -3 c -11 -5 -41 -9 -67 -9 c -44 -1 -64 -14 -36 -23 c 14 -5 2 -28 -15 -28 c -7 0 -6 4 3 10 c 13 8 12 10 -3 10 c -15 0 -16 3 -7 20 c 7 12 7 20 1 20 c -16 0 -24 -20 -25 -64 c -1 -40 -2 -41 -39 -42 c -21 -1 -40 3 -44 9 c -3 6 -1 7 4 4 c 6 -4 13 6 15 23 c 3 17 3 30 1 30 c -8 0 -30 -25 -36 -40 c -4 -12 -6 -11 -6 3 c -1 21 0 20 -43 3 c -30 -13 -35 -20 -47 -78 c -8 -35 -18 -71 -23 -81 c -5 -9 -6 -23 -2 -29 c 4 -6 8 -45 9 -87 c 2 -42 1 -60 -1 -41 c -2 19 -9 61 -15 93 c -6 34 -7 63 -2 70 c 5 7 15 37 22 67 c 7 30 16 66 21 80 c 15 44 21 112 10 105 c -5 -3 -10 -1 -10 4 c 0 6 -9 11 -20 11 c -11 0 -20 4 -20 9 c 0 6 12 6 32 0 c 18 -5 33 -9 34 -9 c 1 0 7 14 14 30 c 13 31 24 37 35 20 z" stroke-linecap="round" />
</g>
		<g transform="matrix(0.13 0 0 -0.13 75.37 -246.99)"  >
<path style="stroke: none; stroke-width: 1; stroke-dasharray: none; stroke-linecap: butt; stroke-dashoffset: 0; stroke-linejoin: miter; stroke-miterlimit: 4; fill: rgb(0,0,0); fill-rule: nonzero; opacity: 1;"  transform=" translate(-2165.25, -5317.41)" d="M 1960 5480 c 0 -8 10 -31 21 -50 c 24 -39 206 -223 257 -259 c 33 -23 35 -23 70 -6 l 37 17 l -35 29 c -19 17 -58 47 -86 69 c -52 39 -131 127 -122 135 c 2 2 21 -16 42 -40 c 20 -25 61 -63 89 -85 c 29 -22 66 -51 84 -66 c 22 -18 37 -23 47 -17 c 13 7 8 17 -29 59 c -65 75 -202 176 -223 165 c -9 -4 -24 -6 -32 -3 c -16 6 -18 9 39 -65 c 26 -34 29 -43 16 -43 c -15 0 -15 -3 -5 -15 c 9 -11 15 -12 20 -5 c 5 7 11 6 19 -4 c 9 -10 9 -16 1 -21 c -17 -11 -141 105 -177 165 c -18 30 -33 48 -33 40 z" stroke-linecap="round" />
</g>
		<g transform="matrix(0.13 0 0 -0.13 -200 -109.46)"  >
<path style="stroke: none; stroke-width: 1; stroke-dasharray: none; stroke-linecap: butt; stroke-dashoffset: 0; stroke-linejoin: miter; stroke-miterlimit: 4; fill: rgb(0,0,0); fill-rule: nonzero; opacity: 1;"  transform=" translate(-100, -4285.94)" d="M 0 4323 c 0 -58 2 -63 25 -69 c 14 -3 25 -10 25 -15 c 0 -12 -7 -11 -31 2 c -18 9 -19 7 -17 -25 c 2 -31 4 -34 22 -24 c 12 6 31 23 44 39 c 13 16 28 29 34 29 c 6 0 0 -9 -13 -20 c -31 -25 -19 -25 52 1 c 35 13 59 28 59 36 c 0 8 -8 13 -17 12 c -10 -1 -47 6 -82 16 c -50 14 -67 25 -82 49 l -19 31 l 0 -62 z" stroke-linecap="round" />
</g>
		<g transform="matrix(0.13 0 0 -0.13 -110.13 -11.67)"  >
<path style="stroke: none; stroke-width: 1; stroke-dasharray: none; stroke-linecap: butt; stroke-dashoffset: 0; stroke-linejoin: miter; stroke-miterlimit: 4; fill: rgb(0,0,0); fill-rule: nonzero; opacity: 1;"  transform=" translate(-774, -3552.5)" d="M 1083 4025 c 4 -22 9 -65 13 -95 c 3 -30 14 -73 24 -95 c 10 -23 22 -54 26 -70 c 14 -60 84 -237 97 -246 c 5 -4 4 -10 -3 -14 c -8 -5 -7 -12 5 -25 c 15 -16 15 -18 -1 -24 c -18 -7 -69 27 -117 77 c -15 16 -45 64 -68 107 c -22 42 -50 87 -62 98 l -22 21 l -95 -19 c -52 -11 -142 -24 -200 -30 c -58 -7 -143 -21 -190 -32 c -83 -19 -268 -37 -205 -19 c 17 5 23 9 14 10 c -21 1 -33 31 -18 45 c 8 8 10 6 7 -9 c -4 -29 31 -30 148 -5 c 54 12 137 26 184 31 c 47 5 133 18 191 29 c 58 11 117 20 130 19 c 49 -2 -289 -58 -356 -60 c -22 0 -49 -4 -60 -9 c -21 -10 43 -6 175 11 c 101 12 253 41 263 49 c 4 3 -6 33 -22 66 c -39 81 -42 91 -50 154 c -5 41 -10 54 -21 51 c -8 -2 -58 -14 -110 -26 c -112 -25 -143 -41 -315 -153 c -72 -47 -144 -91 -161 -98 c -23 -10 -34 -23 -43 -56 c -22 -73 -112 -180 -201 -240 l -36 -23 l -3 -89 l -3 -89 l 39 6 c 21 3 103 15 183 27 c 80 11 192 29 250 40 c 58 10 134 21 170 23 l 65 5 l -55 -9 c -188 -32 -370 -61 -465 -75 c -60 -8 -127 -18 -147 -21 c -30 -5 -38 -10 -38 -27 c 0 -19 6 -21 76 -23 c 82 -1 141 -19 214 -64 c 33 -21 49 -25 62 -18 c 10 5 35 9 55 9 c 99 -2 107 -3 86 -7 c -22 -4 -22 -6 -7 -29 c 20 -30 27 -30 68 1 c 58 44 141 67 231 65 c 98 -2 120 -2 313 6 c 211 8 214 7 265 -72 c 39 -62 42 -64 81 -64 c 45 0 106 31 106 54 c 0 13 -108 102 -139 114 c -9 3 -11 16 -7 41 c 4 29 -2 51 -32 111 c -42 84 -39 83 -147 56 c -77 -19 -361 -65 -445 -71 c -59 -4 45 14 340 59 c 58 9 110 19 115 21 c 26 12 -143 -10 -411 -55 c -34 -5 -72 -10 -85 -9 c -13 0 14 7 61 15 c 271 45 351 57 402 58 c 31 0 54 4 52 8 c -3 4 7 13 21 21 l 26 13 l -21 27 c -53 68 -100 225 -115 392 c -6 71 -25 114 -66 151 l -21 19 l 5 -40 z" stroke-linecap="round" />
</g>
		<g transform="matrix(0.13 0 0 -0.13 -196 110.4)"  >
<path style="stroke: none; stroke-width: 1; stroke-dasharray: none; stroke-linecap: butt; stroke-dashoffset: 0; stroke-linejoin: miter; stroke-miterlimit: 4; fill: rgb(0,0,0); fill-rule: nonzero; opacity: 1;"  transform=" translate(-130, -2636.98)" d="M 204 2846 c -23 -7 -78 -19 -123 -26 c -53 -8 -81 -17 -81 -25 c 0 -15 59 -11 90 5 c 10 6 27 10 37 9 c 24 -1 -54 -29 -92 -33 l -30 -3 l -3 -179 l -2 -179 l 43 75 c 81 139 177 310 177 314 c 0 6 -44 1 -56 -7 c -6 -3 -11 -1 -11 6 c 0 8 16 13 39 14 c 33 1 68 20 68 37 c 0 8 -8 7 -56 -8 z" stroke-linecap="round" />
</g>
</g>
</g>
</svg>