<?xml version="1.0" encoding="UTF-8" standalone="no" ?>
<!DOCTYPE svg PUBLIC "-//W3C//DTD SVG 1.1//EN" "http://www.w3.org/Graphics/SVG/1.1/DTD/svg11.dtd">
<svg xmlns="http://www.w3.org/2000/svg" xmlns:xlink="http://www.w3.org/1999/xlink" version="1.1" width="640" height="480" viewBox="0 0 640 480" xml:space="preserve">
<desc>Created with Fabric.js 3.6.3</desc>
<defs>
</defs>
<g transform="matrix(1 0 0 1 292 162.64)"  >
<path style="stroke: rgb(0,0,0); stroke-width: 2; stroke-dasharray: none; stroke-linecap: butt; stroke-dashoffset: 0; stroke-linejoin: miter; stroke-miterlimit: 4; fill: none; fill-rule: nonzero; opacity: 1;" vector-effect="non-scaling-stroke"  transform=" translate(-291, -161.64)" d="M 59.5 66 L 48.5 199 L 150.5 205 Q 136.5 5 169.5 112 Q 259.5 259 199.5 219 Q 97.5 306 150.5 205 Q 308.5 98 300.5 100 Q 283.5 215 283.5 215 Q 352.5 227 375.5 231 L 422.5 98 Q 473.5 117 476.5 117 L 422.5 98 Q 364.5 100 410.5 133 L 489.5 159 Q 462.5 140 389.5 125 Q 297.5 176 378.5 180 Q 472.5 192 475.5 193 L 525.5 181 Q 533.5 208 533.5 208 L 464.5 228" stroke-linecap="round" />
</g>
</svg>