<?xml version="1.0" standalone="no"?>
<!DOCTYPE svg PUBLIC "-//W3C//DTD SVG 20010904//EN"
 "http://www.w3.org/TR/2001/REC-SVG-20010904/DTD/svg10.dtd">
<svg version="1.0" xmlns="http://www.w3.org/2000/svg"
 width="2988.000000pt" height="2912.000000pt" viewBox="0 0 2988.000000 2912.000000"
 preserveAspectRatio="xMidYMid meet">

<g transform="translate(0.000000,2912.000000) scale(0.100000,-0.100000)"
fill="#000000" stroke="none">
<path d="M13670 29084 c-47 -43 -132 -156 -149 -201 -11 -27 -17 -32 -36 -27
-28 7 -72 -15 -145 -71 -51 -40 -104 -93 -295 -296 -51 -54 -83 -79 -116 -91
-26 -9 -89 -47 -140 -86 -52 -38 -113 -79 -136 -90 -23 -12 -48 -31 -56 -42
-7 -10 -48 -47 -90 -80 -42 -33 -89 -79 -104 -101 -17 -26 -61 -64 -118 -101
-49 -34 -128 -91 -175 -128 -109 -86 -127 -96 -173 -104 -25 -5 -44 -17 -59
-37 -12 -16 -37 -38 -55 -49 -23 -13 -33 -27 -33 -44 0 -22 -7 -25 -77 -41
-272 -58 -815 -239 -993 -331 -246 -126 -300 -264 -300 -763 0 -482 65 -710
222 -775 116 -49 316 15 563 178 44 30 112 69 150 89 142 71 368 127 512 127
115 0 230 -37 254 -81 60 -113 -150 -340 -879 -948 -315 -263 -416 -355 -646
-583 -105 -103 -197 -188 -205 -188 -9 0 -29 -9 -46 -20 -19 -12 -47 -20 -75
-20 -58 0 -87 -20 -100 -72 -7 -22 -22 -57 -35 -77 -25 -37 -79 -188 -90 -254
-4 -20 -20 -55 -36 -76 -21 -29 -28 -51 -28 -83 0 -24 -3 -146 -6 -273 -5
-176 -3 -269 9 -396 82 -858 382 -2039 821 -3234 364 -990 660 -1594 972
-1985 92 -116 241 -262 358 -350 109 -83 166 -153 230 -280 82 -164 135 -364
154 -590 42 -470 166 -1046 321 -1481 l41 -116 86 -2 c359 -4 687 -213 847
-538 26 -52 45 -77 73 -94 21 -13 63 -46 93 -74 30 -28 85 -72 122 -98 37 -26
81 -67 98 -91 18 -25 47 -50 68 -59 137 -58 174 -77 227 -117 33 -25 94 -62
135 -81 41 -20 100 -56 130 -81 31 -24 87 -61 125 -81 39 -21 93 -57 121 -82
28 -24 75 -55 105 -68 122 -55 225 -157 289 -287 25 -52 44 -74 85 -103 53
-37 53 -37 94 -22 23 8 81 20 129 26 50 7 106 21 132 34 25 13 150 98 279 190
505 359 1111 719 1406 835 86 34 236 111 320 165 52 33 52 33 59 96 16 137 79
273 175 374 27 28 61 73 76 100 16 28 37 61 47 75 l19 25 -38 16 c-29 12 -46
29 -68 70 -26 47 -29 65 -30 134 0 68 4 89 28 137 26 53 62 93 116 128 32 21
42 92 29 193 -23 163 22 316 137 476 17 23 25 47 25 75 0 23 7 102 16 176 82
715 265 1660 414 2135 86 272 135 519 150 755 5 80 19 208 30 285 108 737 389
2082 515 2475 32 97 34 110 25 170 -5 36 -10 101 -10 145 0 76 -2 84 -40 145
-69 111 -85 175 -85 325 1 108 5 140 23 190 12 33 26 99 32 148 6 48 15 99 21
114 7 19 4 52 -10 127 -24 121 -43 229 -121 706 -144 881 -281 1387 -504 1855
-82 172 -163 311 -310 535 -312 473 -437 612 -579 642 -71 15 -152 -6 -263
-68 -347 -194 -661 -312 -885 -333 -119 -11 -188 -40 -243 -101 -89 -99 -126
-254 -95 -402 21 -98 64 -173 153 -262 88 -88 124 -148 151 -251 20 -77 20
-184 1 -191 -49 -19 -205 134 -396 386 -136 179 -306 363 -410 441 -148 112
-297 157 -420 125 -165 -42 -278 -154 -464 -459 -52 -85 -93 -137 -107 -137
-19 0 -7 107 37 321 40 197 45 236 42 326 -2 84 -7 106 -24 129 -40 54 -65 65
-170 74 -89 8 -101 11 -121 35 -17 19 -21 33 -17 53 16 65 82 173 223 362 166
223 283 537 298 800 10 173 -44 408 -110 478 -83 90 -258 110 -649 76 -263
-23 -594 -24 -676 -2 -78 22 -111 43 -128 85 -21 48 -17 91 16 221 68 259 45
360 -60 266z m-215 -561 c0 -43 4 -95 8 -116 11 -54 58 -102 120 -124 101 -35
380 -17 732 46 527 96 673 57 762 -202 23 -69 28 -98 27 -182 0 -207 -81 -382
-279 -610 -234 -269 -368 -571 -353 -800 10 -160 90 -201 248 -130 86 39 111
42 134 20 52 -52 20 -309 -99 -790 -150 -607 -245 -867 -367 -1000 -69 -76
-129 -103 -256 -115 -86 -8 -114 -15 -164 -42 -106 -56 -162 -149 -179 -293
-5 -50 -19 -108 -34 -141 -111 -251 -468 -504 -711 -504 -73 0 -126 25 -192
90 -150 147 -83 307 133 318 68 3 101 -1 219 -32 204 -53 241 -48 190 25 -67
96 -237 233 -370 296 -71 34 -87 38 -161 38 -74 0 -85 -3 -125 -30 -91 -64
-136 -215 -125 -415 11 -184 54 -297 152 -396 104 -105 246 -138 413 -96 135
34 235 92 457 263 117 90 252 158 326 166 88 9 120 -7 224 -112 75 -75 108
-100 176 -134 200 -98 440 -117 645 -49 170 56 284 209 202 271 -41 31 -173
27 -363 -12 -201 -40 -249 -45 -336 -32 -146 22 -281 115 -364 250 -58 97
-105 205 -112 258 -5 44 -2 54 17 73 19 19 29 21 66 16 104 -14 198 -88 259
-204 45 -86 119 -163 192 -198 89 -44 188 -42 211 3 15 29 -4 75 -73 178 -71
106 -81 132 -96 249 -11 84 -1 205 26 338 99 473 469 1097 848 1428 118 103
200 145 281 144 88 -1 152 -37 256 -143 105 -105 197 -228 392 -521 139 -208
153 -226 187 -234 38 -9 109 -31 201 -64 76 -27 182 -52 220 -52 27 0 30 3 25
20 -12 37 -6 204 9 260 l15 55 -195 417 c-107 230 -194 421 -194 425 0 9 694
258 840 302 170 51 244 64 343 59 116 -5 172 -32 272 -133 192 -193 547 -787
704 -1178 445 -1107 605 -2685 410 -4052 -107 -755 -268 -1206 -607 -1705
-141 -207 -265 -354 -486 -575 -314 -313 -545 -498 -1021 -813 -154 -103 -333
-226 -397 -275 -181 -135 -300 -258 -281 -289 18 -31 144 13 327 114 312 172
623 373 1154 747 514 361 767 487 869 432 48 -25 53 -145 12 -293 -28 -101
-71 -180 -133 -240 -29 -30 -64 -74 -76 -98 -54 -106 -100 -292 -100 -405 0
-228 -207 -1288 -425 -2179 -296 -1212 -397 -1398 -860 -1592 -391 -164 -799
-387 -1095 -599 -251 -180 -347 -211 -523 -166 -195 50 -371 148 -972 541
-539 352 -923 640 -1277 957 -156 139 -238 235 -317 368 -247 414 -370 937
-296 1253 22 93 49 138 136 228 73 75 79 85 79 123 0 91 -87 193 -300 350 -69
51 -172 134 -229 184 -220 194 -538 572 -748 887 -114 172 -585 968 -579 979
15 23 520 432 606 489 116 78 281 159 414 204 96 32 99 34 117 75 10 24 43 80
74 124 30 45 58 94 61 108 23 104 39 153 69 210 29 54 35 76 35 128 0 88 36
363 71 538 131 660 390 1132 753 1366 95 62 198 107 326 142 111 30 375 30
516 -1 287 -62 617 -226 919 -455 127 -96 825 -668 825 -676 -1 -3 -150 -102
-333 -220 -591 -382 -968 -635 -1152 -773 -347 -261 -458 -378 -356 -378 228
0 1418 703 1917 1133 124 108 184 181 184 227 0 15 -16 58 -35 96 -198 395
-1403 1166 -2030 1300 -81 17 -268 19 -376 4 -519 -74 -881 -400 -1114 -1005
-72 -187 -112 -330 -189 -690 -175 -808 -338 -1016 -1124 -1432 -127 -67 -249
-116 -265 -106 -57 35 -425 1154 -647 1963 -79 288 -111 432 -115 509 -3 49
-12 79 -39 130 -51 99 -69 171 -69 281 -1 97 9 146 44 237 20 49 20 55 5 100
-22 68 -38 197 -31 268 3 33 14 164 26 290 11 127 22 239 26 250 3 11 17 34
32 50 15 17 43 55 61 85 46 76 163 194 235 237 179 108 575 396 891 649 590
471 964 925 982 1190 6 93 -8 134 -65 184 -169 149 -604 89 -1276 -176 -197
-77 -283 -104 -336 -104 -121 0 -157 123 -148 509 4 175 8 229 24 283 67 225
213 324 748 503 413 139 586 217 684 312 41 39 82 68 110 78 24 8 87 41 140
73 53 33 128 78 167 100 56 32 76 50 97 89 38 68 45 75 112 117 33 21 83 60
110 86 28 26 80 66 116 89 36 22 96 72 132 111 42 44 89 81 125 99 43 22 88
60 173 149 62 67 116 121 119 121 3 1 5 -34 5 -76z m-979 -642 c-18 -34 -56
-61 -56 -39 0 13 61 80 68 74 2 -2 -4 -18 -12 -35z"/>
<path d="M11036 23865 c-10 -49 -21 -100 -23 -111 -4 -19 -1 -21 21 -17 15 3
28 8 30 12 2 3 1 51 -2 106 l-7 100 -19 -90z"/>
<path d="M28975 6310 c3 -5 8 -10 11 -10 2 0 4 5 4 10 0 6 -5 10 -11 10 -5 0
-7 -4 -4 -10z"/>
</g>
</svg>
