<?xml version="1.0" standalone="no"?>
<!DOCTYPE svg PUBLIC "-//W3C//DTD SVG 20010904//EN"
 "http://www.w3.org/TR/2001/REC-SVG-20010904/DTD/svg10.dtd">
<svg version="1.0" xmlns="http://www.w3.org/2000/svg"
 width="2000.000000pt" height="2000.000000pt" viewBox="0 0 2000.000000 2000.000000"
 preserveAspectRatio="xMidYMid meet">

<g transform="translate(0.000000,2000.000000) scale(0.100000,-0.100000)"
fill="#000000" stroke="none">
<path d="M7071 18096 c-11 -43 -4 -56 32 -56 9 0 17 -3 17 -6 0 -3 -16 -40
-36 -82 -20 -42 -46 -106 -59 -142 -13 -35 -33 -74 -44 -86 -31 -33 -51 -106
-61 -223 -6 -86 -11 -107 -28 -120 -40 -32 -42 -50 -36 -283 l5 -223 -22 40
c-12 22 -35 72 -51 110 -16 39 -68 151 -115 251 l-87 181 -38 -15 c-21 -8 -38
-18 -38 -22 0 -4 15 -40 34 -80 29 -62 32 -77 23 -105 -6 -21 -6 -82 -1 -172
10 -153 3 -324 -19 -473 -17 -121 -11 -620 8 -646 20 -28 83 -10 120 33 16 20
46 54 65 76 l36 39 47 -16 c26 -9 62 -16 80 -16 49 0 72 -9 82 -32 17 -36 119
-72 207 -73 72 0 81 -3 120 -33 24 -18 53 -35 66 -39 13 -3 78 0 143 6 66 7
129 9 142 5 12 -4 36 -23 54 -44 22 -25 47 -41 78 -50 25 -7 65 -28 88 -46 23
-19 46 -34 51 -34 26 0 136 -76 146 -101 6 -14 25 -39 41 -55 30 -28 41 -57
14 -34 -12 10 -22 10 -39 2 -16 -7 -54 -8 -117 -2 -52 5 -129 6 -171 3 -66 -5
-78 -4 -78 9 0 46 -137 115 -202 103 -26 -5 -44 -1 -72 16 -31 18 -47 21 -98
16 -47 -4 -70 -1 -107 15 -41 17 -62 19 -181 15 -74 -2 -143 -7 -152 -11 -28
-13 -98 -133 -287 -500 l-36 -69 2 -136 c3 -157 9 -187 45 -214 23 -18 32 -18
90 -9 34 6 75 14 90 17 22 6 33 0 66 -33 49 -49 90 -59 163 -42 35 9 86 11
153 6 90 -5 113 -3 208 21 101 26 107 27 126 10 10 -9 40 -24 65 -33 26 -9 47
-17 47 -17 0 -21 -33 -164 -40 -172 -18 -21 -107 -37 -173 -30 -84 9 -116 -5
-195 -87 -35 -36 -86 -78 -115 -93 -29 -15 -75 -45 -103 -66 -28 -22 -56 -39
-61 -39 -6 0 -16 -7 -23 -15 -6 -8 -78 -59 -158 -114 -301 -206 -452 -337
-452 -396 0 -14 3 -16 12 -7 9 9 14 7 24 -6 17 -21 18 -36 2 -26 -7 5 -8 3 -3
-6 5 -9 27 8 72 58 80 89 206 184 554 417 17 11 51 36 77 56 26 19 72 48 102
65 30 16 86 61 125 99 l69 70 101 0 c87 0 106 3 149 25 67 34 84 61 102 163
19 109 9 158 -39 187 -18 11 -37 20 -44 20 -7 0 -29 11 -49 25 -47 32 -99 32
-196 1 -68 -22 -86 -24 -187 -19 -77 4 -129 2 -167 -7 -53 -13 -55 -13 -82 12
-46 42 -89 68 -113 68 -51 0 -138 -24 -142 -39 -4 -21 -21 141 -21 204 1 44
14 76 123 284 67 128 126 244 131 256 7 18 19 23 62 28 100 13 183 8 244 -14
42 -14 74 -19 110 -16 37 4 63 0 93 -14 24 -10 65 -19 91 -19 67 0 98 -14 145
-64 l40 -43 190 -6 c188 -5 191 -5 243 20 29 13 59 35 66 46 20 31 9 82 -26
119 -16 17 -36 44 -44 59 -13 25 -121 109 -141 109 -4 0 -39 20 -76 45 -38 24
-82 47 -99 50 -17 4 -49 26 -72 50 -29 31 -53 45 -81 51 -38 7 -224 -8 -255
-20 -10 -4 -36 11 -70 40 l-55 46 -66 -6 c-78 -7 -153 14 -183 52 -24 30 -74
52 -119 52 -18 0 -59 7 -91 15 -74 20 -101 12 -157 -46 l-46 -47 -7 217 c-6
197 -5 231 15 352 18 112 21 161 17 297 -3 89 -4 161 -3 160 1 -2 22 -46 45
-98 41 -90 43 -101 46 -200 3 -116 18 -170 65 -240 37 -54 72 -82 105 -84 20
-1 30 -12 50 -57 l26 -57 39 16 c21 8 39 18 39 22 0 4 -28 67 -62 141 l-63
134 0 260 c-1 143 -4 281 -9 307 -8 43 -6 49 26 92 33 42 35 52 42 143 7 104
22 172 41 188 15 13 40 64 77 155 16 41 44 101 61 132 29 53 33 56 61 51 43
-8 190 -65 264 -102 34 -17 68 -31 75 -31 8 0 36 -10 62 -21 34 -15 60 -20 89
-16 33 5 48 1 82 -21 24 -15 45 -36 48 -48 3 -11 33 -56 67 -100 76 -99 94
-135 103 -204 4 -30 14 -65 21 -77 17 -25 21 -250 10 -448 -5 -83 -4 -139 5
-179 21 -104 81 -174 138 -163 19 4 34 -1 50 -16 l24 -22 58 62 c32 34 77 71
99 83 53 27 91 99 97 182 2 32 9 78 15 101 6 23 12 87 13 142 1 99 2 101 50
195 47 92 48 97 43 161 -8 97 1 101 65 22 31 -37 76 -89 101 -115 l45 -46 3
-285 c3 -222 7 -288 18 -300 12 -15 10 -17 -25 -18 -191 -3 -304 -64 -304
-164 0 -38 4 -47 33 -67 26 -18 46 -23 102 -24 52 0 85 -7 131 -27 40 -17 93
-30 150 -36 49 -5 115 -19 148 -31 55 -21 64 -22 180 -11 136 12 177 6 228
-33 19 -14 42 -26 50 -26 24 0 35 -471 13 -550 -8 -30 -15 -75 -15 -100 0 -38
-10 -60 -61 -140 -50 -78 -60 -89 -54 -60 4 19 13 45 20 56 12 19 11 25 -13
53 l-27 33 -23 -24 c-27 -30 -61 -175 -62 -264 0 -47 -8 -79 -35 -141 -19 -45
-37 -94 -39 -110 -8 -63 -21 -90 -63 -133 -24 -25 -56 -65 -70 -89 l-26 -43
-1 -342 c0 -367 3 -400 50 -456 49 -58 123 -32 143 50 5 19 14 55 21 80 7 25
15 72 19 105 4 33 16 78 28 100 11 22 24 51 28 64 7 23 154 213 261 338 53 63
83 73 209 73 107 0 166 -16 194 -51 24 -31 72 -52 156 -68 33 -7 81 -23 106
-36 25 -14 61 -26 80 -27 26 -2 56 -21 127 -82 50 -44 92 -83 92 -87 0 -19 58
-74 95 -90 23 -10 77 -21 121 -25 76 -6 81 -5 112 21 30 25 32 31 32 90 0 105
-75 295 -116 295 -12 0 -14 32 -14 181 0 99 -5 212 -11 251 l-11 71 38 38 39
38 294 1 c286 0 461 -12 489 -34 8 -5 35 -53 62 -106 26 -52 68 -118 92 -145
24 -28 59 -77 77 -110 47 -84 107 -160 136 -173 18 -9 25 -19 25 -41 0 -23 11
-41 46 -73 66 -62 149 -207 168 -293 9 -38 27 -108 41 -154 14 -46 25 -91 25
-100 0 -9 21 -52 47 -96 l48 -80 1 -625 c1 -344 -3 -652 -8 -685 -5 -33 -18
-91 -28 -130 -35 -124 -90 -388 -96 -460 -6 -59 -14 -84 -57 -160 -28 -49 -72
-124 -99 -166 -26 -41 -48 -78 -48 -82 0 -25 -55 -74 -120 -108 -87 -45 -231
-172 -261 -230 -10 -21 -32 -46 -47 -56 -15 -9 -49 -39 -77 -66 -27 -27 -94
-85 -147 -129 -54 -44 -98 -84 -98 -89 0 -4 -30 -23 -67 -41 -48 -23 -91 -56
-143 -108 -108 -109 -144 -134 -186 -127 -48 8 -85 -26 -114 -103 -13 -34 -30
-71 -40 -83 -9 -12 -33 -50 -53 -83 -50 -84 -44 -80 -154 -102 -85 -18 -115
-59 -72 -98 35 -31 113 -26 174 12 28 17 71 36 96 43 69 16 157 58 334 160 88
51 182 99 210 108 36 12 62 31 95 67 133 148 481 484 533 515 56 33 187 76
187 61 0 -4 -7 -27 -16 -51 -12 -33 -14 -64 -9 -125 5 -70 3 -90 -19 -150 -87
-249 -126 -387 -145 -519 -12 -77 -21 -164 -21 -193 0 -29 -5 -62 -10 -72 -6
-10 -21 -72 -34 -137 -58 -277 -87 -406 -100 -437 -7 -18 -69 -115 -136 -216
-68 -101 -146 -233 -175 -294 -29 -61 -71 -133 -93 -160 -50 -60 -95 -144
-112 -210 -7 -26 -26 -62 -42 -80 -16 -17 -61 -94 -99 -171 -39 -77 -85 -159
-103 -181 l-33 -41 -8 -229 c-9 -268 -9 -272 5 -324 13 -49 48 -70 117 -70 26
-1 59 -7 73 -15 18 -9 29 -10 37 -3 24 20 13 -8 -27 -70 -65 -102 -69 -112
-63 -178 5 -53 2 -69 -28 -135 -27 -61 -33 -85 -32 -138 2 -52 -5 -83 -38
-170 -22 -58 -53 -133 -68 -166 -72 -152 -123 -284 -175 -446 l-56 -177 -62
-32 c-80 -40 -96 -55 -119 -108 -10 -24 -36 -64 -58 -90 -21 -26 -50 -70 -64
-98 -14 -27 -33 -56 -42 -64 -50 -42 -95 -191 -95 -320 0 -84 12 -110 58 -129
24 -10 36 -9 77 9 58 25 131 82 140 109 3 11 21 28 39 39 53 31 266 234 272
259 6 24 37 32 49 13 11 -18 60 -10 110 19 28 16 104 78 170 137 66 60 140
125 164 144 l44 34 -7 -39 c-11 -62 -85 -208 -183 -366 -49 -79 -111 -187
-138 -239 -27 -52 -65 -122 -85 -155 -47 -78 -114 -215 -138 -285 -96 -272
-102 -285 -187 -434 -25 -43 -30 -65 -37 -170 -5 -67 -11 -149 -14 -182 -5
-58 -4 -64 24 -95 26 -29 38 -34 79 -36 110 -4 157 -15 192 -45 l34 -30 30 31
c30 30 30 31 12 51 -18 19 -17 20 18 35 20 8 57 15 82 15 45 0 105 22 105 39
0 12 219 234 262 265 21 15 58 33 83 41 61 18 134 66 185 121 46 50 54 68 69
150 6 32 25 93 41 136 33 84 37 118 25 213 -5 41 -3 75 6 105 l13 45 6 -70 c7
-93 33 -135 101 -165 66 -28 149 -37 189 -20 58 24 89 109 70 196 -10 44 -8
57 16 119 15 39 39 108 55 155 15 47 30 78 32 70 41 -137 72 -219 97 -255 51
-74 123 -142 160 -150 31 -7 36 -4 81 46 81 90 126 167 149 254 12 44 43 121
70 170 50 93 83 186 74 209 -3 7 9 47 26 89 23 58 30 89 28 131 -2 48 2 61 28
98 19 27 37 42 48 40 9 -2 44 20 76 48 l60 52 19 -44 c11 -24 27 -68 36 -99
10 -40 28 -72 59 -105 59 -67 119 -183 177 -343 56 -154 83 -201 141 -239 22
-15 53 -39 67 -53 75 -74 141 -119 176 -119 49 0 108 32 147 81 18 23 54 52
79 65 26 13 50 31 53 41 4 10 4 47 1 83 l-6 65 21 -37 c32 -58 50 -65 197 -72
l132 -7 16 30 c8 17 15 37 15 45 0 18 -62 127 -99 175 -15 20 -34 46 -40 59
-14 27 -24 283 -13 325 l7 27 43 -54 c29 -38 70 -72 132 -111 49 -30 96 -55
103 -55 8 0 24 -12 38 -26 44 -47 103 -75 178 -83 43 -4 77 -14 89 -24 14 -13
38 -17 102 -17 95 0 240 -17 284 -33 16 -6 65 -37 109 -69 89 -67 113 -79 215
-109 71 -21 76 -24 223 -165 82 -79 169 -154 193 -167 43 -22 254 -235 606
-612 308 -331 338 -360 411 -406 223 -139 266 -174 444 -348 99 -97 242 -232
317 -300 104 -92 162 -155 238 -254 55 -73 150 -190 211 -262 193 -227 298
-380 435 -640 74 -140 119 -193 279 -329 98 -83 189 -130 291 -151 206 -43
299 -115 346 -268 18 -61 20 -85 14 -200 -3 -73 -9 -158 -12 -191 -5 -44 -3
-60 7 -67 11 -7 -5024 -15 -5310 -9 -76 2 -201 28 -336 70 -257 81 -288 83
-745 60 -260 -14 -490 -2 -490 25 0 7 -15 23 -34 34 l-34 21 -1707 0 c-1679
-1 -1708 0 -1729 19 -14 13 -30 18 -46 15 -14 -3 -126 4 -250 16 -209 20 -276
21 -960 19 -584 -2 -740 0 -759 10 -13 8 -53 13 -92 12 -48 -1 -92 7 -149 25
-125 39 -221 54 -351 54 -80 0 -131 5 -156 15 -21 8 -75 23 -120 35 -79 19
-109 20 -1003 20 -585 0 -956 4 -1016 11 -104 11 -94 14 -170 -46 l-37 -30
-291 0 c-160 0 -336 2 -391 5 -97 4 -102 4 -160 -26 -75 -39 -103 -44 -189
-36 l-69 7 92 63 c50 35 91 66 91 69 0 18 -43 72 -53 66 -38 -23 -177 -125
-177 -130 0 -3 9 -20 20 -38 l20 -32 -44 -6 c-40 -6 -80 -19 -231 -74 -31 -11
-54 -12 -115 -4 -81 10 -151 4 -265 -24 -38 -9 -88 -21 -110 -26 -22 -6 -58
-11 -79 -13 -24 -2 -46 -11 -56 -23 -16 -20 -50 -32 -219 -79 -52 -14 -123
-39 -157 -55 l-63 -29 -866 0 c-476 0 -865 2 -865 5 0 2 11 34 25 70 29 79 51
182 60 290 3 44 20 125 36 179 16 55 29 107 29 117 0 9 18 74 40 144 22 71 56
198 75 284 20 86 51 201 70 256 18 55 38 124 45 154 7 30 24 82 37 115 20 52
56 207 77 337 4 20 27 78 52 130 94 189 89 157 90 570 l1 365 31 91 c19 55 36
129 42 189 26 238 127 833 162 949 12 39 64 182 115 319 52 138 108 300 123
360 37 139 71 375 64 430 -3 22 -1 60 5 84 13 48 42 67 146 97 80 23 132 51
140 74 10 32 431 290 558 342 94 39 341 197 395 253 36 37 42 48 36 72 -7 26
-6 27 23 21 25 -5 35 -1 59 24 33 35 48 43 279 154 94 45 214 104 269 130 l99
49 296 0 c242 1 315 -2 400 -17 61 -11 145 -17 205 -16 76 1 120 -4 176 -19
41 -12 104 -26 140 -32 35 -7 77 -18 92 -26 39 -20 98 -97 164 -215 52 -94
103 -147 125 -133 12 7 42 -57 95 -198 l47 -123 4 -155 c7 -308 34 -437 125
-610 33 -63 79 -144 102 -180 23 -36 51 -85 62 -110 42 -99 205 -222 389 -295
50 -20 120 -50 156 -67 86 -40 133 -36 208 16 53 36 53 36 83 18 47 -26 106
-108 178 -244 54 -101 80 -138 154 -215 48 -51 94 -93 102 -93 7 0 21 -15 30
-32 10 -18 30 -49 45 -68 36 -44 75 -132 129 -285 48 -139 90 -195 145 -195
64 0 65 6 65 311 0 243 -7 351 -25 408 -4 12 2 21 19 29 23 10 26 9 36 -23 6
-18 18 -39 27 -46 8 -7 47 -56 86 -109 61 -81 72 -101 74 -140 3 -66 54 -206
119 -328 141 -265 141 -263 148 -341 8 -89 34 -153 84 -204 42 -44 221 -201
268 -236 33 -24 182 -61 249 -61 37 0 43 3 58 34 13 29 14 45 6 98 -16 102
-66 238 -118 319 -27 42 -54 94 -61 115 -7 22 -29 57 -50 79 -43 46 -104 171
-130 265 -10 36 -26 90 -34 120 -9 30 -14 67 -10 83 7 31 -35 184 -46 167 -9
-15 -15 1 -35 86 -8 36 -15 96 -15 133 0 39 -5 72 -12 79 -7 7 -8 12 -3 11 14
-1 115 -120 136 -160 9 -19 35 -53 57 -76 47 -49 95 -145 111 -223 7 -30 20
-73 31 -95 22 -46 130 -145 158 -145 33 0 82 21 82 36 0 27 -23 62 -47 73 -19
9 -24 17 -19 34 3 12 6 27 6 33 0 6 16 19 35 30 19 10 35 22 35 26 0 4 -10 24
-22 45 -22 36 -18 34 63 -34 59 -50 94 -88 114 -125 49 -93 103 -138 166 -138
18 0 40 -7 50 -16 16 -15 20 -13 48 18 l31 33 -24 21 c-23 20 -23 22 -13 117
12 115 1 171 -39 189 -18 8 -24 19 -24 42 0 67 -135 544 -161 570 -5 6 -9 18
-9 27 0 9 -34 63 -76 120 -49 67 -103 160 -154 264 -50 103 -97 183 -131 225
l-53 65 3 152 c1 90 -2 175 -9 208 -13 63 -7 108 15 103 7 -2 68 -52 134 -112
117 -106 120 -110 132 -165 13 -63 31 -103 65 -144 13 -16 24 -33 24 -39 0
-21 104 -180 134 -205 52 -44 125 -73 185 -73 29 0 82 -5 117 -12 83 -15 108
-4 137 60 18 40 21 66 22 183 0 93 -4 141 -12 151 -7 8 -19 54 -27 104 -18
106 -28 143 -50 176 -9 13 -39 94 -66 179 -44 133 -52 171 -60 279 -6 69 -17
160 -25 203 -17 82 -68 238 -90 273 -8 12 -13 46 -12 80 1 46 -3 67 -18 89
-11 15 -23 33 -27 39 -4 6 -18 49 -31 96 -66 232 -81 282 -114 365 -19 50 -43
104 -54 121 -15 25 -19 50 -19 125 0 52 -5 110 -11 129 -5 19 -12 78 -14 130
-3 87 -6 103 -48 196 -24 56 -52 113 -62 128 -11 16 -31 101 -50 209 -37 207
-50 262 -71 295 -10 15 -13 34 -9 52 8 35 -20 93 -65 135 -18 17 -53 62 -78
100 -25 39 -91 115 -147 170 -55 55 -115 123 -133 151 -18 28 -57 74 -87 102
-30 27 -55 57 -55 66 0 9 -26 45 -57 80 -92 100 -134 159 -188 265 -28 54 -63
112 -77 129 -25 30 -34 68 -40 167 -1 11 15 38 36 60 20 22 39 50 43 63 4 16
22 31 59 47 32 14 78 49 119 89 50 49 88 76 153 107 48 23 99 50 113 60 24 17
50 19 275 20 137 1 308 2 379 3 103 1 142 -3 188 -18 33 -11 61 -25 64 -33 3
-7 15 -13 27 -13 12 0 38 -12 57 -26 19 -14 45 -31 59 -37 22 -9 369 -30 479
-27 59 1 108 26 141 72 82 113 20 226 -135 247 -51 7 -97 32 -84 46 3 3 68 -9
144 -25 76 -17 139 -29 140 -28 2 2 6 21 9 44 l7 41 -123 27 c-67 15 -124 28
-125 30 -2 2 14 6 36 10 22 3 63 18 93 33 50 26 63 28 203 32 84 2 190 -2 240
-9 116 -15 140 -6 240 91 40 39 102 89 137 112 89 59 96 84 100 343 4 255 -15
335 -96 424 -18 19 -54 73 -80 120 -27 47 -71 108 -99 137 l-50 52 -626 -3
c-621 -2 -626 -3 -673 -24 -25 -12 -48 -26 -50 -30 -3 -7 -83 -47 -210 -107
-32 -14 -58 -30 -58 -35 0 -4 -23 -23 -51 -41 -60 -38 -74 -57 -95 -130 -9
-30 -33 -76 -53 -104 -21 -27 -45 -68 -53 -90 -9 -22 -28 -67 -42 -100 -14
-33 -26 -74 -26 -91 0 -19 -19 -63 -51 -115 -75 -124 -96 -169 -104 -224 -11
-76 -28 -101 -146 -213 -59 -56 -118 -119 -130 -140 -35 -59 -100 -122 -154
-149 -27 -14 -61 -38 -75 -53 -19 -21 -58 -38 -170 -73 -252 -79 -252 -79
-272 -60 -10 9 -23 34 -30 55 -6 21 -26 55 -45 74 -35 38 -51 84 -79 227 -12
62 -27 105 -51 145 -19 31 -44 80 -55 107 -75 184 -72 176 -74 280 -1 55 -7
135 -14 177 -14 77 -14 77 13 116 15 21 67 79 115 129 93 98 136 123 207 123
43 0 158 43 255 94 25 14 91 36 148 51 57 14 135 38 175 54 40 15 102 38 138
50 37 12 87 37 110 55 52 40 216 116 249 116 13 0 76 18 139 39 64 22 156 47
206 55 75 13 93 19 108 41 10 14 41 35 67 46 27 11 56 29 66 40 9 10 21 19 27
19 5 0 35 16 66 34 39 24 79 38 126 46 128 20 165 64 168 200 3 103 -17 133
-86 138 -50 3 -53 1 -117 -78 -14 -18 -53 -45 -88 -60 -79 -37 -154 -88 -147
-101 4 -5 -30 -9 -83 -9 -49 0 -109 -6 -134 -14 l-46 -13 -16 34 c-9 18 -26
37 -38 42 -20 7 -20 9 13 33 19 14 73 47 121 73 102 56 142 92 158 141 10 28
9 39 -3 58 -26 39 -92 42 -145 8 -15 -10 -54 -15 -115 -17 -51 -1 -114 -5
-142 -9 -46 -8 -54 -6 -100 26 -81 54 -228 108 -298 108 -50 0 -93 -23 -113
-61 -9 -18 -21 -28 -29 -26 -32 13 -148 47 -150 45 -4 -6 -25 -71 -25 -78 0
-4 29 -15 65 -25 36 -9 65 -21 65 -25 0 -14 -27 -30 -77 -45 -27 -8 -61 -28
-78 -45 -17 -18 -39 -30 -54 -30 -14 0 -60 -9 -101 -19 l-75 -19 -60 59 -60
59 -33 -32 -32 -33 66 -66 67 -67 -24 -34 c-13 -18 -57 -76 -98 -128 -73 -94
-117 -172 -106 -189 3 -5 -11 -19 -30 -31 -19 -12 -47 -43 -62 -68 -15 -26
-31 -50 -37 -54 -5 -3 -59 -6 -120 -6 -61 0 -124 -5 -139 -11 -16 -6 -38 -11
-50 -11 -28 0 -123 91 -142 136 -13 33 -12 37 34 136 27 57 55 121 64 144 l16
41 -36 17 c-20 9 -39 13 -43 9 -4 -4 -22 -44 -40 -88 -18 -44 -47 -109 -65
-145 -49 -96 -50 -105 -21 -135 14 -14 26 -33 26 -41 0 -21 74 -98 129 -135
41 -28 51 -30 96 -24 28 4 109 10 180 13 74 4 140 13 153 20 13 7 37 35 53 62
17 27 48 63 69 80 29 23 40 40 45 70 7 39 25 67 145 220 28 36 60 82 71 103
23 43 44 54 148 72 57 10 80 20 105 43 17 16 56 38 86 47 37 12 68 31 93 58
l39 40 198 -62 c109 -33 201 -61 203 -61 5 0 21 71 19 83 -1 4 17 7 41 7 23 0
60 5 82 10 22 6 68 7 103 4 l63 -6 -78 -45 c-99 -55 -123 -82 -123 -134 0 -33
9 -52 46 -100 61 -80 75 -86 178 -71 45 7 108 12 140 12 69 0 89 10 106 50 7
16 19 30 26 30 8 0 47 15 87 34 72 35 141 92 152 127 4 11 13 19 21 19 12 0
13 -10 8 -52 -14 -108 -21 -115 -111 -117 -45 -1 -186 -68 -253 -121 -19 -15
-47 -30 -62 -33 -14 -4 -41 -23 -60 -42 -19 -21 -40 -34 -49 -32 -26 7 -135
-17 -254 -56 -60 -20 -141 -46 -180 -57 -91 -28 -165 -64 -219 -105 -47 -36
-212 -98 -396 -149 -63 -18 -135 -43 -159 -55 -105 -55 -206 -91 -253 -91 -75
0 -149 -43 -235 -137 -158 -171 -171 -195 -157 -307 5 -39 8 -114 6 -166 -3
-122 31 -233 133 -430 24 -47 46 -104 50 -125 7 -38 25 -117 46 -197 5 -20 25
-56 45 -79 20 -24 46 -64 59 -90 38 -74 68 -92 140 -86 58 5 347 92 403 121
15 8 38 26 52 41 14 15 41 33 60 41 42 18 130 101 172 164 17 25 75 87 130
138 113 108 143 153 163 247 9 47 28 91 61 144 69 110 84 142 99 214 7 36 27
92 44 125 17 34 31 66 31 72 0 5 17 33 39 61 21 28 47 78 56 111 14 44 25 63
45 73 15 8 45 29 68 49 23 19 59 40 80 47 48 16 190 87 198 100 18 29 70 32
674 30 l615 -1 70 -124 c39 -68 86 -140 106 -159 23 -23 41 -52 49 -84 17 -61
23 -390 9 -460 -9 -48 -13 -53 -56 -74 -26 -12 -81 -56 -122 -97 -107 -104
-110 -106 -171 -93 -28 6 -131 11 -229 11 -184 0 -230 -8 -316 -54 -16 -9 -43
-16 -58 -16 -34 0 -63 -14 -99 -47 -22 -21 -33 -24 -62 -19 -39 7 -41 6 -50
-46 -6 -33 -4 -38 13 -38 37 0 51 -12 62 -53 17 -64 62 -101 139 -116 35 -7
77 -22 92 -33 27 -19 27 -20 13 -49 -30 -57 -39 -58 -275 -50 l-215 7 114 8
113 8 -5 40 c-3 22 -8 42 -10 45 -3 2 -88 -2 -188 -10 -183 -14 -183 -14 -234
8 -97 43 -136 46 -529 39 l-371 -6 -124 -62 c-100 -49 -140 -76 -208 -138 -46
-43 -96 -81 -111 -84 -34 -8 -60 -31 -79 -69 -9 -16 -31 -47 -49 -67 -48 -53
-58 -97 -46 -196 9 -72 14 -88 46 -126 20 -25 36 -51 36 -58 0 -8 5 -19 11
-25 6 -6 25 -41 42 -77 37 -77 111 -177 185 -251 28 -29 52 -61 52 -70 0 -9
29 -47 63 -83 35 -37 82 -94 104 -127 23 -34 59 -73 81 -89 40 -27 139 -140
178 -201 10 -16 42 -57 71 -89 37 -42 53 -68 53 -87 0 -15 11 -63 25 -106 23
-73 50 -211 77 -383 7 -45 19 -83 30 -96 10 -11 38 -71 63 -132 35 -87 45
-124 45 -169 0 -32 7 -96 15 -143 8 -47 13 -116 13 -155 -2 -65 2 -77 44 -165
26 -52 54 -122 63 -155 9 -33 34 -117 56 -186 21 -70 39 -135 39 -146 0 -11
14 -41 31 -67 24 -35 30 -54 26 -75 -4 -20 10 -73 44 -172 56 -160 78 -261 79
-360 0 -37 5 -91 10 -120 15 -78 87 -302 126 -389 18 -41 38 -106 44 -145 6
-38 20 -100 31 -137 18 -59 19 -78 11 -162 -10 -102 -24 -135 -49 -114 -8 6
-54 14 -101 16 -94 5 -138 21 -184 67 -26 26 -80 112 -105 167 -7 16 -25 45
-42 65 -19 25 -32 55 -36 88 -9 63 -43 124 -92 161 -21 16 -68 58 -105 94 -67
64 -68 66 -58 100 5 19 6 37 2 41 -7 6 -333 89 -351 89 -13 0 -33 -72 -23 -81
4 -3 50 -16 102 -29 142 -33 134 -30 116 -43 -40 -31 -44 -59 -39 -295 3 -125
9 -242 15 -260 5 -18 38 -72 74 -121 35 -49 92 -149 127 -223 35 -73 93 -173
129 -223 76 -105 103 -154 119 -221 7 -27 20 -67 30 -90 9 -22 22 -67 29 -100
7 -32 25 -106 41 -163 16 -58 29 -121 29 -142 0 -30 6 -42 32 -63 30 -23 32
-28 29 -78 -4 -85 -9 -86 -92 -15 -104 90 -199 202 -199 237 0 13 -23 46 -57
81 -49 52 -61 59 -94 59 -29 0 -39 -5 -44 -21 -5 -14 -10 -17 -18 -10 -8 6
-22 0 -45 -20 l-33 -30 45 -77 c48 -83 65 -160 48 -217 l-10 -30 -16 37 c-9
21 -16 48 -16 60 0 59 -67 194 -127 259 -24 26 -52 63 -61 81 -18 34 -130 174
-193 240 -44 46 -81 50 -105 13 -15 -23 -15 -32 5 -127 18 -88 21 -138 21
-340 l0 -238 45 0 45 0 1 63 c0 44 3 56 9 42 5 -11 6 -34 3 -51 -2 -17 3 -57
12 -90 9 -32 23 -79 30 -104 9 -32 9 -47 2 -52 -11 -7 -2 -39 79 -304 l26 -81
40 10 c40 10 40 10 34 51 -4 35 -4 37 5 16 10 -24 35 -74 105 -210 32 -62 82
-225 73 -235 -3 -2 -21 0 -40 5 -18 5 -55 12 -81 15 -42 5 -61 18 -185 125
-138 118 -192 182 -194 230 -1 14 -2 46 -3 72 -1 35 -15 72 -55 150 -181 352
-192 377 -206 461 -7 45 -17 91 -21 102 -9 24 -85 131 -138 194 -21 25 -45 60
-52 78 -16 38 -40 53 -86 53 -65 0 -91 -27 -128 -136 -18 -55 -46 -136 -63
-182 l-29 -84 -22 39 c-43 75 -114 162 -167 205 -75 61 -141 146 -196 253 -63
123 -112 193 -173 248 -68 61 -109 63 -194 12 -67 -40 -85 -42 -135 -15 -20
11 -72 33 -116 50 -107 42 -233 109 -301 162 -42 32 -64 60 -91 112 -19 37
-52 94 -73 125 -54 80 -154 285 -173 356 -17 62 -37 291 -37 430 0 92 -10 135
-69 295 -60 161 -74 185 -132 208 -45 19 -50 25 -103 130 -71 137 -143 213
-227 235 -238 63 -313 77 -404 71 -66 -5 -112 -2 -175 11 -103 21 -508 32
-672 17 -86 -7 -115 -14 -145 -33 -21 -14 -101 -54 -178 -91 -403 -191 -358
-164 -490 -293 -66 -64 -137 -125 -157 -136 -21 -11 -75 -43 -120 -72 -46 -30
-119 -69 -163 -88 -80 -34 -274 -146 -440 -254 -49 -32 -155 -94 -235 -138
-80 -43 -155 -88 -167 -99 -28 -26 -43 -90 -43 -185 0 -132 -47 -382 -100
-537 -16 -45 -60 -162 -98 -261 -38 -99 -81 -219 -96 -266 -40 -132 -116 -563
-161 -906 -16 -125 -33 -208 -53 -270 -33 -97 -52 -223 -33 -223 8 0 11 -73
11 -252 0 -302 -8 -345 -85 -508 -46 -98 -59 -138 -85 -270 -17 -85 -44 -189
-60 -231 -16 -42 -33 -96 -36 -120 -4 -24 -20 -79 -36 -123 -16 -43 -51 -169
-78 -280 -27 -110 -62 -245 -79 -300 -17 -54 -31 -107 -31 -117 0 -10 -13 -60
-29 -111 -18 -57 -36 -145 -45 -228 -11 -100 -25 -162 -52 -240 -48 -139 -49
-205 -5 -293 17 -34 38 -70 46 -81 13 -18 15 -18 44 5 16 13 30 27 30 32 1 4
-10 26 -24 48 -14 22 -30 51 -35 64 l-10 25 875 0 875 0 93 38 c50 22 109 42
129 46 20 4 63 15 95 25 32 10 79 24 105 31 27 7 50 20 53 29 2 9 15 17 27 17
34 2 174 30 248 49 51 14 89 16 175 11 105 -6 114 -5 195 25 152 55 187 62
286 56 99 -7 134 0 234 43 61 27 70 28 140 20 41 -5 201 -9 355 -9 298 0 323
3 388 50 l32 24 1020 -6 1020 -5 80 -23 c148 -42 196 -50 275 -44 85 6 204
-13 325 -52 51 -17 98 -25 145 -25 38 0 81 -5 97 -12 20 -8 249 -11 823 -12
740 -2 808 -3 988 -23 106 -12 199 -27 207 -33 10 -8 459 -11 1718 -10 1202 0
1707 -3 1712 -10 4 -6 24 -22 46 -36 63 -39 245 -51 562 -36 435 21 444 20
692 -58 244 -76 -4 -70 2988 -70 1604 0 2696 4 2706 9 27 15 38 50 50 161 37
335 2 494 -134 618 -71 65 -145 100 -264 124 -122 24 -176 53 -298 158 -150
130 -162 145 -246 305 -131 248 -229 391 -447 649 -69 82 -162 197 -206 256
-49 64 -129 150 -200 216 -66 60 -207 195 -314 301 -201 197 -282 262 -449
360 -76 44 -116 77 -191 156 -52 55 -152 159 -221 231 -69 72 -149 160 -179
196 -94 113 -423 441 -465 462 -22 12 -105 84 -184 160 -155 150 -167 158
-269 190 -86 26 -123 46 -197 103 -33 26 -72 53 -86 61 -38 19 -206 44 -302
44 -63 0 -92 5 -122 20 -22 11 -55 20 -75 20 -55 0 -102 17 -145 52 -21 18
-80 56 -130 84 -75 42 -103 65 -167 140 -43 49 -78 96 -78 104 0 24 -37 78
-57 84 -10 3 -33 30 -51 60 -34 58 -71 90 -114 101 -24 6 -25 5 -31 -51 -5
-52 -3 -63 22 -104 15 -25 42 -53 62 -62 19 -10 46 -32 60 -49 23 -28 25 -37
18 -73 -5 -23 -8 -117 -9 -209 0 -191 2 -201 81 -314 27 -39 49 -74 49 -77 0
-3 -38 -6 -85 -6 -57 0 -85 4 -85 11 0 7 -17 39 -39 73 -21 34 -41 71 -45 84
-15 45 -96 49 -113 5 -4 -9 -1 -71 5 -137 9 -93 9 -122 0 -125 -7 -2 -45 -35
-85 -73 -39 -37 -80 -68 -91 -68 -10 0 -41 21 -68 46 -27 25 -79 70 -117 100
-72 59 -76 66 -133 228 -45 131 -127 286 -180 341 -30 33 -45 59 -54 97 -7 29
-24 78 -37 108 l-24 54 22 17 21 16 -29 33 -30 34 -44 -35 c-24 -19 -66 -45
-94 -59 -63 -32 -157 -125 -189 -189 -19 -37 -25 -63 -24 -107 2 -46 -4 -72
-26 -119 -20 -42 -28 -73 -27 -108 1 -42 -7 -63 -53 -146 -50 -88 -65 -126
-95 -236 -13 -50 -70 -141 -80 -129 -4 5 -31 122 -60 259 -29 138 -55 258 -57
268 -5 17 -15 17 -75 1 -13 -4 -8 -40 42 -272 32 -147 58 -274 59 -282 0 -9
-10 -3 -25 15 -51 62 -89 140 -116 244 -46 174 -49 185 -54 222 -4 28 -12 39
-40 52 -20 9 -40 17 -44 17 -5 0 -9 -31 -9 -68 0 -87 -29 -205 -87 -362 -46
-123 -47 -126 -40 -211 5 -73 4 -89 -10 -103 -17 -17 -49 -14 -70 6 -5 5 -37
149 -70 321 l-60 312 -35 -3 c-19 -2 -39 -7 -43 -12 -5 -4 -2 -40 6 -78 14
-70 14 -71 -9 -93 -13 -12 -27 -38 -30 -58 -3 -20 -22 -97 -40 -171 -38 -150
-39 -161 -22 -239 10 -54 9 -61 -25 -156 -20 -55 -39 -121 -43 -146 -3 -26
-14 -61 -24 -77 -23 -37 -122 -106 -173 -120 -63 -18 -172 -97 -234 -171 -32
-38 -65 -72 -74 -75 -8 -4 -30 -26 -47 -51 -30 -43 -34 -45 -82 -45 -30 0 -75
-10 -115 -26 l-64 -26 -28 20 c-15 11 -37 29 -47 41 l-19 21 -29 -27 c-15 -15
-28 -32 -28 -39 0 -6 -9 -14 -19 -17 -37 -9 -41 5 -20 83 14 53 19 96 16 145
-4 76 0 89 55 171 19 28 52 98 72 155 21 57 50 136 66 174 16 39 33 87 39 107
5 21 18 50 29 65 10 15 24 44 31 63 6 19 29 61 50 95 21 33 67 114 101 179 34
66 89 163 123 215 33 53 72 114 85 136 21 35 23 26 5 -21 -3 -9 76 -38 83 -31
1 1 39 123 84 270 44 147 83 274 86 281 5 13 -41 36 -71 36 -7 0 -23 -37 -36
-82 -20 -70 -25 -78 -29 -53 -4 25 -12 32 -42 39 -48 12 -87 -5 -135 -58 -73
-80 -259 -249 -316 -286 -31 -21 -81 -44 -110 -50 -80 -19 -103 -35 -217 -146
-59 -57 -111 -104 -117 -104 -6 0 -32 -25 -58 -55 -27 -32 -68 -67 -96 -80
-58 -30 -63 -30 -50 -7 5 9 14 53 21 97 13 88 44 176 66 188 8 4 27 34 43 66
16 32 51 87 78 122 28 35 55 78 60 94 5 17 20 35 34 42 13 6 42 20 64 31 31
14 48 32 72 78 35 63 123 321 123 359 0 12 6 28 14 34 8 7 29 47 47 89 17 42
42 97 54 122 13 25 44 101 69 168 38 103 46 135 46 192 0 55 5 79 27 122 22
42 28 70 31 138 3 65 9 92 25 114 11 15 32 51 47 78 27 49 27 52 13 93 -20 61
-77 98 -161 103 -45 3 -65 9 -71 21 -4 9 -4 50 0 91 5 41 11 151 14 244 5 167
5 168 32 189 16 13 51 72 86 146 52 111 96 184 120 202 4 3 19 39 33 80 28 83
61 143 105 194 17 19 57 89 90 155 32 66 111 197 175 292 64 95 127 196 140
223 12 28 34 106 49 175 14 69 34 159 45 200 10 41 22 98 26 125 3 28 12 66
19 85 8 19 16 71 20 115 14 178 44 343 81 441 20 54 43 119 50 144 7 25 23 72
35 105 18 50 20 75 16 154 -3 67 0 101 9 121 8 15 17 48 20 73 6 40 3 48 -19
71 -43 43 -136 29 -267 -40 -99 -52 -416 -349 -568 -532 -31 -37 -52 -53 -77
-58 -19 -3 -96 -42 -172 -86 -152 -88 -293 -161 -299 -155 -2 2 10 26 27 53
18 27 43 75 56 106 17 38 30 55 39 51 40 -15 177 67 229 138 28 38 97 89 157
116 15 6 49 31 75 55 27 24 77 68 113 98 132 111 242 216 257 245 28 53 152
162 234 205 70 36 149 107 149 132 0 5 22 44 49 86 122 194 161 268 161 307 0
50 88 482 105 515 7 14 11 38 8 53 -3 15 0 33 6 41 23 27 26 163 21 771 l-5
620 -48 81 c-26 44 -50 98 -53 120 -4 21 -19 81 -35 132 -16 51 -29 101 -29
112 0 55 -102 227 -190 319 -28 30 -58 68 -67 85 -9 17 -35 56 -58 86 -24 30
-52 74 -64 97 -11 23 -45 70 -74 105 -30 35 -74 102 -98 151 -57 115 -92 148
-167 160 -95 15 -740 20 -773 7 -15 -7 -51 -37 -80 -67 l-52 -55 9 -101 c5
-56 9 -178 9 -272 l0 -170 51 -70 c52 -72 84 -159 84 -231 0 -32 -1 -34 -16
-20 -8 9 -32 16 -52 16 -68 0 -108 17 -135 59 -15 22 -69 78 -122 125 -83 74
-102 86 -143 92 -26 3 -61 15 -78 25 -16 10 -70 28 -118 39 -99 23 -126 35
-126 55 0 20 -40 45 -70 45 -14 0 -32 6 -39 13 -8 8 -46 11 -132 9 -181 -4
-225 -26 -326 -159 -32 -43 -93 -122 -136 -176 -43 -53 -84 -116 -92 -138 -9
-23 -25 -57 -36 -76 -14 -23 -21 -50 -21 -85 1 -28 -4 -60 -9 -70 -6 -10 -14
-44 -19 -75 -5 -31 -15 -63 -22 -70 -11 -10 -14 0 -16 50 -6 108 -7 196 -4
439 l2 237 65 73 c62 70 95 135 95 189 0 12 14 52 32 88 25 52 33 85 38 159 4
51 10 96 13 99 3 3 19 -3 36 -13 17 -10 32 -16 34 -13 24 33 119 192 126 213
6 15 11 44 11 65 0 20 7 64 16 96 14 49 16 109 15 334 -2 317 -5 331 -70 331
-23 0 -44 6 -52 16 -38 46 -126 61 -275 45 -95 -10 -104 -9 -170 14 -42 15
-92 25 -126 25 l-58 0 0 44 0 43 -67 6 c-38 4 -88 7 -113 7 -25 0 -51 4 -58 9
-17 10 22 18 133 27 89 7 122 22 131 61 4 14 1 77 -6 139 -8 76 -10 175 -6
302 l7 188 -39 60 c-52 79 -193 237 -235 263 -19 12 -44 21 -55 21 -25 0 -58
-40 -67 -83 -4 -18 -29 -69 -56 -113 -27 -45 -49 -86 -49 -91 0 -5 14 -17 30
-26 36 -22 36 -22 8 -89 -17 -42 -21 -72 -21 -143 1 -52 -4 -111 -13 -139 -8
-27 -14 -68 -14 -90 0 -35 -7 -48 -44 -87 -41 -43 -158 -120 -201 -133 -16 -5
-23 2 -38 39 -17 40 -18 66 -11 337 7 280 6 296 -13 339 -11 25 -23 67 -28 94
-9 65 -39 122 -119 230 -43 57 -63 91 -55 95 7 5 4 13 -11 23 -19 13 -21 22
-16 50 l6 34 -287 73 c-159 40 -347 87 -420 105 l-131 32 -11 -41z m624 -4196
c98 -33 169 -63 190 -81 11 -9 34 -24 50 -33 17 -10 22 -15 13 -12 -318 96
-357 110 -347 128 12 22 20 22 94 -2z m-773 -9210 l-7 -165 -33 102 -32 102
35 98 c19 54 36 100 37 103 7 19 7 -102 0 -240z"/>
<path d="M5820 5456 c0 -7 -3 -27 -6 -43 l-6 -30 149 -23 c81 -12 152 -23 157
-24 9 -1 28 75 21 82 -3 3 -292 52 -307 52 -4 0 -8 -6 -8 -14z"/>
<path d="M2645 1436 l-90 -22 2 -39 c2 -21 5 -40 8 -43 3 -3 50 5 105 18 109
26 103 19 83 93 -5 20 3 21 -108 -7z"/>
</g>
</svg>
