<?xml version="1.0" standalone="no"?>
<!DOCTYPE svg PUBLIC "-//W3C//DTD SVG 20010904//EN"
 "http://www.w3.org/TR/2001/REC-SVG-20010904/DTD/svg10.dtd">
<svg version="1.0" xmlns="http://www.w3.org/2000/svg"
 width="2988.000000pt" height="2912.000000pt" viewBox="0 0 2988.000000 2912.000000"
 preserveAspectRatio="xMidYMid meet">

<g transform="translate(0.000000,2912.000000) scale(0.100000,-0.100000)"
fill="#000000" stroke="none">
<path d="M13675 29088 c-48 -42 -118 -134 -147 -192 -19 -40 -26 -46 -45 -41
-62 15 -181 -85 -459 -391 -94 -102 -277 -270 -374 -341 -52 -38 -257 -166
-363 -227 -61 -35 -209 -147 -368 -279 l-126 -104 -99 -22 c-273 -60 -797
-236 -974 -327 -246 -126 -300 -264 -300 -763 0 -482 65 -710 222 -775 116
-49 316 15 563 178 109 73 201 118 317 155 226 72 432 79 550 20 170 -86 -17
-310 -802 -965 -280 -233 -363 -306 -549 -483 -361 -342 -660 -704 -714 -863
-57 -165 -49 -597 18 -1057 119 -821 398 -1858 780 -2896 364 -990 660 -1594
972 -1985 92 -116 241 -262 358 -350 109 -83 166 -153 230 -280 82 -164 135
-364 154 -590 42 -470 166 -1046 321 -1481 l41 -116 86 -2 c359 -4 687 -213
847 -538 28 -56 44 -76 83 -101 26 -17 64 -47 83 -67 19 -20 68 -60 109 -88
40 -28 88 -70 106 -94 18 -23 55 -60 82 -82 28 -22 68 -61 89 -87 49 -59 38
-51 644 -469 278 -191 531 -366 562 -387 51 -36 60 -39 87 -30 16 6 184 120
373 254 330 235 463 323 743 495 306 187 587 338 748 402 164 65 364 182 541
316 185 139 174 126 196 235 10 52 24 144 30 204 6 61 14 114 17 119 3 5 2 8
-3 5 -78 -38 -87 -40 -122 -26 -26 10 -43 27 -66 68 -27 49 -31 64 -31 135 0
131 55 219 176 281 138 69 205 202 164 325 -16 46 -17 78 -12 248 16 560 247
1860 437 2466 86 272 135 519 150 755 5 80 19 208 30 285 108 737 389 2082
515 2475 32 97 34 110 25 170 -5 36 -10 101 -10 145 0 76 -2 84 -40 145 -69
111 -85 175 -85 325 1 108 5 140 23 190 12 33 26 99 32 148 6 48 15 99 21 114
7 19 4 52 -10 127 -24 121 -43 229 -121 706 -144 881 -281 1387 -504 1855 -82
172 -163 311 -310 535 -312 473 -437 612 -579 642 -71 15 -152 -6 -263 -68
-347 -194 -661 -312 -885 -333 -119 -11 -188 -40 -243 -101 -89 -99 -126 -254
-95 -402 21 -98 64 -173 153 -262 88 -88 124 -148 151 -251 20 -77 20 -184 1
-191 -49 -19 -205 134 -396 386 -136 179 -306 363 -410 441 -148 112 -297 157
-420 125 -165 -42 -278 -154 -464 -459 -52 -85 -93 -137 -107 -137 -19 0 -7
107 37 321 40 197 45 236 42 326 -2 84 -7 106 -24 129 -40 54 -65 65 -170 74
-89 8 -101 11 -121 35 -17 19 -21 33 -17 53 16 65 82 173 223 362 166 223 283
537 298 800 10 173 -44 408 -110 478 -83 90 -258 110 -649 76 -263 -23 -594
-24 -676 -2 -78 22 -111 43 -128 85 -21 48 -17 91 16 221 66 254 45 358 -55
270z m-202 -380 c-16 -85 -22 -246 -10 -301 11 -54 58 -102 120 -124 101 -35
380 -17 732 46 527 96 673 57 762 -202 23 -69 28 -98 27 -182 0 -207 -81 -382
-279 -610 -234 -269 -368 -571 -353 -800 10 -160 90 -201 248 -130 86 39 111
42 134 20 52 -52 20 -309 -99 -790 -150 -607 -245 -867 -367 -1000 -69 -76
-129 -103 -256 -115 -86 -8 -114 -15 -164 -42 -106 -56 -162 -149 -179 -293
-5 -50 -19 -108 -34 -141 -111 -251 -468 -504 -711 -504 -73 0 -126 25 -192
90 -150 147 -83 307 133 318 68 3 101 -1 219 -32 204 -53 241 -48 190 25 -67
96 -237 233 -370 296 -71 34 -87 38 -161 38 -74 0 -85 -3 -125 -30 -91 -64
-136 -215 -125 -415 11 -184 54 -297 152 -396 104 -105 246 -138 413 -96 135
34 235 92 457 263 117 90 252 158 326 166 88 9 120 -7 224 -112 75 -75 108
-100 176 -134 200 -98 440 -117 645 -49 170 56 284 209 202 271 -41 31 -173
27 -363 -12 -201 -40 -249 -45 -336 -32 -146 22 -281 115 -364 250 -58 97
-105 205 -112 258 -5 44 -2 54 17 73 19 19 29 21 66 16 104 -14 198 -88 259
-204 45 -86 119 -163 192 -198 89 -44 188 -42 211 3 15 29 -4 75 -73 178 -71
106 -81 132 -96 249 -11 84 -1 205 26 338 99 473 469 1097 848 1428 118 103
200 145 281 144 88 -1 152 -37 256 -143 105 -105 197 -228 392 -521 139 -208
153 -226 187 -234 38 -9 109 -31 201 -64 76 -27 182 -52 220 -52 27 0 30 3 25
20 -12 37 -6 204 9 260 l15 55 -195 417 c-107 230 -194 421 -194 425 0 9 694
258 840 302 170 51 244 64 343 59 116 -5 172 -32 272 -133 192 -193 547 -787
704 -1178 445 -1107 605 -2685 410 -4052 -107 -755 -268 -1206 -607 -1705
-141 -207 -265 -354 -486 -575 -314 -313 -545 -498 -1021 -813 -154 -103 -333
-226 -397 -275 -181 -135 -300 -258 -281 -289 18 -31 144 13 327 114 312 172
623 373 1154 747 514 361 767 487 869 432 48 -25 53 -145 12 -293 -28 -101
-71 -180 -133 -240 -29 -30 -64 -74 -76 -98 -54 -106 -100 -292 -100 -405 0
-228 -207 -1288 -425 -2179 -296 -1212 -397 -1398 -860 -1592 -391 -164 -799
-387 -1095 -599 -251 -180 -347 -211 -523 -166 -195 50 -371 148 -972 541
-539 352 -923 640 -1277 957 -156 139 -238 235 -317 368 -247 414 -370 937
-296 1253 22 93 49 138 136 228 73 75 79 85 79 123 0 91 -87 193 -300 350 -69
51 -172 134 -229 184 -220 194 -538 572 -748 887 -114 172 -585 968 -579 979
15 23 520 432 606 489 288 194 679 312 1030 312 200 0 359 -33 510 -106 97
-48 161 -103 298 -258 28 -33 55 -57 58 -53 7 7 -101 215 -152 293 -83 125
-258 251 -431 310 -78 26 -120 34 -208 39 -192 10 -229 19 -283 68 -55 51 -65
199 -31 469 88 701 307 1237 634 1547 140 132 297 220 495 274 111 30 375 30
516 -1 287 -62 617 -226 919 -455 127 -96 825 -668 825 -676 -1 -3 -150 -102
-333 -220 -591 -382 -968 -635 -1152 -773 -347 -261 -458 -378 -356 -378 228
0 1418 703 1917 1133 124 108 184 181 184 227 0 15 -16 58 -35 96 -198 395
-1403 1166 -2030 1300 -81 17 -268 19 -376 4 -519 -74 -881 -400 -1114 -1005
-72 -187 -112 -330 -189 -690 -163 -751 -321 -979 -916 -1318 -179 -102 -378
-201 -433 -216 -34 -9 -39 -7 -53 14 -111 169 -680 2006 -745 2403 -14 87 -5
128 48 216 33 54 35 61 24 96 -21 70 -29 178 -20 252 l9 73 -34 30 c-108 97
-136 227 -111 522 39 450 59 593 96 666 23 44 67 67 128 67 24 0 61 12 97 31
149 77 584 390 940 675 591 472 964 925 982 1190 6 93 -8 134 -65 184 -169
149 -604 89 -1276 -176 -197 -77 -283 -104 -336 -104 -121 0 -157 123 -148
509 4 175 8 229 24 283 67 225 213 324 748 503 257 86 406 145 528 207 102 52
172 108 165 130 -3 7 -24 15 -49 18 l-44 5 109 90 c146 121 275 218 333 251
103 59 311 190 370 234 102 75 291 249 376 345 148 167 308 325 327 325 4 0 1
-33 -7 -72z"/>
<path d="M11036 23865 c-10 -49 -21 -100 -23 -111 -4 -19 -1 -21 21 -17 15 3
28 8 30 12 2 3 1 51 -2 106 l-7 100 -19 -90z"/>
<path d="M6900 12295 c0 -27 36 -78 72 -103 23 -16 57 -44 73 -61 17 -18 62
-54 101 -81 39 -27 82 -62 96 -78 14 -16 45 -42 69 -57 40 -25 36 -20 -41 61
-46 49 -123 124 -170 167 -82 75 -200 165 -200 152z"/>
<path d="M13602 11523 c-22 -38 -37 -71 -33 -75 8 -9 119 -48 136 -48 9 0 8
22 -2 87 -8 48 -15 88 -16 89 -1 1 -12 4 -23 8 -18 6 -27 -4 -62 -61z"/>
<path d="M8405 10303 c4 -20 10 -66 15 -102 6 -53 35 -186 56 -258 2 -7 15
-13 29 -13 25 0 26 2 21 43 -3 23 -13 107 -21 187 -9 80 -21 150 -28 156 -7 6
-27 14 -46 18 l-33 6 7 -37z"/>
<path d="M28975 6310 c3 -5 8 -10 11 -10 2 0 4 5 4 10 0 6 -5 10 -11 10 -5 0
-7 -4 -4 -10z"/>
</g>
</svg>
