<?xml version="1.0" encoding="UTF-8" standalone="no"?>
<svg
   version="1.0"
   width="720pt"
   height="720pt"
   viewBox="0 0 720 720"
   preserveAspectRatio="xMidYMid meet"
   id="svg107"
   sodipodi:docname="intento 5.svg"
   inkscape:version="1.1 (c68e22c387, 2021-05-23)"
   xmlns:inkscape="http://www.inkscape.org/namespaces/inkscape"
   xmlns:sodipodi="http://sodipodi.sourceforge.net/DTD/sodipodi-0.dtd"
   xmlns="http://www.w3.org/2000/svg"
   xmlns:svg="http://www.w3.org/2000/svg">
  <sodipodi:namedview
     id="namedview1741"
     pagecolor="#ffffff"
     bordercolor="#111111"
     borderopacity="1"
     inkscape:pageshadow="0"
     inkscape:pageopacity="0"
     inkscape:pagecheckerboard="1"
     inkscape:document-units="px"
     showgrid="false"
     inkscape:zoom="0.48041667"
     inkscape:cx="1.0407632"
     inkscape:cy="427.75369"
     inkscape:window-width="1366"
     inkscape:window-height="705"
     inkscape:window-x="-8"
     inkscape:window-y="-8"
     inkscape:window-maximized="1"
     inkscape:current-layer="svg107" />
  <defs
     id="defs111">
    <inkscape:path-effect
       effect="bspline"
       id="path-effect4980"
       is_visible="true"
       lpeversion="1"
       weight="33.333333"
       steps="2"
       helper_size="0"
       apply_no_weight="true"
       apply_with_weight="true"
       only_selected="false" />
  </defs>
  <g
     inkscape:groupmode="layer"
     id="layer6"
     inkscape:label="Layer 1"
     style="display:inline" />
  <g
     inkscape:groupmode="layer"
     id="layer4"
     inkscape:label="2"
     style="display:inline" />
  <g
     inkscape:groupmode="layer"
     id="layer5"
     inkscape:label="3"
     style="display:inline" />
  <path
     style="fill:#000000;stroke-width:0.75"
     id="path3672"
     d="m 242.99034,1271.8923 c 3.38687,0 6.77374,0 10.16061,0 5.33166,-2e-4 10.66332,-10e-5 15.99499,-4e-4 6.43166,-10e-5 12.86331,-6e-4 19.29498,-6e-4 7.0494,0.064 14.09666,-0.1159 21.14364,-0.2707 6.84987,-0.054 13.68114,-0.5865 20.51301,-1.0316 7.12037,-0.4312 14.21791,-1.1733 21.32444,-1.7857 7.03701,-0.6145 14.08305,-1.1074 21.13408,-1.5271 7.94064,-0.6311 15.86025,-1.4989 23.792,-2.2318 7.91728,-0.73 15.84816,-1.2995 23.78107,-1.8278 7.53799,-0.4962 15.08228,-0.8862 22.62807,-1.2407 7.15729,-0.2755 14.30987,-0.6308 21.46125,-1.0288 7.09305,-0.4794 14.18491,-0.9743 21.28017,-1.4204 6.44061,-0.4006 12.8848,-0.7384 19.33007,-1.0537 5.90428,-0.2918 11.81174,-0.5117 17.71969,-0.7131 5.92794,-0.2023 11.85752,-0.3504 17.78739,-0.4814 5.9462,-0.1006 11.89221,-0.2807 17.83958,-0.2781 6.61381,-0.021 13.21973,0.1928 19.82364,0.5306 7.00137,0.3782 14.00366,0.7284 21.00003,1.1911 6.79264,0.4564 13.58898,0.8525 20.3874,1.2113 6.35271,0.327 12.70803,0.6003 19.0645,0.8424 6.34589,0.2439 12.69401,0.4192 19.04273,0.5687 7.9236,0.1882 15.84378,0.4977 23.76631,0.7297 10.15959,0.4031 20.32024,0.7683 30.48331,1.071 11.03731,0.315 22.07626,0.5673 33.11532,0.8112 9.53978,0.2095 19.08027,0.3837 28.62088,0.5499 8.28819,0.1679 16.57854,0.2147 24.86595,0.4168 7.7989,0.2308 15.59708,0.4826 23.39648,0.6971 7.52437,0.207 15.04995,0.3651 22.5756,0.5154 6.96285,0.1365 13.92607,0.2457 20.88945,0.349 6.23835,0.093 12.47692,0.1686 18.71565,0.2355 4.1592,-0.046 8.2362,-0.055 12.31177,0.7958 0,0 0.70313,-0.096 0.70313,-0.096 v 0 c -4.07565,-0.8659 -8.1522,-0.8567 -12.31455,-0.8095 -6.2397,-0.067 -12.47933,-0.1425 -18.71865,-0.2347 -6.9648,-0.1028 -13.92945,-0.2117 -20.89365,-0.3479 -7.5267,-0.1499 -15.05318,-0.3078 -22.57853,-0.5145 -7.80007,-0.2144 -15.59897,-0.4655 -23.39852,-0.6969 -8.28926,-0.2036 -16.58155,-0.2489 -24.87163,-0.4165 -9.54387,-0.1654 -19.08761,-0.3391 -28.63064,-0.548 -11.04085,-0.2429 -22.08158,-0.4945 -33.12064,-0.81 -10.15824,-0.303 -20.31405,-0.6685 -30.46874,-1.0731 -7.91774,-0.2324 -15.83311,-0.5433 -23.75191,-0.7324 -6.34743,-0.1497 -12.69427,-0.3251 -19.0389,-0.5682 -6.3573,-0.2419 -12.71349,-0.5144 -19.06704,-0.841 -6.79887,-0.3583 -13.59567,-0.7537 -20.3887,-1.2102 -6.99725,-0.4631 -14.00036,-0.8139 -21.00263,-1.1918 -6.60188,-0.3389 -13.20564,-0.5569 -19.81754,-0.5351 -6.41443,10e-5 -12.82715,0.1497 -19.2401,0.2795 -5.93048,0.1309 -11.86066,0.2793 -17.78917,0.4819 -5.90758,0.2019 -11.81468,0.422 -17.71858,0.7145 -6.44346,0.3158 -12.88586,0.6544 -19.32465,1.0555 -7.09502,0.4467 -14.18661,0.9426 -21.27959,1.4199 -7.15039,0.3981 -14.30207,0.7518 -21.45832,1.0287 -7.54512,0.3549 -15.08873,0.7456 -22.62603,1.2423 -7.93227,0.5291 -15.8625,1.0993 -23.77913,1.83 -7.9333,0.7335 -15.85447,1.6025 -23.79715,2.2287 -7.05124,0.42 -14.09748,0.9135 -21.13466,1.5289 -7.10762,0.613 -14.20639,1.3544 -21.32809,1.7836 -6.83047,0.4451 -13.66041,0.9755 -20.5089,1.0291 -7.04745,0.1546 -14.09517,0.3336 -21.14502,0.269 -6.4343,-10e-5 -12.86859,-6e-4 -19.30288,-7e-4 -5.33338,-3e-4 -10.66676,-2e-4 -16.00013,-4e-4 -3.39614,-3e-4 -6.79228,-5e-4 -10.18842,0 0,0 0.7359,0.1166 0.7359,0.1166 z" />
  <g
     inkscape:groupmode="layer"
     id="layer7"
     inkscape:label="Layer 2"
     style="display:inline">
    <circle
       id="path3977"
       style="fill:#000000;stroke:#000000;stroke-width:0.75"
       cx="1795.3165"
       cy="885.16907"
       r="0.038989592" />
    <circle
       id="path3979"
       style="fill:#000000;stroke:#000000;stroke-width:0.75"
       cx="1795.3165"
       cy="885.16907"
       r="0.038989592" />
    <circle
       id="path3981"
       style="fill:#000000;stroke:#000000;stroke-width:0.75"
       cx="104.59668"
       cy="377.79706"
       r="0.038989592" />
    <circle
       id="path3983"
       style="fill:#000000;stroke:#000000;stroke-width:0.75"
       cx="104.59668"
       cy="377.79706"
       r="0.038989592" />
    <path
       style="fill:#000000;stroke-width:0.75"
       id="path3987"
       d="m 3.7272926,699.45129 c 1.0038,-2.2e-4 2.0075,-3.7e-4 3.0113,-5.2e-4 2.302,-4.5e-4 4.6039004,-6e-4 6.9059004,-6e-4 3.435,0.0315 6.8683,-0.0225 10.3006,-0.15495 5.0166,-0.26385 10.0294,-0.588 15.0394,-0.95423 5.3116,-0.3993 10.626,-0.7566 15.9424,-1.0851 5.6663,-0.3237 11.3269,-0.73852 16.9909,-1.09725 6.3709,-0.40177 12.747,-0.70695 19.125,-0.9669 7.5581,-0.30352 15.118697,-0.53632 22.679397,-0.76154 7.9171,-0.23558 15.8354,-0.42473 23.754,-0.59836 8.3952,-0.16965 16.7874,-0.45855 25.1808,-0.69817 9.1866,-0.26025 18.3747,-0.46133 27.563,-0.65318 9.1168,-0.18547 18.2338,-0.35392 27.3509,-0.51465 8.4635,-0.14977 16.9271,-0.28057 25.391,-0.40432 7.9902,-0.11633 15.9806,-0.2199 23.971,-0.31747 8.1527,-0.0975 16.3055,-0.17521 24.4583,-0.24976 8.5152,-0.0776 17.0306,-0.13867 25.546,-0.19627 8.9536,-0.0607 17.9073,-0.1083 26.861,-0.15413 9.3543,-0.048 18.7086,-0.0864 28.063,-0.12135 9.9494,-0.0996 19.8964,-0.0435 29.8434,0.18008 10.4805,0.28357 20.9607,0.57247 31.442,0.8256 11.0639,0.23572 22.1266,0.51367 33.189,0.81562 11.3587,0.27968 22.7133,0.70283 34.0633,1.22543 11.6534,0.5559 23.3093,1.0512 34.9616,1.62892 10.867,0.55838 21.7362,1.07288 32.6064,1.56518 9.74,0.4362 19.4811,0.8478 29.2227,1.24537 8.5121,0.34763 17.025,0.6702 25.5386,0.9786 7.5572,0.27375 15.1151,0.5259 22.6734,0.76875 6.7219,0.16793 13.4458,0.24293 20.1692,0.32535 6.2975,0.14228 12.593,0.10485 18.8897,-0.0465 5.844,-0.0683 11.6739,-0.35339 17.4899,-0.92242 5.6931,-0.579 11.3637,-1.35885 17.0158,-2.24865 5.0354,-0.76725 9.9753,-1.97648 14.8437,-3.4563 4.2622,-1.17255 7.8518,-3.57698 11.178,-6.39908 2.38591,-2.04457 4.50181,-4.28917 5.85211,-7.13925 0.8571,-1.96575 1.2677,-4.03927 1.2481,-6.1746 -0.063,-1.9338 -1.0782,-3.38737 -2.3217,-4.7715 -1.5212,-1.42605 -3.4955,-2.1846 -5.41531,-2.9112 -2.0311,-0.7185 -4.136,-1.18732 -6.241,-1.6284 -2.5754,-0.54097 -5.2012,-0.76867 -7.7498,-1.42785 -3.2098,-1.01182 -6.1435,-2.67555 -8.924,-4.54132 -3.1194,-2.15333 -5.8853,-4.74645 -8.5795,-7.39778 -2.919,-2.9784 -5.6412,-6.14565 -8.3315,-9.3303 -2.7077,-3.2529 -5.3633,-6.5487 -8.0381,-9.82867 -2.7272,-3.32453 -5.5186,-6.5967 -8.349,-9.83385 -2.9664,-3.40208 -6.0707,-6.68085 -9.1994,-9.9333 -3.1809,-3.32888 -6.4137,-6.6075 -9.6142,-9.9174 -3.3804,-3.55785 -6.841,-7.0374 -10.3009,-10.5174 -3.5012,-3.47963 -6.9557,-7.005 -10.312,-10.62465 -3.2745,-3.50235 -6.4323,-7.10805 -9.4845,-10.80503 -3.0816,-3.74077 -5.9913,-7.62067 -8.8408,-11.53987 -2.87,-4.0581 -5.6975,-8.1462 -8.5803,-12.195 -2.865,-4.03853 -5.7644,-8.05275 -8.8096,-11.95763 -2.9275,-3.77587 -5.9464,-7.4802 -9.0853,-11.082 -3.1134,-3.58852 -6.633,-6.78465 -10.1202,-9.99907 -3.3522,-3.14888 -6.9356,-6.02985 -10.506,-8.9229 -3.3414,-2.77425 -6.8633,-5.30865 -10.4777,-7.71128 -3.402,-2.2098 -6.91,-4.25212 -10.4449,-6.24037 -3.4738,-1.92675 -7.0545,-3.65378 -10.686,-5.26065 -3.8857,-1.7337 -7.8291,-3.33263 -11.7558,-4.97055 -3.8007,-1.55348 -7.6527,-2.97818 -11.5164,-4.36628 -3.7301,-1.28355 -7.4485,-2.60047 -11.1985,-3.82515 -3.6505,-1.22242 -7.3862,-2.15647 -11.0812,-3.22746 -3.6263,-1.08179 -7.2688,-2.10315 -10.8794,-3.23676 -3.5829,-1.14404 -7.2168,-2.11379 -10.8386,-3.12375 -3.5166,-0.94976 -7.0182,-1.94996 -10.5037,-3.00778 -3.4139,-1.01129 -6.7892,-2.14532 -10.1905,-3.19709 -3.3853,-1.1127 -6.8068,-2.10526 -10.2277,-3.10042 -3.4333,-0.97489 -6.8548,-1.99044 -10.293,-2.94824 -3.4245,-0.98113 -6.8522,-1.95104 -10.2849,-2.90287 -2.2914,-0.61833 -1.146,-0.31406 -3.4363,-0.91289 0,0 -0.7201,0.0952 -0.7201,0.0952 v 0 c 2.2904,0.59807 1.1449,0.29416 3.4364,0.9118 3.4328,0.95111 6.8604,1.92135 10.2846,2.90282 3.4384,0.95681 6.8598,1.97289 10.2933,2.94736 3.4205,0.99582 6.8428,1.98488 10.2274,3.09923 3.4016,1.05078 6.7766,2.1858 10.1903,3.19749 3.486,1.0582 6.9876,2.06057 10.5051,3.00927 3.6213,1.01071 7.2558,1.97748 10.8385,3.1214 3.6107,1.13452 7.2533,2.15686 10.8802,3.23824 3.6939,1.07363 7.4307,2.00325 11.0812,3.225 3.7505,1.2234 7.4689,2.54078 11.1996,3.82298 3.8636,1.38675 7.7152,2.8113 11.5163,4.3626 3.9267,1.63725 7.8702,3.2355 11.756,4.96897 3.6303,1.60515 7.21,3.3303 10.6835,5.25398 3.5353,1.98637 7.0431,4.02802 10.4462,6.23475 3.615,2.4 7.1379,4.93125 10.479,7.70437 3.5696,2.8929 7.1553,5.76998 10.5072,8.91818 3.486,3.21262 7.0055,6.40575 10.1191,9.99135 3.1397,3.60022 6.1593,7.30312 9.087,11.07787 3.0459,3.90338 5.9444,7.91715 8.8095,11.95448 2.8834,4.04858 5.7107,8.13682 8.5794,12.19582 2.85,3.92033 5.759,7.80211 8.8407,11.5443 3.0522,3.69855 6.2095,7.30628 9.4853,10.80915 3.3565,3.62085 6.811,7.1472 10.3132,10.62705 3.4595,3.47941 6.9195,6.95858 10.2986,10.51658 3.1997,3.31027 6.4326,6.58852 9.6131,9.91732 3.1289,3.2508 6.2322,6.52905 9.1985,9.92993 2.8296,3.23655 5.6207,6.50782 8.3476,9.83145 2.6751,3.2802 5.3309,6.57637 8.0385,9.82987 2.69,3.18638 5.413,6.3546 8.3294,9.33713 2.6942,2.65515 5.4605,5.2518 8.5788,7.41135 2.7791,1.87402 5.7142,3.54007 8.9225,4.56615 2.5451,0.6711 5.1706,0.89332 7.7458,1.43205 2.1036,0.43905 4.2069,0.90555 6.2385,1.6173 1.9138,0.72007 3.88381,1.46895 5.41011,2.8764 1.2376,1.36755 2.2558,2.79937 2.3197,4.7181 0.021,2.12422 -0.3889,4.18665 -1.2426,6.14145 -1.3492,2.83777 -3.4651,5.07165 -5.84111,7.10902 -3.3235,2.81475 -6.9131,5.2035 -11.1689,6.37043 -4.8667,1.4763 -9.8052,2.68102 -14.838,3.447 -5.6509,0.8883 -11.3202,1.66792 -17.0121,2.24505 -5.8161,0.56602 -11.646,0.84742 -17.4898,0.91717 -5.8299,0.13965 -11.6576,0.19088 -17.4886,0.0465 -6.7249,-0.082 -13.4503,-0.15697 -20.1739,-0.32317 -7.5603,-0.2424 -15.1203,-0.49418 -22.6795,-0.76748 -8.5158,-0.30795 -17.0312,-0.63022 -25.5455,-0.97725 -9.7446,-0.39705 -19.4886,-0.8079 -29.2314,-1.24365 -10.8724,-0.49177 -21.7437,-1.00612 -32.6128,-1.56397 -11.6519,-0.57743 -23.3075,-1.07273 -34.9604,-1.6293 -11.3501,-0.52313 -22.7047,-0.94688 -34.0635,-1.2267 -11.0616,-0.30195 -22.1234,-0.58133 -33.1865,-0.81623 -10.4797,-0.25335 -20.9584,-0.54255 -31.4374,-0.82642 -10.3968,-0.23505 -20.7942,-0.27435 -31.1934,-0.1818 -9.3561,0.0345 -18.7122,0.0728 -28.0682,0.12067 -8.9543,0.0457 -17.9087,0.0934 -26.863,0.1539 -8.5166,0.0577 -17.0331,0.11828 -25.5495,0.1959 -8.1537,0.075 -16.3074,0.15233 -24.4608,0.2496 -7.9893,0.0977 -15.9786,0.20145 -23.9678,0.31815 -8.4628,0.12383 -16.9255,0.25485 -25.3879,0.405 -9.1158,0.16095 -18.2313,0.33008 -27.3466,0.51548 -9.1901,0.19192 -18.38,0.39292 -27.5685,0.65295 -8.3943,0.23925 -16.7874,0.52822 -25.1834,0.69727 -7.9199,0.17348 -15.8393,0.36255 -23.7576,0.59835 -7.5618,0.22545 -15.123697,0.45825 -22.682997,0.76178 -6.3811,0.25965 -12.7602,0.56475 -19.1342,0.96712 -5.665,0.35888 -11.3263,0.7737 -16.9936,1.09673 -5.3166,0.3288 -10.6314,0.68655 -15.9433,1.08577 -5.0122,0.36578 -10.0274,0.69008 -15.0462,0.95063 -3.4355,0.12975 -6.8719,0.1821 -10.31,0.15067 -2.3046,-7e-5 -4.6094004,-2.2e-4 -6.9141004,-6.7e-4 -1.0059,-8e-5 -2.0118,-3e-4 -3.0177,-5.3e-4 0,0 0.7377,0.11685 0.7377,0.11685 z" />
    <path
       style="fill:#000000;stroke-width:0.75"
       id="path3989"
       d="m 430.25509,445.6483 c -0.1081,3.7e-4 -0.2162,3.9e-4 -0.3244,5.5e-4 -0.6107,-0.0145 -1.218,-0.002 -1.8251,0.0613 -0.5052,0.064 -0.9988,0.19347 -1.4884,0.32968 -0.6254,0.17916 -1.2366,0.4011 -1.8474,0.62351 -0.7632,0.27544 -1.5088,0.59412 -2.2448,0.93478 -0.9163,0.42795 -1.7923,0.93307 -2.659,1.4525 -0.9612,0.57237 -1.8738,1.21729 -2.7751,1.87841 -0.8921,0.63707 -1.7228,1.34687 -2.5298,2.08673 -0.7462,0.69624 -1.4436,1.44099 -2.1198,2.20458 -0.6459,0.75355 -1.2482,1.54259 -1.8369,2.34108 -0.5575,0.76793 -1.0866,1.55604 -1.6057,2.35035 -0.5096,0.78057 -1.0044,1.5707 -1.5046,2.35731 -0.5677,0.90572 -1.1835,1.77936 -1.8321,2.62862 -0.7183,0.92272 -1.468,1.81998 -2.2389,2.69903 -0.8229,0.9304 -1.667,1.84161 -2.5066,2.75684 -0.8934,0.98767 -1.8065,1.95705 -2.7021,2.94262 -0.939,1.0455 -1.8492,2.11628 -2.7583,3.18773 -0.9076,1.07602 -1.8084,2.15767 -2.7068,3.24135 -0.9142,1.11502 -1.8655,2.1987 -2.8339,3.2667 -0.8832,0.97297 -1.7968,1.91707 -2.7406,2.83117 -0.6925,0.6918 -1.305,1.1406 -2.2892,1.22918 -0.093,0 -0.3708,0.0135 -0.2792,0 0.1503,-0.027 0.3133,0.0225 0.4571,-0.0292 0.075,-0.027 -0.1586,-0.027 -0.2354,-0.0503 -0.2309,-0.0713 -0.3642,-0.18788 -0.5142,-0.36878 -0.2805,-0.5676 -0.073,-1.20345 0.096,-1.77397 0.3064,-0.89318 0.7515,-1.72823 1.2305,-2.53883 0.8899,-1.42072 1.892,-2.76787 2.8846,-4.11772 1.8281,-2.43053 3.5769,-4.91865 5.3267,-7.40565 2.26,-3.23256 4.5506,-6.44359 6.8056,-9.67969 2.172,-3.1384 4.342,-6.27819 6.5051,-9.42281 1.9492,-2.84134 3.9234,-5.66539 5.8811,-8.50099 0,0 -0.5773,-0.0349 -0.5773,-0.0349 v 0 c -1.9473,2.83741 -3.9125,5.66256 -5.8562,8.50254 -2.1577,3.14581 -4.3212,6.28763 -6.4939,9.4231 -2.2596,3.23495 -4.5312,6.4615 -6.8161,9.67864 -1.7724,2.48872 -3.5504,4.97377 -5.4092,7.39912 -1.0108,1.35038 -2.0318,2.69768 -2.9384,4.12133 -0.4889,0.81427 -0.9414,1.65457 -1.2521,2.55525 -0.1782,0.5946 -0.3844,1.24567 -0.1114,1.8429 0.4898,0.6561 1.2406,0.52027 2.0063,0.5073 0.9693,-0.1188 1.5797,-0.5967 2.2611,-1.2792 0.9405,-0.91613 1.8514,-1.86165 2.7314,-2.83635 0.9666,-1.07063 1.9192,-2.15423 2.8342,-3.26955 0.8987,-1.08345 1.8006,-2.16413 2.7077,-3.24053 0.9093,-1.07085 1.8182,-2.14237 2.7596,-3.18525 0.8986,-0.98392 1.8115,-1.9548 2.7067,-2.94202 0.8413,-0.91568 1.6888,-1.82594 2.5122,-2.75801 0.7713,-0.88082 1.5228,-1.77869 2.2411,-2.70354 0.6506,-0.85211 1.2717,-1.7264 1.8433,-2.63382 0.5014,-0.7857 0.9952,-1.57629 1.5053,-2.35645 0.5188,-0.79285 1.0457,-1.58081 1.604,-2.34653 0.5872,-0.79698 1.1871,-1.58553 1.8346,-2.33491 0.6754,-0.76087 1.3705,-1.50443 2.116,-2.19766 0.8049,-0.73807 1.6358,-1.44358 2.525,-2.07957 0.9011,-0.66026 1.816,-1.30107 2.7774,-1.87166 0.869,-0.51779 1.7484,-1.01991 2.6679,-1.444 0.7393,-0.33856 1.4887,-0.65377 2.2546,-0.92773 0.6123,-0.22216 1.2259,-0.44099 1.8535,-0.61688 0.4912,-0.13276 0.9861,-0.26007 1.4928,-0.31687 0.2069,-0.0201 0.2412,-0.0251 0.4479,-0.0383 0.07,-0.005 0.2805,-0.008 0.2104,-0.0112 -1.0432,-0.0436 -0.5236,0.0118 -0.2836,-0.002 0.1059,1.6e-4 0.2118,1.8e-4 0.3176,5.5e-4 0,0 0.7392,-0.11708 0.7392,-0.11708 z" />
    <path
       style="fill:#000000;stroke-width:0.75"
       id="path3991"
       d="m 412.72169,442.78899 c 0.1349,-0.17541 0.2656,-0.35396 0.4003,-0.52953 0.1969,-0.26228 0.3833,-0.53198 0.5727,-0.79956 0.2085,-0.30105 0.4144,-0.60397 0.6144,-0.91074 0.2271,-0.35218 0.454,-0.70429 0.6736,-1.06121 0.2456,-0.39435 0.4802,-0.79559 0.7099,-1.19942 0.2572,-0.45612 0.512,-0.91354 0.7559,-1.37694 0.2561,-0.48777 0.4821,-0.98998 0.7091,-1.49158 0.2028,-0.43785 0.3873,-0.8836 0.5659,-1.33172 0,0 -0.719,-0.0273 -0.719,-0.0273 v 0 c -0.1782,0.44713 -0.3628,0.89162 -0.5653,1.32837 -0.2277,0.50023 -0.4561,1.00024 -0.7113,1.48724 -0.2441,0.46298 -0.5,0.91945 -0.7587,1.37436 -0.2306,0.40286 -0.4657,0.80325 -0.7118,1.19684 -0.2204,0.3564 -0.4488,0.70752 -0.6768,1.05904 -0.201,0.30547 -0.4065,0.60815 -0.6157,0.90802 -0.1893,0.26752 -0.3776,0.53566 -0.5763,0.79642 -0.1368,0.17732 -0.2687,0.35855 -0.4134,0.52958 0,0 0.7465,0.0481 0.7465,0.0481 z" />
    <path
       style="fill:#000000;stroke-width:0.75"
       id="path3993"
       d="m 417.98409,435.5538 c 0.013,-0.16868 0.038,-0.33572 0.062,-0.50322 0.047,-0.33622 0.075,-0.6738 0.077,-1.01324 1e-4,-0.36799 -0.059,-0.7301 -0.149,-1.08568 -0.09,-0.34745 -0.2421,-0.67185 -0.4132,-0.98568 -0.1935,-0.3282 -0.4429,-0.61734 -0.7024,-0.89431 -0.2811,-0.3262 -0.6502,-0.52372 -1.041,-0.68768 -0.496,-0.19233 -1.0174,-0.28128 -1.5466,-0.30093 -0.8873,-0.0712 -1.7294,0.0879 -2.5835,0.28873 -0.6462,0.14792 -1.2623,0.39167 -1.8769,0.63495 -0.653,0.26375 -1.2895,0.56492 -1.9158,0.88644 -0.7373,0.37766 -1.4231,0.84495 -2.1056,1.312 -0.7585,0.51955 -1.4683,1.10565 -2.1607,1.70926 -0.7505,0.64883 -1.4442,1.35775 -2.1182,2.0845 -0.7214,0.78749 -1.3706,1.63777 -1.9918,2.50535 -0.6341,0.87177 -1.1786,1.80271 -1.7274,2.72902 -0.5353,0.91809 -1.0571,1.84399 -1.5773,2.77065 -0.4932,0.87347 -0.9814,1.74968 -1.4885,2.61513 -0.5185,0.84173 -1.0765,1.65823 -1.677,2.4435 -0.5817,0.75929 -1.2157,1.47558 -1.8655,2.17668 -0.5353,0.62771 -1.1862,1.10896 -1.9116,1.49091 -0.2986,0.14251 -0.609,0.26567 -0.935,0.32961 -0.096,0.0188 -0.3861,0.0195 -0.2905,0.0394 0.1412,0.0295 0.2973,0.0406 0.4324,-0.01 0.085,-0.0317 -0.1781,-0.0345 -0.2671,-0.0518 -0.5471,-0.18347 -0.8658,-0.64851 -1.1397,-1.12691 -0.2877,-0.53729 -0.4325,-1.1228 -0.5061,-1.72326 -0.06,-0.74493 0.084,-1.48058 0.2331,-2.20638 0.1882,-0.88765 0.5445,-1.72277 0.9123,-2.54761 0.418,-0.92235 0.9105,-1.80808 1.4226,-2.68075 0.5676,-0.96917 1.1922,-1.90223 1.8465,-2.81463 0.7303,-1.01519 1.515,-1.98898 2.3071,-2.95617 0.8501,-1.04391 1.7291,-2.06349 2.6222,-3.07062 0.9323,-1.04866 1.8807,-2.08267 2.8413,-3.10547 1.001,-1.05915 2.0021,-2.11833 2.9967,-3.18361 1.1123,-1.1772 2.2081,-2.36934 3.2914,-3.57324 1.158,-1.28995 2.2686,-2.62074 3.3652,-3.96293 1.0384,-1.27124 2.0479,-2.56575 3.0466,-3.86839 0.8854,-1.17514 1.7615,-2.35737 2.6222,-3.5508 0.5067,-0.69522 1.0046,-1.39677 1.5025,-2.09829 0,0 -0.6828,-0.0421 -0.6828,-0.0421 v 0 c -0.4954,0.70141 -0.9907,1.40287 -1.4945,2.09827 -0.8569,1.19335 -1.7293,2.3755 -2.6125,3.54944 -0.9954,1.30245 -2.0017,2.59673 -3.0382,3.86686 -1.0955,1.34201 -2.2066,2.67146 -3.3652,3.9597 -1.0867,1.20348 -2.1883,2.39287 -3.3023,3.57118 -0.9979,1.0634 -1.9992,2.12359 -3.0011,3.18318 -0.961,1.02356 -1.9119,2.05654 -2.8431,3.10727 -0.894,1.00901 -1.7777,2.02723 -2.6288,3.07282 -0.7933,0.96875 -1.5791,1.94418 -2.3116,2.96022 -0.6575,0.91385 -1.285,1.84872 -1.8543,2.82052 -0.5142,0.87504 -1.009,1.76286 -1.4277,2.68827 -0.3702,0.82997 -0.73,1.67013 -0.9222,2.56259 -0.1505,0.73339 -0.2967,1.47642 -0.2415,2.22924 0.071,0.6099 0.2166,1.20419 0.5044,1.75164 0.2744,0.49269 0.5961,0.9741 1.1433,1.18736 0.8606,0.20991 1.7063,0.0625 2.4808,-0.32828 0.7226,-0.39294 1.3696,-0.88496 1.9052,-1.51518 0.6478,-0.70392 1.2793,-1.42318 1.8607,-2.18355 0.6013,-0.78798 1.1593,-1.60779 1.6792,-2.45195 0.5062,-0.8656 0.9912,-1.74332 1.484,-2.61664 0.5195,-0.92645 1.041,-1.85201 1.5769,-2.76905 0.5469,-0.92521 1.0922,-1.85332 1.7258,-2.72301 0.6218,-0.86492 1.2711,-1.71301 1.9944,-2.49636 0.6754,-0.72406 1.3703,-1.4302 2.1213,-2.07684 0.6936,-0.60139 1.4052,-1.1841 2.1651,-1.70068 0.6828,-0.46629 1.3711,-0.92914 2.1106,-1.30239 0.6278,-0.31849 1.2653,-0.61796 1.9193,-0.8792 0.6136,-0.24216 1.2306,-0.47944 1.876,-0.62448 0.4213,-0.0978 0.8414,-0.19528 1.2724,-0.23976 0.1016,-0.0105 0.403,0.006 0.3055,-0.0242 -0.1319,-0.0411 -0.2763,-0.007 -0.4144,-0.01 0.5255,0.01 1.0431,0.0913 1.5378,0.2759 0.3865,0.15335 0.7546,0.33934 1.0334,0.65727 0.2581,0.27098 0.5062,0.55406 0.7,0.87587 0.1707,0.30751 0.3217,0.6261 0.4131,0.96721 0.09,0.34917 0.1482,0.70512 0.1486,1.06691 0,0.33618 -0.03,0.67066 -0.083,1.00293 -0.026,0.16517 -0.05,0.33047 -0.074,0.49568 0,0 0.7482,0.0183 0.7482,0.0183 z" />
    <path
       style="fill:#000000;stroke-width:0.75"
       id="path3995"
       d="m 415.45689,411.34405 c 0.063,-0.21433 0.1447,-0.42289 0.2238,-0.6317 0.1294,-0.32835 0.2481,-0.66085 0.3633,-0.99442 0.1323,-0.38758 0.2408,-0.78276 0.3419,-1.17946 0.1323,-0.51762 0.2157,-1.04546 0.2925,-1.57357 0.091,-0.62723 0.166,-1.25651 0.2329,-1.88668 0.074,-0.72884 0.1307,-1.45937 0.1803,-2.19026 0.053,-0.85835 0.099,-1.71714 0.1428,-2.576 0.05,-0.82511 0.076,-1.65138 0.05,-2.4777 -0.034,-0.84021 -0.1186,-1.67741 -0.2106,-2.5129 -0.084,-0.78959 -0.1939,-1.5758 -0.3495,-2.35443 -0.1561,-0.77744 -0.3882,-1.53396 -0.6664,-2.27549 -0.2628,-0.71872 -0.6121,-1.39442 -1.029,-2.03427 -0.418,-0.62578 -0.876,-1.22346 -1.3659,-1.79429 -0.4671,-0.54241 -0.998,-1.01966 -1.5652,-1.4539 -0.6018,-0.46503 -1.2763,-0.80911 -1.9621,-1.12949 -0.7405,-0.31883 -1.519,-0.53627 -2.3001,-0.72975 -0.7231,-0.18313 -1.4576,-0.30605 -2.1984,-0.38807 -0.9672,-0.0996 -1.9441,-0.10099 -2.9148,-0.0622 -0.7713,0.0378 -1.5334,0.14958 -2.2915,0.29099 -0.7613,0.14945 -1.5171,0.3257 -2.2662,0.52725 -0.8313,0.22126 -1.6473,0.49415 -2.462,0.76906 -0.8269,0.28906 -1.6503,0.5883 -2.4677,0.90304 -0.926,0.36135 -1.8296,0.77623 -2.745,1.16292 -0.9572,0.3972 -1.9142,0.79509 -2.8757,1.18178 -0.9924,0.39794 -1.9882,0.78741 -2.9865,1.16999 0,0 0.6877,0.0833 0.6877,0.0833 v 0 c 0.9987,-0.3831 1.9949,-0.7729 2.9877,-1.17098 0.9625,-0.38664 1.92,-0.78581 2.8784,-1.18272 0.9163,-0.38845 1.8216,-0.8041 2.7515,-1.15972 0.8181,-0.31176 1.6398,-0.61439 2.4673,-0.90021 0.8156,-0.27492 1.6334,-0.54525 2.4663,-0.76394 0.7494,-0.19857 1.5047,-0.37465 2.2659,-0.52171 0.7581,-0.13918 1.5208,-0.24589 2.2917,-0.28048 0.1242,-0.005 0.2536,0.023 0.3727,-0.0125 0.1047,-0.0312 -0.437,-0.004 -0.3278,-7.5e-4 0.4883,0.0175 0.9787,-5e-5 1.4644,0.0707 0.7413,0.0782 1.4764,0.1969 2.2001,0.37833 0.78,0.18936 1.5572,0.40367 2.2982,0.71607 0.6834,0.31634 1.3566,0.65433 1.9571,1.11463 0.5667,0.42917 1.0974,0.90132 1.5646,1.43906 0.4911,0.56699 0.9494,1.16178 1.3678,1.78473 0.416,0.6348 0.7651,1.30526 1.0283,2.01882 0.2793,0.73725 0.5114,1.49001 0.667,2.2639 0.1552,0.77665 0.2656,1.56093 0.3512,2.34827 0.093,0.8335 0.1787,1.6688 0.2105,2.50725 0.024,0.82438 -2e-4,1.64873 -0.049,2.47198 -0.043,0.85849 -0.087,1.71704 -0.1463,2.57461 -0.052,0.72996 -0.1098,1.45975 -0.1873,2.18757 -0.068,0.62911 -0.144,1.25752 -0.2354,1.88377 -0.079,0.52571 -0.1672,1.05074 -0.301,1.56585 -0.1026,0.39465 -0.2133,0.78754 -0.3455,1.1734 -0.1158,0.33306 -0.2356,0.66492 -0.3679,0.99179 -0.081,0.2081 -0.1587,0.41757 -0.2351,0.62747 0,0 0.7455,0.0312 0.7455,0.0312 z" />
    <path
       style="fill:#000000;stroke-width:0.75"
       id="path3997"
       d="m 386.77209,388.65863 c 0.061,-0.37951 0.2477,-0.72731 0.425,-1.06376 0.3064,-0.52394 0.7476,-0.94673 1.1724,-1.37315 0.729,-0.69621 1.551,-1.2791 2.3563,-1.88083 0.9969,-0.72977 2.0009,-1.44988 3.0215,-2.1463 1.2455,-0.8968 2.5447,-1.71311 3.8237,-2.56049 1.5087,-0.99893 2.9667,-2.07062 4.4371,-3.12414 1.5262,-1.09499 3.0213,-2.23207 4.5409,-3.33618 1.6402,-1.19819 3.2878,-2.38628 4.946,-3.55959 1.7932,-1.26873 3.5526,-2.58666 5.2828,-3.94 1.9306,-1.45109 3.6541,-3.1153 5.1693,-4.99147 1.7183,-2.42463 3.1383,-5.04506 4.4828,-7.69033 1.282,-2.59484 2.4304,-5.25231 3.5425,-7.92336 0.9976,-2.41069 1.9176,-4.85229 2.7835,-7.31301 0.8515,-2.40501 1.5328,-4.86323 2.1848,-7.3281 0.7378,-2.8145 1.2339,-5.68347 1.7128,-8.55087 0.512,-3.17804 0.9413,-6.3687 1.3477,-9.56173 0.405,-3.2366 0.7402,-6.48121 1.0586,-9.72728 0.3262,-3.37895 0.5882,-6.7635 0.8303,-10.14934 0.04,-0.58427 0.08,-1.16852 0.12,-1.75279 0,0 -0.7032,-0.005 -0.7032,-0.005 v 0 c -0.04,0.58419 -0.08,1.16838 -0.1202,1.75257 -0.2433,3.38522 -0.5063,6.76916 -0.8334,10.14747 -0.3178,3.24547 -0.6538,6.48936 -1.0593,9.72523 -0.4067,3.19212 -0.834,6.38219 -1.3488,9.55894 -0.4803,2.86549 -0.9797,5.73198 -1.72,8.54411 -0.6514,2.4632 -1.3345,4.91903 -2.1853,7.32236 -0.8655,2.45913 -1.7836,4.89971 -2.78,7.30913 -1.1106,2.66952 -2.2569,5.32572 -3.5394,7.91808 -1.3443,2.64099 -2.7601,5.26037 -4.4863,7.67511 -1.5199,1.86828 -3.2453,3.52683 -5.1742,4.97478 -1.7309,1.35159 -3.4892,2.66994 -5.2834,3.93649 -1.659,1.17344 -3.3073,2.36183 -4.9483,3.56029 -1.5197,1.10428 -3.0157,2.2409 -4.5424,3.33556 -1.4699,1.05399 -2.9291,2.1239 -4.4387,3.12125 -1.2815,0.84614 -2.5803,1.66538 -3.8283,2.56113 -1.0212,0.69805 -2.0278,1.41715 -3.0249,2.14905 -0.8093,0.6029 -1.6321,1.19121 -2.3627,1.89112 -0.4295,0.43133 -0.8729,0.8615 -1.1767,1.39527 -0.1791,0.34438 -0.3671,0.69774 -0.4304,1.08483 0,0 0.7479,0.0148 0.7479,0.0148 z" />
    <path
       style="fill:#000000;stroke-width:0.75"
       id="path3999"
       d="m 439.11159,291.96878 c 0.3936,-0.30265 0.6705,-0.72722 0.939,-1.13818 0.4197,-0.65612 0.6926,-1.38708 0.9506,-2.11767 0.328,-1.02282 0.547,-2.07593 0.7515,-3.12904 0.2405,-1.28015 0.4227,-2.57032 0.5908,-3.86165 0.264,-1.55881 0.5044,-3.12135 0.7567,-4.68203 0.2639,-1.76963 0.638,-3.51961 0.9632,-5.27823 0.3561,-2.13359 0.7187,-4.26613 1.0737,-6.39996 0.3734,-2.31023 0.7762,-4.61548 1.1444,-6.92661 0.3754,-2.20621 0.7478,-4.41285 1.0977,-6.62327 0.3451,-2.18892 0.6348,-4.38581 0.8891,-6.58695 0.2752,-2.42583 0.4928,-4.85769 0.6986,-7.29021 0.2322,-2.53927 0.3754,-5.08404 0.4872,-7.63097 0.1122,-2.62087 0.1973,-5.24277 0.2815,-7.86465 0.083,-2.61538 0.1512,-5.23123 0.2173,-7.84709 0.066,-2.6036 0.1203,-5.20744 0.1702,-7.81139 0.049,-2.63483 0.094,-5.26977 0.1342,-7.90478 0.041,-2.60876 0.073,-5.21764 0.1054,-7.82651 0.031,-2.49845 0.058,-4.99694 0.084,-7.49545 0.025,-2.38422 0.046,-4.76848 0.065,-7.15275 0.019,-2.29433 0.036,-4.58869 0.052,-6.88305 0.016,-2.33107 0.028,-4.66217 0.039,-6.99327 0.012,-2.43592 0.022,-4.87184 0.031,-7.30777 -0.015,-2.68914 0.049,-5.37697 0.1468,-8.06404 0.063,-1.90728 0.1745,-3.81255 0.2788,-5.71791 0,0 -0.712,-0.004 -0.712,-0.004 v 0 c -0.1039,1.90581 -0.2153,3.81149 -0.2791,5.71919 -0.098,2.68781 -0.1656,5.37645 -0.1514,8.06636 -0.01,2.43591 -0.019,4.87181 -0.032,7.3077 -0.012,2.33106 -0.025,4.66211 -0.041,6.99315 -0.016,2.29431 -0.032,4.58863 -0.05,6.88293 -0.019,2.38422 -0.041,4.76844 -0.064,7.15262 -0.025,2.49845 -0.052,4.9969 -0.082,7.4953 -0.032,2.60881 -0.065,5.2176 -0.105,7.82629 -0.041,2.6349 -0.084,5.26976 -0.1337,7.90451 -0.05,2.60379 -0.1061,5.20748 -0.171,7.81095 -0.065,2.61573 -0.1338,5.23139 -0.2172,7.84661 -0.083,2.62162 -0.1695,5.2432 -0.2813,7.86379 -0.1122,2.54596 -0.2572,5.08971 -0.4888,7.62805 -0.2063,2.43182 -0.4241,4.86299 -0.7008,7.28796 -0.2566,2.19995 -0.5462,4.39595 -0.8911,6.58395 -0.3493,2.2104 -0.721,4.41704 -1.0959,6.62323 -0.3679,2.31099 -0.77,4.61615 -1.1442,6.92611 -0.3557,2.13354 -0.7211,4.26544 -1.0795,6.39849 -0.3284,1.75876 -0.6998,3.50988 -0.9657,5.27989 -0.2531,1.56152 -0.4959,3.12462 -0.7611,4.68418 -0.1691,1.2898 -0.3511,2.57858 -0.5933,3.85702 -0.2055,1.04961 -0.4241,2.09964 -0.7555,3.11806 -0.2578,0.72522 -0.5315,1.45038 -0.9527,2.09965 -0.2605,0.39278 -0.5284,0.83415 -0.9405,1.08239 0,0 0.7417,0.0989 0.7417,0.0989 z" />
    <path
       style="fill:#000000;stroke-width:0.75"
       id="path4001"
       d="m 452.28009,150.50562 c -0.1504,-0.50468 -0.2364,-1.02552 -0.3123,-1.54566 -0.1173,-0.86447 -0.1908,-1.73394 -0.2605,-2.60328 -0.096,-1.23546 -0.1662,-2.47249 -0.1928,-3.71137 -0.014,-1.7798 -0.01,-3.55914 -0.048,-5.3386 -0.012,-1.83581 -0.1269,-3.66476 -0.3467,-5.48679 -0.2455,-1.9157 -0.6229,-3.81163 -0.9487,-5.71481 -0.3726,-2.01133 -0.7176,-4.02705 -1.0181,-6.05038 -0.308,-2.12692 -0.5765,-4.25929 -0.8284,-6.39351 -0.2572,-2.06841 -0.5304,-4.13461 -0.8668,-6.19173 -0.3195,-2.01711 -0.7543,-4.01336 -1.1873,-6.00841 -0.4289,-1.992446 -0.9819,-3.953916 -1.6104,-5.891696 -0.6456,-1.88493 -1.4137,-3.72488 -2.2288,-5.54189 -0.7745,-1.73786 -1.7275,-3.3818 -2.708,-5.00874 -0.9544,-1.55916 -1.9518,-3.09231 -2.9817,-4.60263 -0.9799,-1.45249 -1.9995,-2.87717 -3.0464,-4.28188 -1.0389,-1.4114 -2.2138,-2.7097 -3.3967,-3.99941 -1.1066,-1.2237 -2.2725,-2.38788 -3.4551,-3.53723 -1.101,-1.09392 -2.2967,-2.07964 -3.552,-2.98955 -1.3109,-0.94873 -2.7641,-1.66973 -4.2191,-2.3662 -1.585,-0.87526 -3.3448,-1.02986 -5.1142,-1.1293 -2.151,-0.12112 -4.3047,-7.5e-4 -6.449,0.17163 -1.8704,0.16515 -3.7256,0.4524 -5.5747,0.77228 -1.753,0.32629 -3.4619,0.83003 -5.1106,1.50502 -1.5338,0.65965 -2.9777,1.49658 -4.3017,2.51101 -1.1572,0.91876 -2.1537,2.00593 -3,3.2127 -0.7806,1.1245 -1.2445,2.38458 -1.5845,3.69854 -0.312,1.40945 -0.482,2.84604 -0.6168,4.2818 -0.1686,1.52269 -0.1241,3.05091 0.02,4.57235 0.1791,1.53872 0.6036,3.0291 1.1178,4.48523 0.5105,1.39128 1.1193,2.74118 1.7955,4.05884 0.7114,1.28975 1.4616,2.55729 2.1729,3.84711 0.7306,1.31654 1.33,2.69133 1.7877,4.12438 0.358,1.136626 0.3426,2.292356 0.1164,3.447886 -0.2644,0.94029 -0.859,1.65495 -1.6459,2.20497 -0.2601,0.40635 -2.6519,0.65608 -1.5721,0.49485 -0.9868,-0.32948 -1.7042,-1.04637 -2.3434,-1.83436 -0.7954,-1.04261 -1.4929,-2.15093 -2.1517,-3.2832 -0.7625,-1.364056 -1.6038,-2.680896 -2.4491,-3.994426 -0.9067,-1.42094 -1.8872,-2.79152 -2.8744,-4.15699 -1.0184,-1.41013 -2.094,-2.77816 -3.2094,-4.1125 -1.1548,-1.39874 -2.4386,-2.67486 -3.8127,-3.85572 -1.4513,-1.20554 -3.0405,-2.22555 -4.6624,-3.18264 -1.6784,-1.06401 -3.5576,-1.56463 -5.5028,-1.83531 -2.3457,-0.26193 -4.7097,-0.18397 -7.0606,-0.0472 -2.0666,0.11309 -4.0862,0.51292 -6.0935,0.9916 -1.9476,0.45448 -3.8085,1.1935 -5.6201,2.02857 -1.8043,0.92244 -3.472,2.0728 -5.066,3.31718 -1.4816,1.1471 -2.741,2.53504 -3.9317,3.97266 -1.1214,1.34149 -1.9961,2.845 -2.7907,4.39471 -0.7393,1.43969 -1.2019,2.98428 -1.5263,4.56297 -0.3051,1.45525 -0.2739,2.933606 -0.1284,4.403676 0.1515,1.36699 0.5261,2.6908 0.9816,3.98377 0.5124,1.32877 1.2393,2.55926 1.893,3.82078 0.6983,1.40436 1.2867,2.85975 1.6356,4.38998 0.2868,1.48351 0.3645,2.99006 0.3106,4.49665 -0.069,1.26451 -0.4279,2.46631 -0.9743,3.60058 -0.5061,0.9541 -1.3012,1.6053 -2.1978,2.16754 -0.9216,0.59385 -1.9247,0.89953 -3.0023,1.03446 -1.1254,0.1104 -1.8317,0.0372 -3.06,-0.1624 -1.2596,-0.25405 -2.4755,-0.66986 -3.7437,-0.88324 -1.3086,-0.15384 -2.6414,-0.14747 -3.9246,0.16306 -0.9518,0.25345 -1.7736,0.70475 -2.4156,1.45229 -0.5577,0.72024 -0.8304,1.56413 -0.9677,2.45176 -0.1033,0.83524 0.036,1.655 0.2797,2.45174 0.2653,0.83571 0.6598,1.59716 1.1902,2.29243 0.8151,1.01854 2.0907,1.38991 3.2945,1.73593 1.549,0.39703 3.1314,0.63539 4.7065,0.89933 1.6914,0.27899 3.3752,0.60143 5.0538,0.94826 1.5719,0.33514 3.1128,0.79364 4.6377,1.29736 1.6429,0.56924 3.2566,1.21825 4.8761,1.84991 1.4639,0.5756 2.8822,1.25133 4.2444,2.03667 0.8051,0.48411 1.6229,0.95029 2.1082,1.77573 0.291,0.6155 0.2339,1.25609 0.046,1.88899 -0.2618,0.68885 -0.8137,1.00498 -1.5049,1.13809 -0.9536,0.10786 -1.0984,-0.0163 -2.3084,-0.20763 -1.1547,-0.18944 -2.2827,-0.49769 -3.3946,-0.85719 -1.2811,-0.44255 -2.5459,-0.92957 -3.806,-1.42801 -1.4999,-0.52699 -2.2266,-0.86281 -1.9885,-2.54661 0.318,-1.47947 1.1475,-2.76186 1.8094,-4.10087 0.5284,-1.10739 0.7314,-2.22214 0.3741,-3.40117 -0.3854,-0.93866 -1.1193,-1.63111 -1.8906,-2.25818 -0.9852,-0.7523 -2.1228,-1.25343 -3.256,-1.73551 -1.2819,-0.56896 -2.6065,-0.97668 -3.9868,-1.21354 -1.6615,-0.30278 -3.3391,-0.24927 -5.0014,-7.5e-4 -1.4492,0.27339 -2.8762,0.65031 -4.3155,0.97102 -1.5196,0.34088 -3.0521,0.6169 -4.5886,0.86858 -1.602,0.28456 -3.2192,0.44831 -4.8413,0.55824 -1.3924,0.0922 -2.7854,0.008 -4.1719,-0.1251 -1.4776,-0.14886 -2.9177,-0.50422 -4.3152,-0.99718 -1.0137,-0.36861 -1.9358,-0.88464 -2.7507,-1.58756 -0.4435,-0.3961 -0.8082,-0.84124 -0.8323,-1.45149 0.026,-0.40699 0.2766,-0.65808 0.6055,-0.86018 0.5383,-0.28244 1.1712,-0.25763 1.7605,-0.33504 1.0735,-0.11605 2.1171,-0.38833 3.1366,-0.73537 1.2281,-0.41131 2.3156,-1.11505 3.3749,-1.8433 1.3411,-0.95622 2.6155,-1.99882 3.8469,-3.09146 1.349,-1.18569 2.5845,-2.49037 3.797,-3.81283 1.2353,-1.36631 2.5071,-2.69819 3.7727,-4.03623 1.3295,-1.3831 2.6903,-2.73562 4.0601,-4.07865 1.4993,-1.46561 3.0945,-2.8265 4.6726,-4.20506 1.5447,-1.34016 3.019,-2.75538 4.4305,-4.23442 1.4025,-1.386636 2.6537,-2.905906 3.8395,-4.478376 1.1505,-1.51863 2.1482,-3.13864 3.0726,-4.80182 0.8905,-1.63173 1.6702,-3.32024 2.4513,-5.00614 0.7937,-1.66954 1.4843,-3.38472 2.2393,-5.07148 0.7781,-1.6644 1.4496,-3.37339 2.0546,-5.10721 0.6111,-1.78589 1.1367,-3.59902 1.637,-5.41847 0.4811,-1.76418 0.9082,-3.54243 1.2716,-5.33447 0.3495,-1.6656 0.5622,-3.34908 0.598,-5.04974 0.013,-1.553925 -0.1843,-3.091325 -0.5115,-4.606945 0,0 -0.7301,0.0156 -0.7301,0.0156 v 0 c 0.3282,1.50974 0.525,3.04151 0.5135,4.589835 -0.035,1.69623 -0.248,3.37539 -0.5958,5.03676 -0.3626,1.79051 -0.7906,3.56683 -1.2707,5.32952 -0.4998,1.81789 -1.0248,3.62954 -1.6362,5.41356 -0.6062,1.73154 -1.2789,3.43806 -2.0556,5.10108 -0.7534,1.68707 -1.4448,3.40155 -2.2391,5.07051 -0.7804,1.68425 -1.5593,3.37119 -2.4501,5.00085 -0.9241,1.65981 -1.9226,3.27585 -3.0713,4.79181 -1.1855,1.56981 -2.4383,3.08462 -3.8387,4.470026 -1.4109,1.47665 -2.8846,2.88954 -4.428,4.22807 -1.5793,1.37955 -3.1746,2.74271 -4.6753,4.20901 -1.3703,1.34409 -2.7314,2.69775 -4.0621,4.08123 -1.2657,1.33817 -2.536,2.67165 -3.7722,4.03736 -1.2125,1.32034 -2.4491,2.62176 -3.7979,3.80523 -1.232,1.08989 -2.507,2.12986 -3.8493,3.08213 -1.0603,0.72293 -2.1494,1.41836 -3.3774,1.82275 -1.0208,0.34145 -2.0651,0.60718 -3.1382,0.72037 -0.5967,0.0731 -1.2356,0.0573 -1.7706,0.36696 -0.3399,0.22709 -0.5858,0.51058 -0.609,0.93753 0.026,0.63114 0.3789,1.09918 0.8409,1.51165 0.8169,0.71321 1.7391,1.24025 2.7601,1.6142 1.3985,0.49993 2.8408,0.86079 4.3213,1.01436 1.8648,0.18383 3.7404,0.22432 5.6125,0.12718 1.6224,-0.11216 3.2397,-0.28065 4.8422,-0.56504 1.5373,-0.25286 3.0703,-0.53048 4.5907,-0.87249 1.4385,-0.32156 2.865,-0.69977 4.3152,-0.96566 1.215,-0.1769 2.3262,-0.27837 3.5548,-3.6e-4 1.3795,0.22899 2.7029,0.6283 3.9831,1.19676 1.1296,0.47773 2.2644,0.97289 3.2502,1.71556 0.7653,0.61424 1.496,1.29292 1.8868,2.21468 0.3621,1.15825 0.1529,2.25617 -0.3649,3.3457 -0.6663,1.34569 -1.4995,2.6357 -1.8158,4.12406 -0.2399,1.71237 0.45,2.1098 1.9973,2.64388 1.2597,0.49902 2.5235,0.98761 3.8034,1.43295 1.1117,0.36331 2.2394,0.6754 3.3946,0.86883 1.2436,0.19824 2.5105,0.39555 3.7689,0.20453 0.7044,-0.16101 1.2552,-0.51058 1.5139,-1.21749 0.1882,-0.65275 0.2434,-1.31348 -0.049,-1.94888 -0.4821,-0.84563 -1.2966,-1.32445 -2.118,-1.81355 -1.3647,-0.78905 -2.7858,-1.4675 -4.2525,-2.04689 -1.6196,-0.63143 -3.2328,-1.28133 -4.8744,-1.85394 -1.5253,-0.50667 -3.0669,-0.9677 -4.6395,-1.30562 -1.6788,-0.34741 -3.3627,-0.67144 -5.0542,-0.95096 -1.5736,-0.26477 -3.1545,-0.5009 -4.7034,-0.89156 -1.1918,-0.33705 -2.4661,-0.69084 -3.2816,-1.6902 -0.531,-0.68538 -0.9237,-1.43788 -1.1877,-2.2662 -0.2439,-0.78537 -0.3828,-1.59387 -0.2799,-2.41824 0.1362,-0.87477 0.4084,-1.70511 0.9648,-2.41028 0.646,-0.72831 1.4674,-1.16458 2.4099,-1.40677 1.1991,-0.27466 1.3777,-0.26082 2.4675,-0.1584 1.2712,0.20328 2.4872,0.62015 3.7458,0.88287 1.492,0.25051 3.0021,0.30726 4.5113,0.16515 1.0804,-0.14625 2.0866,-0.46702 3.009,-1.06584 0.9003,-0.57482 1.6946,-1.24288 2.1983,-2.20879 0.5453,-1.14512 0.9043,-2.35687 0.9721,-3.6308 0.052,-1.51292 -0.027,-3.02565 -0.3135,-4.51549 -0.347,-1.53659 -0.937,-2.99741 -1.6343,-4.40862 -0.6513,-1.25908 -1.3775,-2.48612 -1.8912,-3.81073 -0.4557,-1.28686 -0.8296,-2.60512 -0.9821,-3.96618 -0.1465,-1.46272 -0.1773,-2.933496 0.1264,-4.381616 0.324,-1.57219 0.7861,-3.11007 1.5238,-4.54329 0.7936,-1.5449 1.6686,-3.04266 2.7888,-4.37896 1.1891,-1.43316 2.4477,-2.81516 3.9276,-3.95723 1.593,-1.23982 3.2594,-2.38699 5.0643,-3.30052 1.8114,-0.82996 3.6711,-1.56415 5.6175,-2.01453 2.0062,-0.47633 4.026,-0.86808 6.0909,-0.97913 1.8776,-0.10752 3.7584,-0.20047 5.632,0.0416 1.9412,0.26205 3.8204,0.74747 5.4967,1.80717 1.621,0.95304 3.2092,1.96935 4.6609,3.16992 1.374,1.17609 2.6568,2.44832 3.8104,3.84386 1.1152,1.3325 2.1905,2.69864 3.2081,4.10745 0.9866,1.36434 1.9677,2.73294 2.8734,4.15309 0.8445,1.31239 1.6854,2.62794 2.4465,3.991226 0.6578,1.13602 1.3545,2.24765 2.1488,3.29453 0.6418,0.80283 1.3591,1.52268 2.3437,1.88972 1.1112,0.0596 2.0787,0.11322 3.0393,-0.52978 0.789,-0.57211 1.3861,-1.30413 1.6467,-2.26102 0.2253,-1.16787 0.2401,-2.33636 -0.1209,-3.484626 -0.4591,-1.43741 -1.0592,-2.81686 -1.79,-4.13851 -0.71,-1.28976 -1.4585,-2.55742 -2.1724,-3.84503 -0.6765,-1.31411 -1.2843,-2.66113 -1.7952,-4.04902 -0.5147,-1.44981 -0.9396,-2.93429 -1.118,-4.46727 -0.1437,-1.51687 -0.188,-3.04049 -0.02,-4.55862 0.1347,-1.43202 0.3073,-2.86437 0.6188,-4.27007 0.3399,-1.30537 0.8049,-2.55646 1.5831,-3.67229 0.8461,-1.19879 1.8408,-2.27935 2.9954,-3.19064 1.3245,-1.00614 2.7662,-1.83861 4.2976,-2.49207 1.649,-0.66786 3.3567,-1.16796 5.1081,-1.48955 1.8481,-0.31875 3.7024,-0.60342 5.5718,-0.766 1.6687,-0.13191 3.3419,-0.27807 5.0157,-0.16962 1.7645,0.0947 3.5252,0.23032 5.108,1.10145 1.4533,0.69307 2.9055,1.40964 4.2164,2.35327 1.2553,0.90592 2.4516,1.88734 3.5517,2.97896 1.1823,1.1487 2.3505,2.30955 3.4566,3.53294 1.1818,1.28792 2.3583,2.5822 3.3962,3.99202 1.047,1.40381 2.0675,2.82695 3.047,4.2788 1.0303,1.5089 2.0279,3.04077 2.9828,4.59849 0.9799,1.62439 1.9334,3.26497 2.7082,4.99998 0.8154,1.81439 1.5838,3.65164 2.2298,5.53402 0.6289,1.9353 1.1809,3.8946 1.6107,5.884446 0.4329,1.9938 0.8665,3.98901 1.1866,6.00472 0.3377,2.05588 0.6107,4.12111 0.8681,6.18846 0.2517,2.13497 0.5216,4.26788 0.8289,6.39565 0.2989,2.02398 0.6426,4.04031 1.0155,6.05204 0.3254,1.90197 0.7023,3.79674 0.9471,5.71125 0.2199,1.81966 0.3342,3.6463 0.3463,5.47975 0.04,1.77937 0.034,3.55863 0.045,5.33837 0.023,1.24037 0.089,2.47888 0.1845,3.71579 0.069,0.87085 0.1415,1.74182 0.2567,2.608 0.074,0.52457 0.1612,1.04895 0.3072,1.55908 0,0 0.7459,-0.024 0.7459,-0.024 z" />
    <path
       style="fill:#000000;stroke-width:0.75"
       id="path4003"
       d="m 345.35689,55.306919 c -0.099,-0.32188 0.017,-0.64085 0.1165,-0.94796 0.2587,-0.654 0.6853,-1.2098 1.0942,-1.7741 0.6394,-0.87642 1.2608,-1.76277 1.8261,-2.68904 0.6446,-1.04482 1.1003,-2.18414 1.5273,-3.33025 0.4748,-1.2595 0.8213,-2.56072 1.0998,-3.87608 0.273,-1.30487 0.4433,-2.62629 0.5095,-3.95708 0.1111,-1.3463 -0.1559,-2.65302 -0.5488,-3.9315 -0.4631,-1.39119 -1.0953,-2.71537 -1.7733,-4.01237 -0.6669,-1.29925 -1.4142,-2.55601 -2.2156,-3.77635 -0.8125,-1.21737 -1.8804,-2.23386 -2.9592,-3.21179 -1.1455,-1.0662 -2.5005,-1.85054 -3.86,-2.60634 -1.4344,-0.80427 -2.963,-1.41177 -4.523,-1.92116 -1.6635,-0.53332 -3.3698,-0.91079 -5.0882,-1.21556 -1.7144,-0.3115 -3.4494,-0.44648 -5.1882,-0.51265 -1.9465,-0.0797 -3.887,0.0373 -5.8262,0.18561 -1.1005,0.1063 -0.5509,0.0511 -1.6489,0.16559 0,0 0.7201,0.10642 0.7201,0.10642 v 0 c 1.0979,-0.11371 0.5483,-0.0592 1.6485,-0.16363 1.4599,-0.11088 2.9228,-0.22894 4.3882,-0.18296 1.7382,0.0637 3.473,0.19295 5.1872,0.50272 1.7177,0.30063 3.423,0.67615 5.0861,1.20558 1.5589,0.50408 3.0862,1.10772 4.52,1.90742 1.3571,0.75141 2.7116,1.5293 3.8566,2.5899 1.077,0.97224 2.1437,1.98305 2.9571,3.19337 0.8024,1.21725 1.5497,2.47185 2.2163,3.76902 0.677,1.29263 1.3084,2.61225 1.7713,3.99905 0.3921,1.27008 0.6582,2.56795 0.5472,3.906 -0.065,1.32692 -0.2358,2.64448 -0.5085,3.94542 -0.2787,1.31177 -0.6252,2.6094 -1.1,3.86521 -0.427,1.14189 -0.8848,2.27589 -1.5293,3.31608 -0.5663,0.92397 -1.1882,1.80842 -1.8276,2.68311 -0.4149,0.57006 -0.8456,1.13327 -1.1024,1.79725 -0.1028,0.32145 -0.219,0.65489 -0.1197,0.99186 0,0 0.7469,-0.0208 0.7469,-0.0208 z" />
    <path
       style="fill:#000000;stroke-width:0.75"
       id="path4005"
       d="m 314.85419,17.846679 c -0.3244,-0.3555 -0.219,-0.84854 -0.1456,-1.27715 0.1762,-0.64741 0.3596,-1.28779 0.376,-1.96197 0.013,-0.49197 -0.1443,-0.88404 -0.5877,-1.11021 -0.723,-0.18216 -1.502,-0.0628 -2.223,0.0914 -0.7191,0.20955 -1.3131,0.6797 -1.9097,1.1128 -0.7489,0.52032 -1.4174,1.13454 -2.0767,1.76084 -0.6934,0.69285 -1.3326,1.43729 -1.993,2.16145 -0.6987,0.80316 -1.3441,1.64841 -1.9724,2.50702 -0.7125,0.99511 -1.3857,2.01691 -2.1014,3.0098 -0.7519,1.06894 -1.522,2.12559 -2.3427,3.14286 -0.8748,1.06622 -1.8566,2.03204 -2.8807,2.95262 -1.1567,1.05624 -2.3997,2.00858 -3.6688,2.9241 -1.3663,0.98315 -2.7896,1.87965 -4.2472,2.72007 -1.5445,0.8984 -3.1872,1.60263 -4.8024,2.35899 -1.647,0.77535 -3.3195,1.49634 -4.9979,2.20073 -1.7515,0.72545 -3.4975,1.46361 -5.2486,2.18997 -1.8571,0.75522 -3.7013,1.54146 -5.547,2.32386 -1.9178,0.79134 -3.7895,1.68325 -5.6659,2.56609 -1.7812,0.8713 -3.5694,1.72834 -5.3493,2.60212 -1.7901,0.89255 -3.5996,1.74352 -5.4309,2.54793 -1.7455,0.7692 -3.4755,1.57192 -5.198,2.39093 -1.6389,0.79617 -3.2629,1.61884 -4.8099,2.583 -1.4007,0.89397 -2.6807,1.954505 -3.9018,3.077095 -1.0661,0.96541 -1.9381,2.10509 -2.7441,3.2888 -0.8024,1.13647 -1.3123,2.41395 -1.6772,3.74641 -0.3694,1.40523 -0.5488,2.8464 -0.6175,4.29475 -0.069,1.4424 0.177,2.86468 0.4636,4.27139 0.3149,1.3854 0.8559,2.70035 1.4603,3.98087 0.5789,1.36765 1.53,2.47195 2.5625,3.51418 1.0598,1.05762 2.2608,1.94824 3.5239,2.74515 1.0897,0.73783 2.3364,1.08213 3.5987,1.38453 1.2592,0.30934 2.551,0.44598 3.8421,0.53338 1.651,0.0837 3.3017,0.004 4.9164,-0.35125 1.4202,-0.38933 2.7917,-0.93858 4.1665,-1.46245 1.6503,-0.63326 3.3366,-1.16537 5.0182,-1.70774 1.8707,-0.60977 3.7663,-1.13512 5.6726,-1.62018 1.9077,-0.4813 3.8304,-0.89915 5.7588,-1.28799 1.8541,-0.38923 3.721,-0.69386 5.6023,-0.9121 1.4129,-0.2532 2.7547,-0.0597 4.1357,0.25537 1.3866,0.31772 2.6416,0.96458 3.8383,1.7123 1.1303,0.75226 2.1015,1.70568 2.9249,2.77988 0.7691,0.99101 1.1625,2.1402 1.4438,3.34384 0.3112,1.11408 0.075,2.15253 -0.2998,3.21045 -0.4618,1.19171 -1.3274,2.12443 -2.2046,3.02447 -1.1312,1.19022 -2.5547,2.01806 -3.9458,2.86162 -1.5079,0.91832 -3.0801,1.721086 -4.6612,2.503676 -1.6442,0.80266 -3.3063,1.56784 -4.9673,2.33511 -1.7132,0.77867 -3.4572,1.48564 -5.1814,2.23939 -1.8539,0.79987 -3.6962,1.62609 -5.5271,2.47719 -1.8946,0.88935 -3.7627,1.83214 -5.6063,2.82239 -1.9631,1.11019 -3.9261,2.22057 -5.8741,3.35704 -2.0108,1.13445 -3.9503,2.38747 -5.8468,3.70241 -1.8939,1.34274 -3.7301,2.76526 -5.4914,4.27737 -1.6131,1.40771 -3.1088,2.94094 -4.5196,4.54939 -1.3157,1.52383 -2.4594,3.18417 -3.592,4.84545 -1.0406,1.61544 -2.1332,3.19593 -3.2856,4.73354 -1.1186,1.47109 -2.3357,2.8633 -3.5152,4.28541 -1.2061,1.42127 -2.2837,2.93965 -3.3001,4.50004 -0.9699,1.53739 -1.8224,3.14427 -2.6125,4.78009 -0.7009,1.45607 -1.1394,3.01133 -1.4984,4.58078 -0.3282,1.40743 -0.4407,2.82663 -0.3504,4.26508 0.088,1.61386 0.4678,3.18519 0.8659,4.74484 0.5065,1.75541 1.065,3.49478 1.6859,5.21292 0.6361,1.75587 1.3399,3.4867 2.0515,5.21305 0.7434,1.73702 1.5072,3.46497 2.2505,5.20199 0.7617,1.70197 1.5051,3.41194 2.2485,5.122 0.8032,1.77468 1.5216,3.58529 2.2275,5.40028 0.7436,1.88323 1.4826,3.76854 2.2082,5.65878 0.7483,1.94366 1.488,3.89055 2.1769,5.85609 0.6564,1.97714 1.2932,3.96042 1.9444,5.93936 0.6377,1.99458 1.248,3.99775 1.8983,5.98837 0.6625,2.01636 1.4404,3.99083 2.2707,5.94311 0.8324,1.96446 1.8174,3.85765 2.8297,5.73393 0.9939,1.92766 2.2425,3.70511 3.4833,5.4782 1.2458,1.75121 2.6108,3.41134 4.0068,5.04361 1.3343,1.59 2.8696,2.98569 4.4693,4.30095 1.247,0.99068 2.595,1.83933 3.9477,2.67531 0.6938,0.45085 1.4106,0.86399 2.115,1.29719 0.5278,0.32294 0.4954,0.27896 1.1815,0.10582 -0.3389,-0.28914 -0.4993,-0.6927 -0.633,-1.10496 -0.1467,-0.61806 -0.092,-1.24117 0.01,-1.86085 0.2056,-0.94873 0.7491,-1.77253 1.2771,-2.57056 0.7549,-1.10752 1.6002,-2.14021 2.4976,-3.13367 0.9936,-1.09541 1.9859,-2.1921 2.9794,-3.28775 1.13,-1.23555 2.2674,-2.4641 3.389,-3.70726 1.2363,-1.36085 2.4404,-2.75051 3.6707,-4.11677 1.2898,-1.43229 2.5042,-2.92965 3.7635,-4.38843 1.3291,-1.51374 2.5821,-3.08921 3.7802,-4.70787 1.2258,-1.63429 2.2183,-3.42168 3.2345,-5.18857 1.0574,-1.78222 2.008,-3.61841 2.8265,-5.52154 0.8515,-2.03518 1.5855,-4.11664 2.2346,-6.22441 0.6273,-2.05798 1.0438,-4.17179 1.4021,-6.2907 0.3346,-2.03968 0.5769,-4.09236 0.8323,-6.14289 0.2481,-2.18282 0.6018,-4.35013 1.0268,-6.50487 0.3993,-2.11539 1.1104,-4.14931 1.8341,-6.17058 0.7233,-1.93647 1.6173,-3.80234 2.5858,-5.62647 0.8844,-1.66006 1.9296,-3.21742 3.1467,-4.64935 1.1867,-1.40414 2.604,-2.56319 4.0713,-3.65699 1.4709,-1.09137 3.0419,-2.03223 4.6667,-2.87327 1.7674,-0.93579 3.6738,-1.52359 5.5958,-2.04189 1.949,-0.40925 3.972,-0.70544 5.9684,-0.56736 2.4026,0.10412 4.7899,0.37905 7.1538,0.81404 2.3625,0.48549 4.6694,1.18452 6.9506,1.95909 2.3995,0.80109 4.6527,1.96021 6.8933,3.11974 2.2722,1.20825 4.3987,2.66035 6.516,4.11661 2.215,1.50442 4.2882,3.19341 6.3159,4.93772 2.0225,1.74509 3.8947,3.65234 5.7331,5.5874 1.7646,1.91826 3.5031,3.86296 5.1813,5.8575 1.6191,1.94115 3.1127,3.98094 4.5531,6.05679 1.3826,1.80114 2.2903,3.8379 3.0027,5.97607 0.4957,1.89248 0.4451,3.82657 0.2347,5.75109 -0.2021,1.82984 -0.9098,3.51134 -1.8064,5.09851 -0.9454,1.59577 -2.2867,2.88604 -3.6595,4.11031 -1.3692,1.19736 -2.8514,2.25084 -4.3783,3.23485 -1.5564,0.99165 -3.2068,1.80872 -4.8982,2.53963 -1.7946,0.76313 -3.6416,1.39162 -5.4765,2.04857 -2.0239,0.71947 -4.0466,1.44227 -6.0793,2.13638 -2.1552,0.72851 -4.2953,1.50009 -6.4319,2.28073 -2.2419,0.84155 -4.5222,1.5715 -6.8168,2.25434 -2.4398,0.71312 -4.9011,1.34825 -7.3681,1.95935 -2.4107,0.57775 -4.8182,1.16838 -7.2279,1.75006 -2.3452,0.54354 -4.6951,1.06755 -7.0506,1.56486 -2.4077,0.50129 -4.8171,0.9943 -7.2266,1.48658 -2.4093,0.49981 -4.8293,0.94358 -7.2566,1.34623 -2.517,0.42729 -5.0629,0.64131 -7.6042,0.86268 -2.4003,0.20577 -4.8031,0.38043 -7.2061,0.54904 -2.2907,0.13211 -4.5765,0.32311 -6.8591,0.55414 -2.1158,0.20499 -4.203,0.60258 -6.2688,1.09407 -1.8465,0.42291 -3.6012,1.12529 -5.3071,1.93518 -1.4047,0.67974 -2.6849,1.56937 -3.8985,2.5428 -1.1292,0.83155 -1.8207,2.00672 -2.4365,3.23611 -0.6216,1.26708 -1.0513,2.61291 -1.4053,3.97553 -0.3694,1.44356 -0.6054,2.91313 -0.8056,4.38793 -0.2423,1.55831 -0.3143,3.13156 -0.3649,4.7052 -0.028,0.82007 0.064,1.6345 0.1542,2.44744 0,0 0.728,-0.008 0.728,-0.008 v 0 c -0.09,-0.80946 -0.1824,-1.62041 -0.1533,-2.43701 0.05,-1.57119 0.123,-3.14192 0.3657,-4.69768 0.2004,-1.4719 0.4368,-2.9386 0.8064,-4.37918 0.3546,-1.35749 0.7839,-2.69834 1.4057,-3.96009 0.6151,-1.2208 1.3093,-2.38124 2.4338,-3.20475 1.2121,-0.96776 2.4899,-1.85231 3.892,-2.52641 1.7046,-0.80502 3.4579,-1.50101 5.3016,-1.92059 2.0649,-0.48796 4.1509,-0.88187 6.265,-1.08497 2.2821,-0.23027 4.5674,-0.41882 6.8574,-0.55217 2.4025,-0.16905 4.8047,-0.3441 7.2043,-0.55054 2.5418,-0.22234 5.0878,-0.43927 7.605,-0.86818 2.4274,-0.40363 4.8476,-0.84853 7.257,-1.34886 2.4098,-0.49245 4.8196,-0.98498 7.2274,-1.48694 2.3556,-0.49809 4.706,-1.02164 7.0511,-1.56688 2.4094,-0.5824 4.8169,-1.17237 7.2274,-1.75057 2.4667,-0.61229 4.9277,-1.24866 7.3671,-1.96283 2.2959,-0.68434 4.5778,-1.41538 6.8212,-2.25818 2.1366,-0.78075 4.2772,-1.55084 6.4324,-2.27915 2.0335,-0.69512 4.0573,-1.41774 6.0823,-2.13705 1.8362,-0.65667 3.6837,-1.28695 5.4781,-2.05311 1.6928,-0.7344 3.3441,-1.55598 4.9013,-2.55132 1.5272,-0.98769 3.0096,-2.04501 4.3784,-3.2462 1.3753,-1.23157 2.7177,-2.52957 3.6619,-4.13404 0.8972,-1.59735 1.605,-3.28878 1.8064,-5.12786 0.2105,-1.93504 0.259,-3.87931 -0.2376,-5.78218 -0.7142,-2.14455 -1.622,-4.18964 -3.0085,-5.99637 -1.4415,-2.07773 -2.9366,-4.1191 -4.5556,-6.06327 -1.6775,-1.99695 -3.4186,-3.94107 -5.1826,-5.86173 -1.8392,-1.93684 -3.711,-3.84703 -5.7339,-5.59455 -2.0283,-1.74608 -4.1003,-3.43896 -6.3159,-4.94545 -2.1175,-1.45858 -4.2443,-2.91289 -6.5158,-4.12564 -2.241,-1.16121 -4.4937,-2.32444 -6.8928,-3.13062 -2.282,-0.77731 -4.5893,-1.47921 -6.9525,-1.96932 -2.3639,-0.4401 -4.7513,-0.71713 -7.1546,-0.82514 -2.4793,-0.0447 -4.9735,-0.0356 -7.3948,0.58352 -1.9242,0.52213 -3.831,1.11767 -5.5998,2.05706 -1.6253,0.84538 -3.1971,1.78977 -4.6683,2.88495 -1.4687,1.09872 -2.886,2.26412 -4.0727,3.67335 -1.2162,1.43792 -2.2612,3.00042 -3.1455,4.66508 -0.9676,1.82798 -1.8619,3.69701 -2.5846,5.63692 -0.7239,2.0248 -1.4344,4.06257 -1.8338,6.18136 -0.4239,2.15664 -0.7783,4.32547 -1.0267,6.50993 -0.2571,2.04931 -0.5005,4.10087 -0.8335,6.13975 -0.3575,2.11581 -0.773,4.22664 -1.4005,6.28127 -0.6487,2.10527 -1.3825,4.18427 -2.2345,6.2166 -0.8208,1.89946 -1.7724,3.73263 -2.8277,5.51318 -1.0151,1.76482 -2.0087,3.54878 -3.2344,5.18021 -1.1982,1.61663 -2.4523,3.18942 -3.7797,4.7025 -1.2588,1.45946 -2.4763,2.95448 -3.7665,4.38672 -1.2292,1.36718 -2.4338,2.75648 -3.6709,4.1166 -1.1237,1.24233 -2.2613,2.47161 -3.3926,3.70686 -0.9939,1.09562 -1.9867,2.19223 -2.9805,3.28782 -0.8995,0.9965 -1.7445,2.03452 -2.502,3.14441 -0.5337,0.80738 -1.079,1.64171 -1.2841,2.60199 -0.099,0.63114 -0.1529,1.26545 -0.01,1.89534 0.1331,0.42039 0.2895,0.84255 0.6309,1.14138 1.3752,0.0201 0.7836,0.0692 0.3016,-0.24074 -0.7055,-0.43642 -1.4298,-0.84208 -2.1246,-1.29619 -1.3543,-0.83417 -2.7064,-1.67698 -3.9565,-2.66467 -1.6001,-1.31027 -3.1357,-2.7018 -4.47,-4.28815 -1.3961,-1.62971 -2.7601,-3.2882 -4.0066,-5.0366 -1.2401,-1.77048 -2.4895,-3.54426 -3.4821,-5.46991 -1.0129,-1.87368 -1.9973,-3.76493 -2.8297,-5.72722 -0.8304,-1.95015 -1.6079,-3.92256 -2.2704,-5.93689 -0.6511,-1.99034 -1.2597,-3.99403 -1.8977,-5.98853 -0.6516,-1.97931 -1.2887,-3.96296 -1.9447,-5.94072 -0.6883,-1.96639 -1.4286,-3.91377 -2.1763,-5.85825 -0.7257,-1.89024 -1.4636,-3.77595 -2.2073,-5.65912 -0.7058,-1.81583 -1.4234,-3.62759 -2.2264,-5.40317 -0.7431,-1.71002 -1.4856,-3.42028 -2.2487,-5.12157 -0.7425,-1.73704 -1.5066,-3.46457 -2.2506,-5.20105 -0.7119,-1.72502 -1.4133,-3.45563 -2.0505,-5.20988 -0.6207,-1.7157 -1.1787,-3.45272 -1.6845,-5.20588 -0.396,-1.55532 -0.774,-3.12218 -0.8621,-4.73126 -0.089,-1.43139 0.024,-2.84353 0.35,-4.24412 0.3574,-1.56419 0.7951,-3.1138 1.4945,-4.5645 0.7889,-1.63315 1.6407,-3.23712 2.6108,-4.7709 1.016,-1.5577 2.0942,-3.07269 3.2992,-4.49173 1.1808,-1.42229 2.3982,-2.81562 3.5155,-4.28904 1.1508,-1.53954 2.2428,-3.12128 3.2844,-4.73681 1.1315,-1.65878 2.2743,-3.31646 3.5903,-4.83672 1.4104,-1.60444 2.904,-3.13535 4.516,-4.53944 1.7615,-1.50889 3.5958,-2.93058 5.4895,-4.27008 1.8977,-1.31185 3.8369,-2.56322 5.8472,-3.69677 1.9485,-1.13596 3.9113,-2.24693 5.8761,-3.35424 1.8442,-0.98793 3.7116,-1.9306 5.6063,-2.81822 1.8316,-0.85022 3.6748,-1.67554 5.5291,-2.47528 1.7249,-0.75299 3.4696,-1.45962 5.182,-2.24085 1.6615,-0.768 3.3248,-1.53241 4.969,-2.33688 1.5819,-0.78365 3.1535,-1.590016 4.6618,-2.509866 1.3955,-0.84706 2.82,-1.68272 3.9522,-2.87961 0.8827,-0.90863 1.75,-1.85287 2.2106,-3.05589 0.3766,-1.07123 0.6123,-2.12544 0.299,-3.25222 -0.2823,-1.2131 -0.6752,-2.37371 -1.4471,-3.3747 -0.8221,-1.08352 -1.7966,-2.04354 -2.9276,-2.80603 -1.1978,-0.75453 -2.4533,-1.41145 -3.843,-1.73628 -1.8377,-0.4284 -3.7006,-0.53149 -5.5772,-0.26276 -1.881,0.22081 -3.7473,0.52983 -5.6013,0.91833 -1.9285,0.39 -3.8511,0.8091 -5.7588,1.29167 -1.9069,0.48661 -3.8028,1.01403 -5.6742,1.62454 -1.6834,0.54304 -3.3714,1.07567 -5.0232,1.71086 -1.3746,0.5212 -2.7446,1.07289 -4.167,1.45129 -1.1616,0.24593 -2.3558,0.3909 -3.4681,0.34042 -1.29,-0.0828 -2.5813,-0.21636 -3.8401,-0.52125 -1.2594,-0.298 -2.5081,-0.62864 -3.5977,-1.36052 -1.2633,-0.79026 -2.4636,-1.67567 -3.5233,-2.72852 -1.0303,-1.03422 -1.9829,-2.1283 -2.5595,-3.48944 -0.6042,-1.27454 -1.1446,-2.5838 -1.4601,-3.9633 -0.2868,-1.40058 -0.5323,-2.8168 -0.4638,-4.25319 0.069,-1.44302 0.2479,-2.87891 0.6175,-4.27861 0.3655,-1.32451 0.8776,-2.59309 1.6766,-3.72226 0.8052,-1.17844 1.6773,-2.31141 2.7408,-3.27224 1.2198,-1.11842 2.498,-2.175115 3.8978,-3.063825 1.5474,-0.95912 3.1698,-1.78072 4.8072,-2.57507 1.7223,-0.81794 3.4518,-1.62014 5.1967,-2.38895 1.831,-0.80621 3.6403,-1.65882 5.4311,-2.55092 1.7803,-0.87206 3.5667,-1.7316 5.3481,-2.6011 1.8758,-0.88319 3.7485,-1.77195 5.6656,-2.56329 1.8463,-0.78208 3.6911,-1.56762 5.5484,-2.32312 1.7519,-0.72612 3.4983,-1.46485 5.2505,-2.1901 1.6784,-0.7058 3.3512,-1.42718 4.9983,-2.20356 1.6174,-0.75511 3.259,-1.46477 4.8038,-2.36516 1.4582,-0.84348 2.8826,-1.74163 4.2497,-2.72725 1.2702,-0.91795 2.5132,-1.87412 3.6717,-2.93169 1.026,-0.92366 2.0076,-1.89473 2.8837,-2.96416 0.8195,-1.01968 1.59,-2.07733 2.3432,-3.14677 0.7153,-0.9933 1.3888,-2.01513 2.1032,-3.00906 0.629,-0.85577 1.2737,-1.6995 1.9738,-2.49903 0.6602,-0.72265 1.2968,-1.46795 1.9931,-2.15616 0.6582,-0.62473 1.3303,-1.23214 2.0777,-1.75096 0.5932,-0.42962 1.1882,-0.89192 1.9091,-1.08129 0.3687,-0.0736 1.1595,-0.0591 0.8316,-0.1316 -1.0011,-0.22144 -0.3349,0.0635 -0.084,0.0237 0.4452,0.18339 0.5982,0.55002 0.5865,1.02383 -0.015,0.67096 -0.2052,1.30624 -0.3766,1.95115 -0.078,0.45724 -0.173,0.96257 0.1435,1.35507 0,0 0.744,-0.0653 0.744,-0.0653 z" />
    <path
       style="fill:#000000;stroke-width:0.75"
       id="path4007"
       d="m 258.01029,251.4255 c 0.2053,0.70664 0.438,1.40334 0.692,2.09386 0.5984,1.59558 1.2563,3.16459 1.9594,4.7165 0.8627,1.97379 1.9103,3.85569 3.0271,5.69471 1.4542,2.32034 3.0136,4.57215 4.5833,6.81518 1.8674,2.64424 3.7966,5.24414 5.7282,7.84159 2.0925,2.84514 4.23,5.65662 6.3087,8.51183 2.4278,3.16683 4.5836,6.51699 6.6735,9.91168 2.0887,3.54671 3.8576,7.2656 5.4725,11.04742 1.4961,3.7971 2.4433,7.77703 3.2592,11.76628 0.7619,3.83641 1.3758,7.69875 1.9247,11.57059 0.5683,3.72047 0.897,7.46893 1.2086,11.21759 0.3132,3.76833 0.5564,7.54189 0.7907,11.31579 0.2361,3.86958 0.4336,7.74137 0.6174,11.61375 0.1985,4.08123 0.6041,8.1465 1.1161,12.19897 0.5174,4.05403 1.1231,8.09575 1.7581,12.13276 0.6319,3.91393 1.3377,7.81575 2.0515,11.71547 0.6871,3.6928 1.3982,7.38073 2.0337,11.0829 0.6459,3.78701 1.1874,7.59067 1.6548,11.40352 0.3137,2.54432 0.5292,5.09917 0.7482,7.65292 0,0 0.6993,-0.006 0.6993,-0.006 v 0 c -0.2199,-2.55454 -0.4353,-5.11028 -0.7493,-7.65543 -0.4677,-3.81384 -1.0071,-7.61888 -1.6532,-11.40689 -0.6342,-3.70277 -1.3463,-7.39085 -2.0354,-11.08367 -0.7149,-3.89903 -1.4213,-7.80023 -2.0531,-11.7137 -0.6366,-4.03615 -1.2418,-8.07728 -1.7599,-12.13061 -0.5118,-4.05058 -0.9166,-8.11411 -1.1131,-12.19353 -0.1826,-3.87277 -0.3814,-7.74481 -0.6158,-11.61481 -0.2349,-3.77431 -0.4758,-7.54852 -0.7899,-11.31726 -0.3128,-3.74996 -0.639,-7.50004 -1.21,-11.2216 -0.5483,-3.87353 -1.1656,-7.73682 -1.9275,-11.5748 -0.8174,-3.99348 -1.7648,-7.97778 -3.2588,-11.78036 -1.6168,-3.78466 -3.3882,-7.50558 -5.4741,-11.05768 -2.0904,-3.3953 -4.2418,-6.74925 -6.6693,-9.91731 -2.0757,-2.85675 -4.2122,-5.66822 -6.3045,-8.51283 -1.93,-2.59665 -3.8564,-5.19663 -5.7225,-7.83987 -1.5654,-2.24259 -3.1245,-4.49134 -4.5746,-6.81108 -1.1143,-1.83642 -2.1607,-3.71511 -3.0207,-5.68631 -0.7011,-1.54962 -1.3591,-3.1156 -1.9489,-4.71142 -0.249,-0.68715 -0.4806,-1.37913 -0.6786,-2.08291 0,0 -0.7478,0.0148 -0.7478,0.0148 z" />
    <path
       style="fill:#000000;stroke-width:0.75"
       id="path4009"
       d="m 314.08679,431.59057 c -0.6332,-0.0895 -1.2634,-0.19854 -1.8924,-0.31361 -1.3055,-0.25257 -2.6261,-0.4123 -3.9374,-0.62998 -1.849,-0.34101 -3.7134,-0.5724 -5.5813,-0.77791 -2.3736,-0.25425 -4.7532,-0.44553 -7.1328,-0.63289 -2.9571,-0.22688 -5.9193,-0.37499 -8.8823,-0.49698 -4.9733,-0.14852 -9.9295,-0.58571 -14.877,-1.09215 -5.7204,-0.57364 -11.4208,-1.32202 -17.1243,-2.03976 -5.4954,-0.71088 -10.9929,-1.40675 -16.485,-2.14269 -5.6283,-0.75484 -11.2421,-1.61247 -16.8419,-2.55465 -6.3042,-1.08478 -12.5882,-2.28104 -18.8791,-3.4389 -6.3032,-1.15316 -12.6067,-2.30343 -18.924,-3.37724 -6.6217,-1.08575 -13.2679,-2.01167 -19.9379,-2.74194 -7.2472,-0.74624 -14.5214,-1.18758 -21.7907,-1.65269 -6.6485,-0.41246 -13.3046,-0.67573 -19.9635,-0.8388 -6.6165,-0.2025 -13.2316,-0.006 -19.8425,0.26081 -5.979697,0.25603 -11.952697,0.63312 -17.923197,1.04719 -5.3812,0.36162 -10.7416,0.9538 -16.0947,1.6002 -4.9233,0.57718 -9.8172,1.34784 -14.6748,2.3318 -4.6643,0.96236 -8.8617,1.95663 -13.0456,4.301 -3.0428,2.01591 -5.1645,4.95128 -7.0681,7.99942 -1.6724,2.89432 -2.4248,6.1837 -3.092,9.42685 -0.6186,3.4636 -0.7429,6.97884 -0.72,10.48824 0.034,3.38283 0.2526,6.76012 0.5296,10.13059 0.3065,3.6012 0.7045,7.19369 1.0552,10.7907 0.3778,4.00254 0.7287,8.00837 0.9555,12.02252 0.2598,4.44697 0.2325,8.90302 0.1365,13.35427 -0.1063,4.55768 -0.489,9.10088 -1.0064,13.62818 -0.5857,4.8105 -1.4168,9.58462 -2.3148,14.34495 -0.8749,4.44502 -1.7883,8.8824 -2.7374,13.3122 -0.8892,4.13047 -1.8575,8.24302 -2.8414,12.35182 -1.0497,4.15493 -2.118,8.3058 -3.2083,12.45038 -1.1037,4.11487 -2.1061,8.256 -3.1045,12.39735 -0.4792,2.02365 -0.9477,4.04962 -1.4281,6.07297 0,0 0.6957,0.0165 0.6957,0.0165 v 0 c 0.4788,-2.02342 0.9459,-4.04947 1.4252,-6.07275 0.9975,-4.1412 2.0025,-8.2812 3.1049,-12.39592 1.0895,-4.1454 2.1569,-8.29703 3.2091,-12.45195 0.9835,-4.10933 1.9518,-8.22233 2.84,-12.35348 0.9466,-4.43047 1.8572,-8.86852 2.7302,-13.314 0.8977,-4.7622 1.7286,-9.53805 2.3162,-14.3499 0.5201,-4.52925 0.9048,-9.07455 1.0096,-13.63455 0.095,-4.45305 0.1245,-8.91082 -0.1331,-13.35967 -0.2226,-4.0152 -0.574,-8.02185 -0.9498,-12.02539 -0.3483,-3.59672 -0.7442,-7.18889 -1.0492,-10.7897 -0.2762,-3.36876 -0.4964,-6.74426 -0.5314,-10.1253 -0.024,-3.50454 0.101,-7.01511 0.7217,-10.47343 0.6675,-3.23549 1.4183,-6.51659 3.0927,-9.40175 1.8977,-3.03795 4.0134,-5.96307 7.0516,-7.96543 4.1794,-2.32985 8.381,-3.3205 13.0347,-4.28082 4.8563,-0.98109 9.7487,-1.74925 14.6699,-2.32704 5.351,-0.64626 10.7096,-1.23608 16.0887,-1.59759 5.9669,-0.41432 11.9364,-0.79124 17.912597,-1.04685 6.1734,-0.24901 12.3509,-0.4574 18.5298,-0.25987 6.6613,0.16207 13.32,0.42381 19.9711,0.83502 7.2693,0.46392 14.5437,0.90404 21.7908,1.64964 6.6663,0.72941 13.3087,1.65497 19.9266,2.73962 6.3183,1.07298 12.6227,2.22276 18.9267,3.37594 6.2884,1.15682 12.5695,2.35364 18.8704,3.44114 5.5982,0.94466 11.2109,1.80115 16.8377,2.55753 5.4927,0.73711 10.9911,1.43149 16.4872,2.14296 5.7038,0.7173 11.4043,1.46622 17.1248,2.04123 4.9386,0.50793 9.8859,0.94886 14.8504,1.10041 2.9576,0.12267 5.9144,0.27075 8.8662,0.49676 2.3785,0.18681 4.757,0.37762 7.1296,0.63111 1.8647,0.20463 3.7264,0.43377 5.572,0.77516 1.3084,0.21998 2.6267,0.37806 3.9299,0.62973 0.6249,0.11681 1.251,0.23 1.8811,0.31411 0,0 0.741,-0.10242 0.741,-0.10242 z" />
    <path
       style="fill:#000000;stroke-width:0.75"
       id="path4011"
       d="m 1830.0681,859.46925 c 0.01,0.74183 0.01,1.48365 0.01,2.22548 0.032,1.32862 -0.085,2.65365 -0.1719,3.97815 -0.1213,1.81522 -0.3385,3.62347 -0.5323,5.43225 -0.3243,2.53447 -0.6889,5.06347 -1.0396,7.59435 -0.4334,3.0183 -0.7982,6.04507 -1.115,9.07762 -0.3632,3.46763 -0.708,6.9363 -1.0006,10.4106 -0.3402,3.86332 -0.68,7.72672 -1.0564,11.58667 -0.38,3.9249 -0.7655,7.84868 -1.1974,11.76818 -0.5001,3.9438 -0.9771,7.89053 -1.4783,11.83418 -0.4661,3.69847 -0.9449,7.39515 -1.4292,11.09129 -0.4244,3.36451 -0.8865,6.72406 -1.3282,10.08631 -0.4168,3.15434 -0.7827,6.31484 -1.1244,9.47804 -0.318,2.97946 -0.6101,5.96153 -0.8863,8.94503 -0.251,2.7303 -0.4783,5.46263 -0.6966,8.19563 -0.1749,2.15535 -0.3211,4.31287 -0.4641,6.47047 0,0 0.7155,0.007 0.7155,0.007 v 0 c 0.1425,-2.1573 0.2898,-4.31437 0.4635,-6.4695 0.2172,-2.7327 0.4431,-5.4648 0.6931,-8.19472 0.2756,-2.98313 0.5655,-5.96498 0.8829,-8.94398 0.3414,-3.16267 0.7075,-6.32257 1.1226,-9.47655 0.4404,-3.36225 0.9017,-6.72172 1.3241,-10.0863 0.4826,-3.6963 0.9603,-7.39305 1.425,-11.0916 0.4996,-3.94425 0.9768,-7.89135 1.4779,-11.83537 0.4314,-3.91981 0.8178,-7.84381 1.1972,-11.769 0.3769,-3.86033 0.7184,-7.72388 1.0585,-11.58766 0.295,-3.47377 0.6465,-6.94155 1.0077,-10.40909 0.3193,-3.03158 0.6873,-6.05738 1.1194,-9.07516 0.3538,-2.53162 0.7238,-5.06115 1.0509,-7.59637 0.197,-1.80968 0.4169,-3.61883 0.539,-5.43525 0.088,-1.32615 0.2096,-2.65253 0.1791,-3.98295 5e-4,-0.74183 6e-4,-1.48365 0.01,-2.22548 0,0 -0.7485,0 -0.7485,0 z" />
  </g>
  <path
     style="fill:#000000;stroke-width:0.75"
     id="path3873"
     d="m 242.99034,1271.8923 c 3.38687,0 6.77374,0 10.16061,0 5.33166,-2e-4 10.66332,-10e-5 15.99499,-4e-4 6.43166,-10e-5 12.86331,-6e-4 19.29498,-6e-4 7.0494,0.064 14.09666,-0.1159 21.14364,-0.2707 6.84987,-0.054 13.68114,-0.5865 20.51301,-1.0316 7.12037,-0.4312 14.21791,-1.1733 21.32444,-1.7857 7.03701,-0.6145 14.08305,-1.1074 21.13408,-1.5271 7.94064,-0.6311 15.86025,-1.4989 23.792,-2.2318 7.91728,-0.73 15.84816,-1.2995 23.78107,-1.8278 7.53799,-0.4962 15.08228,-0.8862 22.62807,-1.2407 7.15729,-0.2755 14.30987,-0.6308 21.46125,-1.0288 7.09305,-0.4794 14.18491,-0.9743 21.28017,-1.4204 6.44061,-0.4006 12.8848,-0.7384 19.33007,-1.0537 5.90428,-0.2918 11.81174,-0.5117 17.71969,-0.7131 5.92794,-0.2023 11.85752,-0.3504 17.78739,-0.4814 5.9462,-0.1006 11.89221,-0.2807 17.83958,-0.2781 6.61381,-0.021 13.21973,0.1928 19.82364,0.5306 7.00137,0.3782 14.00366,0.7284 21.00003,1.1911 6.79264,0.4564 13.58898,0.8525 20.3874,1.2113 6.35271,0.327 12.70803,0.6003 19.0645,0.8424 6.34589,0.2439 12.69401,0.4192 19.04273,0.5687 7.9236,0.1882 15.84378,0.4977 23.76631,0.7297 10.15959,0.4031 20.32024,0.7683 30.48331,1.071 11.03731,0.315 22.07626,0.5673 33.11532,0.8112 9.53978,0.2095 19.08027,0.3837 28.62088,0.5499 8.28819,0.1679 16.57854,0.2147 24.86595,0.4168 7.7989,0.2308 15.59708,0.4826 23.39648,0.6971 7.52437,0.207 15.04995,0.3651 22.5756,0.5154 6.96285,0.1365 13.92607,0.2457 20.88945,0.349 6.23835,0.093 12.47692,0.1686 18.71565,0.2355 4.1592,-0.046 8.2362,-0.055 12.31177,0.7958 0,0 0.70313,-0.096 0.70313,-0.096 v 0 c -4.07565,-0.8659 -8.1522,-0.8567 -12.31455,-0.8095 -6.2397,-0.067 -12.47933,-0.1425 -18.71865,-0.2347 -6.9648,-0.1028 -13.92945,-0.2117 -20.89365,-0.3479 -7.5267,-0.1499 -15.05318,-0.3078 -22.57853,-0.5145 -7.80007,-0.2144 -15.59897,-0.4655 -23.39852,-0.6969 -8.28926,-0.2036 -16.58155,-0.2489 -24.87163,-0.4165 -9.54387,-0.1654 -19.08761,-0.3391 -28.63064,-0.548 -11.04085,-0.2429 -22.08158,-0.4945 -33.12064,-0.81 -10.15824,-0.303 -20.31405,-0.6685 -30.46874,-1.0731 -7.91774,-0.2324 -15.83311,-0.5433 -23.75191,-0.7324 -6.34743,-0.1497 -12.69427,-0.3251 -19.0389,-0.5682 -6.3573,-0.2419 -12.71349,-0.5144 -19.06704,-0.841 -6.79887,-0.3583 -13.59567,-0.7537 -20.3887,-1.2102 -6.99725,-0.4631 -14.00036,-0.8139 -21.00263,-1.1918 -6.60188,-0.3389 -13.20564,-0.5569 -19.81754,-0.5351 -6.41443,10e-5 -12.82715,0.1497 -19.2401,0.2795 -5.93048,0.1309 -11.86066,0.2793 -17.78917,0.4819 -5.90758,0.2019 -11.81468,0.422 -17.71858,0.7145 -6.44346,0.3158 -12.88586,0.6544 -19.32465,1.0555 -7.09502,0.4467 -14.18661,0.9426 -21.27959,1.4199 -7.15039,0.3981 -14.30207,0.7518 -21.45832,1.0287 -7.54512,0.3549 -15.08873,0.7456 -22.62603,1.2423 -7.93227,0.5291 -15.8625,1.0993 -23.77913,1.83 -7.9333,0.7335 -15.85447,1.6025 -23.79715,2.2287 -7.05124,0.42 -14.09748,0.9135 -21.13466,1.5289 -7.10762,0.613 -14.20639,1.3544 -21.32809,1.7836 -6.83047,0.4451 -13.66041,0.9755 -20.5089,1.0291 -7.04745,0.1546 -14.09517,0.3336 -21.14502,0.269 -6.4343,-10e-5 -12.86859,-6e-4 -19.30288,-7e-4 -5.33338,-3e-4 -10.66676,-2e-4 -16.00013,-4e-4 -3.39614,-3e-4 -6.79228,-5e-4 -10.18842,0 0,0 0.7359,0.1166 0.7359,0.1166 z" />
  <path
     style="fill:#000000;stroke-width:0.75"
     id="path3885"
     d="m 4.1351926,698.95214 c 3.3869,0 6.7737004,0 10.1606004,0 5.3317,-2e-4 10.6633,-10e-5 15.995,-4e-4 6.4316,-10e-5 12.8633,-6e-4 19.295,-6e-4 7.0494,0.064 14.0966,-0.1159 21.1436,-0.2707 6.8499,-0.054 13.6811,-0.5865 20.513,-1.0316 7.1204,-0.4312 14.217897,-1.1733 21.324497,-1.7857 7.037,-0.6145 14.083,-1.1074 21.134,-1.5271 7.9407,-0.6311 15.8603,-1.4989 23.792,-2.2318 7.9173,-0.73 15.8482,-1.2995 23.7811,-1.8278 7.538,-0.4962 15.0823,-0.8862 22.6281,-1.2407 7.1573,-0.2755 14.3098,-0.6308 21.4612,-1.0288 7.0931,-0.4794 14.1849,-0.9743 21.2802,-1.4204 6.4406,-0.4006 12.8848,-0.7384 19.3301,-1.0537 5.9042,-0.2918 11.8117,-0.5117 17.7197,-0.7131 5.9279,-0.2023 11.8575,-0.3504 17.7873,-0.4814 5.9462,-0.1006 11.8923,-0.2807 17.8396,-0.2781 6.6138,-0.021 13.2198,0.1928 19.8237,0.5306 7.0013,0.3782 14.0036,0.7284 21,1.1911 6.7926,0.4564 13.589,0.8525 20.3874,1.2113 6.3527,0.327 12.708,0.6003 19.0645,0.8424 6.3459,0.2439 12.694,0.4192 19.0427,0.5687 7.9236,0.1882 15.8438,0.4977 23.7663,0.7297 10.1596,0.4031 20.3203,0.7683 30.4833,1.071 11.0374,0.315 22.0763,0.5673 33.1154,0.8112 9.5397,0.2095 19.0802,0.3837 28.6208,0.5499 8.2882,0.1679 16.5786,0.2147 24.866,0.4168 7.7989,0.2308 15.5971,0.4826 23.3965,0.6971 7.5243,0.207 15.0499,0.3651 22.5756,0.5154 6.9628,0.1365 13.926,0.2457 20.8894,0.349 6.2384,0.093 12.4769,0.1686 18.7157,0.2355 4.1592,-0.046 8.2362,-0.055 12.3117,0.7958 0,0 0.7032,-0.096 0.7032,-0.096 v 0 c -4.0757,-0.8659 -8.1522,-0.8567 -12.3146,-0.8095 -6.2397,-0.067 -12.4793,-0.1425 -18.7186,-0.2347 -6.9648,-0.1028 -13.9295,-0.2117 -20.8937,-0.3479 -7.5267,-0.1499 -15.0532,-0.3078 -22.5785,-0.5145 -7.8001,-0.2144 -15.599,-0.4655 -23.3985,-0.6969 -8.2893,-0.2036 -16.5816,-0.2489 -24.8717,-0.4165 -9.5438,-0.1654 -19.0876,-0.3391 -28.6306,-0.548 -11.0408,-0.2429 -22.0816,-0.4945 -33.1206,-0.81 -10.1583,-0.303 -20.3141,-0.6685 -30.4688,-1.0731 -7.9177,-0.2324 -15.8331,-0.5433 -23.7519,-0.7324 -6.3474,-0.1497 -12.6943,-0.3251 -19.0389,-0.5682 -6.3573,-0.2419 -12.7135,-0.5144 -19.067,-0.841 -6.7989,-0.3583 -13.5957,-0.7537 -20.3887,-1.2102 -6.9973,-0.4631 -14.0004,-0.8139 -21.0027,-1.1918 -6.6018,-0.3389 -13.2056,-0.5569 -19.8175,-0.5351 -6.4144,10e-5 -12.8271,0.1497 -19.2401,0.2795 -5.9305,0.1309 -11.8607,0.2793 -17.7892,0.4819 -5.9075,0.2019 -11.8146,0.422 -17.7185,0.7145 -6.4435,0.3158 -12.8859,0.6544 -19.3247,1.0555 -7.095,0.4467 -14.1866,0.9426 -21.2796,1.4199 -7.1504,0.3981 -14.3021,0.7518 -21.4583,1.0287 -7.5451,0.3549 -15.0887,0.7456 -22.626,1.2423 -7.9323,0.5291 -15.8625,1.0993 -23.7792,1.83 -7.9333,0.7335 -15.8544,1.6025 -23.7971,2.2287 -7.0513,0.42 -14.0975,0.9135 -21.1347,1.5289 -7.1076,0.613 -14.206397,1.3544 -21.328097,1.7836 -6.8304,0.4451 -13.6604,0.9755 -20.5089,1.0291 -7.0474,0.1546 -14.0951,0.3336 -21.145,0.269 -6.4343,-10e-5 -12.8686,-6e-4 -19.3029,-7e-4 -5.3333,-3e-4 -10.6667,-2e-4 -16.0001,-4e-4 -3.3961,-3e-4 -6.7923004,-5e-4 -10.1884004,0 0,0 0.7359,0.1166 0.7359,0.1166 z" />
  <path
     style="fill:#000000;stroke-width:0.75"
     id="path3893"
     d="m 4.1351926,698.95214 c 3.3869,0 6.7737004,0 10.1606004,0 5.3317,-2e-4 10.6633,-10e-5 15.995,-4e-4 6.4316,-10e-5 12.8633,-6e-4 19.295,-6e-4 7.0494,0.064 14.0966,-0.1159 21.1436,-0.2707 6.8499,-0.054 13.6811,-0.5865 20.513,-1.0316 7.1204,-0.4312 14.217897,-1.1733 21.324497,-1.7857 7.037,-0.6145 14.083,-1.1074 21.134,-1.5271 7.9407,-0.6311 15.8603,-1.4989 23.792,-2.2318 7.9173,-0.73 15.8482,-1.2995 23.7811,-1.8278 7.538,-0.4962 15.0823,-0.8862 22.6281,-1.2407 7.1573,-0.2755 14.3098,-0.6308 21.4612,-1.0288 7.0931,-0.4794 14.1849,-0.9743 21.2802,-1.4204 6.4406,-0.4006 12.8848,-0.7384 19.3301,-1.0537 5.9042,-0.2918 11.8117,-0.5117 17.7197,-0.7131 5.9279,-0.2023 11.8575,-0.3504 17.7873,-0.4814 5.9462,-0.1006 11.8923,-0.2807 17.8396,-0.2781 6.6138,-0.021 13.2198,0.1928 19.8237,0.5306 7.0013,0.3782 14.0036,0.7284 21,1.1911 6.7926,0.4564 13.589,0.8525 20.3874,1.2113 6.3527,0.327 12.708,0.6003 19.0645,0.8424 6.3459,0.2439 12.694,0.4192 19.0427,0.5687 7.9236,0.1882 15.8438,0.4977 23.7663,0.7297 10.1596,0.4031 20.3203,0.7683 30.4833,1.071 11.0374,0.315 22.0763,0.5673 33.1154,0.8112 9.5397,0.2095 19.0802,0.3837 28.6208,0.5499 8.2882,0.1679 16.5786,0.2147 24.866,0.4168 7.7989,0.2308 15.5971,0.4826 23.3965,0.6971 7.5243,0.207 15.0499,0.3651 22.5756,0.5154 6.9628,0.1365 13.926,0.2457 20.8894,0.349 6.2384,0.093 12.4769,0.1686 18.7157,0.2355 4.1592,-0.046 8.2362,-0.055 12.3117,0.7958 0,0 0.7032,-0.096 0.7032,-0.096 v 0 c -4.0757,-0.8659 -8.1522,-0.8567 -12.3146,-0.8095 -6.2397,-0.067 -12.4793,-0.1425 -18.7186,-0.2347 -6.9648,-0.1028 -13.9295,-0.2117 -20.8937,-0.3479 -7.5267,-0.1499 -15.0532,-0.3078 -22.5785,-0.5145 -7.8001,-0.2144 -15.599,-0.4655 -23.3985,-0.6969 -8.2893,-0.2036 -16.5816,-0.2489 -24.8717,-0.4165 -9.5438,-0.1654 -19.0876,-0.3391 -28.6306,-0.548 -11.0408,-0.2429 -22.0816,-0.4945 -33.1206,-0.81 -10.1583,-0.303 -20.3141,-0.6685 -30.4688,-1.0731 -7.9177,-0.2324 -15.8331,-0.5433 -23.7519,-0.7324 -6.3474,-0.1497 -12.6943,-0.3251 -19.0389,-0.5682 -6.3573,-0.2419 -12.7135,-0.5144 -19.067,-0.841 -6.7989,-0.3583 -13.5957,-0.7537 -20.3887,-1.2102 -6.9973,-0.4631 -14.0004,-0.8139 -21.0027,-1.1918 -6.6018,-0.3389 -13.2056,-0.5569 -19.8175,-0.5351 -6.4144,10e-5 -12.8271,0.1497 -19.2401,0.2795 -5.9305,0.1309 -11.8607,0.2793 -17.7892,0.4819 -5.9075,0.2019 -11.8146,0.422 -17.7185,0.7145 -6.4435,0.3158 -12.8859,0.6544 -19.3247,1.0555 -7.095,0.4467 -14.1866,0.9426 -21.2796,1.4199 -7.1504,0.3981 -14.3021,0.7518 -21.4583,1.0287 -7.5451,0.3549 -15.0887,0.7456 -22.626,1.2423 -7.9323,0.5291 -15.8625,1.0993 -23.7792,1.83 -7.9333,0.7335 -15.8544,1.6025 -23.7971,2.2287 -7.0513,0.42 -14.0975,0.9135 -21.1347,1.5289 -7.1076,0.613 -14.206397,1.3544 -21.328097,1.7836 -6.8304,0.4451 -13.6604,0.9755 -20.5089,1.0291 -7.0474,0.1546 -14.0951,0.3336 -21.145,0.269 -6.4343,-10e-5 -12.8686,-6e-4 -19.3029,-7e-4 -5.3333,-3e-4 -10.6667,-2e-4 -16.0001,-4e-4 -3.3961,-3e-4 -6.7923004,-5e-4 -10.1884004,0 0,0 0.7359,0.1166 0.7359,0.1166 z" />
  <path
     style="fill:#000000;stroke-width:0.75"
     d="m 16.107893,577.18832 c 0,0 -11.9727004,121.76872 -11.9727004,121.76872 0,0 11.9727004,-121.76872 11.9727004,-121.76872 z"
     id="path4978"
     inkscape:path-effect="#path-effect4980"
     inkscape:original-d="M 16.107893,577.18832 4.1351926,698.95704 Z" />
  <path
     style="fill:#000000;stroke-width:0.75"
     id="path5015"
     d="m 15.237825,579.28807 c 0.0041,0.77587 0.01171,1.5517 -0.0092,2.32734 -0.04669,1.30865 -0.08562,2.61711 -0.198593,3.92197 -0.142868,1.66274 -0.364859,3.31681 -0.618048,4.96586 -0.299487,1.87482 -0.574148,3.75321 -0.807275,5.63743 -0.296013,2.44844 -0.469114,4.90964 -0.646756,7.36886 -0.208413,2.87094 -0.383127,5.74315 -0.458211,8.62077 -0.08709,3.21119 -0.04437,6.42301 0.02604,9.6339 0.133925,3.82694 0.26837,7.6538 0.386017,11.4813 0.125921,4.1088 0.233262,8.21812 0.335672,12.32757 0.09242,4.01994 0.198723,8.03973 0.24949,12.06048 0.06402,3.89173 -0.0061,7.78303 -0.209006,11.66959 -0.173267,3.6225 -0.571883,7.22667 -1.012322,10.82454 -0.400825,3.2621 -1.007397,6.49498 -1.695477,9.70736 -0.6022293,2.77448 -1.3956078,5.50023 -2.2726465,8.19865 -0.5738715,1.67213 -0.2813948,0.84094 -0.8771886,2.49366 0,0 0.7145646,0.0248 0.7145646,0.0248 v 0 c 0.595257,-1.65422 0.303087,-0.82226 0.8762677,-2.49597 0.8754833,-2.70099 1.6679928,-5.42909 2.2678318,-8.20612 0.685264,-3.21478 1.290074,-6.44978 1.689946,-9.71374 0.439026,-3.59956 0.83668,-7.20534 1.008118,-10.82945 0.201939,-3.88812 0.271164,-7.78092 0.207493,-11.67413 -0.05176,-4.02102 -0.159817,-8.04106 -0.250923,-12.06133 -0.103853,-4.10955 -0.211029,-8.21903 -0.337095,-12.32796 -0.117396,-3.82717 -0.242307,-7.65406 -0.375831,-11.48069 -0.06843,-3.20979 -0.108801,-6.42049 -0.02187,-9.63052 0.07617,-2.87651 0.255635,-5.74757 0.462987,-8.61746 0.178668,-2.45821 0.355641,-4.91806 0.656012,-7.36507 0.235647,-1.88329 0.509785,-3.76117 0.809778,-5.6353 0.254956,-1.65063 0.477697,-3.30629 0.623461,-4.9706 0.113984,-1.30629 0.152948,-2.61623 0.203688,-3.92623 0.02309,-0.77634 0.01451,-1.55282 0.02033,-2.32943 0,0 -0.747246,0 -0.747246,0 z" />
</svg>
