<?xml version="1.0" encoding="UTF-8" standalone="no"?>
<svg
   version="1.0"
   width="720pt"
   height="720pt"
   viewBox="0 0 720 720"
   preserveAspectRatio="xMidYMid meet"
   id="svg107"
   sodipodi:docname="intento 4.svg"
   inkscape:version="1.1 (c68e22c387, 2021-05-23)"
   xmlns:inkscape="http://www.inkscape.org/namespaces/inkscape"
   xmlns:sodipodi="http://sodipodi.sourceforge.net/DTD/sodipodi-0.dtd"
   xmlns="http://www.w3.org/2000/svg"
   xmlns:svg="http://www.w3.org/2000/svg">
  <sodipodi:namedview
     id="namedview1741"
     pagecolor="#ffffff"
     bordercolor="#111111"
     borderopacity="1"
     inkscape:pageshadow="0"
     inkscape:pageopacity="0"
     inkscape:pagecheckerboard="1"
     inkscape:document-units="px"
     showgrid="false"
     inkscape:zoom="0.33970588"
     inkscape:cx="637.31602"
     inkscape:cy="705.02164"
     inkscape:window-width="1366"
     inkscape:window-height="705"
     inkscape:window-x="-8"
     inkscape:window-y="-8"
     inkscape:window-maximized="1"
     inkscape:current-layer="layer4" />
  <defs
     id="defs111" />
  <g
     transform="matrix(0.40465316,0,0,-0.52600095,-3368.6027,1576.9881)"
     fill="#000000"
     stroke="none"
     id="g105">
    <path
       d="m 9129.6974,2955.0208 c -4,-3 -7,-13 -7,-21 0,-12 9,-13 45,-9 37,6 47,4 52,-10 4,-10 -2,-23 -15,-34 -25,-20 -30,-52 -7,-43 11,5 12,0 6,-23 -16,-53 -23,-63 -42,-63 -10,0 -19,-7 -19,-15 0,-16 -39,-36 -52,-28 -17,9 -7,21 15,16 18,-4 19,-3 7,6 -23,16 -40,13 -40,-8 0,-27 28,-34 57,-15 18,11 28,13 36,5 14,-14 54,-14 62,-1 4,6 -5,7 -23,4 -19,-4 -32,-1 -41,10 -8,10 -9,16 -3,16 6,0 14,-4 17,-10 3,-5 11,-10 18,-10 8,0 8,3 0,11 -14,14 4,54 36,82 29,24 35,22 71,-20 17,-21 28,-32 24,-24 -5,11 -3,13 10,8 16,-6 15,-3 -3,26 l -20,33 40,11 c 39,10 41,9 69,-25 45,-54 61,-156 39,-236 -13,-48 -51,-85 -121,-120 -29,-14 -46,-26 -38,-26 7,0 42,16 77,35 45,25 63,31 63,20 0,-7 -4,-17 -10,-20 -5,-3 -10,-14 -10,-23 0,-9 -10,-50 -22,-89 -21,-67 -25,-74 -58,-84 -19,-6 -47,-18 -61,-26 -24,-14 -30,-13 -95,20 -38,19 -76,43 -85,53 -23,27 -30,63 -13,72 10,6 5,12 -19,25 -17,10 -44,34 -59,54 l -28,36 30,19 c 35,21 90,24 110,6 12,-11 12,-10 1,5 -7,9 -25,17 -38,17 -22,0 -24,3 -18,33 17,78 80,98 157,50 l 43,-27 -58,-29 c -32,-16 -56,-31 -54,-33 7,-7 126,50 127,61 0,17 -96,65 -132,65 -47,0 -76,-24 -89,-74 -9,-35 -18,-46 -46,-60 -20,-9 -37,-16 -38,-14 -8,10 -45,103 -45,113 0,7 11,16 25,19 19,5 25,12 24,34 l -1,27 -7,-25 c -9,-34 -49,-41 -46,-8 4,36 4,38 15,38 5,0 34,16 65,35 84,54 67,82 -32,50 -20,-6 -23,-4 -23,19 0,22 6,27 45,37 25,6 44,13 42,16 -3,2 -25,-1 -51,-8 -43,-11 -46,-13 -46,-45 0,-37 14,-43 51,-23 11,5 30,9 42,7 18,-3 10,-12 -45,-47 -37,-23 -70,-51 -73,-61 -8,-26 10,-98 44,-171 32,-68 54,-99 85,-116 11,-6 20,-23 21,-42 2,-17 10,-47 20,-67 9,-20 18,-42 20,-48 1,-6 5,-18 8,-26 3,-8 8,-35 10,-60 2,-25 7,-54 11,-65 5,-11 -8,-3 -29,20 -30,32 -33,34 -16,9 41,-63 72,-71 52,-13 -6,18 -11,47 -11,65 0,32 1,33 27,23 35,-13 116,-16 166,-6 32,7 37,6 37,-11 0,-10 -11,-28 -24,-40 -14,-11 -30,-40 -36,-64 -7,-24 -18,-53 -25,-65 -16,-23 -10,-24 36,-5 24,10 89,75 89,90 0,3 -16,-11 -37,-31 -36,-38 -73,-64 -73,-51 0,3 17,27 38,53 52,62 62,85 18,39 -20,-21 -36,-31 -36,-24 0,8 14,28 30,46 19,20 30,43 30,61 0,27 -1,28 -27,18 -34,-13 -116,-16 -165,-6 -33,7 -78,51 -64,64 2,3 34,-11 70,-30 l 66,-35 42,23 c 24,12 54,26 68,30 37,11 80,44 80,62 0,11 -5,9 -18,-8 -13,-15 -21,-19 -26,-11 -4,7 0,15 8,18 9,3 14,10 11,15 -6,8 11,90 25,124 5,11 9,27 9,35 0,8 8,44 18,80 17,61 20,65 44,62 20,-2 28,2 32,18 7,28 -17,37 -40,14 -17,-17 -19,-15 -32,49 -10,48 -23,78 -46,104 -30,35 -34,37 -59,25 -15,-6 -36,-12 -46,-12 -21,0 -27,-24 -10,-35 6,-3 10,-11 10,-18 0,-6 -11,1 -25,16 -30,31 -52,34 -72,10 -13,-17 -14,-16 -8,5 5,16 2,22 -9,22 -13,0 -12,4 5,21 11,11 19,30 17,42 -3,20 -8,22 -50,19 -40,-2 -47,0 -42,13 6,16 2,20 -9,8 z m 407,-278 c -4,-8 -13,-15 -21,-15 -13,0 -13,3 -3,15 7,8 16,15 21,15 5,0 6,-7 3,-15 z"
       id="path71" />
    <path
       d="m 8637.0859,2194.1865 c 0,-6 -7,-8 -16,-5 -21,8 -100,-28 -136,-62 -53,-49 -128,-289 -128,-409 0,-39 -4,-63 -12,-67 -21,-9 153,3 197,14 l 40,9 -46,-4 c -45,-4 -46,-4 -43,23 2,16 1,19 -2,7 -9,-31 -34,-45 -81,-45 h -43 v 64 c 0,116 69,336 123,394 26,28 89,62 114,62 15,0 18,-10 20,-75 2,-52 12,-101 33,-162 31,-92 38,-147 19,-159 -8,-4 -9,1 -4,16 5,15 4,20 -4,16 -6,-4 -11,-14 -11,-23 0,-11 -6,-14 -22,-8 -58,17 -62,16 -90,-25 -35,-51 -37,-76 -2,-29 14,19 29,40 33,46 5,10 14,10 37,1 17,-6 43,-8 57,-4 24,6 27,11 27,46 0,21 -12,71 -26,111 -31,85 -48,199 -34,231 7,18 9,8 9,-39 1,-41 12,-96 31,-156 17,-52 30,-115 30,-141 0,-33 4,-46 14,-46 24,0 28,33 21,214 -5,125 -4,175 4,180 6,4 11,4 10,-1 -1,-4 -1,-10 0,-13 1,-3 3,-98 4,-212 1,-150 5,-210 15,-220 22,-22 13,-27 -55,-31 l -68,-3 70,-2 c 52,-2 76,-8 95,-22 28,-22 48,-27 32,-7 -8,9 8,11 76,10 118,-4 612,-12 919,-15 139,-2 253.0001,-1 253.0001,2 0,10 -89,162 -114.0001,195 -29,37 -120,101 -168,117 -18,6 -40,17 -49,24 -8,8 -20,14 -25,14 -5,0 -1,-5 8,-11 13,-7 15,-14 8,-27 -8,-15 -50,-150 -81,-259 -7,-24 -16,-43 -20,-43 -6,0 5,47 38,151 2,9 0,20 -6,23 -13,8 -50,-63 -68,-129 l -13,-50 5,54 c 3,39 16,73 49,130 47,82 74,153 60,158 -5,2 -24,13 -43,26 -19,12 -49,30 -65,40 -31,17 -31,17 -9,-1 12,-11 19,-22 16,-26 -3,-3 0,-12 7,-21 8,-9 9,-15 2,-15 -6,0 -16,8 -21,18 -10,16 -10,16 -11,0 0,-36 -21,-28 -41,16 -23,53 -32,60 -19,15 11,-39 37,-79 51,-79 6,0 8,4 4,9 -9,15 13,23 34,11 24,-12 37,3 16,20 -8,7 -15,17 -15,23 0,5 8,3 18,-6 9,-8 29,-20 45,-26 15,-6 27,-14 27,-18 0,-7 -25,-56 -92,-184 -10,-20 -21,-58 -24,-85 l -6,-49 -362,3 c -198,2 -377,8 -397,13 -56,14 -63,38 -66,239 -2,96 0,181 5,188 16,23 39,2 48,-45 6,-32 17,-51 34,-61 l 25,-16 -24,26 c -14,17 -25,44 -28,73 -4,33 -11,49 -27,57 -11,6 -34,22 -49,34 -21,17 -41,24 -73,24 -25,0 -44,-5 -44,-11 z m 95,-206 c 4,-126 2,-194 -5,-198 -6,-4 -10,10 -10,36 0,23 -13,84 -30,136 -21,64 -30,113 -30,159 v 65 l 35,-3 35,-3 z m 1161,-79 c 60,-40 100,-88 153.0001,-185 l 32,-59 h -200.0001 c -111,0 -201,3 -201,6 0,11 39,142 67,226 l 26,77 33,-14 c 19,-8 59,-31 90,-51 z m -225,-145 c -12,-34 -21,-68 -21,-75 0,-7 -5,-16 -12,-20 -17,-11 -2,67 24,121 12,24 23,43 25,41 3,-2 -5,-32 -16,-67 z"
       id="path79" />
  </g>
  <g
     inkscape:groupmode="layer"
     id="layer4"
     inkscape:label="2"
     style="display:inline">
    <path
       style="fill:#000000;stroke-width:3.46016"
       id="path3126"
       d="m 228.30679,527.09494 c 3.58272,-2.99868 7.08439,-6.17194 10.56967,-9.36592 4.37875,-4.18597 7.50409,-10.00659 11.24551,-15.02364 3.02761,-4.35481 6.45219,-8.09 10.25917,-11.21902 2.80364,-2.85287 5.87528,-5.13561 9.11016,-7.04058 2.13811,-1.20196 4.35115,-2.18695 6.47465,-3.4342 3.36146,-1.72292 6.46252,-4.14526 9.64795,-6.33521 2.52807,-1.80382 4.54627,-4.49368 6.64824,-7.00633 2.18938,-2.45285 4.06645,-5.31156 5.8158,-8.28988 1.91017,-3.01404 3.14505,-6.58596 4.80392,-9.82007 1.21153,-2.25245 2.88316,-3.41133 4.86373,-4.1299 0,0 -2.95809,-0.49549 -2.95809,-0.49549 v 0 c -1.99575,0.81598 -3.66284,2.09469 -4.8677,4.39984 -1.64249,3.23569 -2.88072,6.79709 -4.79724,9.79335 -1.76207,2.94755 -3.63249,5.79042 -5.82187,8.22297 -2.0868,2.48809 -4.09375,5.14971 -6.61365,6.91181 -3.18875,2.19721 -6.30195,4.60088 -9.67615,6.30407 -2.13596,1.20633 -4.33444,2.22403 -6.46797,3.44046 -3.21942,1.94915 -6.26586,4.27318 -9.08532,7.09613 -3.80637,3.15106 -7.19785,6.9632 -10.23578,11.31254 -3.71136,5.03194 -6.85733,10.81311 -11.24733,14.95121 -3.49439,3.19651 -7.00212,6.39554 -10.64186,9.29833 0,0 2.9742,0.42974 2.97416,0.42974 z" />
    <path
       style="fill:#000000;stroke-width:3.46016"
       id="path3128"
       d="m 438.49301,464.10833 c 2.77661,1.11727 5.49527,2.43922 8.16752,3.92628 2.84338,1.58031 5.86431,2.60575 8.70619,4.16419 2.4868,1.48927 5.03126,2.83804 7.67555,3.77469 2.90018,1.05878 5.8094,2.07113 8.71202,3.11755 2.97569,1.04038 5.99299,1.89392 9.02332,2.61975 3.00272,0.62 5.23155,0.3682 7.90166,2.45022 1.6959,1.84637 0.87559,0.83518 2.44673,3.05301 0,0 2.94236,-0.28193 2.94236,-0.28193 v 0 c -1.56633,-2.28364 -0.74812,-1.23669 -2.44099,-3.15917 -2.69985,-2.30925 -4.81396,-1.99501 -7.91987,-2.59523 -3.02972,-0.70611 -6.04095,-1.57269 -9.01818,-2.58435 -2.89469,-1.06547 -5.80791,-2.04188 -8.69895,-3.12523 -2.64915,-0.88916 -5.193,-2.22409 -7.67284,-3.71573 -2.8097,-1.64975 -5.88555,-2.54779 -8.71865,-4.16393 -2.65372,-1.50326 -5.35721,-2.84545 -8.12625,-3.94322 0,0 -2.97966,0.46341 -2.97966,0.46341 z" />
    <path
       style="fill:#000000;stroke-width:3.46016"
       id="path3130"
       d="m 446.83077,464.67567 c -2.83488,0.0579 -5.65038,0.0715 -8.46583,-0.38556 0,0 -2.93568,0.55451 -2.93568,0.55451 v 0 c 2.80607,0.48234 5.60635,0.51338 8.4352,0.44132 0,0 2.96631,-0.61069 2.96631,-0.61069 z" />
    <path
       style="fill:#000000;stroke-width:3.46016"
       id="path3132"
       d="m 575.6328,523.16177 c -2.69321,1.35161 -5.56572,1.8349 -8.42124,2.17833 -1.54415,0.14885 -3.09228,0.20724 -4.63947,0.27509 -0.27597,0.0105 -0.99787,-0.21092 -0.82367,0.0663 0.14284,0.22776 0.33546,0.3945 0.50347,0.59149 2.1918,0.002 1.77056,0.002 5.33507,-0.003 0.56113,-7.4e-4 1.1302,-0.1294 1.68315,-0.004 0.33425,0.0752 -0.67346,0.10415 -1.01001,0.15675 0.63915,0.13045 1.2783,0.26142 1.91745,0.3924 0,0 2.91383,-0.53684 2.91383,-0.53684 v 0 c -2.79729,-0.62394 -5.60243,-0.64041 -8.43735,-0.61048 -0.51714,0.004 1.0349,0.002 1.55237,-10e-5 0.32656,-0.001 -0.65282,-0.001 -0.97938,-0.002 -0.16105,0.19252 -0.33262,0.36768 -0.47891,0.57713 -0.17319,0.24617 0.5108,-0.0263 0.76601,-0.0368 1.54234,-0.0784 3.0856,-0.13992 4.62458,-0.3014 2.87709,-0.37188 5.76421,-0.90083 8.47376,-2.28037 0,0 -2.97966,-0.46341 -2.97966,-0.46341 z" />
    <path
       style="fill:#000000;stroke-width:3.46016"
       id="path3134"
       d="m 322.99082,25.235276 c -3.33778,1.62366 -6.11261,4.693506 -8.75026,7.728479 -2.63822,3.137859 -5.56143,5.799792 -8.55142,8.333644 -2.85187,2.569199 -6.12806,4.119744 -9.18999,6.206758 -3.05643,1.360765 -5.64216,3.823659 -8.40481,5.897944 -2.34084,1.941943 -4.66739,3.902138 -7.01398,5.834823 -1.61335,1.187868 -0.79906,0.641353 -2.44066,1.644963 0,0 2.95235,0.432899 2.95235,0.432899 v 0 c 1.64038,-1.041061 0.8261,-0.479187 2.44066,-1.689936 2.35144,-1.92064 4.66193,-3.91371 7.01912,-5.821358 2.73808,-2.114155 5.35538,-4.473901 8.38575,-5.881585 3.06856,-2.070234 6.342,-3.645239 9.18117,-6.246208 2.98966,-2.559416 5.92655,-5.219403 8.56024,-8.387296 2.63793,-3.007095 5.40665,-6.063423 8.77571,-7.552585 0,0 -2.96388,-0.500752 -2.96388,-0.500752 z" />
    <path
       style="fill:#000000;stroke-width:3.46016"
       id="path3136"
       d="m 102.10844,701.90078 c 3.39609,0.0884 6.74779,0.0784 10.105,-0.62194 5.50016,-1.5031 10.79121,-3.98356 16.13959,-6.1752 3.04615,-1.62403 6.28653,-2.29746 9.45949,-3.30339 2.50683,-0.96269 5.0956,-1.23089 7.69137,-1.39806 3.12198,-0.55929 6.24428,-1.05684 9.38937,-1.33599 0.47251,-0.0316 0.94474,-0.0642 1.41758,-0.0942 0.57695,-0.0368 1.15662,-0.0263 1.7311,-0.10625 0.82185,-0.11415 -0.3658,-0.6383 -1.05007,-0.64693 -4.48101,-0.003 -8.96206,0.004 -13.44306,0.005 -2.95086,0.35347 -5.90288,0.78174 -8.75905,1.82985 -2.97238,1.16783 -6.01941,1.89797 -9.10498,2.29589 -2.80335,0.53642 -5.573,1.24136 -8.28074,2.33234 -2.85462,1.18871 -5.68889,2.45669 -8.56052,3.57649 -2.62672,0.99798 -5.34627,1.3524 -8.06829,1.5173 -1.438546,0.0663 -2.878302,0.0794 -4.317734,0.0868 -0.484087,0.002 -1.936266,-0.004 -1.452219,0.003 0.512614,0.005 1.025512,0.0105 1.53841,-0.002 0.442771,-0.0105 -0.88619,-0.002 -1.329286,-0.003 -0.469519,-10e-4 -0.939321,-0.003 -1.409123,-0.004 0,0 -2.931996,0.6028 -2.931996,0.6028 v 0 c 0.468589,0.002 0.937177,0.003 1.405765,0.004 3.810902,0.005 7.623949,0.0531 11.433353,-0.10363 2.72595,-0.18883 5.44582,-0.58428 8.07073,-1.61214 2.86705,-1.141 5.70561,-2.39278 8.56205,-3.57628 2.71138,-1.04553 5.47739,-1.76136 8.27981,-2.25791 3.08374,-0.43132 6.12471,-1.20265 9.09891,-2.3609 2.85495,-0.98426 5.79941,-1.43299 8.74144,-1.72976 2.50529,-0.003 5.0109,-0.0105 7.51652,-0.005 0.41549,7.4e-4 -1.6607,-0.0421 -1.24642,10e-4 0.43003,0.0473 0.86341,0.003 1.29497,0.004 0.80729,0.004 0.70989,0.26615 1.10382,-0.54142 0,-4.7e-4 -0.33101,0.005 -1.75721,0.10415 -0.47162,0.0316 -0.94325,0.0679 -1.41459,0.10152 -3.14383,0.29614 -6.26221,0.82882 -9.38936,1.32889 -2.60362,0.1841 -5.193,0.50338 -7.70711,1.46602 -3.17361,0.96042 -6.37511,1.76415 -9.42093,3.33858 -5.33535,2.22424 -10.62672,4.70292 -16.13838,6.1157 -3.37541,0.64751 -6.75022,0.63468 -10.158413,0.55199 0,0 2.960243,0.60942 2.960243,0.60942 z" />
    <circle
       id="path3138"
       style="fill:#000000;stroke:#000000;stroke-width:0.75"
       cx="695.45453"
       cy="566.57471"
       r="0.0068924516" />
    <circle
       id="path3140"
       style="fill:#000000;stroke:#000000;stroke-width:0.75"
       cx="695.45453"
       cy="566.57471"
       r="0.0068924516" />
    <ellipse
       id="path3142"
       style="fill:#000000;stroke:#000000;stroke-width:3.46016"
       cx="414.74683"
       cy="604.33704"
       rx="0.22312419"
       ry="0.29003489" />
    <ellipse
       id="path3144"
       style="fill:#000000;stroke:#000000;stroke-width:3.46016"
       cx="414.74683"
       cy="604.33704"
       rx="0.22312419"
       ry="0.29003489" />
  </g>
</svg>
