<?xml version="1.0" standalone="no"?>
<!DOCTYPE svg PUBLIC "-//W3C//DTD SVG 20010904//EN"
 "http://www.w3.org/TR/2001/REC-SVG-20010904/DTD/svg10.dtd">
<svg version="1.0" xmlns="http://www.w3.org/2000/svg"
 width="1800.000000pt" height="720.000000pt" viewBox="0 0 1800.000000 720.000000"
 preserveAspectRatio="xMidYMid meet">
<metadata>
Created by potrace 1.16, written by Peter Selinger 2001-2019
</metadata>
<g transform="translate(0.000000,720.000000) scale(0.060241,-0.024725)"
fill="#000000" stroke="none">
<path d="M13383 28840 c-12 -5 -40 -34 -63 -64 -22 -31 -44 -56 -49 -56 -4 0
-19 -15 -32 -34 -13 -18 -73 -74 -134 -123 -65 -53 -134 -121 -167 -164 -101
-129 -141 -179 -208 -252 -36 -40 -74 -83 -85 -97 -29 -37 -101 -92 -170 -130
-33 -18 -73 -44 -90 -58 -42 -35 -103 -59 -171 -67 -90 -10 -175 -55 -258
-134 -79 -76 -128 -105 -197 -115 -47 -7 -118 -46 -177 -97 -18 -16 -61 -43
-95 -59 -34 -17 -84 -46 -112 -65 -27 -19 -78 -44 -113 -56 -34 -11 -75 -31
-90 -43 -53 -43 -128 -93 -197 -131 -38 -21 -83 -49 -100 -61 -16 -12 -73 -42
-125 -68 -53 -25 -131 -74 -175 -110 -44 -35 -103 -75 -131 -89 -28 -14 -66
-42 -83 -63 -50 -57 -42 -111 41 -284 36 -75 73 -165 82 -200 9 -35 22 -70 29
-78 6 -8 23 -37 37 -66 22 -44 33 -55 89 -83 l64 -33 638 0 c350 0 644 -3 653
-6 14 -5 16 -35 16 -230 l0 -224 -38 -43 c-21 -23 -52 -62 -69 -87 -17 -25
-69 -80 -117 -123 -65 -59 -93 -93 -116 -140 -44 -91 -29 -77 -245 -226 -44
-31 -112 -86 -150 -123 -46 -43 -88 -73 -120 -85 -28 -11 -69 -33 -93 -50 -24
-18 -56 -34 -71 -38 -26 -5 -93 -56 -148 -112 -12 -12 -42 -31 -68 -42 -26
-11 -74 -43 -107 -71 -34 -28 -80 -61 -102 -72 -74 -37 -131 -93 -145 -140 -7
-24 -29 -60 -49 -81 l-37 -38 -6 -182 c-4 -154 -9 -191 -27 -242 -27 -73 -92
-292 -92 -309 0 -12 -25 -97 -56 -194 -9 -28 -14 -92 -14 -190 0 -101 -5 -162
-15 -196 -12 -41 -15 -134 -15 -540 0 -322 4 -503 11 -526 6 -19 14 -66 19
-104 5 -46 15 -78 31 -99 14 -19 28 -60 36 -106 9 -54 22 -89 47 -126 19 -29
48 -78 65 -111 48 -91 113 -197 149 -244 29 -39 38 -61 56 -140 3 -14 21 -49
40 -79 22 -33 37 -72 41 -100 3 -25 21 -77 39 -116 50 -102 96 -210 96 -224 0
-15 63 -139 95 -186 21 -31 25 -49 25 -107 0 -49 6 -80 19 -106 29 -56 94
-120 127 -127 16 -3 47 -10 69 -16 63 -18 165 -22 222 -9 51 11 145 65 213
122 19 16 58 46 87 66 28 21 137 120 243 221 167 161 196 193 227 255 20 39
46 85 59 102 13 17 30 49 38 72 9 23 26 57 40 75 13 17 48 77 77 132 29 55 62
114 74 130 45 62 145 264 151 306 6 37 65 172 109 249 8 14 15 34 15 44 0 11
13 42 29 70 31 56 113 257 130 321 6 22 25 63 42 90 18 28 64 116 103 197 156
321 168 343 227 410 29 33 65 77 80 98 44 60 96 96 172 119 61 18 98 21 247
21 123 0 191 5 230 15 45 12 139 15 494 15 l440 0 168 -90 c92 -49 180 -93
194 -96 14 -4 69 -40 122 -81 187 -143 277 -210 317 -235 22 -14 54 -40 70
-58 17 -17 56 -47 87 -66 31 -19 70 -52 86 -72 32 -41 102 -171 102 -190 0 -7
11 -35 25 -63 14 -27 30 -73 35 -101 6 -29 21 -69 35 -88 24 -35 25 -41 25
-216 l0 -179 -97 -95 c-73 -71 -111 -100 -148 -114 -114 -43 -211 -101 -320
-191 -54 -46 -144 -105 -272 -181 -46 -27 -124 -88 -175 -135 -76 -70 -113
-95 -198 -136 -76 -38 -124 -69 -175 -116 -39 -36 -102 -80 -141 -100 -38 -19
-76 -43 -84 -52 -8 -9 -34 -30 -59 -47 -25 -17 -59 -44 -76 -59 -16 -15 -57
-40 -90 -54 -32 -15 -75 -39 -95 -54 -81 -62 -280 -163 -418 -212 -30 -10
-106 -54 -170 -97 -113 -76 -317 -193 -394 -225 -44 -19 -277 -172 -351 -231
-29 -23 -63 -49 -77 -57 -14 -9 -55 -43 -91 -75 -36 -33 -97 -81 -135 -109
-92 -68 -181 -160 -195 -204 -7 -20 -23 -52 -35 -71 -26 -39 -64 -142 -64
-174 0 -12 -14 -48 -30 -81 l-30 -60 0 -250 c0 -277 9 -332 68 -418 16 -23 46
-69 68 -102 21 -33 53 -77 71 -98 18 -20 33 -42 33 -48 0 -5 62 -74 138 -152
112 -115 147 -158 180 -222 33 -63 70 -110 171 -216 84 -88 136 -151 147 -178
17 -43 54 -71 94 -71 12 0 50 16 84 35 82 46 198 75 297 75 44 0 95 6 116 14
21 8 75 22 121 31 46 9 100 23 120 32 82 34 225 104 252 123 16 12 52 28 79
36 27 8 96 36 153 63 57 26 115 51 129 54 14 4 41 17 60 30 19 12 55 30 80 40
40 15 66 30 167 99 13 9 40 19 59 23 19 3 64 26 100 51 36 25 88 56 116 70 27
14 67 39 90 55 22 16 45 29 50 29 6 0 64 29 128 65 65 36 126 65 136 65 10 0
45 13 78 28 33 16 87 32 120 36 33 3 87 19 121 35 33 15 82 31 110 35 57 9
232 58 319 90 33 13 80 26 105 30 78 11 237 67 297 103 32 19 74 41 93 48 20
7 72 31 116 53 44 22 136 63 204 92 69 28 150 65 180 82 59 33 158 77 260 114
85 31 173 78 235 124 28 21 64 44 80 53 17 8 58 39 91 69 113 98 209 173 267
208 62 37 179 160 228 239 15 25 48 63 73 84 25 21 65 66 88 100 23 34 59 82
81 107 21 25 55 72 74 105 19 33 61 87 92 120 54 56 146 199 187 290 27 59 71
124 124 180 40 43 53 71 103 207 31 87 61 184 66 215 5 32 28 111 50 176 23
65 41 137 41 160 1 23 5 62 11 87 5 25 16 92 24 150 8 58 19 125 25 150 5 25
9 70 10 100 0 30 7 87 15 125 12 59 15 238 15 1190 0 711 -4 1135 -10 1160 -6
22 -17 78 -26 125 -9 47 -19 105 -24 130 -5 25 -9 73 -9 108 -1 48 -8 81 -31
132 -16 38 -30 82 -30 100 0 35 -20 79 -46 101 -53 43 -182 291 -203 389 -7
30 -20 69 -30 86 -38 63 -61 189 -61 325 0 134 -27 277 -66 350 -15 28 -20 68
-25 224 -3 105 -11 208 -17 230 -6 22 -20 85 -32 140 -12 55 -34 143 -50 195
-15 52 -31 107 -34 121 -14 66 -231 289 -330 341 -22 11 -63 36 -92 55 -34 22
-86 43 -146 59 -51 13 -104 29 -118 34 -16 7 -140 11 -315 11 -231 1 -301 -2
-345 -14 -30 -9 -72 -18 -92 -22 -23 -3 -55 -21 -84 -46 -25 -21 -60 -46 -77
-55 -18 -9 -63 -40 -102 -69 -38 -29 -89 -61 -112 -70 -60 -24 -174 -154 -218
-247 -19 -40 -43 -86 -54 -103 -11 -16 -23 -54 -26 -85 -4 -30 -13 -72 -21
-93 -20 -54 -17 -192 7 -332 24 -132 61 -221 103 -249 14 -9 29 -29 32 -44 4
-15 20 -51 36 -79 16 -29 27 -57 23 -63 -8 -13 -106 -13 -141 0 -88 34 -243
216 -294 345 -13 33 -27 65 -31 71 -5 6 -24 53 -43 105 -70 193 -152 298 -280
360 l-80 39 -201 0 c-275 0 -260 6 -456 -187 l-156 -153 -63 0 c-84 0 -162 26
-201 66 -41 43 -68 150 -75 309 -4 67 -12 131 -19 145 -26 50 -86 109 -123
121 -39 12 -72 36 -72 52 0 5 30 41 66 80 36 39 83 101 104 137 21 36 48 74
60 85 12 11 34 44 47 72 14 29 42 72 63 95 20 24 45 58 54 76 20 39 66 176 66
197 0 7 13 24 30 37 25 20 31 33 39 93 6 39 11 95 11 125 0 30 7 91 15 135 8
44 15 107 15 140 0 42 8 75 25 110 16 32 25 67 25 98 0 27 7 73 16 103 12 41
15 88 12 189 -3 151 -7 160 -74 175 -21 5 -249 10 -505 10 -432 0 -471 -1
-540 -20 -41 -11 -87 -20 -102 -20 -15 0 -54 -11 -87 -25 -33 -14 -83 -30
-112 -36 -29 -6 -79 -22 -111 -36 -44 -18 -73 -23 -115 -21 l-57 3 -5 176 c-6
208 -11 219 -89 218 -25 0 -56 -4 -68 -9z m61 -127 c3 -21 5 -100 5 -176 0
-179 -2 -177 133 -177 82 0 109 4 159 25 33 13 84 29 112 34 29 5 77 21 107
35 30 14 72 26 92 26 21 0 57 7 82 15 37 13 119 15 533 13 l488 -3 3 -99 c2
-67 -2 -115 -13 -151 -8 -29 -15 -72 -15 -95 0 -25 -13 -70 -31 -112 -33 -76
-51 -170 -70 -363 -8 -75 -19 -134 -30 -157 -10 -20 -21 -56 -25 -80 -9 -68
-53 -194 -80 -230 -13 -18 -42 -60 -63 -93 -22 -33 -49 -73 -60 -90 -11 -16
-38 -57 -60 -90 -72 -108 -105 -148 -156 -188 -68 -53 -80 -78 -60 -120 27
-58 71 -103 113 -115 24 -7 54 -28 76 -52 36 -40 36 -40 36 -133 0 -63 8 -128
26 -207 23 -104 29 -119 67 -160 23 -25 48 -50 57 -55 38 -27 130 -45 225 -45
l98 0 161 159 c128 126 169 161 201 170 22 6 119 11 216 11 l176 0 59 -31 c66
-35 123 -89 149 -140 10 -19 23 -41 30 -49 8 -8 29 -55 48 -105 109 -282 195
-421 324 -523 88 -70 133 -86 251 -86 77 -1 85 1 104 24 28 35 22 132 -11 178
-12 18 -27 49 -33 68 -5 20 -27 55 -47 78 -51 55 -64 85 -85 186 -26 128 -10
397 27 465 6 11 28 55 49 98 46 95 127 190 184 216 23 11 70 42 105 68 35 27
87 62 114 77 28 16 64 42 81 58 55 52 135 63 464 63 281 0 287 -1 385 -28 55
-15 120 -41 145 -57 25 -16 65 -40 90 -54 71 -38 179 -135 242 -216 32 -41 58
-79 58 -84 0 -5 13 -53 29 -105 16 -53 34 -121 40 -151 6 -30 19 -84 27 -120
10 -40 19 -141 23 -260 7 -186 8 -198 38 -270 47 -117 63 -203 63 -348 0 -85
5 -145 15 -178 8 -27 15 -58 15 -69 0 -11 13 -45 29 -75 15 -30 32 -73 35 -95
15 -85 160 -362 222 -424 16 -16 24 -35 24 -60 0 -20 13 -63 28 -96 23 -49 30
-79 35 -160 3 -55 10 -116 16 -135 5 -19 18 -78 27 -130 17 -87 18 -189 18
-1220 0 -911 -2 -1135 -13 -1175 -7 -27 -17 -95 -21 -150 -11 -124 -26 -240
-45 -326 -8 -37 -15 -87 -15 -111 0 -25 -17 -95 -41 -163 -22 -66 -45 -146
-50 -178 -5 -32 -33 -122 -61 -200 -47 -128 -57 -147 -103 -194 -34 -34 -70
-89 -110 -165 -83 -161 -130 -234 -195 -303 -31 -33 -70 -85 -88 -116 -17 -31
-49 -76 -70 -100 -21 -24 -57 -71 -80 -105 -22 -34 -64 -80 -92 -104 -28 -23
-57 -55 -66 -71 -33 -65 -162 -205 -215 -234 -51 -27 -136 -94 -273 -214 -33
-29 -79 -62 -101 -73 -22 -11 -51 -30 -65 -43 -33 -29 -147 -90 -213 -114 -94
-34 -181 -71 -257 -111 -41 -21 -136 -64 -210 -95 -74 -31 -164 -72 -200 -90
-36 -18 -76 -36 -90 -40 -14 -4 -55 -25 -91 -46 -71 -43 -212 -94 -287 -105
-26 -3 -75 -17 -110 -30 -92 -34 -260 -82 -330 -93 -33 -5 -82 -21 -108 -34
-27 -13 -76 -28 -109 -32 -33 -4 -89 -19 -125 -35 -36 -15 -78 -30 -93 -34
-15 -4 -65 -27 -110 -52 -45 -26 -113 -63 -152 -83 -125 -67 -216 -120 -266
-156 -27 -19 -71 -40 -97 -46 -32 -6 -66 -25 -102 -54 -33 -27 -80 -53 -117
-66 -34 -11 -67 -26 -73 -34 -7 -8 -35 -23 -63 -34 -29 -10 -96 -40 -150 -65
-55 -25 -118 -51 -140 -56 -23 -6 -55 -21 -71 -32 -41 -29 -211 -112 -271
-131 -27 -9 -86 -24 -129 -32 -44 -9 -107 -31 -140 -48 l-61 -32 -185 -3 -185
-4 -142 148 c-115 120 -149 162 -180 223 -31 61 -63 102 -165 206 -129 133
-140 147 -271 340 -105 156 -107 164 -107 433 l0 224 30 68 c17 38 30 77 30
88 0 31 28 102 60 152 16 25 32 58 35 73 8 29 107 125 222 214 34 26 89 71
122 98 161 135 353 264 511 344 138 70 222 119 350 205 58 38 132 80 165 92
116 43 400 186 437 221 13 12 49 33 81 47 31 14 78 43 105 65 95 81 138 111
207 147 39 20 101 66 139 102 53 50 94 77 175 115 82 39 122 65 176 116 103
97 147 130 275 205 63 38 147 94 185 126 100 82 217 156 278 175 28 10 70 29
92 43 53 33 213 189 233 227 12 23 17 67 20 178 5 183 -2 245 -34 292 -14 20
-29 60 -35 88 -6 29 -19 66 -29 82 -10 17 -23 48 -30 70 -17 56 -96 200 -131
240 -16 18 -53 48 -82 66 -28 18 -72 51 -97 75 -25 23 -64 53 -87 68 -43 26
-155 110 -305 228 -47 38 -105 75 -128 83 -22 8 -98 46 -168 83 -234 128 -160
115 -677 114 -374 0 -461 -3 -515 -16 -46 -11 -115 -16 -235 -16 -176 0 -253
-13 -333 -54 -43 -22 -100 -73 -133 -119 -15 -21 -53 -65 -83 -98 -30 -33 -68
-89 -85 -125 -17 -36 -39 -77 -49 -92 -10 -15 -27 -49 -37 -77 -19 -53 -103
-218 -166 -325 -20 -36 -45 -92 -55 -125 -21 -77 -76 -209 -120 -292 -19 -36
-34 -72 -34 -82 0 -9 -11 -32 -24 -51 -12 -19 -29 -53 -36 -75 -7 -22 -24 -60
-37 -84 -12 -24 -23 -57 -23 -73 0 -28 -113 -257 -155 -313 -13 -16 -42 -68
-65 -115 -23 -47 -53 -100 -67 -118 -13 -18 -36 -58 -49 -90 -14 -31 -36 -71
-49 -88 -13 -17 -36 -56 -50 -86 -19 -39 -55 -84 -128 -154 -193 -188 -317
-299 -355 -318 -20 -10 -53 -35 -72 -55 -80 -81 -200 -119 -280 -87 -22 9 -56
16 -76 16 -27 0 -44 9 -76 39 l-42 38 -6 96 c-4 67 -11 102 -22 114 -28 31
-95 156 -103 192 -8 36 -49 134 -94 221 -16 30 -31 75 -35 100 -4 25 -23 74
-43 110 -19 36 -42 90 -50 120 -7 30 -31 79 -51 109 -49 72 -105 163 -142 233
-16 31 -47 84 -68 117 -31 47 -40 73 -46 122 -4 41 -14 76 -30 100 -13 20 -27
58 -31 85 -4 27 -13 71 -21 98 -21 75 -20 972 1 1042 10 32 15 94 15 179 1 72
5 148 10 170 20 92 88 337 156 559 21 68 24 98 24 227 l0 148 30 35 c17 18 39
54 50 79 20 45 92 117 116 117 7 0 46 26 86 59 40 32 98 71 128 86 30 15 80
51 110 80 30 28 73 58 94 65 22 7 59 28 83 46 24 18 63 39 85 46 29 8 68 37
123 88 45 41 146 121 226 177 146 101 146 102 187 181 33 64 58 94 127 157 48
43 101 101 119 129 18 28 46 62 61 76 54 50 55 58 55 345 0 252 -1 266 -20
285 -20 20 -33 20 -685 20 -646 0 -667 1 -705 20 -28 14 -44 32 -58 64 -11 24
-25 46 -31 50 -6 4 -20 39 -32 79 -12 40 -40 110 -64 157 -23 47 -52 111 -65
142 -21 52 -22 59 -8 80 9 13 43 39 77 56 33 18 86 55 118 82 32 27 108 75
168 106 61 31 128 69 150 84 22 15 60 38 85 50 25 13 83 50 129 82 46 33 100
66 120 73 56 20 164 75 186 96 12 10 52 34 90 53 39 18 79 44 90 56 31 34 94
67 153 79 79 16 127 45 214 128 87 83 123 102 218 114 73 9 161 44 206 82 16
14 59 42 94 63 81 47 150 101 186 145 15 19 55 64 88 100 61 66 97 110 206
249 36 47 100 109 167 163 59 48 139 123 177 167 37 44 72 80 76 80 5 0 11
-17 14 -37z"/>
</g>
</svg>
