<?xml version="1.0" standalone="no"?>
<!DOCTYPE svg PUBLIC "-//W3C//DTD SVG 20010904//EN"
 "http://www.w3.org/TR/2001/REC-SVG-20010904/DTD/svg10.dtd">
<svg version="1.0" xmlns="http://www.w3.org/2000/svg"
 width="1800.000000pt" height="720.000000pt" viewBox="0 0 1800.000000 720.000000"
 preserveAspectRatio="xMidYMid meet">

<g transform="translate(0.000000,720.000000) scale(0.100000,-0.100000)"
fill="#000000" stroke="none">
<path d="M9081 4776 c12 -20 23 -36 25 -36 7 0 -25 58 -36 65 -5 3 -1 -10 11
-29z"/>
<path d="M9057 4770 c3 -10 12 -25 21 -32 13 -11 12 -8 -2 20 -19 36 -27 41
-19 12z"/>
<path d="M8900 4713 c-8 -3 -25 -15 -37 -26 -24 -22 -29 -71 -13 -132 5 -19 6
-5 3 36 -5 64 -5 66 27 92 17 15 35 27 40 27 4 0 11 -19 15 -42 4 -23 14 -58
21 -78 8 -19 12 -24 9 -10 -3 14 -11 51 -17 83 -11 55 -17 61 -48 50z"/>
<path d="M9000 4648 c0 -9 10 -28 21 -43 18 -22 20 -29 8 -36 -11 -7 -11 -9 4
-9 24 0 21 23 -8 66 -14 20 -25 30 -25 22z"/>
<path d="M8816 4634 c-3 -9 -6 -42 -6 -75 0 -64 4 -67 58 -48 36 13 68 -1 82
-34 l9 -22 0 21 c2 42 -47 58 -113 39 l-28 -8 4 72 c2 39 3 71 2 71 -1 0 -5
-7 -8 -16z"/>
<path d="M8983 4605 c0 -22 2 -30 4 -17 2 12 2 30 0 40 -3 9 -5 -1 -4 -23z"/>
<path d="M8997 4563 c-4 -3 -7 -13 -7 -21 0 -12 9 -13 45 -9 37 6 47 4 52 -10
4 -10 -2 -23 -15 -34 -25 -20 -30 -52 -7 -43 11 4 13 2 9 -9 -8 -22 12 -30 29
-12 23 22 32 19 67 -22 17 -21 28 -32 24 -24 -5 11 -3 13 10 8 16 -6 15 -3 -3
26 l-20 33 40 11 c39 10 41 9 69 -25 45 -54 61 -156 39 -236 -13 -48 -51 -85
-121 -120 -29 -14 -46 -26 -38 -26 7 0 42 16 77 35 40 22 63 30 63 22 0 -7 -4
-17 -8 -23 -11 -11 -36 -124 -29 -130 2 -2 10 24 17 58 7 35 17 68 21 73 4 6
8 20 8 30 0 11 8 48 18 82 15 54 16 71 5 135 -9 53 -20 82 -41 108 -29 35 -35
37 -98 24 -32 -6 -44 -26 -23 -39 6 -3 10 -11 10 -18 0 -6 -11 1 -25 16 -30
31 -52 34 -72 10 -13 -17 -14 -16 -8 5 5 16 2 22 -9 22 -13 0 -12 4 5 21 11
11 19 30 17 42 -3 20 -8 22 -50 19 -40 -2 -47 0 -42 13 6 16 2 20 -9 8z"/>
<path d="M9124 4533 c15 -4 16 -7 5 -14 -11 -7 -11 -9 4 -9 9 0 17 7 17 15 0
9 -9 15 -22 14 -20 -1 -20 -2 -4 -6z"/>
<path d="M8848 4488 c-35 -9 -38 -13 -38 -44 0 -37 14 -43 51 -23 11 5 30 9
42 7 18 -3 10 -12 -45 -47 -37 -23 -70 -51 -73 -61 -12 -39 48 -205 92 -255
23 -25 68 -55 85 -55 7 0 -2 9 -21 21 -48 29 -68 54 -107 137 -41 87 -42 98
-9 106 19 5 25 12 24 34 l-1 27 -7 -25 c-9 -34 -49 -41 -46 -8 4 36 4 38 15
38 5 0 34 16 65 35 84 54 67 82 -32 50 -20 -6 -23 -4 -23 18 0 22 7 28 48 40
53 17 37 20 -20 5z"/>
<path d="M8885 4348 c4 -9 3 -23 -1 -29 -5 -9 -10 -7 -15 7 -7 17 -8 17 -8 -3
-1 -14 5 -23 13 -23 19 0 31 39 16 54 -8 8 -10 7 -5 -6z"/>
<path d="M9010 4345 c0 -16 -39 -36 -52 -28 -17 9 -7 21 15 16 18 -4 19 -3 7
6 -23 16 -40 13 -40 -8 0 -27 28 -34 57 -15 18 11 28 13 36 5 14 -14 54 -14
62 -1 4 6 -5 7 -23 4 -19 -4 -32 -1 -41 10 -8 10 -9 16 -3 16 6 0 14 -4 17
-10 3 -5 11 -10 17 -10 7 0 6 6 -2 15 -16 20 -50 19 -50 0z"/>
<path d="M9373 4295 c-20 -22 -15 -35 11 -35 15 0 26 7 29 19 8 33 -17 43 -40
16z m31 -10 c-4 -8 -13 -15 -21 -15 -13 0 -13 3 -3 15 7 8 16 15 21 15 5 0 6
-7 3 -15z"/>
<path d="M8963 4275 c-20 -14 -43 -69 -43 -102 0 -8 12 -13 28 -13 15 0 34 -6
42 -12 12 -11 12 -10 1 5 -7 9 -25 17 -38 17 -22 0 -24 3 -18 33 17 78 80 98
157 50 l43 -27 -58 -29 c-32 -16 -56 -31 -54 -33 7 -7 126 50 127 61 0 17 -96
65 -132 65 -18 0 -43 -7 -55 -15z"/>
<path d="M9034 4145 c-24 -18 -7 -19 26 0 16 9 19 14 9 15 -8 0 -24 -7 -35
-15z"/>
<path d="M8941 3969 c-1 -32 25 -56 111 -101 l68 -36 42 23 c24 12 54 26 68
30 38 12 80 44 80 63 0 13 -3 12 -16 -6 -8 -12 -20 -20 -25 -17 -5 4 -9 1 -9
-5 0 -6 -17 -18 -37 -26 -21 -8 -52 -21 -69 -30 -30 -15 -34 -14 -100 19 -73
37 -99 59 -107 92 -4 16 -5 15 -6 -6z"/>
<path d="M8970 3865 c0 -12 52 -36 98 -45 55 -10 147 1 167 21 6 6 -2 6 -20
-1 -51 -21 -158 -16 -204 8 -23 12 -41 20 -41 17z"/>
<path d="M8530 3780 c0 -50 8 -96 30 -163 17 -52 30 -115 30 -141 0 -34 4 -46
15 -46 20 0 19 -5 20 222 l0 198 -47 0 -48 0 0 -70z m88 -134 c1 -123 -2 -197
-8 -201 -6 -4 -10 10 -10 36 0 23 -13 84 -30 136 -21 64 -30 114 -30 158 l0
65 38 0 37 0 3 -194z"/>
<path d="M8425 3821 c-22 -10 -50 -29 -62 -42 -50 -55 -110 -247 -123 -394 -5
-55 -12 -126 -16 -158 -7 -56 -6 -59 27 -93 18 -18 37 -34 43 -34 6 0 -8 18
-29 40 l-39 40 12 83 c7 46 12 104 12 129 0 100 73 323 123 376 26 28 89 62
114 62 15 0 18 -10 20 -75 2 -52 12 -101 33 -162 31 -92 38 -147 19 -159 -8
-4 -9 1 -4 16 5 15 4 20 -4 16 -6 -4 -11 -14 -11 -23 0 -11 -6 -14 -22 -8 -58
17 -62 16 -90 -25 -35 -51 -37 -76 -2 -29 14 19 29 40 33 46 5 10 14 10 37 1
17 -6 43 -8 57 -4 23 5 27 12 27 45 0 21 -14 77 -30 126 -23 65 -31 108 -33
166 -1 78 -2 79 -27 78 -14 0 -43 -9 -65 -18z"/>
<path d="M8660 3791 c-12 -13 -15 -50 -15 -201 0 -208 6 -233 70 -283 19 -15
41 -42 49 -60 22 -50 134 -197 151 -197 8 0 15 -4 15 -9 0 -10 26 -9 36 2 4 4
35 7 70 7 60 0 63 1 83 34 12 18 21 43 21 54 0 31 30 43 74 31 42 -12 92 7
138 50 39 37 35 51 -4 15 -59 -53 -92 -66 -138 -54 -48 13 -80 0 -80 -32 0
-11 -9 -36 -21 -54 -19 -31 -25 -34 -69 -34 -26 0 -62 -3 -79 -6 -28 -6 -36
-2 -69 34 -20 23 -57 73 -82 113 -25 39 -66 93 -92 119 -27 29 -51 64 -57 86
-6 22 -11 110 -11 196 0 131 3 159 16 173 21 20 23 17 37 -46 9 -37 19 -56 37
-67 l25 -16 -22 25 c-12 13 -27 48 -33 76 -12 56 -27 69 -50 44z"/>
<path d="M8920 3775 c0 -6 10 -26 22 -45 12 -19 23 -44 25 -55 2 -10 11 -30
19 -43 9 -13 13 -30 10 -38 -3 -8 -1 -14 4 -14 13 0 13 30 0 50 -6 9 -5 17 3
22 8 5 5 8 -8 9 l-20 0 20 9 c14 6 15 9 5 10 -8 0 -30 24 -47 53 -18 28 -33
47 -33 42z"/>
<path d="M8951 3765 c52 -79 90 -86 54 -10 -12 25 -14 26 -9 5 4 -14 9 -32 11
-40 3 -8 -12 3 -32 25 -21 22 -31 31 -24 20z"/>
<path d="M9196 3764 c-23 -23 -20 -30 4 -9 11 10 20 20 20 22 0 7 -9 2 -24
-13z"/>
<path d="M9206 3728 c-46 -53 -78 -107 -63 -104 35 8 67 28 95 60 44 50 40 59
-5 13 -36 -38 -73 -64 -73 -51 0 3 17 27 38 53 21 25 42 52 46 59 15 25 -3 11
-38 -30z"/>
<path d="M9420 3709 c11 -39 37 -79 51 -79 6 0 8 4 4 9 -9 15 13 23 34 11 24
-12 37 3 16 20 -27 22 -16 32 11 11 15 -12 33 -21 40 -21 33 0 20 -48 -41
-150 -38 -62 -50 -106 -60 -202 -4 -38 -11 -68 -16 -68 -5 0 -22 9 -37 20 -15
10 -40 20 -57 22 -26 3 -30 -1 -32 -22 -3 -25 -3 -25 7 -3 8 20 13 21 36 13
14 -6 36 -17 47 -25 46 -32 53 -22 65 81 10 85 16 104 55 172 48 83 75 154 61
159 -5 2 -24 13 -43 26 -19 12 -49 30 -65 40 -31 17 -31 17 -9 -1 12 -11 19
-22 16 -26 -3 -3 0 -12 7 -21 8 -9 9 -15 2 -15 -6 0 -16 8 -21 18 -10 16 -10
16 -11 0 0 -36 -21 -28 -41 16 -23 53 -32 60 -19 15z"/>
<path d="M9376 3686 c-8 -18 -19 -37 -25 -40 -6 -4 -11 -12 -11 -18 0 -6 6 -5
16 2 20 17 55 90 43 90 -5 0 -15 -15 -23 -34z"/>
<path d="M9327 3666 c-9 -13 -19 -37 -22 -52 -4 -20 2 -14 19 21 27 53 29 71
3 31z"/>
<path d="M9230 3648 c-11 -18 -20 -42 -20 -52 0 -11 -8 -29 -17 -40 -18 -21
-18 -21 5 -2 12 11 22 28 22 39 0 11 9 35 21 53 11 19 18 34 15 34 -4 0 -15
-15 -26 -32z"/>
<path d="M9268 3633 c-11 -27 -32 -61 -47 -77 -22 -24 -23 -27 -5 -18 29 15
40 30 63 90 26 65 17 69 -11 5z"/>
<path d="M8770 3665 c0 -5 18 -30 39 -55 33 -37 39 -41 38 -23 -1 12 -4 21 -8
20 -4 -1 -21 14 -38 33 -17 19 -30 31 -31 25z"/>
<path d="M9120 3660 c-9 -6 -10 -10 -3 -10 6 0 15 5 18 10 8 12 4 12 -15 0z"/>
<path d="M9632 3649 c13 -7 15 -15 9 -27 -18 -36 -121 -382 -121 -408 0 -17
51 -28 64 -13 8 8 6 10 -9 5 -11 -3 -26 -2 -34 3 -11 7 -6 32 23 137 20 71 48
164 63 206 25 75 26 76 52 67 130 -50 216 -151 307 -362 25 -56 53 -119 64
-139 10 -20 17 -49 16 -65 -2 -15 -5 -44 -6 -63 -3 -29 -4 -25 -10 20 l-7 55
-1 -57 c-2 -46 1 -58 13 -58 11 0 15 11 15 38 0 63 12 68 53 22 21 -22 37 -42
37 -45 0 -3 -15 -5 -34 -5 -32 0 -35 3 -39 33 -4 31 -4 31 -5 -5 l-2 -38 45 0
c59 0 59 16 -2 81 -25 27 -44 52 -41 55 3 3 13 -2 22 -11 14 -15 16 -15 16 -1
0 9 -7 16 -15 16 -8 0 -13 6 -11 13 1 6 1 9 -1 5 -3 -5 -9 -8 -14 -8 -6 0 -7
5 -3 12 5 7 3 8 -6 3 -10 -6 -12 -4 -7 8 3 10 3 17 -2 17 -10 0 -42 63 -80
157 -39 98 -113 215 -159 252 -43 33 -129 81 -147 81 -7 0 -18 7 -25 15 -7 8
-18 15 -24 15 -6 0 -3 -5 6 -11z"/>
<path d="M8910 3643 c0 -5 14 -22 30 -38 24 -23 30 -25 30 -11 0 9 -4 15 -9
11 -5 -3 -19 7 -30 21 -12 15 -21 22 -21 17z"/>
<path d="M8851 3635 c0 -15 30 -67 65 -114 24 -31 33 -37 38 -26 3 9 -1 30 -9
48 -15 31 -15 27 -1 -23 7 -23 6 -22 -12 5 -10 17 -26 36 -35 44 -10 7 -17 19
-17 25 0 7 -7 21 -15 32 -8 10 -14 15 -14 9z"/>
<path d="M8945 3630 c3 -5 8 -10 11 -10 2 0 4 5 4 10 0 6 -5 10 -11 10 -5 0
-7 -4 -4 -10z"/>
<path d="M8910 3600 c6 -11 16 -20 22 -20 6 0 3 9 -7 20 -10 11 -20 20 -22 20
-2 0 1 -9 7 -20z"/>
<path d="M9535 3450 c-29 -58 -41 -133 -27 -170 8 -22 10 -19 22 30 7 30 22
81 32 114 26 80 9 97 -27 26z m16 -31 c-11 -35 -25 -80 -30 -99 -10 -32 -11
-31 -7 20 4 48 43 156 53 146 2 -2 -5 -32 -16 -67z"/>
<path d="M8361 3308 c-6 -35 -13 -74 -16 -88 -5 -23 -5 -24 4 -3 12 27 34 144
28 150 -3 2 -10 -24 -16 -59z"/>
<path d="M8164 3289 c-19 -22 -19 -22 3 -10 24 12 39 31 25 31 -5 0 -17 -10
-28 -21z"/>
<path d="M9587 3228 c15 -20 24 -78 12 -78 -6 0 -8 -4 -4 -9 3 -5 1 -12 -5
-16 -5 -3 -10 -14 -9 -23 0 -14 2 -14 8 2 7 19 8 19 13 -2 4 -15 2 -22 -8 -22
-8 0 -14 -8 -13 -17 0 -12 2 -13 6 -5 4 10 8 10 19 1 7 -6 19 -9 26 -6 8 4 7
6 -4 6 -19 1 -24 16 -9 26 5 3 16 -2 24 -10 9 -8 22 -15 29 -15 10 0 9 3 -2
10 -10 6 -11 10 -2 10 6 0 21 -9 32 -20 12 -12 25 -18 30 -15 4 3 10 0 12 -7
3 -8 7 -6 11 5 3 9 2 17 -4 17 -6 0 -6 7 1 19 18 35 -16 72 -36 39 -5 -8 -10
-7 -18 4 -8 11 -18 13 -34 7 -30 -11 -18 -32 14 -26 15 3 24 0 24 -8 0 -10
-10 -11 -37 -5 -20 5 -40 7 -43 5 -3 -2 -7 25 -7 60 -1 67 -7 85 -25 85 -7 0
-7 -4 -1 -12z m100 -114 c-3 -3 -12 -4 -19 -1 -8 3 -5 6 6 6 11 1 17 -2 13 -5z
m58 -5 c4 -5 0 -18 -9 -28 -9 -10 -13 -21 -9 -25 4 -4 0 -4 -10 0 -20 7 -20 6
-7 38 10 27 24 33 35 15z"/>
<path d="M10110 3139 c-21 -7 -19 -8 10 -4 27 4 32 3 22 -7 -7 -7 -12 -26 -11
-42 0 -20 3 -25 7 -16 4 8 14 15 22 15 22 0 25 37 4 52 -20 15 -19 14 -54 2z
m60 -29 c0 -21 -15 -27 -25 -10 -7 12 2 30 16 30 5 0 9 -9 9 -20z"/>
<path d="M9504 3126 c-3 -8 -4 -29 -1 -48 3 -30 4 -30 5 9 1 23 8 44 15 46 9
4 9 6 -1 6 -7 1 -15 -5 -18 -13z"/>
<path d="M10024 3115 c5 -19 -4 -72 -18 -106 -5 -10 -2 -16 8 -16 8 0 13 3 11
6 -2 4 1 28 6 53 8 34 7 52 -1 65 -10 17 -11 16 -6 -2z"/>
<path d="M9523 3085 c0 -22 2 -30 4 -17 2 12 2 30 0 40 -3 9 -5 -1 -4 -23z"/>
<path d="M9556 3077 c3 -10 9 -15 12 -12 3 3 0 11 -7 18 -10 9 -11 8 -5 -6z"/>
<path d="M9770 3060 c0 -5 5 -10 11 -10 5 0 7 5 4 10 -3 6 -8 10 -11 10 -2 0
-4 -4 -4 -10z"/>
<path d="M8880 3014 c-14 -36 -12 -54 5 -54 8 0 15 5 15 10 0 6 11 8 25 4 15
-4 25 -2 25 5 0 6 8 11 18 10 10 0 12 -3 5 -6 -18 -7 -16 -33 2 -33 11 0 15
11 15 40 0 22 -3 40 -7 40 -14 0 -29 -15 -36 -34 -5 -11 -13 -16 -23 -12 -9 4
-24 1 -32 -6 -13 -11 -15 -10 -9 5 4 10 7 25 7 33 0 8 5 14 10 14 6 0 10 -7
10 -15 0 -8 4 -15 9 -15 5 0 7 9 4 20 -7 28 -32 25 -43 -6z m100 -4 c0 -5 -5
-10 -11 -10 -5 0 -7 5 -4 10 3 6 8 10 11 10 2 0 4 -4 4 -10z"/>
<path d="M10020 2970 c0 -5 -56 -11 -132 -13 l-133 -3 138 -2 c116 -2 137 0
137 13 0 8 -2 15 -5 15 -3 0 -5 -4 -5 -10z"/>
</g>
</svg>
