<?xml version="1.0" standalone="no"?>
<!DOCTYPE svg PUBLIC "-//W3C//DTD SVG 20010904//EN"
 "http://www.w3.org/TR/2001/REC-SVG-20010904/DTD/svg10.dtd">
<svg version="1.0" xmlns="http://www.w3.org/2000/svg"
 width="1800.000000pt" height="720.000000pt" viewBox="0 0 1800.000000 720.000000"
 preserveAspectRatio="xMidYMid meet">

<g transform="translate(0.000000,720.000000) scale(0.100000,-0.100000)"
fill="#000000" stroke="none">
<path d="M8862 4687 c-23 -25 -27 -73 -12 -132 5 -19 6 -5 3 36 -5 64 -5 66
27 92 17 15 25 27 18 27 -8 0 -24 -10 -36 -23z"/>
<path d="M8936 4670 c6 -41 32 -127 33 -105 0 6 -9 42 -19 80 -15 52 -18 59
-14 25z"/>
<path d="M9000 4648 c0 -9 10 -28 21 -43 18 -22 20 -29 8 -36 -11 -7 -11 -9 4
-9 24 0 21 23 -8 66 -14 20 -25 30 -25 22z"/>
<path d="M8816 4634 c-3 -9 -6 -42 -6 -75 0 -64 4 -67 58 -48 36 13 68 -1 82
-34 l9 -22 0 21 c2 42 -47 58 -113 39 l-28 -8 4 72 c2 39 3 71 2 71 -1 0 -5
-7 -8 -16z"/>
<path d="M8983 4605 c0 -22 2 -30 4 -17 2 12 2 30 0 40 -3 9 -5 -1 -4 -23z"/>
<path d="M8997 4563 c-4 -3 -7 -13 -7 -21 0 -12 9 -13 45 -9 37 6 47 4 52 -10
4 -10 -2 -23 -15 -34 -25 -20 -30 -52 -7 -43 11 5 12 0 6 -23 -16 -53 -23 -63
-42 -63 -10 0 -19 -7 -19 -15 0 -16 -39 -36 -52 -28 -17 9 -7 21 15 16 18 -4
19 -3 7 6 -23 16 -40 13 -40 -8 0 -27 28 -34 57 -15 18 11 28 13 36 5 14 -14
54 -14 62 -1 4 6 -5 7 -23 4 -19 -4 -32 -1 -41 10 -8 10 -9 16 -3 16 6 0 14
-4 17 -10 3 -5 11 -10 18 -10 8 0 8 3 0 11 -14 14 4 54 36 82 29 24 35 22 71
-20 17 -21 28 -32 24 -24 -5 11 -3 13 10 8 16 -6 15 -3 -3 26 l-20 33 40 11
c39 10 41 9 69 -25 45 -54 61 -156 39 -236 -13 -48 -51 -85 -121 -120 -29 -14
-46 -26 -38 -26 7 0 42 16 77 35 45 25 63 31 63 20 0 -7 -4 -17 -10 -20 -5 -3
-10 -14 -10 -23 0 -9 -10 -50 -22 -89 -21 -67 -25 -74 -58 -84 -19 -6 -47 -18
-61 -26 -24 -14 -30 -13 -95 20 -38 19 -76 43 -85 53 -23 27 -30 63 -13 72 10
6 5 12 -19 25 -17 10 -44 34 -59 54 l-28 36 30 19 c35 21 90 24 110 6 12 -11
12 -10 1 5 -7 9 -25 17 -38 17 -22 0 -24 3 -18 33 17 78 80 98 157 50 l43 -27
-58 -29 c-32 -16 -56 -31 -54 -33 7 -7 126 50 127 61 0 17 -96 65 -132 65 -47
0 -76 -24 -89 -74 -9 -35 -18 -46 -46 -60 -20 -9 -37 -16 -38 -14 -8 10 -45
103 -45 113 0 7 11 16 25 19 19 5 25 12 24 34 l-1 27 -7 -25 c-9 -34 -49 -41
-46 -8 4 36 4 38 15 38 5 0 34 16 65 35 84 54 67 82 -32 50 -20 -6 -23 -4 -23
19 0 22 6 27 45 37 25 6 44 13 42 16 -3 2 -25 -1 -51 -8 -43 -11 -46 -13 -46
-45 0 -37 14 -43 51 -23 11 5 30 9 42 7 18 -3 10 -12 -45 -47 -37 -23 -70 -51
-73 -61 -8 -26 10 -98 44 -171 32 -68 54 -99 85 -116 11 -6 20 -23 21 -42 2
-17 10 -47 20 -67 9 -20 18 -42 20 -48 1 -6 5 -18 8 -26 3 -8 8 -35 10 -60 2
-25 7 -54 11 -65 5 -11 -8 -3 -29 20 -30 32 -33 34 -16 9 41 -63 72 -71 52
-13 -6 18 -11 47 -11 65 0 32 1 33 27 23 35 -13 116 -16 166 -6 32 7 37 6 37
-11 0 -10 -11 -28 -24 -40 -14 -11 -30 -40 -36 -64 -7 -24 -18 -53 -25 -65
-16 -23 -10 -24 36 -5 24 10 89 75 89 90 0 3 -16 -11 -37 -31 -36 -38 -73 -64
-73 -51 0 3 17 27 38 53 52 62 62 85 18 39 -20 -21 -36 -31 -36 -24 0 8 14 28
30 46 19 20 30 43 30 61 0 27 -1 28 -27 18 -34 -13 -116 -16 -165 -6 -33 7
-78 51 -64 64 2 3 34 -11 70 -30 l66 -35 42 23 c24 12 54 26 68 30 37 11 80
44 80 62 0 11 -5 9 -18 -8 -13 -15 -21 -19 -26 -11 -4 7 0 15 8 18 9 3 14 10
11 15 -6 8 11 90 25 124 5 11 9 27 9 35 0 8 8 44 18 80 17 61 20 65 44 62 20
-2 28 2 32 18 7 28 -17 37 -40 14 -17 -17 -19 -15 -32 49 -10 48 -23 78 -46
104 -30 35 -34 37 -59 25 -15 -6 -36 -12 -46 -12 -21 0 -27 -24 -10 -35 6 -3
10 -11 10 -18 0 -6 -11 1 -25 16 -30 31 -52 34 -72 10 -13 -17 -14 -16 -8 5 5
16 2 22 -9 22 -13 0 -12 4 5 21 11 11 19 30 17 42 -3 20 -8 22 -50 19 -40 -2
-47 0 -42 13 6 16 2 20 -9 8z m407 -278 c-4 -8 -13 -15 -21 -15 -13 0 -13 3
-3 15 7 8 16 15 21 15 5 0 6 -7 3 -15z"/>
<path d="M9124 4533 c15 -4 16 -7 5 -14 -11 -7 -11 -9 4 -9 9 0 17 7 17 15 0
9 -9 15 -22 14 -20 -1 -20 -2 -4 -6z"/>
<path d="M8885 4348 c4 -9 3 -23 -1 -29 -5 -9 -10 -7 -15 7 -7 17 -8 17 -8 -3
-1 -14 5 -23 13 -23 19 0 31 39 16 54 -8 8 -10 7 -5 -6z"/>
<path d="M9034 4145 c-24 -18 -7 -19 26 0 16 9 19 14 9 15 -8 0 -24 -7 -35
-15z"/>
<path d="M8520 3849 c0 -6 -7 -8 -16 -5 -21 8 -100 -28 -136 -62 -53 -49 -128
-289 -128 -409 0 -39 -4 -63 -12 -67 -21 -9 153 3 197 14 l40 9 -46 -4 c-45
-4 -46 -4 -43 23 2 16 1 19 -2 7 -9 -31 -34 -45 -81 -45 l-43 0 0 64 c0 116
69 336 123 394 26 28 89 62 114 62 15 0 18 -10 20 -75 2 -52 12 -101 33 -162
31 -92 38 -147 19 -159 -8 -4 -9 1 -4 16 5 15 4 20 -4 16 -6 -4 -11 -14 -11
-23 0 -11 -6 -14 -22 -8 -58 17 -62 16 -90 -25 -35 -51 -37 -76 -2 -29 14 19
29 40 33 46 5 10 14 10 37 1 17 -6 43 -8 57 -4 24 6 27 11 27 46 0 21 -12 71
-26 111 -31 85 -48 199 -34 231 7 18 9 8 9 -39 1 -41 12 -96 31 -156 17 -52
30 -115 30 -141 0 -33 4 -46 14 -46 24 0 28 33 21 214 -5 125 -4 175 4 180 6
4 11 4 10 -1 -1 -4 -1 -10 0 -13 1 -3 3 -98 4 -212 1 -150 5 -210 15 -220 22
-22 13 -27 -55 -31 l-68 -3 70 -2 c52 -2 76 -8 95 -22 28 -22 48 -27 32 -7 -8
9 8 11 76 10 118 -4 612 -12 919 -15 139 -2 253 -1 253 2 0 10 -89 162 -114
195 -29 37 -120 101 -168 117 -18 6 -40 17 -49 24 -8 8 -20 14 -25 14 -5 0 -1
-5 8 -11 13 -7 15 -14 8 -27 -8 -15 -50 -150 -81 -259 -7 -24 -16 -43 -20 -43
-6 0 5 47 38 151 2 9 0 20 -6 23 -13 8 -50 -63 -68 -129 l-13 -50 5 54 c3 39
16 73 49 130 47 82 74 153 60 158 -5 2 -24 13 -43 26 -19 12 -49 30 -65 40
-31 17 -31 17 -9 -1 12 -11 19 -22 16 -26 -3 -3 0 -12 7 -21 8 -9 9 -15 2 -15
-6 0 -16 8 -21 18 -10 16 -10 16 -11 0 0 -36 -21 -28 -41 16 -23 53 -32 60
-19 15 11 -39 37 -79 51 -79 6 0 8 4 4 9 -9 15 13 23 34 11 24 -12 37 3 16 20
-8 7 -15 17 -15 23 0 5 8 3 18 -6 9 -8 29 -20 45 -26 15 -6 27 -14 27 -18 0
-7 -25 -56 -92 -184 -10 -20 -21 -58 -24 -85 l-6 -49 -362 3 c-198 2 -377 8
-397 13 -56 14 -63 38 -66 239 -2 96 0 181 5 188 16 23 39 2 48 -45 6 -32 17
-51 34 -61 l25 -16 -24 26 c-14 17 -25 44 -28 73 -4 33 -11 49 -27 57 -11 6
-34 22 -49 34 -21 17 -41 24 -73 24 -25 0 -44 -5 -44 -11z m95 -206 c4 -126 2
-194 -5 -198 -6 -4 -10 10 -10 36 0 23 -13 84 -30 136 -21 64 -30 113 -30 159
l0 65 35 -3 35 -3 5 -192z m1161 -79 c60 -40 100 -88 153 -185 l32 -59 -200 0
c-111 0 -201 3 -201 6 0 11 39 142 67 226 l26 77 33 -14 c19 -8 59 -31 90 -51z
m-225 -145 c-12 -34 -21 -68 -21 -75 0 -7 -5 -16 -12 -20 -17 -11 -2 67 24
121 12 24 23 43 25 41 3 -2 -5 -32 -16 -67z"/>
<path d="M8920 3775 c0 -6 10 -26 22 -45 12 -19 23 -44 25 -55 2 -10 11 -30
19 -43 9 -13 13 -30 10 -38 -3 -8 -1 -14 4 -14 13 0 13 30 0 50 -6 9 -5 17 3
22 8 5 5 8 -8 9 l-20 0 20 9 c14 6 15 9 5 10 -8 0 -30 24 -47 53 -18 28 -33
47 -33 42z"/>
<path d="M9376 3686 c-8 -18 -19 -37 -25 -40 -6 -4 -11 -12 -11 -18 0 -6 6 -5
16 2 20 17 55 90 43 90 -5 0 -15 -15 -23 -34z"/>
<path d="M9327 3666 c-9 -13 -19 -37 -22 -52 -4 -20 2 -14 19 21 27 53 29 71
3 31z"/>
<path d="M9230 3648 c-11 -18 -20 -42 -20 -52 0 -11 -8 -29 -17 -40 -18 -21
-18 -21 5 -2 12 11 22 28 22 39 0 11 9 35 21 53 11 19 18 34 15 34 -4 0 -15
-15 -26 -32z"/>
<path d="M9268 3633 c-11 -27 -32 -61 -47 -77 -22 -24 -23 -27 -5 -18 29 15
40 30 63 90 26 65 17 69 -11 5z"/>
<path d="M8770 3665 c0 -5 18 -30 39 -55 33 -37 39 -41 38 -23 -1 12 -4 21 -8
20 -4 -1 -21 14 -38 33 -17 19 -30 31 -31 25z"/>
<path d="M9120 3660 c-9 -6 -10 -10 -3 -10 6 0 15 5 18 10 8 12 4 12 -15 0z"/>
<path d="M8910 3643 c0 -5 14 -22 30 -38 24 -23 30 -25 30 -11 0 9 -4 15 -9
11 -5 -3 -19 7 -30 21 -12 15 -21 22 -21 17z"/>
<path d="M8851 3635 c0 -15 30 -67 65 -114 24 -31 33 -37 38 -26 3 9 -1 30 -9
48 -15 31 -15 27 -1 -23 7 -23 6 -22 -12 5 -10 17 -26 36 -35 44 -10 7 -17 19
-17 25 0 7 -7 21 -15 32 -8 10 -14 15 -14 9z"/>
<path d="M8945 3630 c3 -5 8 -10 11 -10 2 0 4 5 4 10 0 6 -5 10 -11 10 -5 0
-7 -4 -4 -10z"/>
<path d="M8910 3600 c6 -11 16 -20 22 -20 6 0 3 9 -7 20 -10 11 -20 20 -22 20
-2 0 1 -9 7 -20z"/>
<path d="M8483 3333 c9 -2 25 -2 35 0 9 3 1 5 -18 5 -19 0 -27 -2 -17 -5z"/>
</g>
</svg>
